<svg id="Layer_1" data-name="Layer 1" xmlns="http://www.w3.org/2000/svg" viewBox="0 0 170 152.58"><defs><style>.cls-1,.cls-2,.cls-3,.cls-4,.cls-5{fill:none;stroke-width:2px;}.cls-1,.cls-2,.cls-3{stroke:#7a38a0;}.cls-1,.cls-3,.cls-4,.cls-5{stroke-linejoin:round;}.cls-2{stroke-miterlimit:10;}.cls-3,.cls-5{stroke-linecap:round;}.cls-4,.cls-5{stroke:#6fcfee;}</style></defs><path class="cls-1" d="M95.5,112.04a2.494,2.494,0,0,0-.01,1.951H58.1V104.27a11.694,11.694,0,0,1,.88-4.48,11.846,11.846,0,0,1,10.97-7.37H79a6.47,6.47,0,0,0,6.43,5.75,6.493,6.493,0,0,0,6.43-5.75h9.04a11.916,11.916,0,0,1,2.76.321Z"/><path class="cls-1" d="M91.9,87.7v4a5.687,5.687,0,0,1-.04.72,6.47,6.47,0,0,1-10.62,4.21A6.487,6.487,0,0,1,79,92.419a5.687,5.687,0,0,1-.04-.72v-4a19.395,19.395,0,0,0,12.94,0Z"/><path class="cls-1" d="M104.841,69.4a19.242,19.242,0,0,1-2.28,9.13,19.414,19.414,0,0,1-9.93,8.9c-.24.1-.48.19-.73.27a19.395,19.395,0,0,1-12.94,0c-.25-.08-.49-.17-.73-.27a19.414,19.414,0,0,1-9.93-8.9,19.242,19.242,0,0,1-2.28-9.13,18.169,18.169,0,0,1,.1-1.97l5.27-5.27,2.41-2.4,2.19-2.19a15.931,15.931,0,0,0,18.87-.009l9.88,9.879A18.245,18.245,0,0,1,104.841,69.4Z"/><path class="cls-2" d="M104.741,67.439l-9.88-9.879a15.931,15.931,0,0,1-18.87.009l-2.19,2.19-2.41,2.4-5.27,5.27c.04-.42.09-.83.16-1.24h-.04a19.055,19.055,0,0,1,2.06-5.97.035.035,0,0,1,.01-.02,19.411,19.411,0,0,1,17.08-10.21,1.055,1.055,0,0,1,.25.02,19.2,19.2,0,0,1,12.29,4.59,18.355,18.355,0,0,1,1.56,1.481,19.327,19.327,0,0,1,4.17,6.73v.009a19.43,19.43,0,0,1,.95,3.82c.01,0,.02.01.03.01C104.681,66.909,104.711,67.179,104.741,67.439Z"/><path class="cls-1" d="M93.261,81.389V87.2c-.44.2-.9.38-1.36.54a19.411,19.411,0,0,1-12.94,0c-.46-.16-.92-.34-1.36-.54v-5.81a7.83,7.83,0,1,1,15.66,0Z"/><line class="cls-3" x1="81.452" y1="81.199" x2="89.409" y2="81.199"/><path class="cls-4" d="M134.031,96.52l-11.42,26.991a2.532,2.532,0,0,1-3.31,1.339l-22.46-9.5a2.468,2.468,0,0,1-1.35-1.359,2.494,2.494,0,0,1,.01-1.951l8.16-19.3,3.25-7.69a2.527,2.527,0,0,1,3.32-1.341l1.74.74a4.457,4.457,0,0,0-.92,1.38l-.4.951,19.53,8.27.41-.961a4.449,4.449,0,0,0,.35-1.62l1.74.74A2.533,2.533,0,0,1,134.031,96.52Z"/><line class="cls-5" x1="109.081" y1="93.779" x2="126.256" y2="101.043"/><line class="cls-5" x1="106.926" y1="98.875" x2="124.1" y2="106.139"/><line class="cls-5" x1="104.771" y1="103.971" x2="121.945" y2="111.235"/><line class="cls-5" x1="102.615" y1="109.067" x2="116.181" y2="114.804"/><path class="cls-5" d="M130.937,92.468a4.562,4.562,0,0,0-2.784-4.361l-.706-.3a5.266,5.266,0,0,0-9.7-4.1l-.714-.3a4.553,4.553,0,0,0-5.061,1.043,4.394,4.394,0,0,0-.924,1.384l-.4.952,19.538,8.264.4-.952A4.366,4.366,0,0,0,130.937,92.468ZM121.6,88.116a2.565,2.565,0,1,1,3.364-1.358A2.56,2.56,0,0,1,121.6,88.116Z"/><path class="cls-5" d="M124.964,86.758a2.569,2.569,0,1,1-1.366-3.367A2.566,2.566,0,0,1,124.964,86.758Z"/></svg>