<svg id="Layer_1" data-name="Layer 1" xmlns="http://www.w3.org/2000/svg" viewBox="0 0 170 152.58"><defs><style>.cls-1,.cls-2,.cls-3{fill:none;}.cls-1{stroke:#7a38a0;stroke-linejoin:round;}.cls-1,.cls-2{stroke-width:2px;}.cls-2,.cls-3{stroke:#6fcfee;stroke-miterlimit:10;}.cls-3{stroke-width:0.75px;}</style></defs><path class="cls-1" d="M101.609,107.029a10,10,0,0,0,2.85,7H58.119v-9.72a11.849,11.849,0,0,1,11.85-11.85h9.06a6.459,6.459,0,0,0,12.84,0h9.06a11.805,11.805,0,0,1,9.38,4.62A10.038,10.038,0,0,0,101.609,107.029Z"/><path class="cls-1" d="M91.919,87.739v4a2.715,2.715,0,0,1-.01.29c-.01.14-.02.29-.04.43a6.459,6.459,0,0,1-12.84,0c-.02-.14-.03-.29-.04-.43a2.715,2.715,0,0,1-.01-.29v-4a19.411,19.411,0,0,0,12.94,0Z"/><path class="cls-2" d="M121.689,107.029a10.039,10.039,0,1,1-10.04-10.04A10.04,10.04,0,0,1,121.689,107.029Z"/><path class="cls-3" d="M112.191,112.161v1.282h-.671v-1.268a3.283,3.283,0,0,1-3.177-2.024l.655-.37a2.54,2.54,0,0,0,2.522,1.667v-4.233c-1.452-.513-2.707-1.039-2.707-2.736a2.664,2.664,0,0,1,2.707-2.579v-1.282h.671V101.9a2.971,2.971,0,0,1,2.523,1.8l-.643.356a2.2,2.2,0,0,0-1.88-1.411v4.048c1.453.512,2.764,1.082,2.764,2.779A2.762,2.762,0,0,1,112.191,112.161Zm-.671-5.715v-3.819a1.927,1.927,0,0,0-1.951,1.852C109.569,105.605,110.4,106.033,111.52,106.446Zm2.666,3.022c0-1.141-.828-1.611-2-2.024v3.975A1.978,1.978,0,0,0,114.186,109.468Z"/><path class="cls-1" d="M107.63,65a14.289,14.289,0,0,1-3.85,1.79c-5.53,1.71-12.67.69-19.1-3.23a26.209,26.209,0,0,1-10.08-10.8,20.226,20.226,0,0,1-.82-2,24.374,24.374,0,0,1-.51,2.869,27.825,27.825,0,0,1-1.33,4.26,27.068,27.068,0,0,1-6.72,9.92,21.367,21.367,0,0,1-4.14,3c-.04-.45-.05-.91-.05-1.37a20.873,20.873,0,0,1,.12-2.389c.05-.511.11-1,.19-1.5h-.05a23.5,23.5,0,0,1,8.08-14.1,23.22,23.22,0,0,1,3.85-2.64c.24-.14.48-.27.73-.39a21.685,21.685,0,0,1,2.46-1.07,23.4,23.4,0,0,1,8.1-1.44,1.464,1.464,0,0,1,.3.02,22.6,22.6,0,0,1,7.86,1.44,23.048,23.048,0,0,1,3.72,1.76,22.328,22.328,0,0,1,3.33,2.37A23.344,23.344,0,0,1,107.63,65Z"/><path class="cls-1" d="M104.864,69.44A19.41,19.41,0,0,1,93.284,87.2c-.44.2-.9.38-1.36.541a19.428,19.428,0,0,1-12.94,0c-.46-.161-.92-.341-1.36-.541a19.4,19.4,0,0,1-11.58-17.76c0-.55.02-1.1.07-1.63a27.068,27.068,0,0,0,6.72-9.92,27.825,27.825,0,0,0,1.33-4.26,24.374,24.374,0,0,0,.51-2.869,20.226,20.226,0,0,0,.82,2,26.209,26.209,0,0,0,10.08,10.8c6.43,3.92,13.57,4.94,19.1,3.23.04.23.06.46.09.69A18.258,18.258,0,0,1,104.864,69.44Z"/></svg>