<svg id="Layer_1" data-name="Layer 1" xmlns="http://www.w3.org/2000/svg" viewBox="0 0 170 152.58"><defs><style>.cls-1,.cls-2,.cls-3,.cls-4{fill:none;stroke-width:2px;}.cls-1,.cls-2{stroke:#7a38a0;}.cls-1,.cls-3{stroke-miterlimit:10;}.cls-2,.cls-4{stroke-linejoin:round;}.cls-3{stroke:#6fcfee;}.cls-4{stroke:#4f2265;}</style></defs><path class="cls-1" d="M108.7,75.17l2.51,8.94a1,1,0,0,0,1.23.7l.35-.1v3.96H91.93V87.56a19.425,19.425,0,0,0,12.94-18.3,20.972,20.972,0,0,0-.19-2.76c-.01-.01-.03-.01-.04-.02v.02a42.447,42.447,0,0,1-5.3-2.6,39.967,39.967,0,0,1-7.87-5.85,23.5,23.5,0,0,1-2.96,2.21s-.01-.01-.01,0c-.55.36-1.12.7-1.72,1.02-.01-.01-.01,0-.01,0A39.622,39.622,0,0,1,76.1,65.13h-.03c-.74.16-1.49.3-2.22.42-.37.06-.73.11-1.1.16q-1.185.165-2.34.24c-.27.03-.53.04-.79.06-.32.02-.63.03-.95.04-.37.01-.74.02-1.11.02-.42,0-.84-.01-1.25-.02a19.867,19.867,0,0,0-.26,3.21,19.425,19.425,0,0,0,12.94,18.3v1.11H58.13V70.8a27.33,27.33,0,0,1,54.66,0v2.19l-3.39.95A1.011,1.011,0,0,0,108.7,75.17Z"/><path class="cls-2" d="M112.79,104.13v9.72H58.13v-9.72A11.858,11.858,0,0,1,69.98,92.27h9.05a6.469,6.469,0,0,0,12.86,0h9.05A11.858,11.858,0,0,1,112.79,104.13Z"/><path class="cls-2" d="M91.93,87.56v3.99a5.687,5.687,0,0,1-.04.72,6.469,6.469,0,0,1-12.86,0,5.687,5.687,0,0,1-.04-.72V87.56a19.411,19.411,0,0,0,12.94,0Z"/><path class="cls-3" d="M122.35,82.03v.01l-3.06.85-4.75,1.33-1.75.49-.35.1a1,1,0,0,1-1.23-.7l-2.51-8.94a1.011,1.011,0,0,1,.7-1.23l3.39-.95,6.51-1.82,3.04,10.86Z"/><polygon class="cls-3" points="122.35 82.03 122.34 82.03 119.3 71.17 119.31 71.17 122.35 82.03"/><path class="cls-3" d="M143.24,83.76l-20.89-1.73h-.01L119.3,71.17h.01l16.96-12.32a.811.811,0,0,1,1.26.44l1.45,5.18,3.66,13.09,1.45,5.18A.806.806,0,0,1,143.24,83.76Z"/><path class="cls-3" d="M120.73,91.78l-2.82.79a.991.991,0,0,1-1.23-.7l-2.14-7.65,4.75-1.33,2.14,7.65A1,1,0,0,1,120.73,91.78Z"/><path class="cls-3" d="M145.825,69.612a7.039,7.039,0,0,1-3.184,7.945l-3.66-13.085A7.031,7.031,0,0,1,145.825,69.612Z"/><path class="cls-2" d="M104.87,69.26a19.41,19.41,0,1,1-38.82,0,19.867,19.867,0,0,1,.26-3.21c.41.01.83.02,1.25.02.37,0,.74-.01,1.11-.02.32-.01.63-.02.95-.04.26-.02.52-.03.79-.06q1.155-.075,2.34-.24c.36-.04.73-.1,1.1-.16q1.095-.18,2.22-.42h.03a39.622,39.622,0,0,0,10.67-3.85s0-.01.01,0c.6-.32,1.17-.66,1.72-1.02,0-.01.01,0,.01,0a23.5,23.5,0,0,0,2.96-2.21,39.967,39.967,0,0,0,7.87,5.85,42.447,42.447,0,0,0,5.3,2.6v-.02c.01.01.03.01.04.02A20.972,20.972,0,0,1,104.87,69.26Z"/><path class="cls-4" d="M104.64,66.48v.02a42.447,42.447,0,0,1-5.3-2.6,39.967,39.967,0,0,1-7.87-5.85c.01,0,.01,0,.02-.01a40.375,40.375,0,0,0,7.88,5.86A41.917,41.917,0,0,0,104.64,66.48Z"/><path class="cls-2" d="M104.64,66.48v.02a42.447,42.447,0,0,1-5.3-2.6,39.967,39.967,0,0,1-7.87-5.85l-.01-.01a23.646,23.646,0,0,1-2.95,2.22s-.01-.01-.01,0c-.55.34-1.12.68-1.72,1.02-.01-.01-.01,0-.01,0a40.184,40.184,0,0,1-10.7,3.85c-.74.16-1.49.3-2.22.42-.37.06-.73.11-1.1.16q-1.185.165-2.34.24c-.27.03-.53.04-.79.06-.32.02-.63.03-.95.04-.37.01-.74.02-1.11.02-.42,0-.84-.01-1.25-.02h-.03a19.435,19.435,0,0,1,19.15-16.2,1.848,1.848,0,0,1,.24.01,19.2,19.2,0,0,1,9.55,2.64A19.485,19.485,0,0,1,104.64,66.48Z"/></svg>