<svg id="Layer_1" data-name="Layer 1" xmlns="http://www.w3.org/2000/svg" viewBox="0 0 170 152.58"><defs><style>.cls-1,.cls-2,.cls-3{fill:none;stroke-width:2px;}.cls-1{stroke:#4f2265;}.cls-1,.cls-2{stroke-linejoin:round;}.cls-2{stroke:#7a38a0;}.cls-3{stroke:#6fcfee;stroke-miterlimit:10;}</style></defs><path class="cls-1" d="M98.88,111.025a3.1,3.1,0,0,1-.38-.24v-.1A3.06,3.06,0,0,0,98.88,111.025Z"/><path class="cls-2" d="M110.13,96.935H98.89a1.385,1.385,0,0,0-1.42,1.34v10.48a2.55,2.55,0,0,0,1.03,2.03v3.26H58.061v-9.72a11.852,11.852,0,0,1,11.85-11.86H78.95a6.475,6.475,0,0,0,12.871,0h9.04a11.86,11.86,0,0,1,8.379,3.46A10.275,10.275,0,0,1,110.13,96.935Z"/><path class="cls-2" d="M91.861,87.755v3.99a5.687,5.687,0,0,1-.04.72,6.475,6.475,0,0,1-12.871,0,5.88,5.88,0,0,1-.039-.72v-3.99a19.44,19.44,0,0,0,12.95,0Z"/><path class="cls-2" d="M104.8,69.455a19.411,19.411,0,1,1-38.821,0,19.98,19.98,0,0,1,.26-3.21,40.1,40.1,0,0,0,9.76-.92h.031A39.6,39.6,0,0,0,86.7,61.475s0-.01.01,0c.6-.32,1.17-.66,1.721-1.02,0-.01.01,0,.01,0a23.5,23.5,0,0,0,2.96-2.21A39.959,39.959,0,0,0,99.27,64.1a42.527,42.527,0,0,0,5.3,2.6v-.01c.01,0,.02.01.03.01A19.534,19.534,0,0,1,104.8,69.455Z"/><path class="cls-1" d="M104.571,66.685v.01a42.527,42.527,0,0,1-5.3-2.6,39.959,39.959,0,0,1-7.869-5.85c.01,0,.01,0,.02-.01A40.046,40.046,0,0,0,99.3,64.1,43.436,43.436,0,0,0,104.571,66.685Z"/><path class="cls-2" d="M104.571,66.685v.01a42.527,42.527,0,0,1-5.3-2.6,39.959,39.959,0,0,1-7.869-5.85l-.011-.01a23.559,23.559,0,0,1-2.949,2.22s-.01-.01-.01,0c-.551.34-1.12.68-1.721,1.02-.01-.01-.01,0-.01,0A40.3,40.3,0,0,1,76,65.325a40.1,40.1,0,0,1-9.76.92H66.2a19.446,19.446,0,0,1,19.161-16.2,2.017,2.017,0,0,1,.24.01,19.232,19.232,0,0,1,9.55,2.64A19.431,19.431,0,0,1,104.571,66.685Z"/><path class="cls-3" d="M125.9,95.465v1.47H109.24v-1.47a3,3,0,0,1,3-3H122.9A3.009,3.009,0,0,1,125.9,95.465Z"/><path class="cls-3" d="M136.63,110.785v11.04a2.122,2.122,0,0,1-1.769,2.34h-34.58a2.123,2.123,0,0,1-1.781-2.34v-11.04a3.1,3.1,0,0,0,.38.24,2.263,2.263,0,0,0,1.37.48h15.89v.79a1.425,1.425,0,1,0,2.85,0v-.79h15.9a2.231,2.231,0,0,0,1.36-.48A3.03,3.03,0,0,0,136.63,110.785Z"/><path class="cls-3" d="M98.88,111.025a3.1,3.1,0,0,1-.38-.24v-.1A3.06,3.06,0,0,0,98.88,111.025Z"/><path class="cls-3" d="M136.63,110.685v.1a3.03,3.03,0,0,1-.38.24A2.99,2.99,0,0,0,136.63,110.685Z"/><path class="cls-3" d="M137.661,98.275v10.48a2.549,2.549,0,0,1-1.031,2.03v-.1a2.99,2.99,0,0,1-.38.34,2.231,2.231,0,0,1-1.36.48h-15.9v-.66a1.425,1.425,0,0,0-2.85,0v.66H100.25a2.263,2.263,0,0,1-1.37-.48,3.06,3.06,0,0,1-.38-.34v.1a2.55,2.55,0,0,1-1.03-2.03V98.275a1.385,1.385,0,0,1,1.42-1.34h37.35A1.378,1.378,0,0,1,137.661,98.275Z"/><path class="cls-3" d="M98.88,111.025a3.1,3.1,0,0,1-.38-.24v-.1A3.06,3.06,0,0,0,98.88,111.025Z"/><path class="cls-3" d="M136.63,110.685v.1a3.03,3.03,0,0,1-.38.24A2.99,2.99,0,0,0,136.63,110.685Z"/><path class="cls-3" d="M118.99,110.845v1.45a1.425,1.425,0,1,1-2.85,0v-1.45a1.425,1.425,0,0,1,2.85,0Z"/></svg>