<svg id="Layer_1" data-name="Layer 1" xmlns="http://www.w3.org/2000/svg" viewBox="0 0 170 152.58"><defs><style>.cls-1,.cls-2,.cls-3{fill:none;stroke-width:2px;}.cls-1{stroke:#7a38a0;}.cls-1,.cls-3{stroke-linejoin:round;}.cls-2,.cls-3{stroke:#6fcfee;}.cls-2{stroke-miterlimit:10;}</style></defs><path class="cls-1" d="M112.817,104.339v9.72H58.157v-9.72a11.852,11.852,0,0,1,11.86-11.85h9.04a6.47,6.47,0,0,0,12.86,0h9.05a11.752,11.752,0,0,1,7.67,2.82l-4.75,7.79a1.359,1.359,0,0,0,.45,1.86l.64.38a1.35,1.35,0,0,0,1.86-.45l4.17-6.85A11.8,11.8,0,0,1,112.817,104.339Z"/><path class="cls-1" d="M91.957,87.949v3.82a5.792,5.792,0,0,1-.04.72,6.47,6.47,0,0,1-12.86,0,5.792,5.792,0,0,1-.04-.72v-3.82a19.411,19.411,0,0,0,12.94,0Z"/><path class="cls-1" d="M104.9,69.649a19.405,19.405,0,1,1-38.81,0,20.976,20.976,0,0,1,.25-3.21h-.03c.02-.15.05-.3.08-.44,7.19-.02,13.46-2.89,16.85-7.18a12.378,12.378,0,0,0,2.29-4.42,12.269,12.269,0,0,0,2.28,4.4c3.36,4.27,9.57,7.15,16.72,7.2.06.29.11.58.15.88.01,0,.02.01.03.01A19.287,19.287,0,0,1,104.9,69.649Z"/><path class="cls-1" d="M99.707,46.449a11.113,11.113,0,0,1-.86,4.3,20.178,20.178,0,0,0-1.75-1.14,22.385,22.385,0,0,0-10.79-3.12c-.18-.01-.35-.01-.53-.01a.893.893,0,0,0-.29-.03c-.25,0-.5,0-.75.01a22.82,22.82,0,0,0-12.61,4.29,11.113,11.113,0,0,1-.86-4.3c0-6.91,6.37-12.52,14.22-12.52S99.707,39.539,99.707,46.449Z"/><path class="cls-1" d="M108.2,65.759a24.55,24.55,0,0,1-3.47.24h-.2c-7.15-.05-13.36-2.93-16.72-7.2a12.269,12.269,0,0,1-2.28-4.4,12.378,12.378,0,0,1-2.29,4.42c-3.39,4.29-9.66,7.16-16.85,7.18h-.06a25.373,25.373,0,0,1-3.52-.24.34.34,0,0,1,.01-.1h-.03a23.1,23.1,0,0,1,21.95-19.2c.25-.01.5-.01.75-.01a.893.893,0,0,1,.29.03c.18,0,.35,0,.53.01a22.385,22.385,0,0,1,10.79,3.12,20.178,20.178,0,0,1,1.75,1.14A22.988,22.988,0,0,1,108.2,65.759Z"/><circle class="cls-2" cx="119.679" cy="80.486" r="9.913"/><path class="cls-3" d="M114.707,91.959l-3.7,6.08-4.17,6.85a1.35,1.35,0,0,1-1.86.45l-.64-.38a1.359,1.359,0,0,1-.45-1.86l4.75-7.79,3.13-5.14a1.363,1.363,0,0,1,.97-.64l.47-.06a1.34,1.34,0,0,1,1.46.89l.16.45A1.335,1.335,0,0,1,114.707,91.959Z"/></svg>