<svg id="Layer_1" data-name="Layer 1" xmlns="http://www.w3.org/2000/svg" viewBox="0 0 170 152.58"><defs><style>.cls-1,.cls-2,.cls-3,.cls-4{fill:none;stroke-width:2px;}.cls-1{stroke:#7a38a0;}.cls-1,.cls-2,.cls-4{stroke-linejoin:round;}.cls-2{stroke:#4f2265;}.cls-3,.cls-4{stroke:#6fcfee;}.cls-3{stroke-miterlimit:10;}.cls-4{stroke-linecap:round;}</style></defs><path class="cls-1" d="M100.925,92.27h-9.05a6.469,6.469,0,0,1-12.86,0h-9.05a11.858,11.858,0,0,0-11.85,11.86v9.72h54.66v-9.72A11.858,11.858,0,0,0,100.925,92.27ZM98.9,106.7a3.925,3.925,0,1,1,3.93-3.92A3.922,3.922,0,0,1,98.9,106.7Z"/><path class="cls-2" d="M102.825,102.78a3.93,3.93,0,1,1-3.93-3.93A3.922,3.922,0,0,1,102.825,102.78Z"/><path class="cls-3" d="M78.935,87.55a12.807,12.807,0,0,0-4.83,4.72,11.584,11.584,0,0,0-1.54,5.19c-.01.2-.02.4-.02.61"/><path class="cls-3" d="M98.9,98.07a11.522,11.522,0,0,0-1.56-5.8,12.252,12.252,0,0,0-2.3-2.88,13.188,13.188,0,0,0-2.75-1.96"/><path class="cls-3" d="M102.825,102.78a3.93,3.93,0,1,1-3.93-3.93A3.922,3.922,0,0,1,102.825,102.78Z"/><path class="cls-4" d="M68.911,109.664H67.3V102.7a5.247,5.247,0,0,1,5.248-5.247h0A5.247,5.247,0,0,1,77.8,102.7v6.961H76.231"/><path class="cls-1" d="M91.915,87.55v4a5.687,5.687,0,0,1-.04.72,6.469,6.469,0,0,1-12.86,0,5.687,5.687,0,0,1-.04-.72V87.56a19.241,19.241,0,0,0,6.47,1.11A19,19,0,0,0,91.915,87.55Z"/><path class="cls-1" d="M104.855,69.26a19.212,19.212,0,0,1-3.56,11.19,19.474,19.474,0,0,1-9.01,6.98c-.12.04-.24.09-.37.12a19,19,0,0,1-6.47,1.12,19.241,19.241,0,0,1-6.47-1.11c-.01,0-.02-.01-.04-.01a19.524,19.524,0,0,1-10.65-9.22v-.01a19.051,19.051,0,0,1-2.22-8.12q-.03-.42-.03-.84v-.1a19.017,19.017,0,0,1,.15-2.41v-.01c.03-.27.07-.53.11-.79a38.664,38.664,0,0,0,6.44-.34c1.11-.14,2.23-.34,3.36-.58q1.8-.375,3.48-.9c.38-.11.75-.23,1.12-.35.74-.24,1.46-.51,2.15-.78a34.481,34.481,0,0,0,3.91-1.82c.6-.33,1.18-.67,1.73-1.02h.01a23.5,23.5,0,0,0,2.96-2.21,40.265,40.265,0,0,0,7.87,5.85,42.447,42.447,0,0,0,5.3,2.6v-.02c.01.01.03.01.04.02.04.25.07.5.09.76A19,19,0,0,1,104.855,69.26Z"/><path class="cls-2" d="M104.625,66.48v.02a42.447,42.447,0,0,1-5.3-2.6,40.265,40.265,0,0,1-7.87-5.85c.01,0,.01,0,.02-.01a40.375,40.375,0,0,0,7.88,5.86A41.917,41.917,0,0,0,104.625,66.48Z"/><path class="cls-1" d="M114.855,70.45a5.534,5.534,0,0,1-4.67,5.48v.08a5.561,5.561,0,0,1-5.56,5.56,5.41,5.41,0,0,1-3.33-1.12,19.212,19.212,0,0,0,3.56-11.19,19,19,0,0,0-.1-2c-.02-.26-.05-.51-.09-.76-.01-.01-.03-.01-.04-.02a41.917,41.917,0,0,1-5.27-2.58,40.375,40.375,0,0,1-7.88-5.86c-.01.01-.01.01-.02.01l-.01-.01a25.224,25.224,0,0,1-2.95,2.22h-.01c-.55.35-1.13.69-1.73,1.02a34.481,34.481,0,0,1-3.91,1.82c-.69.27-1.41.54-2.15.78-.37.12-.74.24-1.12.35-1.13.34-2.31.64-3.52.9-1.12.24-2.23.43-3.32.58a38.664,38.664,0,0,1-6.44.34c-.04.26-.08.52-.11.79v.01a19.017,19.017,0,0,0-.15,2.41v.1q0,.42.03.84a19.051,19.051,0,0,0,2.22,8.12v.01a5.565,5.565,0,0,1-10.17-3.12,5.424,5.424,0,0,1,.49-2.28,5.546,5.546,0,0,1,.19-10.35,5.551,5.551,0,0,1,3.14-8.63,5.491,5.491,0,0,1-.2-1.47,5.561,5.561,0,0,1,5.56-5.56,5.5,5.5,0,0,1,1.16.12,5.555,5.555,0,0,1,5.55-5.3,5.461,5.461,0,0,1,3.42,1.19,5.55,5.55,0,0,1,10.42-.98,5.5,5.5,0,0,1,4.07-1.78,5.568,5.568,0,0,1,5.45,4.44,5.464,5.464,0,0,1,3.16-.99,5.561,5.561,0,0,1,5.56,5.56,5.379,5.379,0,0,1-.12,1.14,5.543,5.543,0,0,1,3.33,5.09,5.041,5.041,0,0,1-.09.96h.09a5.558,5.558,0,0,1,3.57,9.82A5.534,5.534,0,0,1,114.855,70.45Z"/></svg>