<svg id="Layer_1" data-name="Layer 1" xmlns="http://www.w3.org/2000/svg" viewBox="0 0 170 152.58"><defs><style>.cls-1{fill:#fff;stroke:#6fcfee;stroke-linecap:round;stroke-width:2px;}.cls-1,.cls-2{stroke-linejoin:round;}.cls-2{fill:none;stroke:#4f2265;stroke-width:1.5px;}</style></defs><path class="cls-1" d="M68.556,44.1a31.5,31.5,0,0,1,36.553,25.464"/><path class="cls-1" d="M72.938,105.583A31.5,31.5,0,0,1,42.55,73.009"/><path class="cls-2" d="M64.6,62.669v3.852H42.623V62.669a4.824,4.824,0,0,1,4.824-4.824h3.58a2.6,2.6,0,0,0,5.17,0h3.58A4.824,4.824,0,0,1,64.6,62.669Z"/><path class="cls-2" d="M56.215,55.948v1.608a2.253,2.253,0,0,1-.018.289,2.6,2.6,0,0,1-5.17,0,2.253,2.253,0,0,1-.018-.289V55.948a7.819,7.819,0,0,0,5.206,0Z"/><path class="cls-2" d="M61.417,48.592a7.806,7.806,0,0,1-7.808,7.8,7.734,7.734,0,0,1-2.6-.446,7.812,7.812,0,0,1-5.2-7.356,7.937,7.937,0,0,1,.1-1.3,16.032,16.032,0,0,0,3.939-.364,13.9,13.9,0,0,0,6.183-2.851A16.592,16.592,0,0,0,59.2,46.434a18,18,0,0,0,2.134,1.047A7.8,7.8,0,0,1,61.417,48.592Z"/><path class="cls-2" d="M61.325,47.481a17.181,17.181,0,0,1-2.133-1.046,16.338,16.338,0,0,1-3.168-2.357,13.864,13.864,0,0,1-6.187,2.851,16.235,16.235,0,0,1-3.938.37,7.817,7.817,0,0,1,7.7-6.514.657.657,0,0,1,.1.005,7.7,7.7,0,0,1,3.84,1.061A7.821,7.821,0,0,1,61.325,47.481Z"/><path class="cls-2" d="M115.133,101.448V105.3H93.155v-3.851a4.824,4.824,0,0,1,4.824-4.824h3.58a2.6,2.6,0,0,0,5.17,0h3.58A4.824,4.824,0,0,1,115.133,101.448Z"/><path class="cls-2" d="M106.745,94.73v1.607c0,.1-.008.2-.016.289a2.6,2.6,0,0,1-5.169,0,1.816,1.816,0,0,1-.015-.289V94.73a7.868,7.868,0,0,0,5.2,0Z"/><path class="cls-2" d="M107.6,83.76c.122.1.252.2.373.289-.129-.091-.259-.19-.388-.289-.114-.091-.228-.19-.343-.289Z"/><path class="cls-2" d="M111.86,86.257a16.669,16.669,0,0,1-2.139-1.043c-.144-.084-.289-.175-.434-.266.145.091.3.175.449.266A17.624,17.624,0,0,0,111.86,86.257Z"/><path class="cls-2" d="M107.97,84.049c-.129-.091-.259-.19-.388-.289-.114-.091-.228-.19-.343-.289l.358.289C107.719,83.859,107.849,83.958,107.97,84.049Z"/><path class="cls-2" d="M111.86,86.257a16.669,16.669,0,0,1-2.139-1.043c-.144-.084-.289-.175-.434-.266.145.091.3.175.449.266A17.624,17.624,0,0,0,111.86,86.257Z"/><path class="cls-2" d="M111.86,86.257a17.624,17.624,0,0,1-2.124-1.043c-.152-.091-.3-.175-.449-.266s-.289-.175-.434-.274c-.007,0-.015,0-.015-.008q-.388-.262-.754-.525a.575.575,0,0,1-.114-.092c-.121-.091-.251-.19-.373-.289l-.358-.289h-.007c-.107-.107-.221-.2-.328-.3s-.236-.206-.342-.312l-.008-.008a8.585,8.585,0,0,1-1.218.906c-.1.069-.2.13-.3.2h-.008c-.35.2-.716.4-1.1.579h-.007a13.363,13.363,0,0,1-1.683.662,16.5,16.5,0,0,1-1.857.51,15.925,15.925,0,0,1-3.929.365h-.015a7.581,7.581,0,0,1,.784-2.314,7.81,7.81,0,0,1,6.92-4.2h.1a7.744,7.744,0,0,1,3.837,1.066,7.877,7.877,0,0,1,2.985,3.129A7.75,7.75,0,0,1,111.86,86.257Z"/><path class="cls-2" d="M111.952,87.369a7.834,7.834,0,0,1-5.207,7.361,7.868,7.868,0,0,1-5.2,0h-.008a7.827,7.827,0,0,1-5.2-7.361,8.092,8.092,0,0,1,.106-1.3,15.925,15.925,0,0,0,3.929-.365,16.5,16.5,0,0,0,1.857-.51,13.363,13.363,0,0,0,1.683-.662h.007c.388-.183.754-.381,1.1-.579h.008c.114-.068.22-.129.319-.2a8.633,8.633,0,0,0,1.211-.9c.106.106.221.213.342.312s.221.19.328.3h.007c.115.1.229.2.343.289.129.1.259.2.388.289a.575.575,0,0,0,.114.092q.366.263.754.525c0,.008.008.008.015.008q.218.148.434.274c.145.091.29.182.434.266a16.669,16.669,0,0,0,2.139,1.043h.008A7.689,7.689,0,0,1,111.952,87.369Z"/><path class="cls-2" d="M113.22,77.277h7.93a3,3,0,0,1,3,3v25.29H84.13V80.277a3,3,0,0,1,3-3h26.09Z"/><path class="cls-2" d="M82.19,105.57H126.1a1.372,1.372,0,0,1,1.372,1.372v.094a4.76,4.76,0,0,1-4.76,4.76H85.578a4.76,4.76,0,0,1-4.76-4.76v-.094a1.372,1.372,0,0,1,1.372-1.372Z"/></svg>