<svg id="Layer_1" data-name="Layer 1" xmlns="http://www.w3.org/2000/svg" viewBox="0 0 170 152.58"><defs><style>.cls-1{fill:#6fcfee;}.cls-2{fill:#4f2265;}</style></defs><path class="cls-1" d="M77.805,49.327h-30.8a1,1,0,1,1,0-2h30.8a1,1,0,0,1,0,2Z"/><path class="cls-1" d="M67.268,63.106H48.626a1,1,0,0,1,0-2H67.268a1,1,0,0,1,0,2Z"/><path class="cls-1" d="M68.079,77.695H49.437a1,1,0,0,1,0-2H68.079a1,1,0,1,1,0,2Z"/><path class="cls-1" d="M65.647,55.811h-30.8a1,1,0,0,1,0-2h30.8a1,1,0,0,1,0,2Z"/><path class="cls-1" d="M60.784,70.4H34.847a1,1,0,1,1,0-2H60.784a1,1,0,1,1,0,2Z"/><path class="cls-2" d="M75.833,112.826a4,4,0,0,1-3.959-3.5L66.01,63.259a1,1,0,0,1,.866-1.118l13.1-1.668a2,2,0,0,0,1.731-2.236L80.045,45.132a1,1,0,0,1,.865-1.119l33.206-4.226a4,4,0,0,1,4.474,3.463l7.531,59.176a4,4,0,0,1-3.464,4.473l-46.31,5.894A4.044,4.044,0,0,1,75.833,112.826ZM68.12,64l5.738,45.078a2,2,0,0,0,2.236,1.732l46.311-5.894a2,2,0,0,0,1.731-2.237L116.605,43.5h0a2,2,0,0,0-2.236-1.731l-32.214,4.1L83.7,57.984a4,4,0,0,1-3.463,4.473Z"/><path class="cls-2" d="M83.1,68.621a1,1,0,0,1-.125-1.992l25.73-3.275a1,1,0,1,1,.253,1.985l-25.73,3.274A.917.917,0,0,1,83.1,68.621Z"/><path class="cls-2" d="M80.2,77.977a1,1,0,0,1-.125-1.992L109.826,72.2a1,1,0,1,1,.253,1.984L80.33,77.969A.926.926,0,0,1,80.2,77.977Z"/><path class="cls-2" d="M81.327,86.822A1,1,0,0,1,81.2,84.83l29.75-3.787a1,1,0,0,1,.253,1.984l-29.75,3.787A1.1,1.1,0,0,1,81.327,86.822Z"/><path class="cls-2" d="M82.453,95.666a1,1,0,0,1-.125-1.992l24.121-3.07a1,1,0,1,1,.253,1.985L82.581,95.658A.926.926,0,0,1,82.453,95.666Z"/><path class="cls-2" d="M67,64.133a1,1,0,0,1-.79-1.612L80.246,44.393a1,1,0,0,1,1.783.486L83.7,57.984a4,4,0,0,1-3.463,4.473l-13.1,1.668A.912.912,0,0,1,67,64.133ZM80.349,47.527,69.271,61.836l10.71-1.363a2,2,0,0,0,1.731-2.236Z"/></svg>