<svg id="Layer_1" data-name="Layer 1" xmlns="http://www.w3.org/2000/svg" viewBox="0 0 170 152.58"><defs><style>.cls-1{fill:#4f2265;}.cls-2{fill:#6fcfee;}</style></defs><path class="cls-1" d="M102.176,109.383H62a4.005,4.005,0,0,1-4-4V60.043a1,1,0,0,1,1-1h12.85a2,2,0,0,0,2-2V44.2a1,1,0,0,1,1-1H107.5a4,4,0,0,1,4,4v31.18a1,1,0,0,1-.981,1,1.892,1.892,0,0,0-1.051.336,31.744,31.744,0,0,1-12.1,4.7l-.215.039V95.563a15.08,15.08,0,0,0,3.169,9.226,1.6,1.6,0,0,1,.111.131,2.338,2.338,0,0,0,.157.2,32.26,32.26,0,0,0,2.3,2.559,1,1,0,0,1-.707,1.707ZM60,61.043v44.34a2,2,0,0,0,2,2H99.874q-.421-.483-.816-.973c-.061-.067-.144-.169-.223-.277-.027-.028-.053-.057-.066-.074a17.094,17.094,0,0,1-3.623-10.5V83.613a1,1,0,0,1,.86-.991c.222-.031.44-.072.657-.112l.34-.062a29.71,29.71,0,0,0,11.3-4.358,3.821,3.821,0,0,1,1.192-.566V47.2a2,2,0,0,0-2-2H75.846v11.84a4,4,0,0,1-4,4Z"/><path class="cls-1" d="M99.406,67.385H74.049a1,1,0,0,1,0-2H99.406a1,1,0,0,1,0,2Z"/><path class="cls-1" d="M99.406,76.1H70.088a1,1,0,0,1,0-2H99.406a1,1,0,0,1,0,2Z"/><path class="cls-1" d="M91.007,84.818H70.088a1,1,0,0,1,0-2H91.007a1,1,0,0,1,0,2Z"/><path class="cls-1" d="M91.007,93.535H70.088a1,1,0,0,1,0-2H91.007a1,1,0,0,1,0,2Z"/><path class="cls-1" d="M71.842,61.046H58.994a1,1,0,0,1-.707-1.707L74.135,43.491a1,1,0,0,1,1.707.707V57.046A4,4,0,0,1,71.842,61.046Zm-10.434-2H71.842a2,2,0,0,0,2-2V46.612Z"/><path class="cls-2" d="M110.578,114.45a4.044,4.044,0,0,1-1.4-.249,21.674,21.674,0,0,1-6.925-4.376c-.262-.241-.518-.476-.773-.721a34,34,0,0,1-2.425-2.694c-.061-.067-.144-.169-.223-.277-.027-.028-.053-.057-.066-.074a17.094,17.094,0,0,1-3.623-10.5V83.613a1,1,0,0,1,.86-.991c.222-.031.44-.072.657-.112l.34-.062a29.71,29.71,0,0,0,11.3-4.358,4,4,0,0,1,4.535-.007,29.759,29.759,0,0,0,11.323,4.368l.326.058c.222.041.444.082.663.114a1,1,0,0,1,.855.99v11.95a17.09,17.09,0,0,1-3.623,10.5l-.267.337a30.9,30.9,0,0,1-3.218,3.428,21.606,21.606,0,0,1-6.933,4.379A4,4,0,0,1,110.578,114.45Zm-10.263-9.661a1.6,1.6,0,0,1,.111.131,2.338,2.338,0,0,0,.157.2,32.26,32.26,0,0,0,2.3,2.559c.23.221.475.446.72.671a19.663,19.663,0,0,0,6.263,3.975,2.049,2.049,0,0,0,1.415,0,19.629,19.629,0,0,0,6.275-3.983,28.812,28.812,0,0,0,2.994-3.189l.226-.284a15.117,15.117,0,0,0,3.23-9.3V84.454l-.2-.036a31.784,31.784,0,0,1-12.119-4.7,1.863,1.863,0,0,0-1.14-.334,1.922,1.922,0,0,0-1.08.337,31.744,31.744,0,0,1-12.1,4.7l-.215.039V95.563A15.08,15.08,0,0,0,100.315,104.789Z"/><path class="cls-2" d="M108.577,102.035a1,1,0,0,1-.808-.412l-4-5.5a1,1,0,1,1,1.617-1.176l3.191,4.388,7.192-9.888a1,1,0,1,1,1.617,1.176l-8,11A1,1,0,0,1,108.577,102.035Z"/></svg>