<svg id="Layer_1" data-name="Layer 1" xmlns="http://www.w3.org/2000/svg" viewBox="0 0 170 152.58"><defs><style>.cls-1{fill:#4f2265;}.cls-2{fill:#6fcfee;}.cls-3{fill:none;stroke:#6fcfee;stroke-linejoin:round;stroke-width:2px;}</style></defs><path class="cls-1" d="M107.507,109.384H62a4,4,0,0,1-4-4V60.054a1,1,0,0,1,1-1h12.85a2,2,0,0,0,2-2V44.205a1,1,0,0,1,1-1h32.661a4,4,0,0,1,4,4v5.089a1,1,0,0,1-1,1H108.9l-.28,2.473a1,1,0,0,1-.73.853,9.347,9.347,0,0,0-2.214.921,1,1,0,0,1-1.124-.085L102.611,55.9,100.8,57.718l1.551,1.943a1,1,0,0,1,.085,1.124,9.314,9.314,0,0,0-.921,2.22,1,1,0,0,1-.856.734l-2.469.271v2.569l2.469.271a1,1,0,0,1,.856.733,9.3,9.3,0,0,0,.921,2.221,1,1,0,0,1-.085,1.124L100.8,72.871l1.815,1.814,1.941-1.552a1,1,0,0,1,1.124-.085,9.288,9.288,0,0,0,2.221.92,1,1,0,0,1,.734.857l.272,2.469h1.6a1,1,0,0,1,1,1v9.871a1,1,0,0,1-.75.967A19.775,19.775,0,0,0,97.772,99.958a21.534,21.534,0,0,1,12.691-4.813.966.966,0,0,1,.735.276,1,1,0,0,1,.309.723v9.24A4,4,0,0,1,107.507,109.384ZM60,61.054v44.33a2,2,0,0,0,2,2h45.511a2,2,0,0,0,2-2V97.216a19.605,19.605,0,0,0-10.455,4.259,2.017,2.017,0,0,1-2.516.015,1.934,1.934,0,0,1-.577-2.375,21.761,21.761,0,0,1,13.548-11.71V79.294h-1.5a1,1,0,0,1-1-.89l-.3-2.7a11.457,11.457,0,0,1-1.429-.592l-2.125,1.7a1,1,0,0,1-1.332-.074l-3.08-3.08a1,1,0,0,1-.074-1.331l1.7-2.126a11.247,11.247,0,0,1-.592-1.429l-2.7-.3a1,1,0,0,1-.891-.994V63.115a1,1,0,0,1,.891-.994l2.7-.3a11.247,11.247,0,0,1,.592-1.429l-1.7-2.126a1,1,0,0,1,.074-1.331l3.08-3.08a1,1,0,0,1,1.332-.074l2.124,1.7a11.4,11.4,0,0,1,1.421-.59l.307-2.709a1,1,0,0,1,.994-.888h1.5V47.205a2,2,0,0,0-2-2H75.846V57.054a4,4,0,0,1-4,4Z"/><path class="cls-1" d="M96.186,67.389H74.054a1,1,0,0,1,0-2H96.186a1,1,0,0,1,0,2Z"/><path class="cls-1" d="M99.41,76.106H70.091a1,1,0,0,1,0-2H99.41a1,1,0,0,1,0,2Z"/><path class="cls-1" d="M99.41,84.822H70.091a1,1,0,0,1,0-2H99.41a1,1,0,0,1,0,2Z"/><path class="cls-1" d="M93.864,93.539H70.091a1,1,0,0,1,0-2H93.864a1,1,0,0,1,0,2Z"/><path class="cls-1" d="M71.846,61.05H59a1,1,0,0,1-.707-1.707L74.139,43.5a1,1,0,0,1,1.707.707V57.05A4,4,0,0,1,71.846,61.05Zm-10.434-2H71.846a2,2,0,0,0,2-2V46.616Z"/><path class="cls-2" d="M114.6,103a2,2,0,0,1-2-1.963l-.04-3.9c-.37-.011-.763-.022-1.166-.02-.19,0-.373,0-.549.015l-.152.007c-.062,0-.124.007-.183.007a19.609,19.609,0,0,0-11.454,4.331,2.017,2.017,0,0,1-2.516.015,1.935,1.935,0,0,1-.577-2.376,21.759,21.759,0,0,1,14.3-11.917,21.064,21.064,0,0,1,2.165-.451l-.025-3.3a2,2,0,0,1,3.4-1.454l8.887,8.687a1.987,1.987,0,0,1,.033,2.827l-8.687,8.888A1.986,1.986,0,0,1,114.6,103Zm-3.125-7.884c.407,0,.8.009,1.2.03a1.986,1.986,0,0,1,1.879,1.959l.04,3.9,8.693-8.9L114.4,83.419l.039,3.3a1.992,1.992,0,0,1-1.722,2,19.262,19.262,0,0,0-1.951.407A19.771,19.771,0,0,0,97.772,99.958a21.533,21.533,0,0,1,12.69-4.813l.169.994-.058-1c.062,0,.124-.007.183-.007C110.928,95.116,111.2,95.115,111.476,95.115Z"/><path class="cls-3" d="M123.186,67.474v-4.36l-3.36-.37a10.32,10.32,0,0,0-1.02-2.46l2.11-2.64-3.08-3.08-2.64,2.11a10.32,10.32,0,0,0-2.46-1.02l-.37-3.36h-4.36l-.38,3.36a10.422,10.422,0,0,0-2.45,1.02l-2.64-2.11-3.08,3.08,2.11,2.64a10.32,10.32,0,0,0-1.02,2.46l-3.36.37v4.36l3.36.37a10.32,10.32,0,0,0,1.02,2.46l-2.11,2.64,3.08,3.08,2.64-2.11a10.32,10.32,0,0,0,2.46,1.02l.37,3.36h4.36l.37-3.36a10.32,10.32,0,0,0,2.46-1.02l2.64,2.11,3.08-3.08-2.11-2.64a10.422,10.422,0,0,0,1.02-2.45Zm-7.3-1.43a5.792,5.792,0,0,1-4.95,4.95c-.15.02-.29.03-.43.04a5.749,5.749,0,0,1-1.07-11.44,4.807,4.807,0,0,1,1.07-.03A5.747,5.747,0,0,1,115.886,66.044Z"/><path class="cls-2" d="M110.224,72.041a6.748,6.748,0,0,1-.913-13.439,5.693,5.693,0,0,1,1.279-.034,6.746,6.746,0,0,1,6.289,7.6v0a6.794,6.794,0,0,1-5.818,5.818c-.166.021-.326.034-.485.046C110.459,72.039,110.341,72.041,110.224,72.041Zm-.117-11.493a3.926,3.926,0,0,0-.534.036,4.75,4.75,0,0,0,.883,9.452c.1-.007.222-.016.351-.033a4.745,4.745,0,0,0-.356-9.441C110.334,60.553,110.219,60.548,110.107,60.548Z"/></svg>