<svg id="Layer_1" data-name="Layer 1" xmlns="http://www.w3.org/2000/svg" viewBox="0 0 170 152.58"><defs><style>.cls-1{fill:#6fcfee;}.cls-2{fill:#4f2265;}</style></defs><path class="cls-1" d="M85.571,41.423c0,.56-.747,1-1.66,1H41.723c-.88-.03-1.577-.46-1.577-1s.7-.969,1.577-.989a.216.216,0,0,1,.083-.011H83.911C84.824,40.423,85.571,40.873,85.571,41.423Z"/><path class="cls-1" d="M85.571,50.143c0,.55-.747,1-1.66,1H35.231c-.913,0-1.66-.45-1.66-1s.747-1,1.66-1h48.68C84.824,49.143,85.571,49.593,85.571,50.143Z"/><path class="cls-1" d="M85.571,58.863c0,.551-.747,1-1.66,1H35.231c-.913,0-1.66-.449-1.66-1s.747-1,1.66-1h48.68C84.824,57.863,85.571,58.3,85.571,58.863Z"/><path class="cls-1" d="M76.356,67.573c0,.56-.73,1-1.66,1H35.231c-.913,0-1.66-.44-1.66-1s.747-1,1.66-1H74.7C75.626,66.573,76.356,67.023,76.356,67.573Z"/><path class="cls-2" d="M89.7,88.393a22.959,22.959,0,1,1,16.248-6.719A22.9,22.9,0,0,1,89.7,88.393Zm0-43.934a20.96,20.96,0,1,0,14.834,6.134A20.916,20.916,0,0,0,89.7,44.459Zm42.568,68.7a3.985,3.985,0,0,1-2.828-1.17l-23.73-23.729a3.985,3.985,0,0,1-1.15-3.243l.11-1.053a4.018,4.018,0,0,1,3.564-3.564l1.052-.11a3.988,3.988,0,0,1,3.244,1.15l23.73,23.73a4,4,0,0,1,0,5.656l-1.164,1.163A3.984,3.984,0,0,1,132.266,113.155ZM109.7,82.265a1.859,1.859,0,0,0-.21.011l-1.052.109a2.01,2.01,0,0,0-1.783,1.782l-.109,1.053a1.991,1.991,0,0,0,.574,1.622l23.73,23.729a2,2,0,0,0,2.828,0l1.163-1.163a2,2,0,0,0,0-2.828l-23.73-23.73A1.989,1.989,0,0,0,109.7,82.265Z"/></svg>