<?xml version="1.0" encoding="utf-8"?>
<!-- Generator: Adobe Illustrator 24.1.3, SVG Export Plug-In . SVG Version: 6.00 Build 0)  -->
<svg version="1.1" id="Layer_1" xmlns="http://www.w3.org/2000/svg" xmlns:xlink="http://www.w3.org/1999/xlink" x="0px" y="0px"
	 viewBox="0 0 170 152.6" style="enable-background:new 0 0 170 152.6;" xml:space="preserve">
<style type="text/css">
	.st0{fill:none;stroke:#6FCFEE;stroke-width:2;stroke-linecap:round;stroke-linejoin:round;}
	.st1{fill:none;stroke:#4F2265;stroke-width:1.5;stroke-linejoin:round;}
</style>
<path class="st0" d="M68.6,44.1c17.1-3.1,33.5,8.3,36.6,25.5c0,0,0,0,0,0"/>
<path class="st0" d="M72.9,105.6C55.6,105,41.9,90.4,42.5,73"/>
<path class="st1" d="M64.6,62.7v3.9h-22v-3.9c0-2.7,2.2-4.8,4.8-4.8c0,0,0,0,0,0H51c0.2,1.4,1.4,2.5,2.9,2.3
	c1.2-0.1,2.2-1.1,2.3-2.3h3.6C62.4,57.8,64.6,60,64.6,62.7z"/>
<path class="st1" d="M56.2,55.9v1.6c0,0.1,0,0.2,0,0.3c-0.2,1.4-1.4,2.5-2.9,2.3c-1.2-0.1-2.2-1.1-2.3-2.3c0-0.1,0-0.2,0-0.3v-1.6
	C52.7,56.5,54.5,56.5,56.2,55.9z"/>
<path class="st1" d="M61.4,48.6c0,4.3-3.5,7.8-7.8,7.8c-0.9,0-1.8-0.1-2.6-0.4c-3.1-1.1-5.2-4.1-5.2-7.4c0-0.4,0-0.9,0.1-1.3
	c1.3,0,2.6-0.1,3.9-0.4c2.3-0.4,4.4-1.4,6.2-2.9c1,0.9,2,1.7,3.2,2.4c0.7,0.4,1.4,0.7,2.1,1C61.4,47.8,61.4,48.2,61.4,48.6z"/>
<path class="st1" d="M61.3,47.5c-0.7-0.3-1.4-0.6-2.1-1C58,45.8,57,45,56,44.1c-1.8,1.5-3.9,2.4-6.2,2.9c-1.3,0.3-2.6,0.4-3.9,0.4
	c0.6-3.8,3.9-6.5,7.7-6.5c0,0,0.1,0,0.1,0c1.4,0,2.7,0.4,3.8,1.1C59.6,43.1,61,45.1,61.3,47.5z"/>
<path class="st1" d="M115.1,101.4v3.9h-22v-3.9c0-2.7,2.2-4.8,4.8-4.8h3.6c0.2,1.4,1.4,2.5,2.9,2.3c1.2-0.1,2.2-1.1,2.3-2.3h3.6
	C113,96.6,115.1,98.8,115.1,101.4z"/>
<path class="st1" d="M106.7,94.7v1.6c0,0.1,0,0.2,0,0.3c-0.2,1.4-1.4,2.5-2.9,2.3c-1.2-0.1-2.2-1.1-2.3-2.3c0-0.1,0-0.2,0-0.3v-1.6
	C103.2,95.3,105.1,95.3,106.7,94.7z"/>
<path class="st1" d="M107.6,83.8c0.1,0.1,0.3,0.2,0.4,0.3C107.8,84,107.7,83.9,107.6,83.8c-0.1-0.1-0.2-0.2-0.4-0.3L107.6,83.8z"/>
<path class="st1" d="M111.9,86.3c-0.7-0.3-1.5-0.6-2.1-1c-0.1-0.1-0.3-0.2-0.4-0.3c0.1,0.1,0.3,0.2,0.4,0.3
	C110.4,85.6,111.1,86,111.9,86.3z"/>
<path class="st1" d="M108,84c-0.1-0.1-0.3-0.2-0.4-0.3c-0.1-0.1-0.2-0.2-0.3-0.3l0.4,0.3C107.7,83.9,107.8,84,108,84z"/>
<path class="st1" d="M111.9,86.3c-0.7-0.3-1.5-0.6-2.1-1c-0.1-0.1-0.3-0.2-0.4-0.3c0.1,0.1,0.3,0.2,0.4,0.3
	C110.4,85.6,111.1,86,111.9,86.3z"/>
<path class="st1" d="M111.9,86.3c-0.7-0.3-1.4-0.6-2.1-1c-0.2-0.1-0.3-0.2-0.4-0.3s-0.3-0.2-0.4-0.3c0,0,0,0,0,0
	c-0.3-0.2-0.5-0.3-0.8-0.5c0,0-0.1-0.1-0.1-0.1c-0.1-0.1-0.3-0.2-0.4-0.3l-0.4-0.3h0c-0.1-0.1-0.2-0.2-0.3-0.3s-0.2-0.2-0.3-0.3l0,0
	c-0.4,0.3-0.8,0.6-1.2,0.9c-0.1,0.1-0.2,0.1-0.3,0.2h0c-0.3,0.2-0.7,0.4-1.1,0.6h0c-0.5,0.3-1.1,0.5-1.7,0.7
	c-0.6,0.2-1.2,0.4-1.9,0.5c-1.3,0.3-2.6,0.4-3.9,0.4h0c0.1-0.8,0.4-1.6,0.8-2.3c1.3-2.6,4-4.2,6.9-4.2h0.1c1.4,0,2.7,0.4,3.8,1.1
	c1.3,0.7,2.3,1.8,3,3.1C111.5,84.5,111.7,85.4,111.9,86.3z"/>
<path class="st1" d="M112,87.4c0,3.3-2.1,6.3-5.2,7.4c-1.7,0.6-3.5,0.6-5.2,0h0c-3.1-1.1-5.2-4.1-5.2-7.4c0-0.4,0-0.9,0.1-1.3
	c1.3,0,2.6-0.1,3.9-0.4c0.6-0.1,1.2-0.3,1.9-0.5c0.6-0.2,1.1-0.4,1.7-0.7h0c0.4-0.2,0.8-0.4,1.1-0.6h0c0.1-0.1,0.2-0.1,0.3-0.2
	c0.4-0.3,0.8-0.6,1.2-0.9c0.1,0.1,0.2,0.2,0.3,0.3s0.2,0.2,0.3,0.3h0c0.1,0.1,0.2,0.2,0.3,0.3c0.1,0.1,0.3,0.2,0.4,0.3
	c0,0,0.1,0.1,0.1,0.1c0.2,0.2,0.5,0.4,0.8,0.5c0,0,0,0,0,0c0.1,0.1,0.3,0.2,0.4,0.3c0.1,0.1,0.3,0.2,0.4,0.3c0.7,0.4,1.4,0.7,2.1,1
	h0C111.9,86.6,111.9,87,112,87.4z"/>
<path class="st1" d="M113.2,77.3h7.9c1.7,0,3,1.3,3,3v25.3h-40V80.3c0-1.7,1.3-3,3-3H113.2z"/>
<path class="st1" d="M82.2,105.6h43.9c0.8,0,1.4,0.6,1.4,1.4l0,0v0.1c0,2.6-2.1,4.8-4.8,4.8l0,0H85.6c-2.6,0-4.8-2.1-4.8-4.8l0,0
	v-0.1C80.8,106.2,81.4,105.6,82.2,105.6L82.2,105.6z"/>
</svg>
