<svg id="Layer_1" data-name="Layer 1" xmlns="http://www.w3.org/2000/svg" viewBox="0 0 170 152.58"><defs><style>.cls-1{fill:#6fcfee;}.cls-2{fill:#4f2265;}</style></defs><path class="cls-1" d="M88.286,78.5h-9.7a1,1,0,0,1-.707-1.707l12.7-12.71a1,1,0,0,1,1.708.707V74.5A4,4,0,0,1,88.286,78.5ZM81,76.5h7.287a2,2,0,0,0,2-2V67.206Z"/><path class="cls-1" d="M64.356,88.78H53.136a4,4,0,0,1-4-4V49.04a1,1,0,0,1,1-1h9.7a2,2,0,0,0,2-2v-9.7a1,1,0,0,1,1-1h25.58a4,4,0,0,1,4,4v9.43a1,1,0,0,1-1,1H78.066v8.7a4,4,0,0,1-4,4h-8.71V87.78A1,1,0,0,1,64.356,88.78ZM51.136,50.04V84.78a2,2,0,0,0,2,2h10.22V61.47a1,1,0,0,1,1-1h9.71a2,2,0,0,0,2-2v-9.7a1,1,0,0,1,1-1h13.35V39.34a2,2,0,0,0-2-2H63.836v8.7a4,4,0,0,1-4,4Z"/><path class="cls-1" d="M59.836,50.045h-9.7a1,1,0,0,1-.707-1.707l12.7-12.7a1,1,0,0,1,1.707.707v9.7A4,4,0,0,1,59.836,50.045Zm-7.288-2h7.288a2,2,0,0,0,2-2V38.757Z"/><path class="cls-1" d="M78.586,101.21H67.356a4,4,0,0,1-4-4V61.47a1,1,0,0,1,1-1h9.71a2,2,0,0,0,2-2v-9.7a1,1,0,0,1,1-1h25.57a4.005,4.005,0,0,1,4,4V64.79a1,1,0,0,1-1,1H91.7L79.586,77.914v22.3A1,1,0,0,1,78.586,101.21ZM65.356,62.47V97.21a2,2,0,0,0,2,2h10.23V77.5a1,1,0,0,1,.293-.707l12.7-12.71a1.006,1.006,0,0,1,.708-.293h13.35V51.77a2,2,0,0,0-2-2H78.066v8.7a4,4,0,0,1-4,4Z"/><path class="cls-1" d="M88.286,78.5h-9.7a1,1,0,0,1-.707-1.707l12.7-12.71a1,1,0,0,1,1.708.707V74.5A4,4,0,0,1,88.286,78.5ZM81,76.5h7.287a2,2,0,0,0,2-2V67.206Z"/><path class="cls-1" d="M74.066,62.47h-9.71a1,1,0,0,1-.707-1.707l12.71-12.7a1,1,0,0,1,1.707.707v9.7A4,4,0,0,1,74.066,62.47Zm-7.294-2h7.294a2,2,0,0,0,2-2V51.183Z"/><path class="cls-2" d="M116.866,117.24H81.586a4,4,0,0,1-4-4V77.5a1,1,0,0,1,1-1h9.7a2,2,0,0,0,2-2V64.79a1,1,0,0,1,1-1h25.58a4.005,4.005,0,0,1,4,4v45.45A4,4,0,0,1,116.866,117.24ZM79.586,78.5v34.74a2,2,0,0,0,2,2h35.28a2,2,0,0,0,2-2V67.79a2,2,0,0,0-2-2H92.286V74.5a4,4,0,0,1-4,4Z"/><path class="cls-2" d="M88.286,78.5h-9.7a1,1,0,0,1-.707-1.707l12.7-12.71a1,1,0,0,1,1.708.707V74.5A4,4,0,0,1,88.286,78.5ZM81,76.5h7.287a2,2,0,0,0,2-2V67.206Z"/></svg>