<svg id="Layer_1" data-name="Layer 1" xmlns="http://www.w3.org/2000/svg" viewBox="0 0 170 152.58"><defs><style>.cls-1{fill:#4f2265;}.cls-2{fill:#6fcfee;}</style></defs><path class="cls-1" d="M56.931,110.29h-8.2a4,4,0,0,1-4-4v-31.6a4,4,0,0,1,4-4h8.2a4,4,0,0,1,4,4v31.6A4,4,0,0,1,56.931,110.29Zm-8.2-37.6a2,2,0,0,0-2,2v31.6a2,2,0,0,0,2,2h8.2a2,2,0,0,0,2-2v-31.6a2,2,0,0,0-2-2Zm29.653,37.6h-8.2a4,4,0,0,1-4-4v-40a4,4,0,0,1,4-4h8.2a4,4,0,0,1,4,4v40A4,4,0,0,1,78.379,110.29Zm-8.2-46a2,2,0,0,0-2,2v40a2,2,0,0,0,2,2h8.2a2,2,0,0,0,2-2v-40a2,2,0,0,0-2-2Zm29.652,46h-8.2a4,4,0,0,1-4-4v-36a4,4,0,0,1,4-4h8.2a4,4,0,0,1,4,4v36A4,4,0,0,1,99.826,110.29Zm-8.2-42a2,2,0,0,0-2,2v36a2,2,0,0,0,2,2h8.2a2,2,0,0,0,2-2v-36a2,2,0,0,0-2-2Zm29.653,42h-8.2a4,4,0,0,1-4-4v-45a4,4,0,0,1,4-4h8.2a4,4,0,0,1,4,4v45A4,4,0,0,1,121.274,110.29Zm-8.2-51a2,2,0,0,0-2,2v45a2,2,0,0,0,2,2h8.2a2,2,0,0,0,2-2v-45a2,2,0,0,0-2-2Z"/><path class="cls-2" d="M116.726,43.29a1.993,1.993,0,0,0-1.983,1.837L96.859,53.643a1.979,1.979,0,0,0-2.451.154L76.686,47.89a2,2,0,0,0-3.955.349L53.761,58.587a1.978,1.978,0,0,0-1.035-.3,2,2,0,1,0,1.995,2.051l18.97-10.347a1.964,1.964,0,0,0,2.354-.211l17.722,5.908a1.994,1.994,0,0,0,3.943-.237l17.884-8.517a2,2,0,1,0,1.132-3.647Z"/></svg>