<svg id="Layer_1" data-name="Layer 1" xmlns="http://www.w3.org/2000/svg" viewBox="0 0 170 152.58"><defs><style>.cls-1{fill:#4f2265;}.cls-2{fill:#6fcfee;}</style></defs><path class="cls-1" d="M111.082,70.62H83.4v2h27.68a2.006,2.006,0,0,1,2,2V88.65h2V74.62A4.012,4.012,0,0,0,111.082,70.62Zm-31.59-.58-8.08-8.08a3.981,3.981,0,0,0-2.82-1.17h-26.9a4,4,0,0,0-4,4v56a.988.988,0,0,1,.15-.53l1.85-2.93V64.79a2.006,2.006,0,0,1,2-2h26.9a1.983,1.983,0,0,1,1.41.59l8.08,8.07a3.939,3.939,0,0,0,2.82,1.17h.5v-2h-.5A2.016,2.016,0,0,1,79.492,70.04Z"/><path class="cls-2" d="M118.922,50.5l-6,6a1,1,0,0,1-.7.29,1.024,1.024,0,0,1-.71-.29,1.008,1.008,0,0,1,0-1.42l4.29-4.29c-22.39.11-32.02,15.59-32.4,16.24V88.65h-2V67.02c-.45-.75-9.91-15.83-31.76-16.22l4.28,4.28a1,1,0,0,1-.7,1.71,1.024,1.024,0,0,1-.71-.29l-6-6a1.008,1.008,0,0,1,0-1.42l6-6a1,1,0,0,1,1.41,0,1.008,1.008,0,0,1,0,1.42l-4.3,4.3a42,42,0,0,1,25.45,8.58,37.344,37.344,0,0,1,6.33,6.19V34.2l-4.29,4.3a1,1,0,0,1-1.41,0,1.008,1.008,0,0,1,0-1.42l6-6a1,1,0,0,1,1.41,0l6,6A1,1,0,0,1,87.7,38.5l-4.3-4.3V63.62c3.8-4.73,14.02-14.75,32.4-14.83l-4.29-4.29a1.008,1.008,0,0,1,0-1.42,1,1,0,0,1,1.41,0l6,6A1.008,1.008,0,0,1,118.922,50.5Z"/><path class="cls-1" d="M131.8,90.72a3.931,3.931,0,0,0-3.5-2.07h-13.22v1a1,1,0,0,1-1,1H128.3a2,2,0,0,1,1.69,3.07l-16.17,25.6a.972.972,0,0,1-.84.47H40.5l-.97,1.53a.972.972,0,0,1-.84.47h74.29a2.968,2.968,0,0,0,2.53-1.4l16.17-25.6A3.941,3.941,0,0,0,131.8,90.72Z"/><path class="cls-1" d="M115.082,88.65v1a1,1,0,0,1-1,1H61.662a4.965,4.965,0,0,0-4.22,2.33L40.5,119.79l-.97,1.53a.972.972,0,0,1-.84.47.842.842,0,0,1-.27-.04.979.979,0,0,1-.61-.48l-.01-.01a1.555,1.555,0,0,1-.08-.23,1,1,0,0,1,.12-.77l1.85-2.93,16.05-25.42a6.978,6.978,0,0,1,5.92-3.26Z"/></svg>