<?xml version="1.0" encoding="UTF-8"?>
<svg width="62px" height="44px" viewBox="0 0 62 44" version="1.1" xmlns="http://www.w3.org/2000/svg" xmlns:xlink="http://www.w3.org/1999/xlink">
    <title>Zendesk core logo</title>
    <g id="Page-1" stroke="none" stroke-width="1" fill="none" fill-rule="evenodd">
        <g id="home-v3-copy" transform="translate(-1016.000000, -1028.000000)" fill="#03363D" fill-rule="nonzero">
            <g id="Zendesk-core-logo" transform="translate(1016.000000, 1028.000000)">
                <polygon id="Path" points="29.3704215 6.94896552 29.3704215 25.9751724 13.611341 25.9751724"></polygon>
                <path d="M29.3704215,0.119693487 C29.3704215,4.47144339 25.8426311,7.99923372 21.4908812,7.99923372 C17.1391313,7.99923372 13.611341,4.47144339 13.611341,0.119693487 L29.3704215,0.119693487 L29.3704215,0.119693487 Z" id="Path"></path>
                <path d="M31.96659,25.9751724 C31.96659,21.6234225 35.4943804,18.0956322 39.8461303,18.0956322 C44.1978802,18.0956322 47.7256705,21.6234225 47.7256705,25.9751724 L31.96659,25.9751724 Z" id="Path"></path>
                <polygon id="Path" points="31.96659 19.1459004 31.96659 0.119693487 47.7273563 0.119693487"></polygon>
                <path d="M40.7817625,42.2518008 C41.592194,42.2699203 42.3769299,41.9669335 42.9649042,41.4088889 L44.0472031,42.5771648 C43.3324138,43.3121839 42.3411494,43.8583908 40.8003065,43.8583908 C38.1586207,43.8583908 36.452567,42.1068199 36.452567,39.7348659 C36.4309339,38.6372391 36.8562699,37.577943 37.6309689,36.8000651 C38.4056679,36.0221872 39.4632133,35.592517 40.5609195,35.6096552 C43.1840613,35.6096552 44.6709579,37.6056705 44.5411494,40.3737931 L38.3406897,40.3737931 C38.5598467,41.5235249 39.3673563,42.2568582 40.7800766,42.2568582 M42.6698851,39.0537931 C42.5013027,37.9799234 41.8623755,37.189272 40.5777778,37.189272 C39.3859004,37.189272 38.5547893,37.8636015 38.3406897,39.0537931 L42.6698851,39.0537931 Z" id="Shape"></path>
                <polygon id="Path" points="0.0674329502 42.1658238 4.84 37.3173946 0.180383142 37.3173946 0.180383142 35.7967816 7.05180077 35.7967816 7.05180077 37.3494253 2.27923372 42.1961686 7.11586207 42.1961686 7.11586207 43.7184674 0.0674329502 43.7184674"></polygon>
                <path d="M12.4750958,42.2518008 C13.2855274,42.2699203 14.0702632,41.9669335 14.6582375,41.4088889 L15.7405364,42.5771648 C15.0257471,43.3121839 14.0344828,43.8583908 12.4936398,43.8583908 C9.85195402,43.8583908 8.14590038,42.1068199 8.14590038,39.7348659 C8.12426724,38.6372391 8.54960325,37.577943 9.32430225,36.8000651 C10.0990013,36.0221872 11.1565467,35.592517 12.2542529,35.6096552 C14.8773946,35.6096552 16.3642912,37.6056705 16.2344828,40.3737931 L10.034023,40.3737931 C10.2531801,41.5235249 11.0606897,42.2568582 12.47341,42.2568582 M14.3632184,39.0537931 C14.194636,37.9799234 13.5557088,37.189272 12.2711111,37.189272 C11.0792337,37.189272 10.2481226,37.8636015 10.034023,39.0537931 L14.3632184,39.0537931 L14.3632184,39.0537931 Z" id="Shape"></path>
                <path d="M26.5382375,39.7331801 C26.5382375,37.2044444 28.4314176,35.6130268 30.5150958,35.6130268 C31.5279835,35.5995469 32.4949996,36.0346115 33.1567816,36.8015326 L33.1567816,32.1284291 L34.8426054,32.1284291 L34.8426054,43.6948659 L33.1567816,43.6948659 L33.1567816,42.6007663 C32.5072263,43.3997561 31.5296012,43.8600339 30.4999234,43.8517602 C28.4769349,43.8517602 26.5382375,42.2518008 26.5382375,39.7331801 M33.2511877,39.7180077 C33.2141779,38.3380396 32.071865,37.2457803 30.6916239,37.2705982 C29.3113828,37.2954161 28.209075,38.4280354 28.2216989,39.808442 C28.2343229,41.1888485 29.3571604,42.3011187 30.7376245,42.3006898 C32.1857471,42.3006898 33.2511877,41.1442146 33.2511877,39.7180077" id="Shape"></path>
                <path d="M45.6386207,42.0140996 L47.165977,41.2217625 C47.5775001,41.9553923 48.3615827,42.4006577 49.2024521,42.3782375 C50.1566284,42.3782375 50.6505747,41.8876628 50.6505747,41.3330268 C50.6505747,40.6991571 49.7284291,40.5558621 48.725364,40.3501916 C47.376705,40.0652874 45.9724138,39.6202299 45.9724138,37.9900383 C45.9724138,36.7374713 47.1642912,35.5809962 49.0422989,35.5978544 C50.5207663,35.5978544 51.6199234,36.1845211 52.245364,37.1336398 L50.829272,37.9108046 C50.4315403,37.3217075 49.7576269,36.979969 49.0473563,37.0072031 C48.1403831,37.0072031 47.6784674,37.4505747 47.6784674,37.9580077 C47.6784674,38.5278161 48.4101149,38.6862835 49.5564751,38.9408429 C50.8613027,39.2257471 52.3397701,39.6539464 52.3397701,41.3009962 C52.3397701,42.39341 51.3855939,43.8668199 49.12659,43.8516475 C47.4727969,43.8516475 46.3112644,43.1857471 45.6419923,42.0140996" id="Path"></path>
                <polygon id="Path" points="56.9167816 40.1765517 55.5799234 41.6347893 55.5799234 43.6931801 53.8940996 43.6931801 53.8940996 32.1267433 55.5799234 32.1267433 55.5799234 39.7011494 59.1589272 35.7714943 61.2122605 35.7714943 58.108659 39.1616858 61.2914943 43.6931801 59.3831418 43.6931801"></polygon>
                <path d="M21.4419923,35.611341 C19.4375479,35.611341 17.7584674,36.9111111 17.7584674,39.0655939 L17.7584674,43.6931801 L19.4763218,43.6931801 L19.4763218,39.2796935 C19.4763218,37.9799234 20.2231418,37.2027586 21.4993103,37.2027586 C22.7754789,37.2027586 23.4093487,37.9799234 23.4093487,39.2796935 L23.4093487,43.6931801 L25.1187739,43.6931801 L25.1187739,39.0655939 C25.1187739,36.9111111 23.4329502,35.611341 21.435249,35.611341" id="Path"></path>
            </g>
        </g>
    </g>
</svg>