<?xml version="1.0" encoding="UTF-8"?>
<svg width="37px" height="44px" viewBox="0 0 37 44" version="1.1" xmlns="http://www.w3.org/2000/svg" xmlns:xlink="http://www.w3.org/1999/xlink">
    <title>Apple_logo_black</title>
    <g id="Page-1" stroke="none" stroke-width="1" fill="none" fill-rule="evenodd">
        <g id="home-v3-copy" transform="translate(-1162.000000, -919.000000)" fill="#000000" fill-rule="nonzero">
            <g id="Apple_logo_black" transform="translate(1162.000000, 919.000000)">
                <path d="M35.4885801,33.5364657 C34.8377796,35.039949 34.0674436,36.4238966 33.1749164,37.69628 C31.9583162,39.4308616 30.9621925,40.6315241 30.1945127,41.2982641 C29.004477,42.392672 27.7294381,42.9531574 26.3640836,42.9850341 C25.383898,42.9850341 24.2018304,42.7061181 22.8258512,42.1403224 C21.4453566,41.5771764 20.1766926,41.2982641 19.0166727,41.2982641 C17.8000733,41.2982641 16.4952832,41.5771764 15.0996473,42.1403224 C13.7018847,42.7061181 12.5758668,43.0009725 11.7149495,43.0301922 C10.405644,43.0859747 9.10058964,42.509551 7.79792407,41.2982641 C6.96649334,40.5730846 5.92654005,39.329921 4.68072011,37.568773 C3.34405495,35.6880935 2.24513087,33.507246 1.38421398,31.0209205 C0.462201603,28.3353697 0,25.7348219 0,23.2171525 C0,20.3331743 0.623175272,17.845786 1.87138506,15.7613628 C2.85236802,14.0870785 4.15742331,12.7663504 5.79080041,11.7967891 C7.42417895,10.8272292 9.18904523,10.3331518 11.0896504,10.3015407 C12.129603,10.3015407 13.4933643,10.6232225 15.1881029,11.2554294 C16.8780606,11.8897612 17.963172,12.2114429 18.4389201,12.2114429 C18.7946027,12.2114429 20.0000457,11.8353058 22.0435612,11.0854246 C23.9760428,10.3899971 25.6070293,10.1020498 26.9431636,10.215475 C30.5637431,10.5076716 33.2838258,11.9349186 35.0927873,14.5062467 C31.8547204,16.4682129 30.2529525,19.2161869 30.2848282,22.7414033 C30.3140479,25.4872519 31.3101716,27.7722274 33.2678874,29.5865026 C34.1551013,30.428558 35.1459135,31.0793592 36.2482882,31.5415614 C36.0092217,32.2348633 35.7568703,32.8989463 35.4885801,33.5364657 Z M27.1848907,0.860941425 C27.1848907,3.01312598 26.3986156,5.02261459 24.8313814,6.88257641 C22.9400724,9.09370718 20.6524415,10.3714017 18.1716935,10.1697866 C18.1400835,9.91159084 18.1217546,9.63984874 18.1217546,9.35429351 C18.1217546,7.28819862 19.0211885,5.07706893 20.618441,3.26917004 C21.4158701,2.35379918 22.4300574,1.59268069 23.659939,0.985522042 C24.8871635,0.387422567 26.0479805,0.0566606755 27.1397315,1.91153028e-05 C27.1716097,0.287732569 27.1848907,0.57546413 27.1848907,0.860913514 L27.1848907,0.860941425 Z" id="path4"></path>
            </g>
        </g>
    </g>
</svg>