<?xml version="1.0" encoding="UTF-8"?>
<svg width="74px" height="45px" viewBox="0 0 74 45" version="1.1" xmlns="http://www.w3.org/2000/svg" xmlns:xlink="http://www.w3.org/1999/xlink">
    <title>Amazon_Web_Services_Logo</title>
    <g id="Page-1" stroke="none" stroke-width="1" fill="none" fill-rule="evenodd">
        <g id="Amazon_Web_Services_Logo">
            <path d="M20.8755556,15.9866667 C20.8755556,16.8911111 20.9733333,17.6244444 21.1444444,18.1622222 C21.34,18.7 21.5844444,19.2866667 21.9266667,19.9222222 C22.0488889,20.1177778 22.0977778,20.3133333 22.0977778,20.4844444 C22.0977778,20.7288889 21.9511111,20.9733333 21.6333333,21.2177778 L20.0933333,22.2444444 C19.8733333,22.3911111 19.6533333,22.4644444 19.4577778,22.4644444 C19.2133333,22.4644444 18.9688889,22.3422222 18.7244444,22.1222222 C18.3822222,21.7555556 18.0888889,21.3644444 17.8444444,20.9733333 C17.6,20.5577778 17.3555556,20.0933333 17.0866667,19.5311111 C15.18,21.78 12.7844444,22.9044444 9.9,22.9044444 C7.84666667,22.9044444 6.20888889,22.3177778 5.01111111,21.1444444 C3.81333333,19.9711111 3.20222222,18.4066667 3.20222222,16.4511111 C3.20222222,14.3733333 3.93555556,12.6866667 5.42666667,11.4155556 C6.91777778,10.1444444 8.89777778,9.50888889 11.4155556,9.50888889 C12.2466667,9.50888889 13.1022222,9.58222222 14.0066667,9.70444444 C14.9111111,9.82666667 15.84,10.0222222 16.8177778,10.2422222 L16.8177778,8.45777778 C16.8177778,6.6 16.4266667,5.30444444 15.6688889,4.54666667 C14.8866667,3.78888889 13.5666667,3.42222222 11.6844444,3.42222222 C10.8288889,3.42222222 9.94888889,3.52 9.04444444,3.74 C8.14,3.96 7.26,4.22888889 6.40444444,4.57111111 C6.01333333,4.74222222 5.72,4.84 5.54888889,4.88888889 C5.37777778,4.93777778 5.25555556,4.96222222 5.15777778,4.96222222 C4.81555556,4.96222222 4.64444444,4.71777778 4.64444444,4.20444444 L4.64444444,3.00666667 C4.64444444,2.61555556 4.69333333,2.32222222 4.81555556,2.15111111 C4.93777778,1.98 5.15777778,1.80888889 5.5,1.63777778 C6.35555556,1.19777778 7.38222222,0.831111111 8.58,0.537777778 C9.77777778,0.22 11.0488889,0.0733333333 12.3933333,0.0733333333 C15.3022222,0.0733333333 17.4288889,0.733333333 18.7977778,2.05333333 C20.1422222,3.37333333 20.8266667,5.37777778 20.8266667,8.06666667 L20.8266667,15.9866667 L20.8755556,15.9866667 Z M10.9511111,19.7022222 C11.7577778,19.7022222 12.5888889,19.5555556 13.4688889,19.2622222 C14.3488889,18.9688889 15.1311111,18.4311111 15.7911111,17.6977778 C16.1822222,17.2333333 16.4755556,16.72 16.6222222,16.1333333 C16.7688889,15.5466667 16.8666667,14.8377778 16.8666667,14.0066667 L16.8666667,12.98 C16.1577778,12.8088889 15.4,12.6622222 14.6177778,12.5644444 C13.8355556,12.4666667 13.0777778,12.4177778 12.32,12.4177778 C10.6822222,12.4177778 9.48444444,12.7355556 8.67777778,13.3955556 C7.87111111,14.0555556 7.48,14.9844444 7.48,16.2066667 C7.48,17.3555556 7.77333333,18.2111111 8.38444444,18.7977778 C8.97111111,19.4088889 9.82666667,19.7022222 10.9511111,19.7022222 Z M30.58,22.3422222 C30.14,22.3422222 29.8466667,22.2688889 29.6511111,22.0977778 C29.4555556,21.9511111 29.2844444,21.6088889 29.1377778,21.1444444 L23.3933333,2.24888889 C23.2466667,1.76 23.1733333,1.44222222 23.1733333,1.27111111 C23.1733333,0.88 23.3688889,0.66 23.76,0.66 L26.1555556,0.66 C26.62,0.66 26.9377778,0.733333333 27.1088889,0.904444444 C27.3044444,1.05111111 27.4511111,1.39333333 27.5977778,1.85777778 L31.7044444,18.04 L35.5177778,1.85777778 C35.64,1.36888889 35.7866667,1.05111111 35.9822222,0.904444444 C36.1777778,0.757777778 36.52,0.66 36.96,0.66 L38.9155556,0.66 C39.38,0.66 39.6977778,0.733333333 39.8933333,0.904444444 C40.0888889,1.05111111 40.26,1.39333333 40.3577778,1.85777778 L44.22,18.2355556 L48.4488889,1.85777778 C48.5955556,1.36888889 48.7666667,1.05111111 48.9377778,0.904444444 C49.1333333,0.757777778 49.4511111,0.66 49.8911111,0.66 L52.1644444,0.66 C52.5555556,0.66 52.7755556,0.855555556 52.7755556,1.27111111 C52.7755556,1.39333333 52.7511111,1.51555556 52.7266667,1.66222222 C52.7022222,1.80888889 52.6533333,2.00444444 52.5555556,2.27333333 L46.6644444,21.1688889 C46.5177778,21.6577778 46.3466667,21.9755556 46.1511111,22.1222222 C45.9555556,22.2688889 45.6377778,22.3666667 45.2222222,22.3666667 L43.12,22.3666667 C42.6555556,22.3666667 42.3377778,22.2933333 42.1422222,22.1222222 C41.9466667,21.9511111 41.7755556,21.6333333 41.6777778,21.1444444 L37.8888889,5.37777778 L34.1244444,21.12 C34.0022222,21.6088889 33.8555556,21.9266667 33.66,22.0977778 C33.4644444,22.2688889 33.1222222,22.3422222 32.6822222,22.3422222 L30.58,22.3422222 Z M61.9911111,23.0022222 C60.72,23.0022222 59.4488889,22.8555556 58.2266667,22.5622222 C57.0044444,22.2688889 56.0511111,21.9511111 55.4155556,21.5844444 C55.0244444,21.3644444 54.7555556,21.12 54.6577778,20.9 C54.56,20.68 54.5111111,20.4355556 54.5111111,20.2155556 L54.5111111,18.9688889 C54.5111111,18.4555556 54.7066667,18.2111111 55.0733333,18.2111111 C55.22,18.2111111 55.3666667,18.2355556 55.5133333,18.2844444 C55.66,18.3333333 55.88,18.4311111 56.1244444,18.5288889 C56.9555556,18.8955556 57.86,19.1888889 58.8133333,19.3844444 C59.7911111,19.58 60.7444444,19.6777778 61.7222222,19.6777778 C63.2622222,19.6777778 64.46,19.4088889 65.2911111,18.8711111 C66.1222222,18.3333333 66.5622222,17.5511111 66.5622222,16.5488889 C66.5622222,15.8644444 66.3422222,15.3022222 65.9022222,14.8377778 C65.4622222,14.3733333 64.6311111,13.9577778 63.4333333,13.5666667 L59.8888889,12.4666667 C58.1044444,11.9044444 56.7844444,11.0733333 55.9777778,9.97333333 C55.1711111,8.89777778 54.7555556,7.7 54.7555556,6.42888889 C54.7555556,5.40222222 54.9755556,4.49777778 55.4155556,3.71555556 C55.8555556,2.93333333 56.4422222,2.24888889 57.1755556,1.71111111 C57.9088889,1.14888889 58.74,0.733333333 59.7177778,0.44 C60.6955556,0.146666667 61.7222222,0.0244444444 62.7977778,0.0244444444 C63.3355556,0.0244444444 63.8977778,0.0488888889 64.4355556,0.122222222 C64.9977778,0.195555556 65.5111111,0.293333333 66.0244444,0.391111111 C66.5133333,0.513333333 66.9777778,0.635555556 67.4177778,0.782222222 C67.8577778,0.928888889 68.2,1.07555556 68.4444444,1.22222222 C68.7866667,1.41777778 69.0311111,1.61333333 69.1777778,1.83333333 C69.3244444,2.02888889 69.3977778,2.29777778 69.3977778,2.64 L69.3977778,3.78888889 C69.3977778,4.30222222 69.2022222,4.57111111 68.8355556,4.57111111 C68.64,4.57111111 68.3222222,4.47333333 67.9066667,4.27777778 C66.5133333,3.64222222 64.9488889,3.32444444 63.2133333,3.32444444 C61.82,3.32444444 60.72,3.54444444 59.9622222,4.00888889 C59.2044444,4.47333333 58.8133333,5.18222222 58.8133333,6.18444444 C58.8133333,6.86888889 59.0577778,7.45555556 59.5466667,7.92 C60.0355556,8.38444444 60.94,8.84888889 62.2355556,9.26444444 L65.7066667,10.3644444 C67.4666667,10.9266667 68.7377778,11.7088889 69.4955556,12.7111111 C70.2533333,13.7133333 70.62,14.8622222 70.62,16.1333333 C70.62,17.1844444 70.4,18.1377778 69.9844444,18.9688889 C69.5444444,19.8 68.9577778,20.5333333 68.2,21.12 C67.4422222,21.7311111 66.5377778,22.1711111 65.4866667,22.4888889 C64.3866667,22.8311111 63.2377778,23.0022222 61.9911111,23.0022222 Z" id="Shape" fill="#252F3E" fill-rule="nonzero"></path>
            <g id="Group" transform="translate(0.000000, 27.377778)" fill="#FF9900">
                <path d="M66.6111111,7.50444444 C58.5688889,13.4444444 46.8844444,16.5977778 36.8377778,16.5977778 C22.7577778,16.5977778 10.0711111,11.3911111 0.488888889,2.73777778 C-0.268888889,2.05333333 0.415555556,1.12444444 1.32,1.66222222 C11.6844444,7.67555556 24.4688889,11.3177778 37.6933333,11.3177778 C46.6155556,11.3177778 56.4177778,9.46 65.4377778,5.64666667 C66.7822222,5.03555556 67.9311111,6.52666667 66.6111111,7.50444444 Z" id="Path"></path>
                <path d="M69.96,3.69111111 C68.9333333,2.37111111 63.1644444,3.05555556 60.5488889,3.37333333 C59.7666667,3.47111111 59.6444444,2.78666667 60.3533333,2.27333333 C64.9488889,-0.953333333 72.5022222,-0.0244444444 73.3822222,1.05111111 C74.2622222,2.15111111 73.1377778,9.70444444 68.8355556,13.3222222 C68.1755556,13.8844444 67.54,13.5911111 67.8333333,12.8577778 C68.8111111,10.4377778 70.9866667,4.98666667 69.96,3.69111111 Z" id="Path"></path>
            </g>
        </g>
    </g>
</svg>