<?xml version="1.0" encoding="UTF-8"?>
<svg width="72px" height="50px" viewBox="0 0 72 50" version="1.1" xmlns="http://www.w3.org/2000/svg" xmlns:xlink="http://www.w3.org/1999/xlink">
    <title>Salesforce_logo</title>
    <defs>
        <polygon id="path-1" points="0.0157012702 0.130843919 71.2220085 0.130843919 71.2220085 49.9666756 0.0157012702 49.9666756"></polygon>
    </defs>
    <g id="Page-1" stroke="none" stroke-width="1" fill="none" fill-rule="evenodd">
        <g id="home-v3-copy" transform="translate(-1032.000000, -922.000000)">
            <g id="Salesforce_logo" transform="translate(1032.000000, 922.000000)">
                <g id="Clipped">
                    <mask id="mask-2" fill="white">
                        <use xlink:href="#path-1"></use>
                    </mask>
                    <g id="a"></g>
                    <path d="M29.6382411,5.56793211 C31.9350752,3.17505853 35.1331623,1.69024174 38.6698734,1.69024174 C43.3710954,1.69024174 47.4733139,4.31183049 49.6570989,8.20417538 C51.6110616,7.33107385 53.7275799,6.88106956 55.8677363,6.88369856 C64.347469,6.88369856 71.2220085,13.8181646 71.2220085,22.3727399 C71.2220085,30.9273153 64.347469,37.862043 55.8677363,37.862043 C54.8322376,37.862043 53.8210758,37.7578913 52.8428866,37.5605786 C50.9197427,40.9910445 47.2534961,43.309337 43.0466025,43.309337 C41.3450077,43.3116888 39.6653836,42.9251022 38.1360302,42.1791073 C36.1864558,46.7662334 31.6425082,49.9823769 26.3483016,49.9823769 C20.8337538,49.9823769 16.1338402,46.4935546 14.3310727,41.6005155 C13.5275879,41.7700523 12.7086079,41.8553006 11.8874317,41.854876 C5.32194554,41.854876 0,36.477191 0,29.843666 C0,25.3975897 2.39078008,21.515974 5.94423922,19.439481 C5.19136888,17.7058574 4.80394688,15.8356488 4.80615882,13.9456065 C4.80615882,6.31609764 10.9995249,0.130843919 18.6392396,0.130843919 C23.1245691,0.130843919 27.1108599,2.26307642 29.6382411,5.56793211" id="Path" fill="#00A1E0" fill-rule="nonzero" mask="url(#mask-2)"></path>
                </g>
                <path d="M10.3157345,25.9827237 C10.2709859,26.0994364 10.3316975,26.1237734 10.3460903,26.1444467 C10.4798128,26.2412712 10.6156288,26.3114036 10.7527532,26.3901716 C11.478937,26.7745911 12.1653442,26.8873785 12.8823688,26.8873785 C14.343372,26.8873785 15.2509055,26.110689 15.2509055,24.8598212 L15.2509055,24.8352225 C15.2509055,23.6785623 14.2263976,23.2582916 13.2662649,22.9549954 L13.1409164,22.9144338 C12.4168262,22.6794381 11.7919156,22.4761066 11.7919156,21.9990497 L11.7919156,21.9747127 C11.7919156,21.566218 12.1572318,21.2660621 12.7232626,21.2660621 C13.3526219,21.2660621 14.0984322,21.4751507 14.5794145,21.7407638 C14.5794145,21.7407638 14.7212493,21.8323546 14.7728018,21.6954918 C14.8008024,21.6214342 15.0439104,20.9666912 15.0698175,20.8957738 C15.0975564,20.8190993 15.0488825,20.7612662 14.9989001,20.7314338 C14.4496173,20.3967351 13.6909843,20.1690667 12.9056591,20.1690667 L12.7598989,20.16959 C11.4226741,20.16959 10.4889719,20.9782055 10.4889719,22.1353891 L10.4889719,22.1602494 C10.4889719,23.3797147 11.5189752,23.7761718 12.4838183,24.0517291 L12.6387375,24.0998797 C13.3413693,24.3155105 13.9482234,24.5018322 13.9482234,24.9961605 L13.9482234,25.0207592 C13.9482234,25.4734791 13.5538598,25.809748 12.9187435,25.809748 C12.6724952,25.809748 11.8863849,25.805561 11.0369462,25.2683159 C10.9341029,25.2083894 10.8754848,25.1652109 10.7961934,25.1167986 C10.7543234,25.0914149 10.6496482,25.0456195 10.6041145,25.1827439 L10.3157345,25.9827237 M31.7034815,25.9827237 C31.6587328,26.0994364 31.7194444,26.1237734 31.7343606,26.1444467 C31.8675597,26.2412712 32.0036374,26.3114036 32.1405002,26.3901716 C32.8669456,26.7745911 33.5533528,26.8873785 34.2701158,26.8873785 C35.731119,26.8873785 36.6389141,26.110689 36.6389141,24.8598212 L36.6389141,24.8352225 C36.6389141,23.6785623 35.6146679,23.2582916 34.6542735,22.9549954 L34.528925,22.9144338 C33.8048348,22.6794381 33.1796626,22.4761066 33.1796626,21.9990497 L33.1796626,21.9747127 C33.1796626,21.566218 33.5452405,21.2660621 34.1115329,21.2660621 C34.7406305,21.2660621 35.4861792,21.4751507 35.9671614,21.7407638 C35.9671614,21.7407638 36.1089962,21.8323546 36.1608104,21.6954918 C36.1885493,21.6214342 36.431919,20.9666912 36.4575644,20.8957738 C36.485565,20.8190993 36.4366294,20.7612662 36.3869087,20.7314338 C35.8373642,20.3967351 35.0789929,20.1690667 34.2936677,20.1690667 L34.1476459,20.16959 C32.8106827,20.16959 31.8769805,20.9782055 31.8769805,22.1353891 L31.8769805,22.1602494 C31.8769805,23.3797147 32.9067221,23.7761718 33.8718269,24.0517291 L34.0264844,24.0998797 C34.7293779,24.3155105 35.336232,24.5018322 35.336232,24.9961605 L35.336232,25.0207592 C35.336232,25.4734791 34.9416068,25.809748 34.3070138,25.809748 C34.0602421,25.809748 33.2741319,25.805561 32.4249548,25.2683159 C32.3221115,25.2083894 32.2619233,25.1670427 32.1839403,25.1167986 C32.1575099,25.1000506 32.0342549,25.0519 31.9921232,25.1827439 L31.7034815,25.9827237 M46.3043543,23.5322788 C46.3043543,24.2388359 46.1724637,24.7967544 45.9133927,25.1900712 C45.6558919,25.5799861 45.2672854,25.7697098 44.7253299,25.7697098 C44.1833744,25.7697098 43.7968615,25.5802478 43.5435477,25.1905946 C43.2878786,24.7970161 43.1580815,24.2388359 43.1580815,23.5322788 C43.1580815,22.826245 43.2878786,22.2701583 43.5435477,21.8807668 C43.7968615,21.4947773 44.1833744,21.3074088 44.7253299,21.3074088 C45.2672854,21.3074088 45.6558919,21.4950389 45.9133927,21.8810285 C46.172987,22.2701583 46.3043543,22.826245 46.3043543,23.5322788 M47.524343,22.2220078 C47.4042283,21.8166533 47.2176449,21.4599728 46.9693031,21.1624337 C46.720438,20.8641096 46.4056275,20.6241418 46.0324607,20.4503811 C45.6598172,20.2763587 45.2201816,20.1881699 44.7253299,20.1881699 C44.2304782,20.1881699 43.790581,20.2763587 43.4176758,20.4503811 C43.0450323,20.6241418 42.7299602,20.8641096 42.481095,21.1629571 C42.233015,21.4610195 42.0459082,21.8171767 41.9263168,22.2220078 C41.8072489,22.624222 41.746799,23.065166 41.746799,23.5322788 C41.746799,23.9996532 41.8072489,24.4408589 41.9263168,24.8425498 C42.0459082,25.2471192 42.2324916,25.603538 42.4813567,25.9021238 C42.7302219,26.2009713 43.0460791,26.4388456 43.4181992,26.6084193 C43.791366,26.777993 44.2310016,26.86435 44.7253299,26.86435 C45.2199199,26.86435 45.6590321,26.777993 46.0319373,26.6084193 C46.4045808,26.4388456 46.7199146,26.2009713 46.9693031,25.9021238 C47.2176449,25.6045847 47.4042283,25.2476425 47.524343,24.8425498 C47.6431493,24.4400739 47.7035992,23.9991299 47.7035992,23.5322788 C47.7035992,23.0656893 47.6431493,22.6244836 47.524343,22.2220078 M57.5383515,25.5805095 C57.4983133,25.4619649 57.3826472,25.5067135 57.3826472,25.5067135 C57.2054846,25.5744906 57.0170693,25.6372957 56.8155697,25.6686983 C56.6124999,25.7006242 56.3877101,25.7165871 56.147219,25.7165871 C55.5576363,25.7165871 55.0879066,25.5409946 54.7526845,25.1939965 C54.4158922,24.8467368 54.2266919,24.285678 54.2287854,23.5267833 C54.2306172,22.8369742 54.3975741,22.3172621 54.696945,21.9210667 C54.993699,21.5274882 55.4469423,21.3254652 56.0496094,21.3254652 C56.5528351,21.3254652 56.9367312,21.3838216 57.3389454,21.5099551 C57.3389454,21.5099551 57.4344614,21.5515635 57.4802568,21.4256917 C57.5872871,21.1291993 57.6663169,20.9182789 57.7804128,20.5924776 C57.812862,20.4995784 57.7333089,20.4603252 57.7042616,20.4490727 C57.5462021,20.3873143 57.1727736,20.2860411 56.8909358,20.243386 C56.6274161,20.2030861 56.3194096,20.1821511 55.9758134,20.1821511 C55.4636903,20.1821511 55.0070451,20.2698165 54.6166068,20.4435772 C54.2269536,20.6170762 53.8964419,20.8567823 53.6344923,21.1548448 C53.3725428,21.4534306 53.1731367,21.8101111 53.041246,22.2146805 C52.9090937,22.6171564 52.8423633,23.0588855 52.8423633,23.5273067 C52.8423633,24.5387302 53.1153037,25.3559813 53.6535956,25.9547231 C54.1937193,26.5555583 55.0039048,26.8606864 56.0613853,26.8606864 C56.6860342,26.8606864 57.3269077,26.7342911 57.7885251,26.5526798 C57.7885251,26.5526798 57.8764522,26.5102863 57.8382458,26.4077047 L57.5383515,25.5805095 M59.6721541,22.8547689 C59.7305105,22.4619755 59.8380642,22.1356508 60.0058061,21.8807668 C60.2588583,21.4947773 60.6440628,21.282025 61.1860183,21.282025 C61.7282355,21.282025 62.0854394,21.4950389 62.3429402,21.8810285 C62.5130373,22.1361741 62.5873566,22.4761066 62.616404,22.8552923 L59.6721541,22.8547689 L59.6721541,22.8547689 Z M63.7777746,21.9919841 C63.6738845,21.6010225 63.4179538,21.2061356 63.2496885,21.025571 C62.9840754,20.7392845 62.7239577,20.5388316 62.4656718,20.4281376 C62.0918668,20.2692687 61.6897919,20.1876431 61.2836278,20.1881674 C60.7683645,20.1881674 60.3002049,20.2753119 59.9204959,20.4532597 C59.5402635,20.6317308 59.2207426,20.8756238 58.9703073,21.1786583 C58.7193487,21.4814312 58.5311952,21.8417753 58.4110804,22.2505317 C58.290704,22.6569329 58.2299925,23.0999704 58.2299925,23.5678683 C58.2299925,24.0436168 58.2930592,24.4871777 58.4170993,24.8859899 C58.5424477,25.2882041 58.7436857,25.641221 59.0153177,25.9350965 C59.2866879,26.2300187 59.6360412,26.4613507 60.0534333,26.6225504 C60.4687319,26.7834884 60.9732661,26.8669669 61.5518579,26.8651646 C62.744631,26.8612097 63.3718968,26.5953349 63.6309677,26.4521916 C63.6767631,26.4265462 63.7199416,26.382321 63.6660339,26.254879 L63.395972,25.4991245 C63.3546254,25.3863371 63.2405295,25.4271604 63.2405295,25.4271604 C62.9445605,25.5375927 62.5255983,25.7346436 61.545839,25.7325501 C60.9057506,25.7315033 60.4315722,25.542303 60.1335098,25.2468575 C59.8286435,24.944608 59.678958,24.5007854 59.6535743,23.8737814 L63.7809149,23.8769216 C63.7809149,23.8769216 63.889777,23.8758749 63.9010296,23.7696296 C63.9054783,23.7256661 64.0426027,22.921761 63.7777746,21.9919841 Z M26.6107745,22.8547689 C26.6691309,22.4619755 26.7769462,22.1356508 26.9444265,21.8807668 C27.1977403,21.4947773 27.5824214,21.282025 28.1249003,21.282025 C28.6671175,21.282025 29.0243214,21.4950389 29.2818222,21.8810285 C29.4516576,22.1361741 29.525977,22.4761066 29.5550243,22.8552923 L26.6107745,22.8547689 L26.6107745,22.8547689 Z M30.7163949,21.9919841 C30.6127666,21.6010225 30.3565742,21.2061356 30.1885706,21.025571 C29.9229574,20.7392845 29.6631014,20.5388316 29.4045538,20.4281376 C29.0307231,20.2693517 28.6286653,20.1877296 28.2225099,20.1881681 C27.7072465,20.1881681 27.239087,20.2753119 26.8593779,20.4532597 C26.4791455,20.6317308 26.1596246,20.8756238 25.908666,21.1786583 C25.6582307,21.4814312 25.4700772,21.8417753 25.3494391,22.2505317 C25.2293244,22.6569329 25.1688745,23.0999704 25.1688745,23.5678683 C25.1688745,24.0436168 25.2314179,24.4871777 25.356243,24.8859899 C25.4813298,25.2882041 25.6828294,25.641221 25.953938,25.9350965 C26.22557,26.2300187 26.5746615,26.4613507 26.9920536,26.6225504 C27.4076139,26.7834884 27.9116247,26.8669669 28.4907399,26.8651646 C29.6832514,26.8612097 30.3107788,26.5953349 30.5698498,26.4521916 C30.6153834,26.4265462 30.6588236,26.382321 30.6046542,26.254879 L30.3348541,25.4991245 C30.2932457,25.3863371 30.1791498,25.4271604 30.1791498,25.4271604 C29.8834426,25.5375927 29.4644803,25.7346436 28.4844594,25.7325501 C27.8446326,25.7315033 27.3701926,25.542303 27.0721301,25.2468575 C26.7675255,24.944608 26.6175784,24.5007854 26.5921946,23.8737814 L30.7197969,23.8769216 C30.7197969,23.8769216 30.828659,23.8758749 30.8399116,23.7696296 C30.8443603,23.7256661 30.9814847,22.921761 30.7163949,21.9919841 L30.7163949,21.9919841 Z M17.6880043,25.5580043 C17.5260195,25.4287305 17.5035144,25.3970663 17.4498684,25.3130645 C17.3679601,25.1866693 17.32609,25.006628 17.32609,24.776081 C17.32609,24.4136434 17.4464664,24.1524789 17.6945465,23.9771481 C17.6919296,23.9776715 18.0504419,23.6678331 18.8917683,23.6788239 C19.2670907,23.6854896 19.6415393,23.7174004 20.0125773,23.77434 L20.0125773,25.6506418 L20.0131007,25.6506418 C20.0131007,25.6506418 19.4884166,25.7634293 18.8977872,25.7990188 C18.0582926,25.8495246 17.6853874,25.5572192 17.6880043,25.5580043 L17.6880043,25.5580043 Z M19.3306188,22.6569329 C19.1631386,22.6446336 18.9461994,22.6386148 18.6860817,22.6386148 C18.3325414,22.6386148 17.9905154,22.6825783 17.6694245,22.7689353 C17.347025,22.8558157 17.0570749,22.9903232 16.8076864,23.1685327 C16.5584534,23.3465751 16.3535038,23.5795498 16.2086829,23.8494444 C16.0623994,24.1218615 15.9878184,24.4419057 15.9878184,24.8006797 C15.9878184,25.166781 16.0514086,25.4839466 16.1770187,25.7430176 C16.2999112,25.999882 16.4849247,26.222042 16.7153106,26.3893866 C16.9448108,26.5563434 17.2279571,26.6788133 17.5563753,26.753656 C17.8806065,26.8277137 18.2480163,26.865135 18.6494454,26.865135 C19.0733797,26.865135 19.4949588,26.8295455 19.9034535,26.7607216 C20.2514099,26.7007667 20.5980504,26.6334105 20.9431393,26.5586986 C21.0807871,26.5270344 21.232566,26.485426 21.232566,26.485426 C21.3346243,26.4595189 21.3267737,26.3503951 21.3267737,26.3503951 L21.3244185,22.5752863 C21.3244185,21.747306 21.1035539,21.1339097 20.6683671,20.7528922 C20.2352737,20.3737066 19.5975404,20.1821511 18.7724387,20.1821511 C18.4626003,20.1821511 17.96487,20.2240211 17.6660225,20.2839476 C17.6660225,20.2839476 16.7647696,20.4587551 16.3936962,20.7494903 C16.3936962,20.7494903 16.3120496,20.7997344 16.3565366,20.9135686 L16.6488419,21.6986321 C16.6852165,21.8004286 16.7843962,21.7656242 16.7843962,21.7656242 C16.7843962,21.7656242 16.815537,21.7533248 16.8521733,21.7316047 C17.6461342,21.2998198 18.6507538,21.3126425 18.6507538,21.3126425 C19.0966699,21.3126425 19.440266,21.4029248 19.6710747,21.5795641 C19.8963879,21.7525398 20.0107455,22.0129192 20.0107455,22.5632487 L20.0107455,22.7377945 C19.6566819,22.6865037 19.3306188,22.6569329 19.3306188,22.6569329 L19.3306188,22.6569329 Z M52.6264708,20.5301959 C52.6384923,20.5023133 52.6386782,20.4707448 52.6269859,20.4427226 C52.6152935,20.4147004 52.592725,20.3926262 52.5644508,20.3815572 C52.4940568,20.354865 52.1431334,20.2808074 51.8725481,20.2640594 C51.3536212,20.2316101 51.0660262,20.3190138 50.808002,20.4352032 C50.5520713,20.5506075 50.2686634,20.737191 50.1106039,20.9499432 L50.1100806,20.4464558 C50.1100806,20.3773702 50.0611449,20.3216307 49.991536,20.3216307 L48.9332704,20.3216307 C48.8647081,20.3216307 48.8149875,20.3773702 48.8149875,20.4464558 L48.8149875,26.604494 C48.8151314,26.6736623 48.8711676,26.7296985 48.9403359,26.7298424 L50.025032,26.7298424 C50.0941578,26.7296981 50.1501189,26.6736199 50.1501188,26.604494 L50.1501188,23.5283534 C50.1501188,23.1151483 50.1956525,22.7035134 50.2864582,22.4447041 C50.3759554,22.1885117 50.4976402,21.9843952 50.6483724,21.8375883 C50.7911957,21.6958964 50.9660509,21.590696 51.1581403,21.5308902 C51.3381824,21.4792224 51.5245627,21.4529741 51.7118718,21.4529072 C51.9277643,21.4529072 52.1653768,21.508385 52.1653768,21.508385 C52.2449299,21.5172824 52.2891552,21.4686085 52.316109,21.396906 C52.3870264,21.2082291 52.5880027,20.6427217 52.6264708,20.5301959" id="Shape" fill="#FFFFFE" fill-rule="nonzero"></path>
                <path d="M42.4460289,17.67649 C42.3121149,17.6360196 42.1758757,17.6036857 42.0380575,17.5796655 C41.8526784,17.5487222 41.6649317,17.5341858 41.4769988,17.5362253 C40.7304034,17.5362253 40.1418675,17.7471457 39.7286624,18.1637528 C39.3183358,18.5772196 39.0391149,19.2071022 38.8991119,20.0358676 L38.8486062,20.3156119 L37.911502,20.3156119 C37.911502,20.3156119 37.7971444,20.3109015 37.7730692,20.4357266 L37.6191967,21.2940627 C37.6084675,21.3762327 37.6437954,21.4275235 37.7537043,21.4270001 L38.6659481,21.4270001 L37.7403582,26.5935031 C37.6678707,27.0095867 37.5849156,27.3518744 37.4930632,27.6112071 C37.4025192,27.8671378 37.3140687,28.058955 37.2052066,28.1981729 C37.0997464,28.3329421 36.9997816,28.4321218 36.8273293,28.4899548 C36.6849711,28.5378437 36.5211546,28.5598255 36.3416367,28.5598255 C36.2416719,28.5598255 36.1087345,28.5430775 36.0106016,28.5234509 C35.9124686,28.504086 35.8614395,28.4821042 35.7879052,28.451225 C35.7879052,28.451225 35.6808749,28.4104017 35.6387432,28.5176937 C35.6044621,28.6053592 35.3613541,29.2739716 35.3325684,29.3566649 C35.3032594,29.4383116 35.3443443,29.5026868 35.3961585,29.5212666 C35.5175817,29.5647068 35.607864,29.5924457 35.7732507,29.6314372 C36.0030126,29.6856066 36.1966616,29.6890085 36.3780113,29.6890085 C36.757982,29.6890085 37.1041951,29.6356242 37.3912666,29.5319958 C37.68017,29.4275823 37.931652,29.2457093 38.1540867,28.999461 C38.3945778,28.7338479 38.5458333,28.4556737 38.6905467,28.0762264 C38.83369,27.7001809 38.9556365,27.2333298 39.0532461,26.6892808 L39.9832846,21.4270001 L41.3430146,21.4270001 C41.3430146,21.4270001 41.4576339,21.4311871 41.4814475,21.3068854 L41.63532,20.4485493 C41.6460492,20.3663793 41.610983,20.3150885 41.5005507,20.3156119 L40.180859,20.3156119 C40.1874011,20.2857794 40.2473277,19.8215452 40.3988449,19.3845265 C40.4634818,19.1979431 40.5851667,19.0474726 40.6882717,18.9441059 C40.7845363,18.8456595 40.9031164,18.7718724 41.0339613,18.7289985 C41.1773879,18.6846559 41.3268878,18.6631095 41.4769988,18.6651467 C41.6013005,18.6651467 41.7232471,18.6800629 41.8161462,18.6994278 C41.9441116,18.7266433 41.9938323,18.7410361 42.0273283,18.7509803 C42.1618359,18.7920653 42.1798923,18.7522887 42.2063228,18.6871284 L42.5219183,17.8204183 C42.5543676,17.7272575 42.4753379,17.6880043 42.4460289,17.67649 M24.0038402,26.604494 C24.0038402,26.6735796 23.9546429,26.7298424 23.8855573,26.7298424 L22.7909171,26.7298424 C22.7215698,26.7298424 22.6723725,26.6735796 22.6723725,26.604494 L22.6723725,17.7939879 C22.6723725,17.725164 22.7215698,17.6694245 22.7909171,17.6694245 L23.8855573,17.6694245 C23.9546429,17.6694245 24.0038402,17.725164 24.0038402,17.7939879 L24.0038402,26.604494" id="Shape" fill="#FFFFFE" fill-rule="nonzero"></path>
            </g>
        </g>
    </g>
</svg>