<?xml version="1.0" encoding="UTF-8"?>
<svg width="145px" height="29px" viewBox="0 0 145 29" version="1.1" xmlns="http://www.w3.org/2000/svg" xmlns:xlink="http://www.w3.org/1999/xlink">
    <title>Dropbox_logo_2017</title>
    <g id="Page-1" stroke="none" stroke-width="1" fill="none" fill-rule="evenodd">
        <g id="home-v3-copy" transform="translate(-829.000000, -933.000000)" fill-rule="nonzero">
            <g id="Dropbox_logo_2017" transform="translate(829.000000, 933.000000)">
                <path d="M16.8192007,5.36474504 L8.40960033,10.7294901 L16.8192007,16.0942351 L8.40960033,21.4589802 L0,16.0652365 L8.40960033,10.7004915 L0,5.36474504 L8.40960033,0 L16.8192007,5.36474504 Z M8.3661024,23.1843982 L16.7757027,17.8196531 L25.1853031,23.1843982 L16.7757027,28.5491432 L8.3661024,23.1843982 Z M16.8192007,16.0652365 L25.228801,10.7004915 L16.8192007,5.36474504 L25.1853031,0 L33.5949034,5.36474504 L25.1853031,10.7294901 L33.5949034,16.0942351 L25.1853031,21.4589802 L16.8192007,16.0652365 Z" id="Shape" fill="#0061FF"></path>
                <path d="M40.1920899,5.36474504 L46.9922667,5.36474504 C51.3275607,5.36474504 54.9088905,7.87312583 54.9088905,13.6003536 L54.9088905,14.8037965 C54.9088905,20.5745222 51.5595496,23.1698989 47.1227605,23.1698989 L40.1920899,23.1698989 L40.1920899,5.36474504 Z M43.9909093,8.59809138 L43.9909093,19.9220532 L46.9052708,19.9220532 C49.3701537,19.9220532 51.0230751,18.3126297 51.0230751,14.7312999 L51.0230751,13.7888447 C51.0230751,10.2075149 49.2831578,8.59809138 46.774777,8.59809138 L43.9909093,8.59809138 Z M56.9242947,8.77208311 L59.96915,8.77208311 L60.4621265,12.1214239 C61.042099,9.84503212 62.5210287,8.62709 65.2034012,8.62709 L66.1458564,8.62709 L66.1458564,12.4694074 L64.5799308,12.4694074 C61.4915776,12.4694074 60.7376134,13.5423564 60.7376134,16.5872117 L60.7376134,23.2133968 L56.9822919,23.2133968 L56.9822919,8.77208311 L56.9242947,8.77208311 Z M66.8998206,16.2827262 L66.8998206,15.8767455 C66.8998206,11.0484749 69.9881738,8.40960033 74.192974,8.40960033 C78.48477,8.40960033 81.4861274,11.0484749 81.4861274,15.8767455 L81.4861274,16.2827262 C81.4861274,21.0240008 78.5717659,23.5758796 74.192974,23.5758796 C69.5386952,23.5323816 66.8998206,21.0385001 66.8998206,16.2827262 Z M77.64381,16.2392282 L77.64381,15.8767455 C77.64381,13.1943729 76.2953741,11.5849494 74.149476,11.5849494 C72.047076,11.5849494 70.6551421,13.0638791 70.6551421,15.8767455 L70.6551421,16.2392282 C70.6551421,18.8346049 72.003578,20.3135346 74.149476,20.3135346 C76.2953741,20.2700367 77.64381,18.8346049 77.64381,16.2392282 Z M83.4580337,8.77208311 L86.5898848,8.77208311 L86.9523676,11.4979536 C87.7063318,9.67104038 89.3157553,8.40960033 91.6936423,8.40960033 C95.3619679,8.40960033 97.7833529,11.0484749 97.7833529,15.9347427 L97.7833529,16.3407234 C97.7833529,21.0819981 95.1009803,23.5903789 91.6936423,23.5903789 C89.4172504,23.5903789 87.8513249,22.5609278 87.0828614,20.9080063 L87.0828614,28.2011597 L83.4145357,28.2011597 L83.4580337,8.77208311 L83.4580337,8.77208311 Z M93.9700341,16.2392282 L93.9700341,15.9202434 C93.9700341,13.0493798 92.4911044,11.6284474 90.5191981,11.6284474 C88.416798,11.6284474 87.0248641,13.2378709 87.0248641,15.9202434 L87.0248641,16.1957303 C87.0248641,18.747609 88.3733001,20.3570325 90.4757001,20.3570325 C92.6360975,20.3135346 93.9700341,18.9361001 93.9700341,16.2392282 Z M103.336589,20.5455236 L103.017604,23.1843982 L99.7987571,23.1843982 L99.7987571,3.94381257 L103.467083,3.94381257 L103.467083,11.3239618 C104.279044,9.43905141 105.888468,8.40960033 108.164859,8.40960033 C111.615695,8.45309827 114.167574,10.8309853 114.167574,15.6157579 L114.167574,16.0652365 C114.167574,20.8500091 111.746189,23.5903789 108.077864,23.5903789 C105.656479,23.5323816 104.090553,22.4159347 103.336589,20.5455236 Z M110.310757,16.0652365 L110.310757,15.7027537 C110.310757,13.0638791 108.875326,11.5849494 106.859921,11.5849494 C104.801019,11.5849494 103.365588,13.2378709 103.365588,15.7462517 L103.365588,16.0652365 C103.365588,18.747609 104.757521,20.3135346 106.816424,20.3135346 C109.020319,20.3135346 110.310757,18.9361001 110.310757,16.0652365 Z M115.776998,16.2827262 L115.776998,15.8767455 C115.776998,11.0484749 118.865351,8.40960033 123.070151,8.40960033 C127.361947,8.40960033 130.363304,11.0484749 130.363304,15.8767455 L130.363304,16.2827262 C130.363304,21.0240008 127.405445,23.5758796 123.070151,23.5758796 C118.415872,23.5323816 115.776998,21.0385001 115.776998,16.2827262 Z M126.549986,16.2392282 L126.549986,15.8767455 C126.549986,13.1943729 125.20155,11.5849494 123.055652,11.5849494 C120.953252,11.5849494 119.561318,13.0638791 119.561318,15.8767455 L119.561318,16.2392282 C119.561318,18.8346049 120.909754,20.3135346 123.055652,20.3135346 C125.216049,20.2700367 126.549986,18.8346049 126.549986,16.2392282 Z M135.278571,15.7027537 L130.218311,8.77208311 L134.553605,8.77208311 L137.467967,13.1073771 L140.425826,8.77208311 L144.717622,8.77208311 L139.584866,15.6592558 L144.993109,23.1843982 L140.744811,23.1843982 L137.438968,18.3996256 L134.220121,23.1843982 L129.783332,23.1843982 L135.278571,15.7027537 Z" id="Shape" fill="#000000"></path>
            </g>
        </g>
    </g>
</svg>