<?xml version="1.0" encoding="UTF-8"?>
<svg width="132px" height="29px" viewBox="0 0 132 29" version="1.1" xmlns="http://www.w3.org/2000/svg" xmlns:xlink="http://www.w3.org/1999/xlink">
    <title>Microsoft_logo_(2012)</title>
    <g id="Page-1" stroke="none" stroke-width="1" fill="none" fill-rule="evenodd">
        <g id="home-v3-copy" transform="translate(-640.000000, -933.000000)" fill-rule="nonzero">
            <g id="Microsoft_logo_(2012)" transform="translate(640.000000, 933.000000)">
                <path d="M46.3815912,16.163941 L45.5984124,18.3829478 L45.5331475,18.3829478 C45.4026177,17.8825835 45.1633131,17.1211596 44.7717236,16.207451 L40.5730149,5.65629162 L36.461326,5.65629162 L36.461326,22.4728817 L39.1806969,22.4728817 L39.1806969,12.0957621 C39.1806969,11.443113 39.1806969,10.7034441 39.158942,9.78973549 C39.137187,9.33288117 39.0936771,8.98480168 39.0719221,8.72374207 L39.137187,8.72374207 C39.2677168,9.3763911 39.4200016,9.85500039 39.5287764,10.1595699 L44.5759289,22.4293718 L46.4903661,22.4293718 L51.4940087,10.0507951 C51.6027835,9.76798052 51.7115583,9.20235136 51.8203332,8.72374207 L51.8855981,8.72374207 C51.8203332,9.96377523 51.7768232,11.0732786 51.7550683,11.7476826 L51.7550683,22.4076168 L54.648479,22.4076168 L54.648479,5.61278168 L50.6890749,5.61278168 L46.3815912,16.163941 L46.3815912,16.163941 Z M57.3896049,10.3553646 L60.2177507,10.3553646 L60.2177507,22.4076168 L57.3896049,22.4076168 L57.3896049,10.3553646 Z M58.8254328,5.2647022 C58.3468235,5.2647022 57.9552341,5.43874194 57.6289096,5.74331149 C57.3025851,6.04788104 57.1285453,6.43947045 57.1285453,6.91807975 C57.1285453,7.37493407 57.3025851,7.76652349 57.6289096,8.07109304 C57.9552341,8.37566258 58.3468235,8.52794736 58.8254328,8.52794736 C59.3040421,8.52794736 59.7173865,8.35390762 60.021956,8.07109304 C60.3482805,7.76652349 60.5223203,7.37493407 60.5223203,6.91807975 C60.5223203,6.46122542 60.3482805,6.069636 60.021956,5.74331149 C59.7391414,5.43874194 59.3257971,5.2647022 58.8254328,5.2647022 M70.2467909,10.2465898 C69.7246716,10.137815 69.1807975,10.0725501 68.6586782,10.0725501 C67.3751351,10.0725501 66.2003669,10.3553646 65.2213933,10.9209938 C64.2424198,11.486623 63.4592409,12.2698018 62.9588767,13.2487754 C62.4367574,14.2495039 62.1756978,15.4025172 62.1756978,16.7295702 C62.1756978,17.8825835 62.4367574,18.905067 62.9371217,19.8405306 C63.437486,20.7542392 64.1336449,21.4939081 65.0691085,21.9942724 C65.9610622,22.4946367 67.0053007,22.7556963 68.1800689,22.7556963 C69.5288769,22.7556963 70.6818902,22.4728817 71.5955989,21.9507625 L71.6173538,21.9290075 L71.6173538,19.3184114 L71.508579,19.4054312 C71.0952346,19.7100008 70.6166253,19.9710604 70.138016,20.1233452 C69.6376518,20.2973849 69.1807975,20.3844048 68.789208,20.3844048 C67.6579497,20.3844048 66.765996,20.0580803 66.135102,19.3401663 C65.4824529,18.6440074 65.1561284,17.6867888 65.1561284,16.4902656 C65.1561284,15.2502324 65.4824529,14.2712588 66.1568569,13.5533449 C66.8312609,12.835431 67.7232146,12.4655965 68.810963,12.4655965 C69.7246716,12.4655965 70.6601353,12.7701661 71.508579,13.3793052 L71.6173538,13.466325 L71.6173538,10.7034441 L71.5955989,10.6816892 C71.2257644,10.5294044 70.81242,10.3553646 70.2467909,10.2465898 M79.579672,10.1595699 C78.8835131,10.1595699 78.230864,10.3771196 77.6652349,10.8339739 C77.1866256,11.2255634 76.8603011,11.7911925 76.5774865,12.4655965 L76.5557315,12.4655965 L76.5557315,10.3553646 L73.7275857,10.3553646 L73.7275857,22.4076168 L76.5557315,22.4076168 L76.5557315,16.2509609 C76.5557315,15.2067225 76.7732812,14.3365237 77.2518905,13.7056297 C77.7304998,13.0529807 78.3396389,12.7266561 79.0793078,12.7266561 C79.3403674,12.7266561 79.601427,12.791921 79.9277515,12.835431 C80.2323211,12.9224508 80.4498707,13.0094707 80.6021555,13.1182456 L80.7109304,13.2052654 L80.7109304,10.3771196 L80.6456655,10.3553646 C80.4498707,10.2248348 80.0582813,10.1595699 79.579672,10.1595699 M87.2809306,10.094305 C85.3012286,10.094305 83.7131159,10.6816892 82.6036126,11.8347025 C81.4723542,12.9877157 80.92848,14.5758284 80.92848,16.5772854 C80.92848,18.4482127 81.4941092,19.9710604 82.5818576,21.0805638 C83.669606,22.1683121 85.1489438,22.7339413 86.998116,22.7339413 C88.9343082,22.7339413 90.4789109,22.1465572 91.5884142,20.9717889 C92.7196726,19.7970207 93.2635468,18.230663 93.2635468,16.2944708 C93.2635468,14.3800337 92.7414275,12.8571859 91.6754341,11.7476826 C90.6529506,10.6381792 89.1518578,10.094305 87.2809306,10.094305 M89.5434473,19.3619213 C89.021328,20.0363253 88.1946393,20.3626498 87.1721558,20.3626498 C86.1496723,20.3626498 85.3229835,20.0363253 84.7355994,19.3184114 C84.1482153,18.6440074 83.8654007,17.6650338 83.8654007,16.4250007 C83.8654007,15.1414576 84.1699702,14.162484 84.7355994,13.466325 C85.3229835,12.7701661 86.1279173,12.4220866 87.1504008,12.4220866 C88.1511293,12.4220866 88.9343082,12.7484111 89.4999373,13.4228151 C90.0655665,14.0972191 90.370136,15.0761927 90.370136,16.3597357 C90.3266261,17.6650338 90.0873215,18.6875173 89.5434473,19.3619213 M99.5724874,15.3590072 C98.6805337,14.9891728 98.1149046,14.7063582 97.8538449,14.4670536 C97.6362953,14.2495039 97.5275204,13.9449343 97.5275204,13.5533449 C97.5275204,13.2270204 97.6580502,12.9006959 97.9843748,12.6831462 C98.3106993,12.4655965 98.6805337,12.3568217 99.2244079,12.3568217 C99.7030172,12.3568217 100.203381,12.4438416 100.681991,12.5743714 C101.1606,12.7049012 101.595699,12.9006959 101.943779,13.1617555 L102.052554,13.2487754 L102.052554,10.5946693 L101.987289,10.5729143 C101.660964,10.4423845 101.225865,10.3118547 100.703746,10.2030799 C100.181626,10.11606 99.7030172,10.0725501 99.3114278,10.0725501 C97.9626198,10.0725501 96.8531164,10.3988746 95.9829177,11.1167885 C95.112719,11.7911925 94.6993746,12.7049012 94.6993746,13.7708946 C94.6993746,14.3365237 94.7863945,14.836888 94.9821892,15.2502324 C95.1779839,15.6635768 95.4607985,16.0551662 95.8523879,16.3814907 C96.2439773,16.6860603 96.8096065,17.0341397 97.5927853,17.3604643 C98.2454344,17.6432788 98.7457986,17.8608285 99.0503682,18.0348683 C99.3549377,18.208908 99.5507324,18.4047027 99.7030172,18.5569875 C99.811792,18.7310272 99.8770569,18.9485769 99.8770569,19.2313915 C99.8770569,20.0363253 99.2679179,20.4279147 98.0278847,20.4279147 C97.5492754,20.4279147 97.0489111,20.3408948 96.461527,20.1451001 C95.8741429,19.9493054 95.3302687,19.6664908 94.8734144,19.3401663 L94.7646395,19.2531465 L94.7646395,22.0160274 L94.8299044,22.0377823 C95.2432488,22.233577 95.7436131,22.3641068 96.3527522,22.5163916 C96.9618913,22.6251665 97.5057655,22.7121863 97.9843748,22.7121863 C99.4419576,22.7121863 100.638481,22.3858618 101.486925,21.6679479 C102.357123,20.9717889 102.813978,20.0798352 102.813978,18.9268219 C102.813978,18.1218881 102.596428,17.4039742 102.117819,16.8601 C101.486925,16.3379808 100.703746,15.7941066 99.5724874,15.3590072 M110.275932,10.094305 C108.296229,10.094305 106.708117,10.6816892 105.598613,11.8347025 C104.48911,12.9877157 103.923481,14.5758284 103.923481,16.5772854 C103.923481,18.4482127 104.48911,19.9710604 105.576858,21.0805638 C106.664607,22.1683121 108.143945,22.7339413 109.993117,22.7339413 C111.929309,22.7339413 113.473912,22.1465572 114.583415,20.9717889 C115.714673,19.7970207 116.258548,18.230663 116.258548,16.2944708 C116.258548,14.3800337 115.736428,12.8571859 114.670435,11.7476826 C113.647952,10.6381792 112.146859,10.094305 110.275932,10.094305 M112.516693,19.3619213 C111.994574,20.0363253 111.167885,20.3626498 110.145402,20.3626498 C109.101163,20.3626498 108.296229,20.0363253 107.708845,19.3184114 C107.121461,18.6440074 106.838647,17.6650338 106.838647,16.4250007 C106.838647,15.1414576 107.143216,14.162484 107.708845,13.466325 C108.296229,12.7701661 109.101163,12.4220866 110.123647,12.4220866 C111.10262,12.4220866 111.907554,12.7484111 112.473183,13.4228151 C113.038812,14.0972191 113.343382,15.0761927 113.343382,16.3597357 C113.343382,17.6650338 113.060567,18.6875173 112.516693,19.3619213 M131.37825,12.6831462 L131.37825,10.3553646 L128.528349,10.3553646 L128.528349,6.78754994 L128.44133,6.80930491 L125.743714,7.61423871 L125.678449,7.63599368 L125.678449,10.3553646 L121.414475,10.3553646 L121.414475,8.83251691 C121.414475,8.13635794 121.588515,7.59248375 121.893084,7.24440426 C122.197654,6.89632478 122.654508,6.72228504 123.220137,6.72228504 C123.611727,6.72228504 124.025071,6.80930491 124.481925,7.00509962 L124.5907,7.07036452 L124.5907,4.61205316 L124.525435,4.5902982 C124.133846,4.45976839 123.611727,4.37274852 122.937323,4.37274852 C122.088879,4.37274852 121.34921,4.56854323 120.674806,4.89486774 C120.000402,5.2647022 119.500038,5.76506645 119.130203,6.43947045 C118.760369,7.09211949 118.564574,7.83178839 118.564574,8.68023213 L118.564574,10.3553646 L116.584872,10.3553646 L116.584872,12.6613912 L118.564574,12.6613912 L118.564574,22.4076168 L121.414475,22.4076168 L121.414475,12.6831462 L125.678449,12.6831462 L125.678449,18.883312 C125.678449,21.4286432 126.874972,22.7121863 129.268018,22.7121863 C129.659608,22.7121863 130.072952,22.6469214 130.464542,22.5816565 C130.877886,22.4946367 131.182456,22.3858618 131.356495,22.2988419 L131.37825,22.277087 L131.37825,19.9493054 L131.269475,20.0363253 C131.095436,20.1451001 130.943151,20.23212 130.682091,20.2973849 C130.464542,20.3626498 130.268747,20.3844048 130.116462,20.3844048 C129.550833,20.3844048 129.159244,20.253875 128.876429,19.9275505 C128.615369,19.6229809 128.48484,19.1226167 128.48484,18.3829478 L128.48484,12.6831462 L131.37825,12.6831462 L131.37825,12.6831462 Z" id="Shape" fill="#737373"></path>
                <polygon id="Path" fill="#F25022" points="0 0 13.3357952 0 13.3357952 13.3357952 0 13.3357952"></polygon>
                <polygon id="Path" fill="#7FBA00" points="14.7281132 0 28.0639084 0 28.0639084 13.3357952 14.7281132 13.3357952"></polygon>
                <polygon id="Path" fill="#00A4EF" points="0 14.7281132 13.3357952 14.7281132 13.3357952 28.0639084 0 28.0639084"></polygon>
                <polygon id="Path" fill="#FFB900" points="14.7281132 14.7281132 28.0639084 14.7281132 28.0639084 28.0639084 14.7281132 28.0639084"></polygon>
            </g>
        </g>
    </g>
</svg>