<?xml version="1.0" encoding="UTF-8"?>
<svg width="81px" height="29px" viewBox="0 0 81 29" version="1.1" xmlns="http://www.w3.org/2000/svg" xmlns:xlink="http://www.w3.org/1999/xlink">
    <title>box</title>
    <g id="Page-1" stroke="none" stroke-width="1" fill="none" fill-rule="evenodd">
        <g id="home-v3-copy" transform="translate(-288.000000, -933.000000)" fill-rule="nonzero">
            <g id="box" transform="translate(288.000000, 933.000000)">
                <path d="M54.6009155,26.4369689 C54.6372643,26.6970207 54.6383706,26.9613395 54.6007575,27.224236 C54.5173924,27.808503 54.2545749,28.3536556 53.8461253,28.8075411 L64.905951,28.8075411 L66.7777548,26.4369689 L54.6009155,26.4369689 Z" id="color1" fill="#C894FF"></path>
                <path d="M52.3004569,22.9123627 L54.0192798,25.055597 C54.0741981,25.1286896 54.1250864,25.2035997 54.1728139,25.2797741 L54.1753425,25.2829349 L67.6936886,25.2829349 L69.5654924,22.9123627 L52.3004569,22.9123627 Z" id="color2" fill="#5AC8FF"></path>
                <polygon id="Fill-5" fill="#6ED359" points="72.3803414 19.3877643 49.4938891 19.3877643 51.3705921 21.7583365 70.5086166 21.7583365"></polygon>
                <polygon id="Fill-7" fill="#F4CB1E" points="75.1409044 15.863158 51.2842559 15.863158 49.3828199 18.2337302 73.2691796 18.2337302"></polygon>
                <path d="M54.1051815,12.3385518 C54.0776038,12.3790095 54.0489989,12.4189932 54.0192877,12.4585027 L53.999612,12.4837888 L52.2147292,14.709124 L76.0568381,14.709124 L77.928642,12.3385518 L54.1051815,12.3385518 Z" id="color3" fill="#FF9843"></path>
                <path d="M53.9745155,8.81395341 C54.3300223,9.24539755 54.5594937,9.7510406 54.6364583,10.2898717 C54.6791286,10.5890379 54.672254,10.8900215 54.6195482,11.1845256 L78.8802213,11.1845256 L80.751946,8.81395341 L53.9745155,8.81395341 Z" id="color4" fill="#FF4D73"></path>
                <path d="M27.582548,12.5407063 C24.3415807,12.5407063 21.5635861,15.3114311 21.5635861,18.5440223 C21.5635861,22.0075074 24.1100548,24.5473384 27.582548,24.5473384 C30.8235153,24.5473384 33.6015098,21.7766136 33.6015098,18.5440223 C33.3699839,15.3114311 30.8235153,12.5407063 27.582548,12.5407063 Z M10.220161,12.5407063 C6.97919373,12.5407063 4.20119918,15.3114311 4.20119918,18.5440223 C4.20119918,22.0075074 6.74774687,24.5473384 10.220161,24.5473384 C13.6926542,24.5473384 16.2391229,21.7766136 16.2391229,18.5440223 C16.007676,15.3114311 13.4611283,12.5407063 10.220161,12.5407063 Z M27.582548,28.9343984 C23.8786079,28.9343984 20.6376406,26.8562757 18.7855916,23.6237635 C17.1651474,26.8562757 13.9241801,28.9343984 9.98871417,28.9343984 C4.66425095,28.9343984 0.265733243,24.5473384 0.034286376,19.0058098 L0.034286376,2.15033025 C0.265733243,0.99586158 1.19175777,0.0722866485 2.34922916,0.0722866485 C3.50670054,0.0722866485 4.20119918,0.99586158 4.43272507,2.15033025 L4.43272507,10.6935564 C6.05324823,9.30811499 8.13666512,8.61543379 10.4516869,8.61543379 C14.155627,8.61543379 17.3965943,10.6935564 19.2486433,13.9260687 C20.8690875,10.6935564 24.1100548,8.61543379 28.0455207,8.61543379 C33.6015098,8.61543379 37.9999485,13.2333875 37.9999485,18.7749161 C37.5369757,24.3164447 32.9070112,28.9343984 27.582548,28.9343984 Z M47.4914035,18.7749161 L53.0473136,25.7018071 C53.7418123,26.625382 53.5103654,27.7799297 52.5843409,28.4726109 C51.6583954,29.1652921 50.2693981,28.9343984 49.5748995,28.0108234 L44.9449349,22.0075074 L40.3149703,28.0108234 C39.6204717,28.9343984 38.2314744,28.9343984 37.3054499,28.4726109 C36.3795044,27.7799297 36.1479785,26.625382 36.8424771,25.7018071 L42.3984662,18.7749161 L36.8424771,11.8480251 C36.1479785,10.9244501 36.3795044,9.76998147 37.3054499,9.07722125 C38.2314744,8.38454005 39.6204717,8.61543379 40.3149703,9.53900872 L44.9449349,15.5424038 L49.5748995,9.53900872 C50.2693981,8.61543379 51.6583954,8.61543379 52.5843409,9.07722125 C53.5103654,9.76998147 53.7418123,10.9244501 53.0473136,11.8480251 L47.4914035,18.7749161 Z" id="Fill-13" fill="#0061D5"></path>
            </g>
        </g>
    </g>
</svg>