<?xml version="1.0" encoding="UTF-8"?>
<svg width="115px" height="29px" viewBox="0 0 115 29" version="1.1" xmlns="http://www.w3.org/2000/svg" xmlns:xlink="http://www.w3.org/1999/xlink">
    <title>Adobe_logo_and_wordmark_(2017)</title>
    <g id="Page-1" stroke="none" stroke-width="1" fill="none" fill-rule="evenodd">
        <g id="home-v3-copy" transform="translate(-468.000000, -933.000000)" fill-rule="nonzero">
            <g id="Adobe_logo_and_wordmark_(2017)" transform="translate(468.000000, 933.000000)">
                <path d="M20.4174644,0 L32.428442,28.6563005 L32.428442,0 L20.4174644,0 Z M0,0 L0,28.6563005 L12.0109776,0 L0,0 Z M10.9811231,22.8124749 L16.4656971,22.8124749 L18.8726827,28.6443255 L23.8423294,28.6443255 L16.1303957,10.4661958 L10.9811231,22.8124749 Z" id="Shape" fill="#ED2224"></path>
                <g id="Group" transform="translate(48.379212, 5.508524)" fill="#2D2E2D">
                    <path d="M4.17929331,12.9809569 L2.86203754,16.9446992 C2.81413733,17.0883998 2.74228701,17.1363001 2.59858638,17.1363001 L0.191600839,17.1363001 C0.0479002098,17.1363001 -1.15046861e-14,17.0644497 0.0239501049,16.896799 L4.98162182,2.80216227 C5.07742224,2.56266122 5.14927255,2.32316018 5.19717276,1.50885661 C5.19717276,1.41305619 5.24507297,1.34120587 5.34087339,1.34120587 L8.68191303,1.34120587 C8.80166355,1.34120587 8.82561366,1.36515598 8.84956376,1.4849065 L14.4059881,16.9327242 C14.4299382,17.0764248 14.4059881,17.1482751 14.2622875,17.1482751 L11.5679007,17.1482751 C11.4481501,17.1482751 11.3762998,17.1003749 11.3283996,17.0045745 L9.92731848,12.9929319 L4.17929331,12.9929319 L4.17929331,12.9809569 Z M9.16091512,10.3584204 C8.65796292,8.76573839 7.52033294,5.42469876 7.04133084,3.74819142 L7.01738074,3.74819142 C6.63417906,5.3648235 5.66419981,8.17896082 4.94569666,10.3584204 L9.16091512,10.3584204 Z" id="Shape"></path>
                    <path d="M15.2681919,11.3164246 C15.2681919,7.8316843 17.8667783,5.04149708 22.1059468,5.04149708 C22.4412483,5.04149708 22.7286496,5.06544719 23.1358013,5.1133474 L23.1358013,0.179625787 C23.1358013,0.0598752623 23.1837015,0.0119750525 23.279502,0.0119750525 L25.9020385,0.0119750525 C26.021789,0.0119750525 26.021789,0.0598752623 26.021789,0.155675682 L26.021789,14.6814143 C26.021789,15.1604164 26.0696892,15.7831191 26.1175894,16.2261961 C26.1175894,16.3459466 26.0936393,16.3938468 25.9738888,16.441747 C24.4051569,17.11235 22.8723502,17.3758539 21.4233688,17.3758539 C17.9386286,17.3877762 15.2681919,15.3639923 15.2681919,11.3164246 Z M23.1358013,7.64008346 C22.82445,7.52033294 22.4412483,7.47243273 22.0101464,7.47243273 C19.866612,7.47243273 18.261955,8.84956376 18.261955,11.1727239 C18.261955,13.7952604 19.8306869,14.8730151 21.7466953,14.8730151 C22.2256973,14.8730151 22.7046994,14.8251149 23.1477764,14.6814143 L23.1477764,7.64008346 L23.1358013,7.64008346 Z" id="Shape"></path>
                    <path d="M39.9008748,11.1487738 C39.9008748,14.8730151 37.5178393,17.3758011 34.1288995,17.3758011 C30.1052819,17.3758011 28.3329741,14.2742625 28.3329741,11.2206241 C28.3329741,7.8077342 30.5723089,5.04149708 34.1767997,5.04149708 C37.889066,5.04149708 39.9008748,7.85563441 39.9008748,11.1487738 Z M31.2668619,11.1727239 C31.2668619,13.3881086 32.3446167,14.9209154 34.1767997,14.9209154 C35.6736813,14.9209154 36.9430368,13.69946 36.9430368,11.2206241 C36.9430368,9.22079039 36.080833,7.47243273 34.0330991,7.47243273 C32.428442,7.47243273 31.2668619,8.88548892 31.2668619,11.1727239 Z" id="Shape"></path>
                    <path d="M44.8585465,0.0119750525 C45.0261972,0.0119750525 45.0740974,0.0359251574 45.0740974,0.203575892 L45.0980475,5.37679855 C45.7447004,5.16124761 46.4991287,5.04149708 47.2894821,5.04149708 C50.7502723,5.04149708 52.965657,7.49638283 52.965657,10.7176719 C52.965657,15.1723915 49.5048668,17.3758011 45.9363012,17.3758011 C44.6908957,17.3758011 43.4814154,17.2081504 42.3318104,16.8488988 C42.23601,16.8249487 42.1641597,16.7051982 42.1641597,16.6333479 L42.1641597,0.179625787 C42.1641597,0.0598752623 42.23601,0.0119750525 42.3318104,0.0119750525 L44.8585465,0.0119750525 Z M46.7865299,7.52033294 C45.9482763,7.52033294 45.4932243,7.64008346 45.0980475,7.78378409 L45.0980475,14.8131399 C45.433349,14.9089403 45.7926006,14.9328904 46.1997524,14.9328904 C48.175636,14.9328904 49.995844,13.687485 49.995844,11.0170483 C50.007819,8.71783818 48.6905633,7.52033294 46.7865299,7.52033294 Z" id="Shape"></path>
                    <path d="M57.6119773,11.879252 C57.6838277,13.5677344 58.7855325,14.9089403 61.2404182,14.9089403 C62.318173,14.9089403 63.3121023,14.7173395 64.2222063,14.3341378 C64.2940566,14.2862376 64.3659069,14.3101877 64.3659069,14.4299382 L64.3659069,16.429772 C64.3659069,16.5734726 64.3180067,16.6453229 64.2222063,16.6932231 C63.3121023,17.124325 62.2463226,17.3877762 60.6177155,17.3877762 C56.2348463,17.3877762 54.6780895,14.3101877 54.6780895,11.3523497 C54.6780895,8.01131009 56.7018734,5.05347213 60.3303142,5.05347213 C63.8869048,5.05347213 65.2640359,7.84365936 65.2640359,10.1308944 C65.2640359,10.8014973 65.2400858,11.3523497 65.1682354,11.6277759 C65.1442853,11.7235763 65.0963851,11.7714766 64.9766346,11.7954267 C64.6413331,11.867277 63.6833289,11.8912271 62.4977987,11.8912271 L57.6119773,11.8912271 L57.6119773,11.879252 Z M61.192518,9.80756796 C62.102622,9.80756796 62.4139734,9.80756796 62.5097738,9.78361785 C62.5097738,9.71176754 62.5097738,9.61596712 62.5097738,9.59201701 C62.5097738,8.89746397 62.0307717,7.3526822 60.1985887,7.3526822 C58.5340564,7.3526822 57.7916031,8.62203776 57.6000023,9.80756796 L61.192518,9.80756796 Z" id="Shape"></path>
                </g>
            </g>
        </g>
    </g>
</svg>