<svg id="Layer_1" data-name="Layer 1" xmlns="http://www.w3.org/2000/svg" viewBox="0 0 170 152.58"><defs><style>.cls-1,.cls-3{fill:none;}.cls-1{stroke:#4f2265;stroke-linejoin:round;}.cls-1,.cls-2,.cls-3{stroke-width:2px;}.cls-2{fill:#fff;}.cls-2,.cls-3{stroke:#6fcfee;stroke-miterlimit:10;}.cls-3{stroke-linecap:round;}</style></defs><path class="cls-1" d="M94.611,83.518H81.891a3,3,0,0,0-3,3v11.75H41.071v-9.72A11.852,11.852,0,0,1,52.931,76.7h9.04a6.476,6.476,0,0,0,12.87,0h9.04A11.841,11.841,0,0,1,94.611,83.518Z"/><path class="cls-1" d="M74.881,71.978v4a5.687,5.687,0,0,1-.04.72,6.476,6.476,0,0,1-12.87,0,5.687,5.687,0,0,1-.04-.72v-4a19.44,19.44,0,0,0,12.95,0Z"/><path class="cls-1" d="M87.811,53.678a19.41,19.41,0,1,1-38.82,0,19.867,19.867,0,0,1,.26-3.21,39.746,39.746,0,0,0,9.77-.92h.03c.39-.08.79-.17,1.17-.27l1.19-.3c.77-.2,1.51-.43,2.24-.68a31.156,31.156,0,0,0,10.76-5.83,40.265,40.265,0,0,0,7.87,5.85,42.657,42.657,0,0,0,5.31,2.61v-.01c.01,0,.02.01.03.01A19.147,19.147,0,0,1,87.811,53.678Z"/><path class="cls-1" d="M87.591,50.918v.01a42.657,42.657,0,0,1-5.31-2.61,40.265,40.265,0,0,1-7.87-5.85c.01,0,.01,0,.02-.01a40.375,40.375,0,0,0,7.88,5.86A44.389,44.389,0,0,0,87.591,50.918Z"/><path class="cls-1" d="M87.591,50.918v.01a42.657,42.657,0,0,1-5.31-2.61,40.265,40.265,0,0,1-7.87-5.85l-.01-.01a31.184,31.184,0,0,1-10.75,5.84c-.73.24-1.48.47-2.24.68l-1.19.3c-.4.09-.8.19-1.2.27a39.746,39.746,0,0,1-9.77.92h-.03a19.452,19.452,0,0,1,19.15-16.2,1.055,1.055,0,0,1,.25.02,19.121,19.121,0,0,1,9.55,2.63A19.484,19.484,0,0,1,87.591,50.918Z"/><path class="cls-2" d="M95.246,77.811h15.287a3,3,0,0,1,3,3v2.7a0,0,0,0,1,0,0H92.246a0,0,0,0,1,0,0v-2.7A3,3,0,0,1,95.246,77.811Z"/><path class="cls-3" d="M84.272,94.277s13.363,0,18.618,6.227,18.617,6.227,18.617,6.227"/><path class="cls-3" d="M104.931,98.636c6.04-4.359,16.576-4.359,16.576-4.359"/><path class="cls-3" d="M84.272,106.731s10.538,0,16.578-4.361"/><line class="cls-3" x1="115.459" y1="97.092" x2="115.459" y2="103.916"/><line class="cls-3" x1="119.924" y1="96.529" x2="119.924" y2="104.479"/><line class="cls-3" x1="110.869" y1="98.212" x2="110.869" y2="102.795"/><line class="cls-3" x1="90.295" y1="97.092" x2="90.295" y2="103.916"/><line class="cls-3" x1="85.83" y1="96.529" x2="85.83" y2="104.479"/><line class="cls-3" x1="94.885" y1="98.212" x2="94.885" y2="102.795"/><path class="cls-3" d="M126.881,86.518v27.97a3,3,0,0,1-3,3H81.891a3,3,0,0,1-3-3V86.518a3,3,0,0,1,3-3h41.99A3,3,0,0,1,126.881,86.518Z"/></svg>