<?xml version="1.0" encoding="utf-8"?>
<!-- Generator: Adobe Illustrator 24.1.3, SVG Export Plug-In . SVG Version: 6.00 Build 0)  -->
<svg version="1.1" id="Layer_1" xmlns="http://www.w3.org/2000/svg" xmlns:xlink="http://www.w3.org/1999/xlink" x="0px" y="0px"
	 viewBox="0 0 170 152.6" style="enable-background:new 0 0 170 152.6;" xml:space="preserve">
<style type="text/css">
	.st0{fill:#6FCFEE;}
	.st1{fill:#4F2265;}
</style>
<path class="st0" d="M105.1,70.6c-0.5,0-0.9-0.3-1-0.8c-1.4-8-5.9-15-12.6-19.7c-6.7-4.7-14.8-6.4-22.8-5c-0.5,0.1-1.1-0.3-1.2-0.8
	c-0.1-0.5,0.3-1.1,0.8-1.2c8.5-1.5,17.2,0.4,24.3,5.3c7.1,5,11.9,12.4,13.4,20.9c0.1,0.5-0.3,1.1-0.8,1.2
	C105.2,70.6,105.2,70.6,105.1,70.6z"/>
<path class="st0" d="M72.9,106.6C72.9,106.6,72.9,106.6,72.9,106.6C55,106,40.9,90.9,41.6,73c0-0.6,0.5-1,1-1c0.6,0,1,0.5,1,1
	C43,89.9,56.2,104,73,104.6c0.6,0,1,0.5,1,1C73.9,106.2,73.5,106.6,72.9,106.6z"/>
<path class="st1" d="M64.6,67.3h-22c-0.4,0-0.8-0.3-0.8-0.8v-3.9c0-3.1,2.5-5.6,5.6-5.6H51c0.4,0,0.7,0.3,0.7,0.7c0.1,1,1,1.7,2,1.6
	c0.9-0.1,1.5-0.8,1.6-1.6c0-0.4,0.4-0.7,0.7-0.7h3.6c3.1,0,5.6,2.5,5.6,5.6v3.9C65.4,66.9,65,67.3,64.6,67.3z M43.4,65.8h20.5v-3.1
	c0-2.2-1.8-4.1-4.1-4.1h-3c-0.4,1.2-1.5,2.2-2.8,2.3c-1.6,0.2-3.1-0.8-3.5-2.3h-3c-2.2,0-4.1,1.8-4.1,4.1V65.8z"/>
<path class="st1" d="M53.6,60.9c-0.1,0-0.2,0-0.4,0c-1.6-0.2-2.8-1.4-3-3c0-0.1,0-0.2,0-0.4v-1.6c0-0.2,0.1-0.5,0.3-0.6
	c0.2-0.1,0.5-0.2,0.7-0.1c1.5,0.5,3.2,0.5,4.7,0c0.2-0.1,0.5,0,0.7,0.1c0.2,0.1,0.3,0.4,0.3,0.6v1.6c0,0.1,0,0.3,0,0.4
	c-0.1,0.9-0.5,1.7-1.2,2.2C55.1,60.7,54.4,60.9,53.6,60.9z M51.8,56.9v0.6c0,0.1,0,0.1,0,0.2c0.1,0.9,0.8,1.6,1.6,1.7
	c0.5,0.1,1-0.1,1.4-0.4c0.4-0.3,0.6-0.8,0.7-1.2c0-0.1,0-0.1,0-0.2v-0.6C54.2,57.2,53,57.2,51.8,56.9z"/>
<path class="st1" d="M53.6,57.1c-1,0-1.9-0.2-2.8-0.5c-3.4-1.2-5.7-4.4-5.7-8.1c0-0.5,0-1,0.1-1.4c0.1-0.4,0.4-0.6,0.8-0.6
	c1.3,0,2.5-0.1,3.8-0.3c2.2-0.4,4.2-1.3,5.9-2.7c0.3-0.2,0.7-0.2,1,0c0.9,0.9,1.9,1.6,3,2.3c0.7,0.4,1.3,0.7,2,1
	c0.2,0.1,0.4,0.3,0.5,0.6c0.1,0.4,0.1,0.8,0.1,1.2c0,0,0,0,0,0C62.2,53.3,58.3,57.1,53.6,57.1C53.6,57.1,53.6,57.1,53.6,57.1z
	 M46.6,48c0,0.2,0,0.4,0,0.5c0,3,1.9,5.7,4.7,6.7c0.8,0.3,1.5,0.4,2.3,0.4c0,0,0,0,0,0c3.9,0,7.1-3.2,7.1-7c0-0.2,0-0.4,0-0.6
	c-0.6-0.3-1.2-0.6-1.8-0.9c-1-0.6-2-1.3-2.8-2c-1.8,1.3-3.8,2.2-6,2.6C48.9,47.9,47.7,48,46.6,48z"/>
<path class="st1" d="M61.3,48.2c-0.1,0-0.2,0-0.3-0.1c-0.8-0.3-1.5-0.7-2.2-1.1c-1-0.6-2-1.3-2.8-2c-1.8,1.3-3.8,2.2-6,2.6
	c-1.3,0.3-2.7,0.4-4.1,0.4c-0.2,0-0.4-0.1-0.6-0.3c-0.1-0.2-0.2-0.4-0.2-0.6c0.7-4.1,4.2-7.1,8.4-7.1c0,0,0.1,0,0.2,0
	c1.4,0,2.8,0.4,4.1,1.2c2.3,1.3,3.8,3.6,4.1,6.2c0,0.3-0.1,0.5-0.3,0.7C61.7,48.2,61.5,48.2,61.3,48.2z M53.7,41.5
	c-3.2,0-6,2.1-6.8,5c1,0,1.9-0.1,2.8-0.4c2.2-0.4,4.2-1.3,5.9-2.7c0.3-0.2,0.7-0.2,1,0c0.9,0.9,1.9,1.6,3,2.2
	c0.2,0.1,0.4,0.2,0.7,0.4c-0.6-1.5-1.6-2.8-3.1-3.6C56.1,41.9,54.9,41.5,53.7,41.5C53.7,41.5,53.7,41.5,53.7,41.5z"/>
<path class="st1" d="M115.1,106h-22c-0.4,0-0.8-0.3-0.8-0.8v-3.9c0-3.1,2.5-5.6,5.6-5.6h3.6c0.4,0,0.7,0.3,0.7,0.7
	c0.1,1,1,1.8,2,1.6c0.9-0.1,1.5-0.8,1.6-1.6c0-0.4,0.4-0.7,0.7-0.7h3.6c3.1,0,5.6,2.5,5.6,5.6v3.9C115.9,105.7,115.5,106,115.1,106z
	 M93.9,104.5h20.5v-3.1c0-2.2-1.8-4.1-4.1-4.1h-3c-0.4,1.2-1.5,2.2-2.8,2.3c-0.9,0.1-1.8-0.2-2.5-0.7c-0.5-0.4-0.9-1-1.1-1.6h-3
	c-2.2,0-4.1,1.8-4.1,4.1V104.5z"/>
<path class="st1" d="M104.2,99.7c-0.1,0-0.2,0-0.4,0c-1.6-0.2-2.8-1.4-3-3c0-0.1,0-0.3,0-0.4v-1.6c0-0.2,0.1-0.5,0.3-0.6
	c0.2-0.1,0.5-0.2,0.7-0.1c1.5,0.5,3.2,0.5,4.7,0c0.2-0.1,0.5,0,0.7,0.1c0.2,0.1,0.3,0.4,0.3,0.6v1.6c0,0.1,0,0.3,0,0.4
	c-0.1,0.9-0.5,1.7-1.2,2.3C105.6,99.4,104.9,99.7,104.2,99.7z M102.3,95.7v0.6c0,0.1,0,0.1,0,0.2c0.1,0.9,0.8,1.6,1.6,1.7
	c0.5,0,1-0.1,1.4-0.4c0.4-0.3,0.6-0.8,0.7-1.2c0-0.1,0-0.1,0-0.2v-0.6C104.8,96,103.5,96,102.3,95.7z"/>
<path class="st1" d="M108,84.8c-0.1,0-0.3,0-0.4-0.1c-0.1-0.1-0.3-0.2-0.4-0.3c-0.1-0.1-0.2-0.2-0.3-0.3c-0.3-0.3-0.4-0.7-0.1-1.1
	c0.3-0.3,0.7-0.4,1-0.1l0.4,0.3c0,0,0,0,0,0c0.1,0.1,0.2,0.2,0.3,0.3c0.3,0.2,0.4,0.7,0.2,1C108.4,84.7,108.2,84.8,108,84.8z"/>
<path class="st1" d="M111.9,87c-0.1,0-0.2,0-0.3-0.1c-0.8-0.3-1.5-0.7-2.2-1.1c-0.2-0.1-0.3-0.2-0.5-0.3c-0.2-0.1-0.4-0.4-0.4-0.6
	c0-0.1,0-0.3,0.1-0.4c0.2-0.3,0.7-0.5,1-0.2l0.4,0.3c0.6,0.4,1.3,0.7,2,1c0.4,0.2,0.6,0.6,0.4,1C112.4,86.8,112.2,87,111.9,87z"/>
<path class="st1" d="M108,84.8c-0.1,0-0.3,0-0.4-0.1c-0.1-0.1-0.3-0.2-0.4-0.3c-0.1-0.1-0.3-0.2-0.4-0.3c-0.3-0.3-0.3-0.7-0.1-1
	c0.3-0.3,0.7-0.4,1-0.1l0.4,0.3c0.1,0.1,0.2,0.2,0.4,0.3c0.3,0.2,0.4,0.7,0.2,1C108.4,84.7,108.2,84.8,108,84.8z"/>
<path class="st1" d="M111.9,87c-0.1,0-0.2,0-0.3-0.1c-0.8-0.3-1.5-0.7-2.2-1.1c-0.2-0.1-0.3-0.2-0.5-0.3c-0.2-0.1-0.4-0.4-0.4-0.6
	c0-0.1,0-0.3,0.1-0.4c0.2-0.3,0.7-0.5,1-0.2l0.4,0.3c0.6,0.4,1.3,0.7,2,1c0.4,0.2,0.6,0.6,0.4,1C112.4,86.8,112.2,87,111.9,87z"/>
<path class="st1" d="M111.9,87c-0.1,0-0.2,0-0.3-0.1c-0.8-0.3-1.5-0.7-2.2-1.1l-0.5-0.3c-0.2-0.1-0.3-0.2-0.4-0.3c0,0,0,0,0,0l0,0
	c-0.3-0.2-0.5-0.4-0.8-0.5c0,0-0.1-0.1-0.2-0.1c-0.1-0.1-0.2-0.2-0.4-0.3l-0.3-0.2c0,0-0.1-0.1-0.1-0.1c-0.1-0.1-0.1-0.1-0.2-0.1
	l0,0c-0.3,0.2-0.5,0.4-0.8,0.6l-0.3,0.2c0,0-0.1,0.1-0.1,0.1c-0.3,0.2-0.7,0.4-1.1,0.6c0,0,0,0-0.1,0c-0.6,0.3-1.1,0.5-1.7,0.7
	c-0.6,0.2-1.3,0.4-1.9,0.5c-1.3,0.3-2.7,0.4-4.1,0.4c-0.2,0-0.4-0.1-0.6-0.3c-0.1-0.2-0.2-0.4-0.2-0.6c0.1-0.9,0.4-1.7,0.9-2.5
	c1.5-2.8,4.4-4.6,7.6-4.6h0.1c1.5,0,2.9,0.4,4.2,1.2c1.4,0.8,2.5,2,3.3,3.4c0.4,0.9,0.7,1.8,0.9,2.7c0,0.3-0.1,0.5-0.3,0.7
	C112.2,87,112,87,111.9,87z M104.2,80.3L104.2,80.3c-2.7,0-5.1,1.5-6.3,3.8c-0.2,0.4-0.4,0.8-0.5,1.2c1,0,1.9-0.1,2.8-0.3
	c0.6-0.1,1.2-0.3,1.8-0.5c0.6-0.2,1.1-0.4,1.6-0.6c0,0,0,0,0.1,0c0.3-0.2,0.7-0.3,1-0.5c0,0,0,0,0,0l0.2-0.2
	c0.4-0.3,0.8-0.5,1.1-0.9c0.1-0.1,0.3-0.2,0.5-0.2c0.2,0,0.4,0.1,0.5,0.3c0,0,0.1,0.1,0.2,0.1l0.3,0.2c0.1,0,0.1,0.1,0.2,0.1
	c0,0,0,0,0,0l0.4,0.3c0.1,0.1,0.2,0.2,0.4,0.3c0,0,0.1,0,0.1,0.1c0.2,0.2,0.5,0.3,0.7,0.5c0,0,0,0,0,0c0.1,0.1,0.2,0.2,0.4,0.2
	l0.5,0.3c0.2,0.1,0.4,0.2,0.6,0.3c-0.1-0.3-0.2-0.6-0.4-0.8c-0.6-1.2-1.6-2.2-2.7-2.8C106.6,80.7,105.5,80.3,104.2,80.3z"/>
<path class="st1" d="M104.1,95.9c-0.9,0-1.9-0.2-2.8-0.5c0,0,0,0-0.1,0c-3.4-1.2-5.7-4.5-5.7-8.1c0-0.5,0-1,0.1-1.4
	c0.1-0.4,0.4-0.6,0.8-0.6c1.3,0,2.5-0.1,3.7-0.3c0.6-0.1,1.2-0.3,1.8-0.5c0.5-0.2,1.1-0.4,1.6-0.6c0,0,0,0,0.1,0
	c0.4-0.2,0.7-0.3,1-0.5c0,0,0,0,0.1,0c0.1-0.1,0.1-0.1,0.2-0.1c0.4-0.3,0.8-0.5,1.2-0.9c0.3-0.3,0.7-0.3,1,0
	c0.1,0.1,0.2,0.2,0.3,0.3c0.1,0.1,0.2,0.2,0.3,0.3c0,0,0,0,0,0c0.1,0.1,0.2,0.2,0.3,0.3c0.1,0.1,0.2,0.2,0.4,0.3
	c0,0,0.1,0.1,0.1,0.1c0.2,0.2,0.5,0.3,0.7,0.5c0,0,0,0,0,0c0.1,0.1,0.3,0.2,0.4,0.2c0.2,0.1,0.3,0.2,0.4,0.3c0.6,0.4,1.3,0.7,2,1
	c0.3,0.1,0.5,0.3,0.5,0.6c0.1,0.4,0.1,0.8,0.1,1.2c0,0,0,0,0,0c0,3.6-2.3,6.9-5.7,8.1C106.1,95.8,105.1,95.9,104.1,95.9z M101.7,94
	C101.8,94,101.8,94,101.7,94c1.6,0.5,3.2,0.5,4.8,0c2.8-1,4.7-3.7,4.7-6.7c0-0.2,0-0.4,0-0.6c-0.6-0.3-1.2-0.6-1.8-0.9
	c-0.2-0.1-0.3-0.2-0.5-0.3c-0.1-0.1-0.3-0.2-0.4-0.3c0,0,0,0,0,0l0,0c-0.3-0.2-0.5-0.4-0.8-0.5c0,0-0.1-0.1-0.2-0.1
	c-0.1-0.1-0.2-0.2-0.4-0.3c-0.1-0.1-0.2-0.2-0.3-0.3c0,0-0.1-0.1-0.1-0.1c-0.1-0.1-0.1-0.1-0.2-0.1c-0.3,0.2-0.5,0.4-0.8,0.6
	c0,0-0.2,0.1-0.3,0.2c0,0-0.1,0-0.1,0l0,0c-0.4,0.2-0.7,0.4-1.2,0.6c0,0,0,0-0.1,0c-0.6,0.3-1.1,0.5-1.7,0.7
	c-0.6,0.2-1.3,0.4-1.9,0.5c-1.1,0.2-2.3,0.4-3.4,0.4c0,0.2,0,0.4,0,0.5C97.1,90.3,99,93,101.7,94z"/>
<path class="st1" d="M124.2,106.3h-40c-0.4,0-0.8-0.3-0.8-0.8V80.3c0-2.1,1.7-3.8,3.8-3.8h34c2.1,0,3.8,1.7,3.8,3.8v25.3
	C124.9,106,124.6,106.3,124.2,106.3z M84.9,104.8h38.5V80.3c0-1.2-1-2.2-2.2-2.2h-34c-1.2,0-2.2,1-2.2,2.2V104.8z"/>
<path class="st1" d="M122.7,112.5H85.6c-3,0-5.5-2.5-5.5-5.5c0-1.3,1-2.2,2.1-2.2h43.9c1.2,0,2.1,1,2.1,2.1
	C128.2,110.1,125.8,112.5,122.7,112.5z M82.2,106.3c-0.3,0-0.6,0.3-0.6,0.6c0,2.3,1.8,4.1,4,4.1h37.1c2.2,0,4-1.8,4-4
	c0-0.4-0.3-0.7-0.6-0.7H82.2z"/>
</svg>
