<svg id="Layer_1" data-name="Layer 1" xmlns="http://www.w3.org/2000/svg" viewBox="0 0 170 152.58"><defs><style>.cls-1,.cls-2{fill:none;stroke-linejoin:round;stroke-width:2px;}.cls-1{stroke:#4f2265;}.cls-2{stroke:#6fcfee;}</style></defs><path class="cls-1" d="M74.511,47.711c.012,3.91,2.313,7.443,6.031,9.971l.026,8.25L87.252,60.7a27.22,27.22,0,0,0,7.3.947c11.05-.034,19.98-6.332,19.956-14.062s-8.993-13.972-20.043-13.937S74.487,39.981,74.511,47.711Z"/><path class="cls-2" d="M85,42.678l9.5-.029,9.5-.03-9.5.03Z"/><path class="cls-2" d="M80.824,47.691l13.687-.042,13.687-.043-13.687.043Z"/><path class="cls-2" d="M85.027,52.678l9.5-.03,9.5-.029-9.5.029Z"/><path class="cls-1" d="M71.622,79.07V93.79H39.8V87.13a8.335,8.335,0,0,1,8.34-8.34h6.19a4.5,4.5,0,0,0,8.94,0h6.19A8.525,8.525,0,0,1,71.622,79.07Z"/><path class="cls-1" d="M63.3,75.51v2.78a4.07,4.07,0,0,1-.03.5,4.5,4.5,0,0,1-8.94,0,4.07,4.07,0,0,1-.03-.5V75.51a13.534,13.534,0,0,0,9,0Z"/><path class="cls-1" d="M72.292,62.79a13.49,13.49,0,1,1-26.8-2.23,28.026,28.026,0,0,0,6.78-.64h.03a29.57,29.57,0,0,0,5.41-1.71c.23-.11.47-.21.7-.31.45-.21.88-.43,1.3-.66q.945-.525,1.77-1.08a14.124,14.124,0,0,0,1.5-1.16,28.07,28.07,0,0,0,5.47,4.06,28.536,28.536,0,0,0,3.69,1.81v-.01c.01,0,.01.01.02.01A13.46,13.46,0,0,1,72.292,62.79Z"/><path class="cls-1" d="M72.142,60.86v.01a28.536,28.536,0,0,1-3.69-1.81A28.07,28.07,0,0,1,62.982,55l.01-.01a28.488,28.488,0,0,0,5.48,4.07A28.866,28.866,0,0,0,72.142,60.86Z"/><path class="cls-1" d="M72.142,60.86v.01a28.536,28.536,0,0,1-3.69-1.81A28.07,28.07,0,0,1,62.982,55l-.01-.01a24.056,24.056,0,0,1-10.7,4.93,28.026,28.026,0,0,1-6.78.64h-.03a13.522,13.522,0,0,1,13.32-11.27,1.028,1.028,0,0,1,.17.01,13.255,13.255,0,0,1,6.64,1.84A13.513,13.513,0,0,1,72.142,60.86Z"/><path class="cls-1" d="M125.712,75.62v32.25a3,3,0,0,1-3,3H74.622a3,3,0,0,1-3-3V75.62a3,3,0,0,1,3-3h12.39a13.109,13.109,0,0,0-1.68,4.6h.02a13.548,13.548,0,0,0,8.81,14.96h.01v2.78a4.07,4.07,0,0,0,.03.5h-6.19a8.341,8.341,0,0,0-8.34,8.34v6.66h38V103.8a8.335,8.335,0,0,0-8.34-8.34h-6.19a4.07,4.07,0,0,0,.03-.5V92.18a13.47,13.47,0,0,0,8.85-14.64c-.01,0-.01-.01-.02-.01a13.389,13.389,0,0,0-1.73-4.91h12.44A3,3,0,0,1,125.712,75.62Z"/><path class="cls-2" d="M117.672,103.8v6.66h-38V103.8a8.341,8.341,0,0,1,8.34-8.34H94.2a4.5,4.5,0,0,0,8.94,0h6.19A8.335,8.335,0,0,1,117.672,103.8Z"/><path class="cls-2" d="M103.172,92.18v2.78a4.07,4.07,0,0,1-.03.5,4.5,4.5,0,0,1-8.94,0,4.07,4.07,0,0,1-.03-.5V92.18a13.505,13.505,0,0,0,8.99,0Z"/><path class="cls-2" d="M112.162,79.46a13.533,13.533,0,0,1-8.99,12.72h-.01a13.505,13.505,0,0,1-8.99,0h-.01a13.548,13.548,0,0,1-8.81-14.96h.02a25.966,25.966,0,0,0,4.67-.26c.44-.06.88-.13,1.33-.22.26-.04.52-.09.79-.15.55-.12,1.1-.25,1.63-.4s1.06-.31,1.57-.48c.61-.2,1.2-.41,1.77-.65.29-.12.57-.24.85-.36a20.156,20.156,0,0,0,3.66-2.08,13.444,13.444,0,0,0,1.21-.96c.17.16.34.32.51.49h.01c.18.16.37.32.55.47.23.2.46.39.69.59.25.19.49.38.75.57.69.52,1.42,1.02,2.19,1.49.26.15.52.31.78.46.3.18.61.34.91.51,0,0,0,.01.01,0,.31.16.61.32.91.47.01.01.01,0,.01,0,.61.3,1.23.57,1.83.82.01,0,.01.01.02.01A13.452,13.452,0,0,1,112.162,79.46Z"/><path class="cls-2" d="M112,77.53c-.6-.25-1.22-.52-1.83-.82,0,0,0,.01-.01,0-.3-.15-.6-.31-.91-.47-.01.01-.01,0-.01,0-.3-.17-.61-.33-.91-.51-.26-.15-.52-.31-.78-.46-.77-.47-1.5-.97-2.19-1.49-.26-.19-.5-.38-.75-.57-.23-.2-.46-.39-.69-.59-.18-.15-.37-.31-.55-.47h-.01c-.17-.17-.34-.33-.51-.49-.01,0-.01,0-.02-.01-.37.33-.78.65-1.22.97a21.77,21.77,0,0,1-3.63,2.08c-.28.12-.56.24-.85.36-.57.23-1.16.45-1.77.65-.51.17-1.04.33-1.57.48s-1.09.27-1.65.39c-.26.06-.52.11-.77.16-.45.09-.89.16-1.33.22a26.97,26.97,0,0,1-4.67.26h-.04a13.109,13.109,0,0,1,1.68-4.6,13.5,13.5,0,0,1,11.63-6.66.915.915,0,0,1,.17.01,13.349,13.349,0,0,1,6.64,1.83,13.573,13.573,0,0,1,4.82,4.82A13.389,13.389,0,0,1,112,77.53Z"/><path class="cls-2" d="M103.922,72.62c.46.4.94.78,1.44,1.16-.51-.38-1-.76-1.46-1.16-.36-.31-.72-.63-1.05-.96C103.192,71.99,103.552,72.31,103.922,72.62Z"/><path class="cls-2" d="M112,77.53v.01a31.35,31.35,0,0,1-3.69-1.81c-.26-.15-.51-.3-.76-.46.26.15.52.31.78.46A31.009,31.009,0,0,0,112,77.53Z"/><path class="cls-1" d="M130.2,113.17a6.111,6.111,0,0,1-6.12,6.12H73.262a6.122,6.122,0,0,1-6.13-6.12,2.288,2.288,0,0,1,2.3-2.3H127.9A2.3,2.3,0,0,1,130.2,113.17Z"/></svg>