<?xml version="1.0" encoding="UTF-8"?>
<svg width="244px" height="96px" viewBox="0 0 244 96" version="1.1" xmlns="http://www.w3.org/2000/svg" xmlns:xlink="http://www.w3.org/1999/xlink">
    <title>logo copy</title>
    <g id="logo-copy" stroke="none" stroke-width="1" fill="none" fill-rule="evenodd">
        <path d="M21.474,48.5783 C27.926,48.5783 32.697,51.0513 35.879,55.0283 L35.879,49.8143 L47.279,49.8143 L47.279,94.0013 L35.879,94.0013 L35.879,88.7873 C32.697,92.7623 27.926,95.2383 21.474,95.2383 C9.721,95.2383 0,85.0753 0,71.9083 C0,58.7403 9.721,48.5783 21.474,48.5783 Z M90.1403,49.8145 L90.1403,75.5305 C90.1403,81.5405 93.7633,84.6335 98.8893,84.6335 C104.4573,84.6335 108.6103,81.3645 108.6103,73.6745 L108.6103,49.8145 L120.0103,49.8145 L120.0103,94.0015 L108.6103,94.0015 L108.6103,89.0515 C105.9593,93.0295 101.3643,95.2385 95.4433,95.2385 C86.0753,95.2385 78.7403,88.6985 78.7403,76.9445 L78.7403,49.8145 L90.1403,49.8145 Z M151.4727,48.5783 C160.1317,48.5783 167.6437,53.1723 171.2677,59.9773 L161.4577,65.7213 C159.6907,62.0973 155.8907,59.8013 151.3837,59.8013 C144.5787,59.8013 139.5417,64.8393 139.5417,71.9083 C139.5417,78.8893 144.5787,83.9273 151.3837,83.9273 C155.9787,83.9273 159.7787,81.7183 161.5457,78.0943 L171.4437,83.7503 C167.6437,90.6413 160.1317,95.2383 151.4727,95.2383 C138.0397,95.2383 128.1417,85.0753 128.1417,71.9083 C128.1417,58.7403 138.0397,48.5783 151.4727,48.5783 Z M220.3146,48.5783 C233.3056,48.5783 243.7336,58.7403 243.7336,71.9083 C243.7336,85.0753 233.3056,95.2383 220.3146,95.2383 C207.3236,95.2383 196.9846,85.0753 196.9846,71.9083 C196.9846,58.7403 207.3236,48.5783 220.3146,48.5783 Z M188.854,49.8145 L188.854,94.0015 L177.454,94.0015 L177.454,49.8145 L188.854,49.8145 Z M69.019,29.4885 L69.019,94.0005 L57.619,94.0005 L57.619,29.4885 L69.019,29.4885 Z M23.595,59.4473 C16.614,59.4473 11.4,64.4833 11.4,71.9083 C11.4,79.3303 16.614,84.3683 23.595,84.3683 C30.665,84.3683 35.879,79.3303 35.879,71.9083 C35.879,64.4833 30.665,59.4473 23.595,59.4473 Z M220.3146,59.7123 C213.5986,59.7123 208.3846,64.7503 208.3846,71.9083 C208.3846,79.0653 213.5986,84.1033 220.3146,84.1033 C227.1196,84.1033 232.3336,79.0653 232.3336,71.9083 C232.3336,64.7503 227.1196,59.7123 220.3146,59.7123 Z M183.1095,30.4896 C186.9985,30.4896 190.1795,33.7596 190.1795,37.5596 C190.1795,41.3596 186.9985,44.5396 183.1095,44.5396 C179.3095,44.5396 176.1285,41.3596 176.1285,37.5596 C176.1285,33.7596 179.3095,30.4896 183.1095,30.4896 Z" id="Shape" fill="#FFFFFF"></path>
        <path d="M183.4395,-3.55271368e-15 L183.4395,10.739 C198.8175,11.002 210.2565,22.316 210.5305,37.515 L221.3275,37.515 C221.1305,16.336 204.3795,0.037 183.4395,-3.55271368e-15" id="Fill-16" fill="#72C8E0"></path>
        <path d="M183.4395,10.7393 L183.4395,23.6453 C191.2165,23.6713 197.1885,29.3773 197.3165,37.5143 L210.5305,37.5143 C210.3905,22.3993 198.3855,10.7653 183.4395,10.7393" id="Fill-19" fill="#4997C6"></path>
    </g>
</svg>