<?xml version="1.0" encoding="UTF-8"?>
<svg width="18px" height="14px" viewBox="0 0 18 14" version="1.1" xmlns="http://www.w3.org/2000/svg" xmlns:xlink="http://www.w3.org/1999/xlink">
    <title>social-icon-twitter</title>
    <g id="Symbols" stroke="none" stroke-width="1" fill="none" fill-rule="evenodd">
        <g id="Footer" transform="translate(-967.000000, -84.000000)" fill="#412250" fill-rule="nonzero">
            <g id="Group-19" transform="translate(859.000000, 71.000000)">
                <g id="Group-17" transform="translate(96.000000, 0.000000)">
                    <g id="twitter-brands-(1)" transform="translate(12.000000, 13.000000)">
                        <path d="M15.3546042,3.46674386 C15.3654674,3.61876237 15.3654674,3.7708143 15.3654674,3.9228328 C15.3654674,8.5595977 11.8363184,13.9022392 5.38606103,13.9022392 C3.39885697,13.9022392 1.5528416,13.3266881 0,12.3277045 C0.282343953,12.3602608 0.553791241,12.3711241 0.846998433,12.3711241 C2.4866791,12.3711241 3.99610117,11.8173328 5.20145281,10.8725987 C3.65947445,10.840009 2.36725032,9.83012878 1.92202462,8.44016892 C2.13922256,8.47272521 2.35638708,8.49445169 2.58444826,8.49445169 C2.8993485,8.49445169 3.21428218,8.45099873 3.50745594,8.37502291 C1.90033157,8.04922599 0.694946505,6.63757308 0.694946505,4.93271297 L0.694946505,4.88929344 C1.16186525,5.14991092 1.70486011,5.31279266 2.2803444,5.33448571 C1.33561024,4.70465179 0.716672984,3.62962561 0.716672984,2.41341073 C0.716672984,1.76188376 0.890384541,1.16463956 1.19445497,0.643404611 C2.92104156,2.77176393 5.51635306,4.16169037 8.42653137,4.3137423 C8.3722486,4.05312482 8.33965888,3.78167753 8.33965888,3.51019682 C8.33965888,1.57727554 9.90336372,0.00274087891 11.8471148,0.00274087891 C12.856995,0.00274087891 13.7691394,0.426240096 14.4098366,1.11035679 C15.2025188,0.958338282 15.9626448,0.66513109 16.6359317,0.263358353 C16.3752808,1.07780049 15.8214895,1.76191718 15.0939533,2.19624621 C15.7997965,2.12027039 16.4839132,1.9247655 17.1137136,1.65331821 C16.6359985,2.34826472 16.0387209,2.96720197 15.3546042,3.46674386 Z" id="social-icon-twitter"></path>
                    </g>
                </g>
            </g>
        </g>
    </g>
</svg>