<?xml version="1.0" encoding="UTF-8"?>
<svg width="14px" height="14px" viewBox="0 0 14 14" version="1.1" xmlns="http://www.w3.org/2000/svg" xmlns:xlink="http://www.w3.org/1999/xlink">
    <title>social-icon-instagram</title>
    <g id="Symbols" stroke="none" stroke-width="1" fill="none" fill-rule="evenodd">
        <g id="Footer" transform="translate(-920.000000, -84.000000)" fill="#412250" fill-rule="nonzero">
            <g id="Group-19" transform="translate(859.000000, 71.000000)">
                <g id="Group-16" transform="translate(48.000000, 0.000000)">
                    <g id="instagram-brands" transform="translate(13.000000, 13.000000)">
                        <path d="M6.98661494,3.41416101 C5.01260912,3.41416101 3.42036857,5.00640155 3.42036857,6.98040737 C3.42036857,8.95441319 5.01260912,10.5466537 6.98661494,10.5466537 C8.96062076,10.5466537 10.5528613,8.95441319 10.5528613,6.98040737 C10.5528613,5.00640155 8.96062076,3.41416101 6.98661494,3.41416101 Z M6.98661494,9.29893307 C5.71096023,9.29893307 4.66808923,8.25916586 4.66808923,6.98040737 C4.66808923,5.70164888 5.70785645,4.66188167 6.98661494,4.66188167 C8.26537342,4.66188167 9.30514064,5.70164888 9.30514064,6.98040737 C9.30514064,8.25916586 8.26226964,9.29893307 6.98661494,9.29893307 L6.98661494,9.29893307 Z M11.5305529,3.26828322 C11.5305529,3.73074685 11.1580989,4.10009699 10.6987391,4.10009699 C10.2362755,4.10009699 9.86692532,3.72764306 9.86692532,3.26828322 C9.86692532,2.80892338 10.2393792,2.43646945 10.6987391,2.43646945 C11.1580989,2.43646945 11.5305529,2.80892338 11.5305529,3.26828322 Z M13.8925315,4.11251212 C13.8397672,2.99825412 13.585257,2.01125121 12.7689622,1.19806014 C11.9557711,0.384869059 10.9687682,0.130358875 9.85451018,0.0744907856 C8.70611057,0.00931134821 5.26401552,0.00931134821 4.11561591,0.0744907856 C3.00446169,0.127255092 2.01745878,0.381765276 1.20116392,1.19495635 C0.384869059,2.00814743 0.133462658,2.99515034 0.0775945684,4.10940834 C0.0124151309,5.25780795 0.0124151309,8.69990301 0.0775945684,9.84830262 C0.130358875,10.9625606 0.384869059,11.9495635 1.20116392,12.7627546 C2.01745878,13.5759457 3.0013579,13.8304559 4.11561591,13.886324 C5.26401552,13.9515034 8.70611057,13.9515034 9.85451018,13.886324 C10.9687682,13.8335597 11.9557711,13.5790495 12.7689622,12.7627546 C13.5821532,11.9495635 13.8366634,10.9625606 13.8925315,9.84830262 C13.957711,8.69990301 13.957711,5.26091174 13.8925315,4.11251212 Z M12.4089234,11.0805044 C12.1668283,11.6888458 11.6981571,12.157517 11.0867119,12.4027158 C10.171096,12.7658584 7.99844811,12.6820563 6.98661494,12.6820563 C5.97478177,12.6820563 3.79903007,12.7627546 2.88651794,12.4027158 C2.27817653,12.1606208 1.80950533,11.6919496 1.5643065,11.0805044 C1.20116392,10.1648885 1.28496605,7.99224054 1.28496605,6.98040737 C1.28496605,5.9685742 1.2042677,3.7928225 1.5643065,2.88031038 C1.80640155,2.27196896 2.27507274,1.80329777 2.88651794,1.55809893 C3.80213385,1.19495635 5.97478177,1.27875849 6.98661494,1.27875849 C7.99844811,1.27875849 10.1741998,1.19806014 11.0867119,1.55809893 C11.6950533,1.80019399 12.1637245,2.26886518 12.4089234,2.88031038 C12.772066,3.79592629 12.6882638,5.9685742 12.6882638,6.98040737 C12.6882638,7.99224054 12.772066,10.1679922 12.4089234,11.0805044 Z" id="social-icon-instagram"></path>
                    </g>
                </g>
            </g>
        </g>
    </g>
</svg>