<?xml version="1.0" encoding="UTF-8"?>
<svg width="14px" height="14px" viewBox="0 0 14 14" version="1.1" xmlns="http://www.w3.org/2000/svg" xmlns:xlink="http://www.w3.org/1999/xlink">
    <title>social-icon-linkedin</title>
    <g id="Symbols" stroke="none" stroke-width="1" fill="none" fill-rule="evenodd">
        <g id="Footer" transform="translate(-872.000000, -84.000000)" fill="#412250" fill-rule="nonzero">
            <g id="Group-19" transform="translate(859.000000, 71.000000)">
                <g id="Group-15">
                    <g id="linkedin-in-brands" transform="translate(13.000000, 13.000000)">
                        <path d="M3.11247333,13.9049467 L0.229679922,13.9049467 L0.229679922,4.62153249 L3.11247333,4.62153249 L3.11247333,13.9049467 Z M1.66952473,3.35518914 C0.747701261,3.35518914 0,2.59165858 0,1.66983511 C0,0.747782072 0.747471693,0.000310403151 1.66952473,0.000310403151 C2.59157777,0.000310403151 3.33904947,0.747782072 3.33904947,1.66983511 C3.33904947,2.59165858 2.59103783,3.35518914 1.66952473,3.35518914 Z M13.9018429,13.9049467 L11.025257,13.9049467 L11.025257,9.38583899 C11.025257,8.30882638 11.0035306,6.92764306 9.52644035,6.92764306 C8.02762367,6.92764306 7.79794374,8.09776916 7.79794374,9.30824442 L7.79794374,13.9049467 L4.91825412,13.9049467 L4.91825412,4.62153249 L7.68310378,4.62153249 L7.68310378,5.88787585 L7.72345296,5.88787585 C8.10832202,5.15848691 9.04845781,4.38874879 10.4510572,4.38874879 C13.368613,4.38874879 13.9049467,6.3099903 13.9049467,8.80543162 L13.9049467,13.9049467 L13.9018429,13.9049467 Z" id="social-icon-linkedin"></path>
                    </g>
                </g>
            </g>
        </g>
    </g>
</svg>