<?xml version="1.0" encoding="UTF-8"?>
<svg width="672px" height="652px" viewBox="0 0 672 652" version="1.1" xmlns="http://www.w3.org/2000/svg" xmlns:xlink="http://www.w3.org/1999/xlink">
    <title>V3-Beacon Illustration</title>
    <g id="Page-1" stroke="none" stroke-width="1" fill="none" fill-rule="evenodd">
        <g id="V3-Beacon-Illustration" fill-rule="nonzero">
            <path d="M376.1,475.2 L375.8,474.2 C404.8,465.1 430.6,447.8 449.9,424.3 L450.7,425 C431.2,448.6 405.3,466 376.1,475.2 Z" id="Path" fill="#7A38A0"></path>
            <path d="M214.1,216.7 L213.3,216 C263.7,162.3 344.6,150.5 408.3,187.5 L407.8,188.4 C344.5,151.5 264.1,163.2 214.1,216.7 L214.1,216.7 Z" id="Path" fill="#7A38A0"></path>
            <path d="M191.2,402.6 C162.3,351.8 163.7,289.2 194.9,239.8 L195.8,240.4 C164.8,289.5 163.4,351.7 192.2,402.1 L191.2,402.6 Z" id="Path" fill="#7A38A0"></path>
            <path d="M328.7,482.400401 C284.4,482.5 242.1,463.9 212.2,431.2 L213,430.5 C242.7,463 284.7,481.4 328.8,481.4 C335.7,481.4 342.6,480.9 349.5,480 L349.6,481 C342.6,481.9 335.6,482.400401 328.7,482.400401 Z" id="Path" fill="#7A38A0"></path>
            <path d="M171.7,133.8 L171.3,133.3 C252.4,66.4 367,58.1 456.9,112.5 L456.5,113.1 C366.8,58.7 252.5,67 171.7,133.8 Z" id="Path" fill="#6FCFEE"></path>
            <path d="M122.3,460.9 C95.4,420.4 81.1,372.8 81.2,324.2 C81.2,316 81.6,307.7 82.4,299.5 L83.1,299.6 C82.3,307.7 81.9,316 81.9,324.2 C81.8,372.7 96.1,420.1 122.9,460.5 L122.3,460.9 Z" id="Path" fill="#6FCFEE"></path>
            <path d="M309.1,571 C242.6,565.8 181.1,533.9 138.5,482.7 L139,482.2 C181.5,533.3 242.9,565.1 309.2,570.3 L309.1,571 Z" id="Path" fill="#6FCFEE"></path>
            <path d="M537.9,456.4 L537.3,456 C583.2,383.4 588,292.1 550.1,215.1 C533.9,182.4 510.6,153.6 482.1,130.8 L482.5,130.2 C511.2,153 534.5,181.9 550.7,214.7 C558.9,231.4 565.2,248.9 569.5,267 C584.8,331.9 573.4,400.1 537.9,456.4 Z" id="Path" fill="#6FCFEE"></path>
            <path d="M15.8,421.6 C-30.4,272.9 34.3,112.2 170.7,37.2 L171.2,38.1 C120.8,65.9 78.6,106.5 48.8,155.8 C0.8,235.7 -10.9,332.3 16.7,421.3 L15.8,421.6 Z" id="Path" fill="#7A38A0"></path>
            <path d="M328.7,651.800256 C295.6,651.800256 262.8,646.9 231.2,637 L231.5,636 C340.5,670 459.3,644.6 544.8,568.9 L545.5,569.7 C485.7,622.7 408.5,651.9 328.7,651.800256 L328.7,651.800256 Z" id="Path" fill="#7A38A0"></path>
            <path d="M647.1,251.7 C633.9,193.9 605.3,140.8 564.2,98 L565,97.3 C606.2,140.2 635,193.5 648.2,251.4 L647.1,251.7 Z" id="Path" fill="#7A38A0"></path>
            <circle id="Oval" fill="#7A38A0" cx="130.3" cy="174.6" r="41.8"></circle>
            <circle id="Oval" fill="#7A38A0" cx="60.8" cy="513" r="48.8"></circle>
            <circle id="Oval" fill="#7A38A0" cx="593.8" cy="515.5" r="48.8"></circle>
            <circle id="Oval" fill="#7A38A0" cx="373.7" cy="568.9" r="43.9"></circle>
            <circle id="Oval" fill="#7A38A0" cx="517.1" cy="56.8" r="48.8"></circle>
            <path d="M513.9,105.9 C486.8,105.9 464.8,83.9 464.8,56.8 C464.8,29.7 486.8,7.7 513.9,7.7 C541,7.7 563,29.7 563,56.8 C563,83.9 540.9,105.9 513.9,105.9 Z M513.9,8.4 C487.2,8.4 465.5,30.1 465.5,56.8 C465.5,83.5 487.2,105.2 513.9,105.2 C540.6,105.2 562.3,83.5 562.3,56.8 C562.3,30.1 540.6,8.4 513.9,8.4 L513.9,8.4 Z" id="Shape" fill="#6FCFEE"></path>
            <circle id="Oval" fill="#7A38A0" cx="486.3" cy="324.2" r="34.7"></circle>
            <circle id="Oval" fill="#7A38A0" cx="88.2" cy="266.4" r="14.8"></circle>
            <circle id="Oval" fill="#7A38A0" cx="450.2" cy="223.4" r="14.8"></circle>
            <circle id="Oval" fill="#6FCFEE" cx="198.5" cy="624.4" r="14.8"></circle>
            <circle id="Oval" fill="#6FCFEE" transform="translate(654.308060, 286.980070) rotate(-80.781636) translate(-654.308060, -286.980070) " cx="654.30806" cy="286.98007" r="14.8002253"></circle>
            <circle id="Oval" fill="#6FCFEE" cx="221.8" cy="14.8" r="14.8"></circle>
            <g id="Group" transform="translate(43.000000, 474.000000)">
                <path d="M35.9,52.7 L0.4,52.7 C0.2,52.7 0,52.5 0,52.3 L0,46 C0,43.8 0.8,41.8 2.4,40.3 C3.9,38.8 5.9,37.9 8.1,37.9 C8.1,37.9 8.1,37.9 8.1,37.9 L14,37.9 C14.2,37.9 14.3,38 14.3,38.2 C14.5,40.3 16.4,41.8 18.6,41.6 C20.4,41.4 21.8,40 22,38.2 C22,38 22.2,37.9 22.3,37.9 L28.2,37.9 C28.2,37.9 28.2,37.9 28.2,37.9 C30.1,37.9 31.9,38.6 33.4,39.8 C33.5,39.9 33.6,40.1 33.5,40.3 L30.4,45.4 C30.3,45.6 30.3,46 30.6,46.1 L31,46.3 C31.1,46.4 31.3,46.4 31.4,46.4 C31.5,46.4 31.7,46.3 31.7,46.2 L34.4,41.7 C34.5,41.6 34.6,41.5 34.7,41.5 C34.7,41.5 34.7,41.5 34.7,41.5 C34.8,41.5 34.9,41.6 35,41.7 C35.8,43 36.2,44.5 36.2,46 L36.2,52.3 C36.3,52.6 36.1,52.7 35.9,52.7 Z M0.7,52 L35.6,52 L35.6,46 C35.6,46 35.6,46 35.6,46 C35.6,44.8 35.3,43.6 34.8,42.6 L32.4,46.5 C32.4,46.5 32.4,46.5 32.4,46.5 C32.2,46.8 32,46.9 31.7,47 C31.4,47.1 31,47 30.8,46.9 L30.4,46.7 C29.8,46.3 29.6,45.6 30,45 L32.9,40.2 C31.6,39.2 30,38.6 28.4,38.6 C28.4,38.6 28.4,38.6 28.4,38.6 L22.8,38.6 C22.4,40.6 20.8,42.1 18.8,42.3 C16.4,42.6 14.2,40.9 13.8,38.6 L8.2,38.6 C8.2,38.6 8.2,38.6 8.2,38.6 C6.2,38.6 4.4,39.4 3,40.8 C1.6,42.2 0.8,44 0.8,46 L0.8,52 L0.7,52 Z" id="Shape" fill="#FFFFFF"></path>
                <path d="M18.1,42.5 C17.9,42.5 17.8,42.5 17.6,42.5 C15.5,42.3 13.8,40.6 13.6,38.5 C13.6,38.3 13.6,38.2 13.6,38 L13.6,35.5 C13.6,35.4 13.7,35.3 13.7,35.2 C13.8,35.1 13.9,35.1 14,35.2 C16.6,36.1 19.5,36.1 22.2,35.2 C22.4,35.1 22.7,35.3 22.7,35.5 L22.7,38 C22.7,38.2 22.7,38.3 22.7,38.5 C22.4,40.7 20.4,42.5 18.1,42.5 Z M14.3,35.9 L14.3,37.9 C14.3,38 14.3,38.2 14.3,38.3 C14.5,40.1 15.9,41.5 17.7,41.7 C19.8,41.9 21.7,40.4 22,38.3 C22,38.2 22,38 22,37.9 L22,35.9 C19.5,36.7 16.8,36.7 14.3,35.9 Z" id="Shape" fill="#FFFFFF"></path>
                <path d="M18.1,36.5 C10.9,36.5 5.1,30.7 5.1,23.5 C5.1,22.8 5.2,22.1 5.3,21.5 C5.3,21.5 5.3,21.4 5.3,21.4 C5.3,21.3 5.3,21.2 5.4,21.1 C5.4,20.9 5.6,20.8 5.7,20.8 C10.1,20.8 14.2,19 16.4,16.3 C17.1,15.5 17.5,14.6 17.8,13.5 C17.8,13.3 18,13.2 18.1,13.2 L18.1,13.2 C18.3,13.2 18.4,13.3 18.4,13.5 C18.7,14.5 19.2,15.4 19.8,16.2 C22,19 26.1,20.7 30.4,20.8 C30.6,20.8 30.7,20.9 30.7,21.1 C30.7,21.3 30.8,21.4 30.8,21.6 C30.8,21.6 30.8,21.7 30.8,21.7 C30.9,22.3 30.9,22.9 30.9,23.5 C31.1,30.7 25.3,36.5 18.1,36.5 C18.1,36.5 18.1,36.5 18.1,36.5 Z M6,21.5 C5.9,22.2 5.8,22.9 5.8,23.5 C5.8,30.3 11.3,35.8 18.1,35.8 C18.1,35.8 18.1,35.8 18.1,35.8 C24.9,35.8 30.4,30.3 30.4,23.5 C30.4,23.5 30.4,23.5 30.4,23.5 C30.4,23 30.4,22.4 30.3,21.9 C30.3,21.9 30.3,21.8 30.3,21.8 C30.3,21.7 30.3,21.6 30.3,21.5 C25.8,21.4 21.7,19.6 19.4,16.7 C18.9,16.1 18.5,15.4 18.2,14.7 C17.9,15.4 17.5,16.1 17,16.7 C14.6,19.6 10.6,21.4 6,21.5 Z" id="Shape" fill="#FFFFFF"></path>
                <path d="M9.4,11.6 C9.4,11.6 9.4,11.6 9.4,11.6 C9.2,11.6 9.1,11.5 9.1,11.4 C8.7,10.5 8.5,9.5 8.5,8.5 C8.5,3.8 12.8,5.68434189e-14 18.1,5.68434189e-14 C23.4,5.68434189e-14 27.7,3.8 27.7,8.5 L27.7,8.5 C27.7,9.5 27.5,10.5 27.1,11.4 C27.1,11.5 27,11.6 26.9,11.6 C26.8,11.6 26.7,11.6 26.6,11.5 C26.2,11.2 25.9,11 25.5,10.8 C23.4,9.6 21.1,8.9 18.6,8.8 C18.5,8.8 18.4,8.8 18.3,8.8 C18.3,8.8 18.2,8.8 18.2,8.8 C18.2,8.8 18.1,8.8 18.1,8.8 C17.9,8.8 17.8,8.8 17.6,8.8 C14.7,8.9 11.9,9.8 9.6,11.5 C9.6,11.5 9.5,11.6 9.4,11.6 Z M18.1,0.6 C13.2,0.6 9.2,4.1 9.2,8.4 C9.2,9.2 9.3,9.9 9.6,10.7 C12,9.1 14.7,8.2 17.6,8.1 C17.8,8.1 17.9,8.1 18.1,8.1 C18.2,8.1 18.2,8.1 18.3,8.1 C18.4,8.1 18.5,8.1 18.6,8.1 C21.1,8.2 23.6,8.9 25.8,10.2 C26.1,10.4 26.3,10.5 26.6,10.7 C26.9,10 27,9.2 27,8.5 L27,8.5 C27,4.1 23,0.6 18.1,0.6 Z" id="Shape" fill="#FFFFFF"></path>
                <path d="M5.6,21.5 C4.8,21.5 4.1,21.4 3.3,21.3 C3.1,21.3 3,21.1 3,21 C3,21 3,21 3,21 C3,21 3,20.9 3,20.9 C4.2,13.8 10.4,8.4 17.6,8.1 C17.8,8.1 17.9,8.1 18.1,8.1 C18.2,8.1 18.2,8.1 18.3,8.1 C18.4,8.1 18.5,8.1 18.6,8.1 C21.1,8.2 23.6,8.9 25.8,10.2 C26.2,10.4 26.6,10.7 27,11 C30.3,13.3 32.6,17 33.2,21 C33.2,21.1 33.2,21.2 33.1,21.3 C33,21.4 33,21.4 32.9,21.4 C32.1,21.5 31.4,21.6 30.6,21.6 L30.5,21.6 C25.9,21.6 21.7,19.8 19.3,16.8 C18.8,16.2 18.4,15.5 18.1,14.8 C17.8,15.5 17.4,16.2 16.9,16.8 C14.6,19.7 10.4,21.5 5.6,21.5 L5.6,21.5 C5.7,21.5 5.7,21.5 5.6,21.5 Z M30.7,20.8 C31.3,20.8 31.9,20.8 32.5,20.7 C31.8,17 29.7,13.7 26.6,11.5 C26.2,11.2 25.9,11 25.5,10.8 C23.4,9.6 21.1,8.9 18.6,8.8 C18.5,8.8 18.4,8.8 18.3,8.8 C18.3,8.8 18.2,8.8 18.2,8.8 C18.2,8.8 18.1,8.8 18.1,8.8 C17.9,8.8 17.8,8.8 17.6,8.8 C10.8,9 5,14 3.7,20.7 C4.3,20.8 5,20.8 5.6,20.8 L5.6,20.8 C10,20.8 14.1,19 16.3,16.3 C17,15.5 17.4,14.6 17.7,13.5 C17.7,13.3 17.9,13.2 18,13.2 L18,13.2 C18.2,13.2 18.3,13.3 18.3,13.5 C18.6,14.5 19.1,15.4 19.7,16.2 C21.9,19 26,20.7 30.3,20.8 L30.7,20.8 Z" id="Shape" fill="#FFFFFF"></path>
                <path d="M40.4,37.4 C36.7,37.4 33.6,34.3 33.6,30.6 C33.6,26.9 36.7,23.8 40.4,23.8 C44.1,23.8 47.2,26.9 47.2,30.6 C47.2,34.3 44.1,37.4 40.4,37.4 Z M40.4,24.5 C37,24.5 34.3,27.2 34.3,30.6 C34.3,34 37,36.7 40.4,36.7 C43.8,36.7 46.5,34 46.5,30.6 C46.5,27.2 43.7,24.5 40.4,24.5 Z" id="Shape" fill="#6FCFEE"></path>
                <path d="M31.3,47.2 C31.1,47.2 30.9,47.1 30.7,47 C30.7,47 30.7,47 30.7,47 L30.3,46.8 C29.7,46.4 29.5,45.7 29.9,45.1 L35,36.7 C35.2,36.4 35.5,36.2 35.9,36.1 L36.2,36.1 C36.8,36 37.3,36.4 37.5,36.9 L37.6,37.2 C37.7,37.6 37.7,37.9 37.5,38.2 L32.4,46.6 C32.2,46.9 32,47.1 31.6,47.2 C31.5,47.2 31.4,47.2 31.3,47.2 Z M31,46.4 C31.1,46.5 31.3,46.5 31.4,46.5 C31.5,46.5 31.7,46.4 31.7,46.3 L36.8,37.9 C36.8,37.9 36.8,37.9 36.8,37.9 C36.9,37.8 36.9,37.6 36.8,37.5 L36.7,37.2 C36.6,37 36.4,36.8 36.1,36.8 L35.8,36.8 C35.6,36.8 35.5,36.9 35.4,37.1 L30.3,45.5 C30.2,45.7 30.2,46.1 30.5,46.2 L31,46.4 C31,46.4 31,46.4 31,46.4 Z" id="Shape" fill="#6FCFEE"></path>
            </g>
            <g id="Group" transform="translate(349.000000, 532.000000)">
                <path d="M27.5,41.9 C27.4,41.9 27.4,41.9 27.3,41.9 C27.2,41.8 27.1,41.8 27,41.7 C26.9,41.6 26.9,41.5 26.9,41.4 L26.9,41.3 C26.9,41.2 27,41 27.1,41 C27.2,40.9 27.4,41 27.5,41.1 C27.6,41.2 27.6,41.2 27.7,41.3 C27.8,41.4 27.9,41.6 27.8,41.8 C27.7,41.8 27.6,41.9 27.5,41.9 Z" id="Path" fill="#FFFFFF"></path>
                <path d="M27.2,43.9 L0.4,43.9 C0.2,43.9 0,43.7 0,43.5 L0,37.1 C0,32.6 3.7,28.9 8.2,28.9 L14.2,28.9 C14.4,28.9 14.5,29 14.5,29.2 C14.7,31.4 16.7,32.9 18.9,32.7 C20.7,32.5 22.2,31.1 22.4,29.2 C22.4,29 22.6,28.9 22.7,28.9 L28.7,28.9 C28.7,28.9 28.7,28.9 28.7,28.9 C30.9,28.9 32.9,29.8 34.5,31.3 C34.7,31.5 34.9,31.8 35.1,32 C35.2,32.1 35.2,32.2 35.1,32.4 C35,32.5 34.9,32.6 34.8,32.6 L27.4,32.6 C27.1,32.6 26.8,32.8 26.8,33.1 L26.8,40 C26.8,40.4 27,40.8 27.3,41.1 C27.4,41.2 27.4,41.3 27.4,41.4 L27.4,43.6 C27.6,43.7 27.4,43.9 27.2,43.9 Z M0.8,43.2 L26.9,43.2 L26.9,41.6 C26.5,41.2 26.2,40.7 26.2,40.1 L26.2,33.2 C26.2,32.5 26.8,32 27.5,32 C27.5,32 27.5,32 27.5,32 L34.2,32 C34.2,32 34.2,32 34.1,31.9 C32.7,30.5 30.8,29.7 28.8,29.7 C28.8,29.7 28.8,29.7 28.8,29.7 L23.1,29.7 C22.7,31.7 21.1,33.3 19,33.5 C17.8,33.6 16.6,33.3 15.6,32.5 C14.7,31.8 14.1,30.8 13.9,29.7 L8.2,29.7 C4.1,29.7 0.7,33.1 0.7,37.2 L0.7,43.2 L0.8,43.2 Z" id="Shape" fill="#FFFFFF"></path>
                <path d="M18.6,33.4 C18.4,33.4 18.3,33.4 18.1,33.4 C15.9,33.2 14.2,31.5 14,29.3 C14,29.1 14,29 14,28.8 L14,26.2 C14,26.1 14.1,26 14.1,25.9 C14.2,25.8 14.3,25.8 14.4,25.9 C17.1,26.9 20.1,26.9 22.7,25.9 C22.8,25.9 22.9,25.9 23,25.9 C23.1,26 23.1,26.1 23.1,26.2 L23.1,28.8 C23.1,29 23.1,29.1 23.1,29.3 C23,30.5 22.4,31.6 21.4,32.4 C20.6,33 19.6,33.4 18.6,33.4 Z M14.6,26.6 L14.6,28.8 C14.6,28.9 14.6,29.1 14.6,29.2 C14.8,31 16.2,32.5 18.1,32.7 C19.1,32.8 20.2,32.5 21,31.9 C21.8,31.2 22.3,30.3 22.5,29.3 C22.5,29.2 22.5,29 22.5,28.9 L22.5,26.7 C19.9,27.4 17.2,27.4 14.6,26.6 Z" id="Shape" fill="#FFFFFF"></path>
                <path d="M18.6,27.2 C11.3,27.2 5.4,21.3 5.4,14.1 L5.4,14 C5.4,13.3 5.5,12.5 5.6,11.8 C5.6,11.6 5.8,11.5 6,11.5 C8.1,11.6 10.3,11.4 12.4,10.9 C12.4,10.9 12.4,10.9 12.5,10.9 C14.9,10.4 17.2,9.6 19.4,8.4 C19.4,8.4 19.4,8.4 19.5,8.4 C19.5,8.4 19.5,8.4 19.5,8.4 C19.8,8.2 20.2,8 20.5,7.8 C20.5,7.8 20.6,7.8 20.6,7.7 C20.6,7.7 20.6,7.7 20.6,7.7 C21.3,7.3 21.9,6.8 22.5,6.3 C22.6,6.2 22.8,6.2 23,6.3 C24.6,7.8 26.3,9.1 28.1,10.1 C29.2,10.7 30.3,11.3 31.5,11.8 C31.5,11.8 31.5,11.8 31.5,11.8 C31.6,11.8 31.7,11.9 31.7,12.1 C31.8,12.7 31.8,13.4 31.8,14 C31.8,21.2 25.9,27.2 18.6,27.2 C18.6,27.2 18.6,27.2 18.6,27.2 Z M6.2,12.2 C6.1,12.8 6.1,13.4 6.1,14 L6.1,14.1 C6.1,21 11.7,26.5 18.6,26.5 C18.6,26.5 18.6,26.5 18.7,26.5 C25.6,26.5 31.2,20.8 31.1,13.9 C31.1,13.9 31.1,13.9 31.1,13.9 C31.1,13.4 31.1,12.8 31,12.3 C29.8,11.8 28.7,11.3 27.6,10.6 C25.8,9.6 24.1,8.3 22.5,6.9 C21.9,7.4 21.4,7.8 20.7,8.2 C20.7,8.2 20.7,8.2 20.7,8.2 C20.3,8.4 19.9,8.7 19.6,8.9 C19.6,8.9 19.6,8.9 19.6,8.9 C17.4,10.1 15,11 12.5,11.5 C12.5,11.5 12.5,11.5 12.5,11.5 C10.3,12 8.2,12.2 6.2,12.2 Z" id="Shape" fill="#FFFFFF"></path>
                <path d="M31.3,12.5 C31.3,12.5 31.2,12.5 31.2,12.5 C30,12 28.8,11.4 27.6,10.8 C25.7,9.7 23.9,8.4 22.3,6.9 C22.2,6.8 22.2,6.6 22.2,6.5 C22.2,6.4 22.3,6.3 22.4,6.3 C22.5,6.2 22.7,6.3 22.8,6.4 C24.4,7.9 26.1,9.2 28,10.2 C29.1,10.8 30.3,11.4 31.5,11.9 C31.6,12 31.7,12.1 31.7,12.2 L31.7,12.2 C31.7,12.3 31.6,12.4 31.5,12.5 C31.4,12.5 31.3,12.5 31.3,12.5 Z" id="Path" fill="#FFFFFF"></path>
                <path d="M31.3,12.5 C31.3,12.5 31.2,12.5 31.2,12.5 C30,12 28.8,11.4 27.6,10.8 C25.8,9.8 24.1,8.5 22.5,7.1 C21.9,7.6 21.4,8 20.7,8.4 C20.7,8.4 20.7,8.4 20.7,8.4 C20.3,8.6 20,8.9 19.6,9.1 C19.6,9.1 19.6,9.1 19.5,9.1 C15.3,11.3 10.6,12.4 5.8,12.3 C5.7,12.3 5.6,12.3 5.5,12.2 C5.4,12.1 5.4,12 5.4,11.9 C6.5,5.5 12,0.9 18.4,0.9 C18.5,0.9 18.5,0.9 18.6,0.9 C20.9,0.9 23.1,1.5 25.1,2.7 C28.6,4.7 30.9,8.2 31.5,12.2 C31.5,12.2 31.5,12.2 31.5,12.3 L31.5,12.3 C31.5,12.4 31.4,12.5 31.3,12.6 C31.4,12.5 31.3,12.5 31.3,12.5 Z M22.5,6.2 C22.6,6.2 22.7,6.2 22.7,6.3 C24.3,7.8 26,9.1 27.8,10.1 C28.7,10.6 29.7,11.1 30.7,11.6 C30,8.1 27.9,5 24.7,3.2 C22.8,2.1 20.7,1.5 18.5,1.5 C18.4,1.5 18.4,1.5 18.4,1.5 C12.4,1.5 7.3,5.7 6.1,11.5 C6.2,11.5 6.2,11.5 6.3,11.5 C10.8,11.5 15.1,10.4 19.1,8.4 C19.1,8.4 19.1,8.4 19.2,8.4 C19.2,8.4 19.2,8.4 19.2,8.4 C19.5,8.2 19.9,8 20.3,7.8 C20.3,7.8 20.4,7.8 20.4,7.8 C20.4,7.8 20.4,7.8 20.4,7.8 C21.1,7.4 21.7,6.9 22.3,6.4 C22.4,6.2 22.4,6.2 22.5,6.2 Z" id="Shape" fill="#FFFFFF"></path>
                <path d="M45.8,32.5 L34,32.5 L34,31.2 C34,29.9 35.1,28.9 36.3,28.9 L43.4,28.9 C44.7,28.9 45.7,30 45.7,31.2 L45.7,32.5 L45.8,32.5 Z M34.7,31.8 L45,31.8 L45,31.2 C45,30.3 44.3,29.6 43.4,29.6 L36.3,29.6 C35.4,29.6 34.7,30.3 34.7,31.2 L34.7,31.8 L34.7,31.8 Z" id="Shape" fill="#6FCFEE"></path>
                <path d="M51.3,50.6 L28.4,50.6 C27.6,50.6 26.9,49.7 26.9,48.7 L26.9,40.7 L27.5,41.1 C27.6,41.1 27.6,41.2 27.7,41.2 L27.8,41.2 C28,41.4 28.2,41.4 28.5,41.4 L39.4,41.4 L39.4,42.3 C39.4,42.6 39.7,42.9 40,42.9 C40.2,42.9 40.3,42.8 40.4,42.7 C40.5,42.6 40.6,42.4 40.6,42.3 L40.6,41.4 L51.5,41.4 C51.7,41.4 52,41.3 52.2,41.2 L52.2,41.2 C52.3,41.2 52.3,41.1 52.4,41.1 L53,40.7 L53,48.7 C52.9,49.7 52.2,50.6 51.3,50.6 Z M27.6,42 L27.6,48.7 C27.6,49.4 28,49.9 28.4,49.9 L51.3,49.9 C51.7,49.9 52.1,49.4 52.1,48.7 L52.1,42 C51.9,42.1 51.6,42.2 51.3,42.2 L41.1,42.2 L41.1,42.4 C41.1,42.7 41,43.1 40.7,43.3 C40.5,43.5 40.1,43.7 39.8,43.7 C39.1,43.7 38.5,43.1 38.5,42.4 L38.5,42.2 L28.3,42.2 C28.1,42.2 27.8,42.1 27.6,42 Z" id="Shape" fill="#6FCFEE"></path>
                <path d="M27.3,41.8 C27.2,41.7 27.1,41.7 27,41.6 L26.9,41.5 L26.9,40.4 L27.5,41 C27.6,41.1 27.6,41.1 27.7,41.2 L27.3,41.8 Z" id="Path" fill="#6FCFEE"></path>
                <path d="M52.4,41.8 L52,41.2 C52.1,41.1 52.1,41.1 52.2,41 L52.8,40.4 L52.8,41.5 L52.7,41.6 C52.6,41.7 52.5,41.8 52.4,41.8 Z" id="Path" fill="#6FCFEE"></path>
                <path d="M40.8,42.2 L40.4,42.2 L40.4,41.4 C40.4,41.2 40.3,41.1 40.2,41 C40.1,40.9 39.9,40.8 39.8,40.8 C39.5,40.8 39.2,41.1 39.2,41.4 L39.2,42.2 L28.3,42.2 C28,42.2 27.7,42.1 27.5,42 L27.5,42.1 L26.9,41.7 C26.4,41.3 26.1,40.7 26.1,40.1 L26.1,33.2 C26.1,32.5 26.7,32 27.4,32 C27.4,32 27.4,32 27.4,32 L52.1,32 C52.8,32 53.4,32.5 53.4,33.2 L53.4,40.2 C53.4,40.8 53.1,41.4 52.6,41.8 L52,42.2 L52,42 C51.8,42.1 51.5,42.2 51.2,42.2 L40.8,42.2 Z M27,40.5 L27.5,41 C27.6,41.1 27.6,41.1 27.7,41.2 C27.9,41.4 28.2,41.4 28.4,41.4 L38.6,41.4 L38.6,41.3 C38.6,40.6 39.2,40 39.9,40 C40.3,40 40.6,40.1 40.8,40.4 C41,40.6 41.2,41 41.2,41.3 L41.2,41.4 L51.4,41.4 C51.6,41.4 51.9,41.3 52.1,41.2 C52.2,41.1 52.2,41.1 52.3,41 L52.8,40.5 C52.9,40.3 52.9,40.1 52.9,40 L52.9,33.1 C52.9,32.8 52.6,32.5 52.3,32.6 L27.5,32.6 C27.2,32.6 26.9,32.8 26.9,33.1 L26.9,40 C26.9,40.2 27,40.4 27,40.5 Z" id="Shape" fill="#6FCFEE"></path>
                <path d="M27.3,41.8 C27.2,41.7 27.1,41.7 27,41.6 L26.9,41.5 L26.9,40.4 L27.5,41 C27.6,41.1 27.6,41.1 27.7,41.2 L27.3,41.8 Z" id="Path" fill="#6FCFEE"></path>
                <path d="M52.4,41.8 L52,41.2 C52.1,41.1 52.1,41.1 52.2,41 L52.8,40.4 L52.8,41.5 L52.7,41.6 C52.6,41.7 52.5,41.8 52.4,41.8 Z" id="Path" fill="#6FCFEE"></path>
                <path d="M39.9,43.7 C39.6,43.7 39.2,43.6 39,43.3 C38.8,43.1 38.6,42.7 38.6,42.4 L38.6,41.4 C38.6,40.7 39.2,40.1 39.9,40.1 C40.6,40.1 41.2,40.7 41.2,41.4 L41.2,42.4 C41.2,43.1 40.6,43.7 39.9,43.7 C39.9,43.7 39.9,43.7 39.9,43.7 Z M39.9,40.8 C39.6,40.8 39.3,41.1 39.3,41.4 L39.3,42.4 C39.3,42.6 39.4,42.7 39.5,42.8 C39.6,42.9 39.8,43 39.9,43 C40.2,43 40.5,42.7 40.5,42.4 L40.5,41.4 C40.5,41.1 40.2,40.8 39.9,40.8 C39.9,40.8 39.9,40.8 39.9,40.8 Z" id="Shape" fill="#6FCFEE"></path>
            </g>
            <g id="Group" transform="translate(574.000000, 484.000000)">
                <path d="M32.9,48.2 L1.1,48.2 C0.9,48.2 0.7,48 0.7,47.8 L0.7,41.1 C0.7,36.4 4.5,32.6 9.2,32.6 L15.4,32.6 C15.6,32.6 15.7,32.7 15.7,32.9 C15.9,35.1 18,36.8 20.2,36.5 C22.1,36.3 23.6,34.8 23.8,32.9 C23.8,32.7 24,32.6 24.1,32.6 L30.3,32.6 C30.3,32.6 30.3,32.6 30.3,32.6 C32.9,32.6 35.4,33.8 37,35.9 C37.1,36 37.1,36.1 37,36.2 C37,36.3 36.8,36.4 36.7,36.4 C33.5,36.8 31,39.6 31,42.9 L31,42.9 C31,44.6 31.7,46.2 32.9,47.5 C33,47.6 33,47.8 33,47.9 C33.2,48.1 33,48.2 32.9,48.2 Z M1.4,47.5 L32.1,47.5 C31.1,46.2 30.6,44.7 30.6,43 C30.6,39.6 33,36.7 36.3,35.9 C34.8,34.3 32.7,33.3 30.5,33.3 C30.5,33.3 30.5,33.3 30.5,33.3 L24.6,33.3 C24.2,35.4 22.5,37 20.4,37.2 C17.9,37.5 15.6,35.7 15.2,33.3 L9.3,33.3 C5,33.3 1.5,36.8 1.5,41.1 L1.5,47.5 L1.4,47.5 Z" id="Shape" fill="#FFFFFF"></path>
                <path d="M19.8,37.3 C19.6,37.3 19.4,37.3 19.3,37.3 C17.1,37.1 15.3,35.3 15.1,33.1 C15.1,33 15.1,32.9 15.1,32.8 L15.1,32.8 C15.1,32.7 15.1,32.6 15.1,32.6 L15.1,29.9 C15.1,29.8 15.2,29.7 15.2,29.6 C15.3,29.5 15.4,29.5 15.5,29.6 C18.3,30.6 21.3,30.6 24.1,29.6 C24.1,29.6 24.2,29.6 24.2,29.6 L24.2,29.6 C24.4,29.6 24.5,29.7 24.5,29.9 C24.5,29.9 24.5,30 24.5,30 L24.5,32.7 C24.5,32.8 24.5,32.8 24.5,32.9 L24.5,32.9 C24.5,33 24.5,33.1 24.5,33.2 C24.3,35.5 22.3,37.3 19.8,37.3 Z M15.8,30.3 L15.8,32.6 C15.8,32.7 15.8,32.7 15.8,32.8 L15.8,32.8 C15.8,32.9 15.8,33 15.8,33 C16,34.9 17.5,36.4 19.4,36.6 C21.6,36.8 23.7,35.2 23.9,33 C23.9,32.9 23.9,32.8 23.9,32.8 L23.9,32.8 C23.9,32.7 23.9,32.7 23.9,32.6 L23.9,30.3 C21.3,31.1 18.4,31.1 15.8,30.3 Z" id="Shape" fill="#FFFFFF"></path>
                <path d="M37.8,50.3 C33.8,50.3 30.5,47 30.5,43 C30.5,39.4 33.2,36.3 36.8,35.8 C37.1,35.8 37.4,35.7 37.8,35.7 C41.8,35.7 45,39 45.1,43 L45.1,43 C45.1,47.1 41.8,50.3 37.8,50.3 Z M37.8,36.5 C37.5,36.5 37.2,36.5 36.9,36.6 C33.7,37 31.2,39.8 31.2,43.1 C31.2,46.7 34.1,49.6 37.7,49.6 C41.3,49.6 44.2,46.7 44.2,43.1 C44.4,39.5 41.5,36.5 37.8,36.5 Z" id="Shape" fill="#6FCFEE"></path>
                <g transform="translate(35.000000, 38.000000)" fill="#6FCFEE" id="Shape">
                    <path d="M3.2,8.6 L3.2,9.5 L2.7,9.5 L2.7,8.6 C1.6,8.6 0.8,8.1 0.5,7.2 L0.9,6.9 C1.1,7.6 1.7,8 2.6,8 L2.6,5.1 C1.6,4.7 0.7,4.4 0.7,3.2 C0.7,2.2 1.5,1.5 2.6,1.4 L2.6,0.5 L3.1,0.5 L3.1,1.4 C3.9,1.5 4.5,1.9 4.8,2.6 L4.4,2.8 C4.2,2.3 3.7,1.9 3.1,1.8 L3.1,4.6 C4.1,5 5,5.3 5,6.5 C5.1,7.8 4.3,8.5 3.2,8.6 Z M2.8,4.7 L2.8,2 C2,2.1 1.5,2.6 1.5,3.3 C1.4,4.1 2,4.4 2.8,4.7 Z M4.6,6.7 C4.6,5.9 4,5.6 3.2,5.3 L3.2,8 C4.1,8 4.6,7.4 4.6,6.7 L4.6,6.7 Z"></path>
                    <path d="M3.4,9.6 L2.7,9.6 L2.7,8.7 C1.6,8.6 0.8,8.1 0.5,7.2 L0.5,7.1 L1.2,6.7 L1.3,6.9 C1.5,7.5 2,7.9 2.8,7.9 L2.8,5.2 C1.9,4.9 0.9,4.5 0.9,3.2 C0.9,2.2 1.7,1.4 2.8,1.3 L2.8,0.4 L3.5,0.4 L3.5,1.3 C4.3,1.4 4.9,1.9 5.2,2.6 L5.2,2.7 L4.5,3.1 L4.4,3 C4.2,2.5 3.8,2.2 3.4,2.1 L3.4,4.6 C4.4,5 5.3,5.4 5.3,6.6 C5.3,7.6 4.5,8.4 3.4,8.6 L3.4,9.6 Z M2.9,9.3 L3.1,9.3 L3.1,8.4 L3.2,8.4 C4.3,8.3 5,7.6 5,6.7 C5,5.6 4.2,5.3 3.2,4.9 L3.1,4.9 L3.1,1.9 L3.2,1.9 C3.8,1.9 4.3,2.3 4.5,2.8 L4.7,2.7 C4.4,2.1 3.8,1.7 3.1,1.7 L3,1.7 L3,0.8 L2.8,0.8 L2.8,1.7 L2.7,1.7 C1.7,1.8 1,2.4 1,3.3 C1,4.4 1.7,4.7 2.8,5.1 L2.9,5.1 L2.9,8.2 L2.8,8.2 C1.9,8.2 1.3,7.8 1,7.1 L0.8,7.2 C1.1,7.9 1.8,8.4 2.8,8.4 L2.9,8.4 L2.9,9.3 L2.9,9.3 Z M3.1,8.2 L3.1,5.1 L3.3,5.2 C4,5.5 4.8,5.8 4.8,6.7 L4.8,6.7 L4.8,6.7 C4.8,7.5 4.2,8.1 3.3,8.2 L3.1,8.2 Z M3.4,5.5 L3.4,7.9 C4.1,7.8 4.5,7.3 4.5,6.7 L4.5,6.7 C4.5,6.1 4.1,5.8 3.4,5.5 Z M2.9,4.8 L2.7,4.7 C1.9,4.4 1.3,4.1 1.3,3.2 C1.3,2.4 1.9,1.9 2.8,1.8 L2.9,1.8 L2.9,4.8 Z M2.6,2.2 C1.9,2.3 1.5,2.7 1.5,3.3 C1.5,3.9 1.9,4.2 2.6,4.5 L2.6,2.2 Z"></path>
                </g>
                <path d="M3.8,18.5 C3.7,18.5 3.7,18.5 3.6,18.5 C3.5,18.4 3.4,18.3 3.4,18.2 C3.4,17.9 3.4,17.6 3.4,17.2 C3.4,16.6 3.4,16.1 3.5,15.5 C3.5,15.2 3.6,14.9 3.6,14.6 C3.6,14.6 3.6,14.5 3.6,14.5 C4.3,10.6 6.3,7.1 9.3,4.6 C10.1,3.9 11,3.3 12,2.7 C12.2,2.6 12.3,2.5 12.5,2.4 C13.1,2.1 13.6,1.9 14.2,1.7 C16,1 17.9,0.7 19.9,0.7 C19.9,0.7 19.9,0.7 20,0.7 C20.1,0.7 20.1,0.7 20.2,0.7 C22.1,0.7 23.9,1.1 25.7,1.7 C26.6,2 27.5,2.4 28.3,2.9 C29.1,3.4 29.9,3.9 30.6,4.6 C33.5,7 35.4,10.4 36.2,14.1 C36.2,14.2 36.2,14.4 36,14.5 C35.2,15.1 34.2,15.5 33.3,15.8 C29.3,17 24.3,16.2 19.9,13.5 C16.9,11.7 14.4,9.1 12.8,5.9 C12.8,5.8 12.7,5.8 12.7,5.7 C12.7,5.9 12.6,6.2 12.5,6.4 C12.3,7.4 12,8.4 11.6,9.4 C10.6,12 8.9,14.4 6.9,16.3 C6,17.1 5,17.8 4,18.4 C4,18.5 3.9,18.5 3.8,18.5 Z M4.4,14.5 C4.4,14.5 4.4,14.6 4.4,14.6 C4.4,14.9 4.3,15.2 4.3,15.6 C4.2,16.1 4.2,16.7 4.2,17.2 C4.2,17.3 4.2,17.4 4.2,17.6 C5,17.1 5.8,16.5 6.5,15.9 C8.5,14.1 10,11.7 11,9.2 C11.4,8.3 11.7,7.3 11.9,6.3 C12.1,5.7 12.2,5 12.2,4.4 C12.2,4.2 12.3,4.1 12.5,4.1 C12.7,4.1 12.8,4.2 12.9,4.3 C13.1,4.8 13.2,5.2 13.4,5.6 C14.9,8.6 17.3,11.1 20.2,12.9 C24.4,15.5 29.2,16.3 33,15.1 C33.8,14.9 34.6,14.5 35.4,14 C34.7,10.6 32.8,7.4 30.1,5.2 C29.4,4.6 28.7,4.1 27.9,3.6 C27.1,3.1 26.3,2.7 25.4,2.4 C23.7,1.8 21.9,1.4 20.1,1.4 C20.1,1.4 20.1,1.4 20,1.4 C20,1.4 19.9,1.4 19.9,1.4 C19.9,1.4 19.9,1.4 19.9,1.4 C18,1.4 16.2,1.7 14.5,2.4 C13.9,2.6 13.4,2.8 12.8,3.1 C12.6,3.2 12.5,3.3 12.3,3.4 C11.4,3.9 10.5,4.5 9.7,5.2 C6.9,7.5 5,10.8 4.4,14.5 Z" id="Shape" fill="#FFFFFF"></path>
                <path d="M19.8,30.9 C18.3,30.9 16.7,30.6 15.2,30.1 C14.9,30 14.5,29.9 14.2,29.7 C9.2,27.5 6,22.6 6,17.2 C6,16.8 6,16.4 6,16 C6,15.9 6,15.8 6.1,15.8 C8.1,13.9 9.6,11.6 10.6,9.1 C11,8.2 11.3,7.2 11.5,6.2 C11.7,5.6 11.8,4.9 11.8,4.3 C11.8,4.1 11.9,4 12.1,4 C12.3,4 12.4,4.1 12.5,4.2 C12.7,4.7 12.8,5.1 13,5.5 C14.5,8.5 16.9,11 19.8,12.8 C24,15.4 28.8,16.2 32.6,15 C32.7,15 32.8,15 32.9,15 C33,15.1 33,15.1 33.1,15.2 C33.1,15.3 33.1,15.4 33.1,15.5 L33.1,15.6 C33.2,16.1 33.2,16.5 33.2,17 C33.2,22.4 30,27.3 25,29.5 C24.7,29.6 24.4,29.8 24,29.9 C22.9,30.7 21.4,30.9 19.8,30.9 Z M6.9,16.3 C6.9,16.6 6.9,16.9 6.9,17.3 C6.9,22.4 9.9,27.1 14.6,29.2 C14.9,29.3 15.2,29.4 15.5,29.6 C18.3,30.6 21.4,30.6 24.2,29.6 C24.5,29.5 24.8,29.4 25.1,29.2 C29.8,27.1 32.9,22.5 32.9,17.3 L32.9,17.3 C32.9,16.9 32.9,16.4 32.8,16 L32.8,15.9 C28.8,17 24,16.1 19.8,13.5 C16.8,11.7 14.3,9.1 12.7,5.9 C12.7,5.8 12.6,5.8 12.6,5.7 C12.6,5.9 12.5,6.2 12.4,6.4 C12.2,7.4 11.9,8.4 11.5,9.4 C10.5,12 8.9,14.4 6.9,16.3 Z" id="Shape" fill="#FFFFFF"></path>
            </g>
            <g id="Group" transform="translate(494.000000, 24.000000)">
                <path d="M43.6,57.1 L3.2,57.1 C3,57.1 2.8,56.9 2.8,56.7 L2.8,49.5 C2.8,44.5 6.9,40.4 11.9,40.4 L18.6,40.4 C18.8,40.4 18.9,40.5 18.9,40.7 C19.1,42.8 20.7,44.4 22.8,44.6 C25.2,44.9 27.4,43.1 27.7,40.7 C27.7,40.5 27.9,40.4 28,40.4 L34.7,40.4 C34.7,40.4 34.7,40.4 34.7,40.4 C39.7,40.4 43.8,44.5 43.8,49.5 L43.8,56.7 C44,56.9 43.8,57.1 43.6,57.1 Z M3.6,56.4 L43.3,56.4 L43.3,49.6 C43.3,45 39.5,41.2 34.9,41.2 L28.5,41.2 C28,43.8 25.6,45.7 22.9,45.4 C20.6,45.1 18.8,43.4 18.4,41.2 L12,41.2 C7.4,41.2 3.6,45 3.6,49.6 L3.6,56.4 Z" id="Shape" fill="#FFFFFF"></path>
                <path d="M33.4,51.8 C31.6,51.8 30.1,50.3 30.1,48.5 C30.1,46.7 31.6,45.2 33.4,45.2 C33.4,45.2 33.4,45.2 33.4,45.2 C34.3,45.2 35.1,45.5 35.7,46.1 C36.3,46.7 36.7,47.5 36.7,48.4 C36.7,48.4 36.7,48.4 36.7,48.4 C36.6,50.3 35.2,51.8 33.4,51.8 Z M33.4,46 C33.4,46 33.4,46 33.4,46 C32,46 30.8,47.1 30.8,48.6 C30.8,50 31.9,51.2 33.4,51.2 C34.8,51.2 36,50.1 36,48.6 L36,48.6 C36,47.9 35.7,47.3 35.3,46.8 C34.7,46.2 34.1,46 33.4,46 Z" id="Shape" fill="#6FCFEE"></path>
                <path d="M14.3,45.1 L13.6,45.1 C13.6,44.9 13.6,44.8 13.6,44.7 C13.7,43.3 14.1,41.9 14.8,40.7 C15.7,39.2 17,37.9 18.5,37.1 L18.8,37.7 C17.4,38.5 16.2,39.7 15.4,41.1 C14.8,42.2 14.4,43.5 14.3,44.8 C14.3,44.8 14.3,44.9 14.3,45.1 Z" id="Path" fill="#6FCFEE"></path>
                <path d="M33.7,45.1 L33,45.1 C33,43.7 32.6,42.2 31.9,41 C31.5,40.2 30.9,39.5 30.3,39 C29.7,38.5 29.1,38 28.3,37.6 L28.6,37 C29.4,37.4 30.1,37.9 30.7,38.5 C31.4,39.1 32,39.9 32.5,40.7 C33.3,41.9 33.7,43.5 33.7,45.1 Z" id="Path" fill="#6FCFEE"></path>
                <path d="M17.8,54 L16.6,54 C16.4,54 16.2,53.8 16.2,53.6 C16.2,53.4 16.4,53.2 16.6,53.2 L17.4,53.2 L17.4,48.4 C17.4,46.5 15.8,44.9 13.9,44.9 C12,44.9 10.4,46.5 10.4,48.4 L10.4,53.2 L11.2,53.2 C11.4,53.2 11.6,53.4 11.6,53.6 C11.6,53.8 11.4,54 11.2,54 L10,54 C9.8,54 9.6,53.8 9.6,53.6 L9.6,48.5 C9.6,46.2 11.5,44.3 13.8,44.3 C16.1,44.3 18,46.2 18,48.5 L18,53.6 C18.1,53.8 18,54 17.8,54 Z" id="Path" fill="#6FCFEE"></path>
                <path d="M23.4,45.4 C23.2,45.4 23,45.4 22.8,45.4 C20.4,45.1 18.5,43.3 18.3,40.9 C18.3,40.7 18.3,40.5 18.3,40.3 L18.3,37.4 C18.3,37.3 18.4,37.2 18.4,37.1 C18.5,37 18.6,37 18.7,37.1 C20.2,37.6 21.8,37.9 23.3,37.9 C23.3,37.9 23.3,37.9 23.4,37.9 C25,37.9 26.5,37.6 28,37.1 C28.1,37.1 28.2,37.1 28.3,37.1 C28.4,37.2 28.4,37.3 28.4,37.4 L28.4,40.4 C28.4,40.6 28.4,40.8 28.4,41 C28.2,43.4 26,45.4 23.4,45.4 Z M19,37.8 L19,40.3 C19,40.5 19,40.6 19,40.8 C19.2,42.9 20.8,44.5 22.9,44.7 C24.1,44.8 25.2,44.5 26.2,43.8 C27.1,43.1 27.7,42 27.8,40.8 C27.8,40.6 27.8,40.5 27.8,40.3 L27.8,37.8 C26.4,38.3 24.9,38.5 23.4,38.5 C23.4,38.5 23.4,38.5 23.3,38.5 C21.9,38.5 20.4,38.2 19,37.8 Z" id="Shape" fill="#FFFFFF"></path>
                <path d="M23.5,38.5 C23.4,38.5 23.4,38.5 23.5,38.5 C21.8,38.5 20.2,38.2 18.6,37.7 C18.6,37.7 18.6,37.7 18.6,37.7 C15.1,36.5 12.3,34 10.5,30.7 C10.5,30.7 10.5,30.7 10.5,30.7 C9.5,28.8 8.9,26.7 8.8,24.6 C8.8,24.4 8.8,24.2 8.8,24 L8.8,23.9 C8.8,23.3 8.8,22.7 8.9,22.1 C8.9,22.1 8.9,22.1 8.9,22.1 C8.9,21.9 9,21.7 9,21.5 C9,21.3 9.2,21.2 9.4,21.2 C11,21.2 12.5,21.2 14.1,21 C14.9,20.9 15.7,20.8 16.6,20.6 C17.5,20.4 18.3,20.2 19.1,19.9 C19.4,19.8 19.7,19.7 19.9,19.6 C20.5,19.4 21,19.2 21.5,19 C22.5,18.6 23.4,18.2 24.3,17.7 C24.7,17.5 25.2,17.2 25.6,17 C25.6,17 25.6,17 25.6,17 C26.3,16.5 27,16 27.7,15.4 C27.8,15.3 28,15.3 28.2,15.4 C29.9,17.1 31.9,18.5 33.9,19.7 C35.1,20.4 36.4,21 37.7,21.6 C37.7,21.6 37.7,21.6 37.8,21.6 C37.9,21.6 37.9,21.7 38,21.7 C38,21.8 38.1,21.8 38.1,21.9 C38.1,22.1 38.2,22.3 38.2,22.5 C38.3,23 38.3,23.5 38.3,24 C38.3,27.1 37.4,30 35.6,32.5 C33.9,34.9 31.5,36.7 28.8,37.8 C28.7,37.8 28.6,37.9 28.5,37.9 C26.8,38.2 25.1,38.5 23.5,38.5 Z M23.4,37.8 C25,37.8 26.6,37.5 28.1,37 C28.2,37 28.3,36.9 28.4,36.9 C31,35.9 33.3,34.2 34.9,31.9 C36.6,29.5 37.5,26.7 37.5,23.8 C37.5,23.8 37.5,23.8 37.5,23.8 C37.5,23.3 37.5,22.8 37.4,22.4 C37.4,22.3 37.4,22.2 37.4,22.1 C36.1,21.6 34.8,20.9 33.6,20.2 C31.6,19 29.7,17.6 27.9,16 C27.3,16.5 26.6,17 25.9,17.5 C25.9,17.5 25.9,17.5 25.9,17.5 C25.5,17.7 25.1,18 24.6,18.2 C23.7,18.7 22.7,19.2 21.7,19.6 C21.2,19.8 20.7,20 20.1,20.2 C19.8,20.3 19.5,20.4 19.3,20.5 C18.5,20.8 17.6,21 16.7,21.2 C15.8,21.4 15,21.5 14.2,21.6 C12.7,21.8 11.2,21.9 9.7,21.9 C9.7,22 9.7,22.1 9.7,22.2 C9.7,22.2 9.7,22.2 9.7,22.2 C9.6,22.8 9.6,23.4 9.6,23.9 L9.6,24 C9.6,24.2 9.6,24.4 9.6,24.6 C9.7,26.6 10.2,28.7 11.2,30.5 C11.2,30.5 11.2,30.5 11.2,30.5 C12.8,33.6 15.6,35.9 18.8,37.1 C18.8,37.1 18.8,37.1 18.8,37.1 C18.8,37.1 18.8,37.1 18.8,37.1 C20.3,37.5 21.8,37.8 23.4,37.8 C23.4,37.8 23.4,37.8 23.4,37.8 Z" id="Shape" fill="#FFFFFF"></path>
                <path d="M37.6,22.1 C37.6,22.1 37.5,22.1 37.5,22.1 C36.1,21.5 34.8,20.9 33.5,20.2 C31.4,19 29.4,17.5 27.6,15.8 C27.5,15.7 27.5,15.5 27.5,15.4 C27.5,15.3 27.6,15.2 27.7,15.2 C27.8,15.1 28,15.2 28.1,15.3 C29.8,17 31.8,18.4 33.9,19.6 C35.1,20.3 36.4,21 37.8,21.5 C37.9,21.6 38,21.7 38,21.8 L38,21.8 C38,21.9 37.9,22 37.8,22.1 C37.7,22.1 37.7,22.1 37.6,22.1 Z" id="Path" fill="#FFFFFF"></path>
                <path d="M37.6,33.2 C36.6,33.2 35.7,32.9 35,32.3 C34.8,32.2 34.8,32 34.9,31.8 C36.6,29.4 37.5,26.6 37.5,23.7 C37.5,23.2 37.5,22.7 37.4,22.3 C37.4,22.2 37.4,22.1 37.4,21.9 C36.1,21.4 34.8,20.7 33.6,20 C31.6,18.8 29.7,17.4 27.9,15.8 C27.3,16.3 26.6,16.8 25.9,17.3 C25.9,17.3 25.9,17.3 25.9,17.3 C25.5,17.5 25.1,17.8 24.6,18 C23.7,18.5 22.7,19 21.7,19.4 C21.3,19.6 20.7,19.8 20.1,20 C19.8,20.1 19.5,20.2 19.3,20.3 C18.5,20.5 17.6,20.8 16.7,21 C15.9,21.2 15.1,21.3 14.2,21.4 C12.7,21.6 11.2,21.7 9.7,21.7 C9.7,21.8 9.7,21.9 9.7,22 C9.7,22 9.7,22 9.7,22 C9.6,22.6 9.6,23.2 9.6,23.7 L9.6,23.8 C9.6,24 9.6,24.2 9.6,24.4 C9.7,26.4 10.2,28.5 11.2,30.3 C11.2,30.4 11.2,30.4 11.2,30.5 C11.2,30.6 11.2,30.6 11.1,30.7 C9.7,32.7 6.9,33.3 4.9,31.9 C3.7,31.1 2.9,29.7 2.9,28.2 C2.9,27.7 3,27.2 3.2,26.7 C2.3,26.2 1.5,25.4 1.1,24.5 C0.6,23.4 0.6,22.2 1.1,21.1 C1.5,20.1 2.3,19.2 3.3,18.8 C2.8,17.9 2.6,16.9 2.8,15.8 C3,14.6 3.6,13.6 4.6,12.9 C5,12.6 5.4,12.4 5.8,12.3 C5.7,12 5.7,11.7 5.7,11.5 C5.7,9 7.7,7 10.2,7 C10.4,7 10.6,7 10.7,7 C11,4.8 12.9,3.1 15.1,3.1 L15.1,3.1 C15.9,3.1 16.7,3.3 17.4,3.8 C17.8,2.9 18.4,2.1 19.3,1.5 C20.3,0.9 21.5,0.7 22.7,1 C23.9,1.3 24.8,2 25.4,3 C26.2,2.3 27.2,1.9 28.3,1.9 C28.3,1.9 28.3,1.9 28.3,1.9 C30.2,1.9 32,3.2 32.5,5 C33.1,4.6 33.9,4.5 34.6,4.5 C34.6,4.5 34.6,4.5 34.6,4.5 C37.1,4.5 39.1,6.5 39.1,9 C39.1,9.2 39.1,9.4 39.1,9.6 C40.6,10.4 41.5,11.9 41.5,13.6 C41.5,13.7 41.5,13.8 41.5,14 C43.8,14.2 45.6,16.1 45.6,18.4 C45.6,19.6 45.1,20.7 44.3,21.6 C45.1,22.4 45.6,23.6 45.6,24.7 C45.6,26.8 44.2,28.6 42.1,29 C41.9,31.3 40,33.2 37.6,33.2 C37.6,33.2 37.6,33.2 37.6,33.2 Z M35.6,31.9 C36.2,32.3 36.9,32.5 37.6,32.5 C39.7,32.5 41.4,30.8 41.4,28.7 L41.4,28.6 C41.4,28.4 41.5,28.3 41.7,28.3 C43.5,28 44.9,26.5 44.9,24.6 C44.9,24.6 44.9,24.6 44.9,24.6 C44.9,23.5 44.4,22.4 43.6,21.7 C43.5,21.6 43.5,21.5 43.5,21.4 C43.5,21.3 43.5,21.2 43.6,21.1 C44.5,20.4 44.9,19.3 44.9,18.2 C44.9,16.1 43.2,14.4 41.1,14.4 C41.1,14.4 41.1,14.4 41.1,14.4 L41,14.4 C40.9,14.4 40.8,14.4 40.7,14.3 C40.6,14.2 40.6,14.1 40.6,14 C40.6,13.8 40.7,13.6 40.7,13.4 C40.7,11.9 39.8,10.6 38.5,10 C38.3,9.9 38.3,9.8 38.3,9.6 C38.4,9.3 38.4,9.1 38.4,8.8 C38.4,6.7 36.7,5 34.6,5 C33.8,5 33.1,5.2 32.5,5.7 C32.4,5.8 32.3,5.8 32.2,5.7 C32.1,5.7 32,5.6 32,5.4 C31.6,3.7 30.1,2.4 28.3,2.4 C28.3,2.4 28.3,2.4 28.3,2.4 C27.3,2.4 26.3,2.8 25.6,3.6 C25.5,3.7 25.4,3.7 25.3,3.7 C25.2,3.7 25.1,3.6 25,3.5 C24.5,2.5 23.6,1.7 22.5,1.4 C21.5,1.2 20.5,1.3 19.7,1.8 C18.8,2.3 18.2,3.1 18,4.1 C18,4.2 17.9,4.3 17.8,4.3 C17.7,4.3 17.6,4.3 17.5,4.2 C16.8,3.7 16,3.4 15.2,3.4 C15.2,3.4 15.2,3.4 15.2,3.4 C13.2,3.4 11.5,5 11.4,7 C11.4,7.1 11.3,7.2 11.3,7.3 C11.2,7.4 11.1,7.4 11,7.4 C10.7,7.3 10.5,7.3 10.2,7.3 C10.2,7.3 10.2,7.3 10.2,7.3 C8.1,7.3 6.4,9 6.4,11.1 C6.4,11.4 6.4,11.8 6.5,12.1 C6.5,12.2 6.5,12.3 6.5,12.4 C6.5,12.5 6.4,12.5 6.3,12.6 C5.8,12.7 5.4,12.9 5,13.2 C4.2,13.8 3.7,14.7 3.5,15.6 C3.3,16.6 3.6,17.6 4.2,18.4 C4.3,18.5 4.3,18.6 4.3,18.7 C4.3,18.8 4.2,18.9 4.1,18.9 C3.1,19.3 2.3,20 1.9,21 C1.5,21.9 1.5,22.9 1.9,23.9 C2.3,24.8 3,25.5 3.9,25.9 C4,25.9 4.1,26 4.1,26.1 C4.1,26.2 4.1,26.3 4.1,26.4 C3.9,26.9 3.8,27.4 3.8,27.9 C3.8,29.1 4.4,30.3 5.4,31 C7.1,32.1 9.3,31.7 10.5,30.2 C9.6,28.4 9,26.3 8.9,24.2 C8.9,24 8.9,23.8 8.9,23.6 L8.9,23.5 C8.9,22.9 8.9,22.3 9,21.7 C9,21.7 9,21.7 9,21.7 C9,21.5 9.1,21.3 9.1,21.1 C9.1,20.9 9.3,20.8 9.5,20.8 C11.1,20.8 12.6,20.8 14.2,20.6 C15,20.5 15.8,20.3 16.6,20.2 C17.5,20 18.4,19.8 19.2,19.5 C19.5,19.4 19.8,19.3 20,19.2 C20.6,19 21.1,18.8 21.6,18.6 C22.6,18.2 23.5,17.8 24.4,17.3 C24.8,17.1 25.3,16.8 25.7,16.6 C25.7,16.6 25.7,16.6 25.7,16.6 C26.4,16.1 27.1,15.6 27.8,15 C27.9,14.9 28,14.9 28.1,14.9 C28.1,14.9 28.1,14.9 28.1,14.9 C28.2,14.9 28.3,14.9 28.3,15 C30,16.7 32,18.1 34.1,19.3 C35.3,20 36.6,20.7 38,21.2 C38,21.2 38,21.2 38,21.2 C38,21.2 38.1,21.2 38.1,21.3 C38.2,21.4 38.2,21.4 38.2,21.5 C38.2,21.7 38.3,21.9 38.3,22.1 C38.4,22.6 38.4,23.1 38.4,23.6 C38.1,26.7 37.3,29.5 35.6,31.9 Z" id="Shape" fill="#FFFFFF"></path>
            </g>
            <g id="Group" transform="translate(108.000000, 143.000000)">
                <path d="M26.1,45.1 L0.6,45.1 C0.4,45.1 0.2,44.9 0.2,44.7 L0.2,38.1 C0.2,37 0.4,35.9 0.8,34.9 C2.1,31.7 5.2,29.7 8.6,29.7 C8.6,29.7 8.6,29.7 8.6,29.7 L14.8,29.7 C15,29.7 15.1,29.8 15.1,30 C15.3,32.1 17.1,33.6 19.1,33.6 C21.2,33.6 22.9,32 23.1,30 C23.1,29.8 23.3,29.7 23.4,29.7 L29.6,29.7 C29.6,29.7 29.6,29.7 29.6,29.7 C30.3,29.7 30.9,29.8 31.5,29.9 L31.3,30.6 C30.7,30.5 30.1,30.4 29.5,30.4 C29.5,30.4 29.5,30.4 29.5,30.4 L24,30.4 C23.6,32.6 21.6,34.3 19.3,34.3 C17,34.3 15,32.6 14.6,30.4 L8.7,30.4 C8.7,30.4 8.7,30.4 8.7,30.4 C5.5,30.4 2.7,32.3 1.6,35.2 C1.2,36.1 1,37.1 1,38.1 L1,44.4 L26.1,44.4 L26.1,45.1 Z" id="Path" fill="#FFFFFF"></path>
                <path d="M19.3,34.4 C19.1,34.4 18.9,34.4 18.8,34.4 C17.9,34.3 17,33.9 16.2,33.3 C15.3,32.5 14.7,31.4 14.6,30.2 C14.6,30 14.6,29.8 14.6,29.7 L14.6,27 C14.6,26.9 14.7,26.8 14.7,26.7 C14.8,26.6 14.9,26.6 15,26.7 C17.8,27.7 20.8,27.7 23.6,26.7 C23.7,26.7 23.8,26.7 23.9,26.7 C24,26.8 24,26.9 24,27 L24,29.7 C24,29.9 24,30.1 24,30.2 C23.7,32.6 21.7,34.4 19.3,34.4 Z M15.2,27.4 L15.2,29.6 C15.2,29.8 15.2,29.9 15.2,30 C15.3,31 15.8,32 16.6,32.6 C17.2,33.1 18,33.5 18.8,33.5 C21,33.7 23,32.1 23.3,29.9 C23.3,29.8 23.3,29.6 23.3,29.5 L23.3,27.3 C20.7,28.2 17.9,28.2 15.2,27.4 Z" id="Shape" fill="#FFFFFF"></path>
                <path d="M19.3,28 C17.8,28 16.2,27.7 14.8,27.2 C14.6,27.1 14.5,27.1 14.3,27 C11.3,25.8 8.9,23.6 7.4,20.8 C6.4,18.8 5.8,16.6 5.8,14.4 C5.8,13.9 5.8,13.5 5.9,13 C5.9,12.9 5.9,12.8 6,12.8 L12.7,6.1 C12.8,6 13,6 13.2,6.1 C16.9,8.8 21.9,8.8 25.6,6.1 C25.7,6 25.9,6 26.1,6.1 L32.8,12.8 C32.9,12.9 32.9,12.9 32.9,13 C32.9,13.5 33,13.9 33,14.4 C33,16.6 32.5,18.8 31.4,20.8 C29.9,23.6 27.4,25.8 24.5,27 C24.3,27.1 24.2,27.1 24,27.2 C22.3,27.7 20.8,28 19.3,28 Z M6.5,13.2 C6.5,13.6 6.4,14 6.4,14.4 C6.4,16.5 6.9,18.6 7.9,20.5 C9.3,23.2 11.7,25.3 14.5,26.4 C14.7,26.5 14.8,26.5 15,26.6 C17.8,27.6 20.8,27.6 23.6,26.6 C23.8,26.5 23.9,26.5 24.1,26.4 C26.9,25.3 29.3,23.2 30.7,20.5 C31.7,18.6 32.2,16.6 32.2,14.4 C32.2,14.4 32.2,14.4 32.2,14.4 C32.2,14 32.2,13.6 32.1,13.2 L25.7,6.8 C21.8,9.5 16.8,9.5 12.9,6.8 L6.5,13.2 Z" id="Shape" fill="#FFFFFF"></path>
                <path d="M32.9,14 L25.7,6.8 C21.8,9.5 16.8,9.5 12.9,6.8 L5.7,14 L5.8,13 C5.8,12.8 5.8,12.7 5.9,12.5 L5.9,12.5 L5.9,12.1 C6.1,10.7 6.6,9.3 7.3,8 L7.3,8 L7.3,7.9 C8.1,6.4 9.2,5.1 10.5,4 C12.9,1.9 16,0.8 19.2,0.8 C19.3,0.8 19.3,0.8 19.4,0.8 C21.7,0.8 24,1.5 26,2.6 C26.7,3 27.3,3.5 27.9,4 C28.3,4.3 28.6,4.7 29,5 C30.3,6.4 31.3,7.9 31.9,9.7 L31.9,9.8 C32.2,10.6 32.4,11.3 32.5,12.1 L32.5,12.1 L32.5,12.4 C32.5,12.6 32.5,12.7 32.6,12.9 L32.9,14 Z M6.6,11.9 L6.6,12.1 L12.8,5.9 L13,6.1 C16.7,8.8 21.7,8.8 25.4,6.1 L25.6,5.9 L31.8,12.1 C31.7,11.4 31.5,10.7 31.3,10.1 L31.3,10 C30.7,8.4 29.8,6.9 28.6,5.6 C28.3,5.3 27.9,4.9 27.6,4.6 C27,4.1 26.4,3.7 25.8,3.3 C23.9,2.2 21.7,1.6 19.5,1.6 L19.4,1.6 C19.4,1.6 19.3,1.6 19.3,1.6 C16.3,1.6 13.3,2.7 11,4.6 C9.8,5.6 8.8,6.9 8,8.3 L8,8.3 L8,8.4 C7.3,9.5 6.9,10.7 6.6,11.9 Z" id="Shape" fill="#FFFFFF"></path>
                <path d="M19.3,28 C17.8,28 16.2,27.7 14.8,27.2 C14.5,27.1 14.1,27 13.8,26.8 C13.7,26.7 13.6,26.6 13.6,26.5 L13.6,22.5 C13.6,19.4 16.1,16.8 19.2,16.8 C19.2,16.8 19.2,16.8 19.2,16.8 C22.3,16.8 24.9,19.3 24.9,22.4 L24.9,26.4 C24.9,26.5 24.8,26.7 24.7,26.7 C24.4,26.8 24.1,27 23.7,27.1 C22.3,27.7 20.8,28 19.3,28 Z M14.3,26.3 C14.5,26.4 14.7,26.5 15,26.6 C17.8,27.6 20.8,27.6 23.6,26.6 C23.8,26.5 24.1,26.4 24.3,26.3 L24.3,22.6 C24.3,22.6 24.3,22.6 24.3,22.6 L24.3,22.5 C24.3,19.8 22,17.6 19.3,17.6 C19.3,17.6 19.3,17.6 19.3,17.6 C16.6,17.6 14.3,19.9 14.4,22.6 L14.4,26.3 L14.3,26.3 Z" id="Shape" fill="#FFFFFF"></path>
                <path d="M22,22.8 L16.6,22.8 C16.4,22.8 16.2,22.6 16.2,22.4 C16.2,22.2 16.4,22 16.6,22 L22,22 C22.2,22 22.4,22.2 22.4,22.4 C22.3,22.6 22.2,22.8 22,22.8 Z" id="Path" fill="#FFFFFF"></path>
                <path d="M43,52.7 C42.7,52.7 42.5,52.6 42.2,52.5 L26.9,46 C26.4,45.8 26,45.4 25.8,44.9 C25.6,44.4 25.6,43.8 25.8,43.3 L33.6,24.9 C34,23.8 35.3,23.4 36.3,23.8 L37.5,24.3 C37.6,24.3 37.7,24.4 37.7,24.6 C37.7,24.7 37.7,24.8 37.6,24.9 C37.4,25.1 37.2,25.4 37,25.7 L36.9,26 L49.6,31.4 L49.7,31.1 C49.8,30.8 49.9,30.5 49.9,30.1 C49.9,30 50,29.9 50.1,29.8 C50.2,29.7 50.3,29.7 50.4,29.8 L51.6,30.3 C52.7,30.7 53.1,32 52.7,33 C52.7,33 52.7,33 52.7,33 L44.9,51.4 C44.6,52.2 43.8,52.7 43,52.7 Z M35.5,24.4 C35,24.4 34.5,24.7 34.2,25.2 L26.4,43.6 C26.3,43.9 26.3,44.3 26.4,44.7 C26.5,45 26.8,45.3 27.1,45.4 L42.4,51.9 C43.1,52.2 43.9,51.9 44.2,51.2 L52,32.8 C52.3,32.1 52,31.3 51.3,31 L50.6,30.7 C50.6,31 50.5,31.2 50.4,31.4 L50.1,32.1 C50,32.3 49.8,32.4 49.6,32.3 L36.3,26.7 C36.2,26.7 36.1,26.6 36.1,26.5 C36.1,26.4 36.1,26.3 36.1,26.2 L36.4,25.6 C36.5,25.4 36.6,25.1 36.8,24.9 L36.1,24.6 C35.9,24.4 35.7,24.4 35.5,24.4 Z" id="Shape" fill="#6FCFEE"></path>
                <path d="M47.1,36.3 C47.1,36.3 47,36.3 47,36.3 L35.3,31.4 C35.1,31.3 35,31.1 35.1,30.9 C35.2,30.7 35.4,30.6 35.6,30.7 L47.3,35.6 C47.5,35.7 47.6,35.9 47.5,36.1 C47.4,36.2 47.2,36.3 47.1,36.3 Z" id="Path" fill="#6FCFEE"></path>
                <path d="M45.6,39.8 C45.6,39.8 45.5,39.8 45.5,39.8 L33.8,34.9 C33.6,34.8 33.5,34.6 33.6,34.4 C33.7,34.2 33.9,34.1 34.1,34.2 L45.8,39.1 C46,39.2 46.1,39.4 46,39.6 C45.9,39.7 45.8,39.8 45.6,39.8 Z" id="Path" fill="#6FCFEE"></path>
                <path d="M44.2,43.2 C44.2,43.2 44.1,43.2 44.1,43.2 L32.4,38.3 C32.2,38.2 32.1,38 32.2,37.8 C32.3,37.6 32.5,37.5 32.7,37.6 L44.4,42.5 C44.6,42.6 44.7,42.8 44.6,43 C44.4,43.2 44.3,43.2 44.2,43.2 Z" id="Path" fill="#6FCFEE"></path>
                <path d="M40.2,45.7 C40.2,45.7 40.1,45.7 40.1,45.7 L30.9,41.8 C30.7,41.7 30.6,41.5 30.7,41.3 C30.8,41.1 31,41 31.2,41.1 L40.4,45 C40.6,45.1 40.7,45.3 40.6,45.5 C40.5,45.6 40.4,45.7 40.2,45.7 Z" id="Path" fill="#6FCFEE"></path>
                <path d="M49.8,32.2 C49.8,32.2 49.7,32.2 49.7,32.2 L36.4,26.6 C36.3,26.6 36.2,26.5 36.2,26.4 C36.2,26.3 36.2,26.2 36.2,26.1 L36.5,25.5 C36.7,25.1 36.9,24.8 37.2,24.4 C38.2,23.4 39.7,23.1 41,23.6 L41.2,23.7 C42.1,21.9 44.3,21.1 46.2,21.9 C47.2,22.3 47.9,23.1 48.3,24 C48.7,24.9 48.7,25.8 48.4,26.7 L48.6,26.8 C49.9,27.4 50.8,28.7 50.7,30.1 C50.7,30.5 50.6,30.9 50.4,31.3 L50.1,31.9 C50.1,32 50,32.1 49.9,32.1 C49.9,32.2 49.8,32.2 49.8,32.2 Z M36.9,26.1 L49.6,31.5 L49.7,31.2 C49.8,30.9 49.9,30.6 49.9,30.2 C49.9,30.2 49.9,30.2 49.9,30.2 C49.9,29.1 49.3,28 48.2,27.6 L47.7,27.4 C47.6,27.4 47.5,27.3 47.5,27.2 C47.5,27.1 47.5,27 47.5,26.9 C48.2,25.3 47.4,23.4 45.8,22.7 C45,22.4 44.1,22.4 43.3,22.7 C42.5,23 41.9,23.6 41.5,24.4 C41.4,24.6 41.2,24.7 41,24.6 L40.5,24.4 C39.5,24 38.2,24.2 37.4,25 C37.2,25.2 37,25.5 36.8,25.8 L36.9,26.1 Z M44.6,27.6 C44.3,27.6 44.1,27.5 43.8,27.4 C43.8,27.4 43.8,27.4 43.8,27.4 C43.3,27.2 42.9,26.8 42.7,26.3 C42.5,25.8 42.5,25.2 42.7,24.7 C43.2,23.6 44.4,23.1 45.5,23.6 C46.6,24.1 47.1,25.3 46.6,26.4 C46.2,27.2 45.4,27.6 44.6,27.6 Z M44.6,24.1 C44.1,24.1 43.5,24.4 43.3,24.9 C43.2,25.2 43.2,25.6 43.3,26 C43.4,26.3 43.7,26.6 44,26.8 C44,26.8 44,26.8 44,26.8 L44,26.8 C44.7,27.1 45.5,26.8 45.8,26.1 C46.1,25.4 45.8,24.6 45.1,24.3 C45,24.2 44.8,24.1 44.6,24.1 Z" id="Shape" fill="#6FCFEE"></path>
                <path d="M44.6,27.6 C44.3,27.6 44.1,27.5 43.8,27.4 C43.3,27.2 42.9,26.8 42.7,26.3 C42.5,25.8 42.5,25.2 42.7,24.7 C43.2,23.6 44.4,23.1 45.5,23.6 C46,23.8 46.4,24.2 46.6,24.7 C46.8,25.2 46.8,25.8 46.6,26.3 C46.6,26.3 46.6,26.3 46.6,26.3 C46.2,27.2 45.4,27.6 44.6,27.6 Z M44.6,24.1 C44.1,24.1 43.5,24.4 43.3,25 C43.2,25.3 43.2,25.7 43.3,26.1 C43.4,26.4 43.7,26.7 44.1,26.9 C44.8,27.2 45.6,26.9 45.9,26.2 C45.9,26.2 45.9,26.2 45.9,26.2 C46,25.9 46,25.5 45.9,25.2 C45.8,24.9 45.5,24.6 45.1,24.4 C45,24.2 44.8,24.1 44.6,24.1 Z" id="Shape" fill="#6FCFEE"></path>
            </g>
            <path d="M377.2,261.4 L375.8,260.4 L377.8,257.5 L379.2,258.5 L377.2,261.4 Z M381.2,255.7 L379.8,254.7 L381.8,251.8 L383.2,252.8 L381.2,255.7 Z M385.3,249.9 L383.9,248.9 L385.9,246 L387.3,247 L385.3,249.9 Z M389.3,244.1 L387.9,243.1 L389.9,240.2 L391.3,241.2 L389.3,244.1 Z M393.3,238.4 L391.9,237.4 L393.9,234.5 L395.3,235.5 L393.3,238.4 Z M397.4,232.6 L396,231.6 L398,228.7 L399.4,229.7 L397.4,232.6 Z M401.4,226.9 L400,225.9 L402,223 L403.4,224 L401.4,226.9 Z M405.4,221.1 L404,220.1 L406,217.2 L407.4,218.2 L405.4,221.1 Z M409.5,215.3 L408.1,214.3 L410.1,211.4 L411.5,212.4 L409.5,215.3 Z M413.5,209.6 L412.1,208.6 L414.1,205.7 L415.5,206.7 L413.5,209.6 Z M417.5,203.8 L416.1,202.8 L418.1,199.9 L419.5,200.9 L417.5,203.8 Z M421.6,198.1 L420.2,197.1 L422.2,194.2 L423.6,195.2 L421.6,198.1 Z M425.6,192.3 L424.2,191.3 L426.2,188.4 L427.6,189.4 L425.6,192.3 Z M429.6,186.5 L428.2,185.5 L430.2,182.6 L431.6,183.6 L429.6,186.5 Z M433.6,180.8 L432.2,179.8 L434.2,176.9 L435.6,177.9 L433.6,180.8 Z M437.7,175 L436.3,174 L438.3,171.1 L439.7,172.1 L437.7,175 Z M441.7,169.3 L440.3,168.3 L442.3,165.4 L443.7,166.4 L441.7,169.3 Z M445.7,163.5 L444.3,162.5 L446.3,159.6 L447.7,160.6 L445.7,163.5 Z M449.8,157.7 L448.4,156.7 L450.4,153.8 L451.8,154.8 L449.8,157.7 Z M453.8,152 L452.4,151 L454.4,148.1 L455.8,149.1 L453.8,152 Z M457.8,146.2 L456.4,145.2 L458.4,142.3 L459.8,143.3 L457.8,146.2 Z M461.9,140.5 L460.5,139.5 L462.5,136.6 L463.9,137.6 L461.9,140.5 Z M465.9,134.7 L464.5,133.7 L466.5,130.8 L467.9,131.8 L465.9,134.7 Z M469.9,128.9 L468.5,127.9 L470.5,125 L471.9,126 L469.9,128.9 Z M473.9,123.2 L472.5,122.2 L474.5,119.3 L475.9,120.3 L473.9,123.2 Z M478,117.4 L476.6,116.4 L478.6,113.5 L480,114.5 L478,117.4 Z M482,111.6 L480.6,110.6 L482.6,107.7 L484,108.7 L482,111.6 Z M486,105.9 L484.6,104.9 L486.6,102.1 L488,103.1 L486,105.9 Z" id="Shape" fill="#6FCFEE"></path>
            <path d="M267.8,272.9 L264.9,270.9 L265.9,269.5 L268.8,271.5 L267.8,272.9 Z M262,268.9 L259.1,266.9 L260.1,265.5 L263,267.5 L262,268.9 Z M256.3,264.8 L253.4,262.8 L254.4,261.4 L257.3,263.4 L256.3,264.8 Z M250.5,260.7 L247.6,258.7 L248.6,257.3 L251.5,259.3 L250.5,260.7 Z M244.8,256.7 L241.9,254.7 L242.9,253.3 L245.8,255.3 L244.8,256.7 Z M239.1,252.6 L236.2,250.6 L237.2,249.2 L240.1,251.2 L239.1,252.6 Z M233.3,248.6 L230.4,246.6 L231.4,245.2 L234.3,247.2 L233.3,248.6 Z M227.6,244.5 L224.7,242.5 L225.7,241.1 L228.6,243.1 L227.6,244.5 Z M221.8,240.5 L218.9,238.5 L219.9,237.1 L222.8,239.1 L221.8,240.5 Z M216.1,236.4 L213.2,234.4 L214.2,233 L217.1,235 L216.1,236.4 Z M210.4,232.3 L207.5,230.3 L208.5,228.9 L211.4,230.9 L210.4,232.3 Z M204.6,228.3 L201.7,226.3 L202.7,224.9 L205.6,226.9 L204.6,228.3 Z M198.9,224.2 L196,222.2 L197,220.8 L199.9,222.8 L198.9,224.2 Z M193.1,220.2 L190.2,218.2 L191.2,216.8 L194.1,218.8 L193.1,220.2 Z M187.4,216.1 L184.5,214.1 L185.5,212.7 L188.4,214.7 L187.4,216.1 Z M181.6,212.1 L178.7,210.1 L179.7,208.7 L182.6,210.7 L181.6,212.1 Z M175.9,208 L173,206 L174,204.6 L176.9,206.6 L175.9,208 Z M170.2,203.9 L167.3,201.9 L168.3,200.5 L171.2,202.5 L170.2,203.9 Z" id="Shape" fill="#6FCFEE"></path>
            <path d="M370.7,521.1 L370.1,517.6 L371.8,517.3 L372.4,520.8 L370.7,521.1 Z M369.5,514.1 L368.9,510.6 L370.6,510.3 L371.2,513.8 L369.5,514.1 Z M368.3,507.2 L367.7,503.7 L369.4,503.4 L370,506.9 L368.3,507.2 Z M367.1,500.3 L366.5,496.8 L368.2,496.5 L368.8,500 L367.1,500.3 Z M366,493.3 L365.4,489.8 L367.1,489.5 L367.7,493 L366,493.3 Z M364.8,486.4 L364.2,482.9 L365.9,482.6 L366.5,486.1 L364.8,486.4 Z M363.6,479.5 L363,476 L364.7,475.7 L365.3,479.2 L363.6,479.5 Z M362.4,472.5 L361.8,469 L363.5,468.7 L364.1,472.2 L362.4,472.5 Z M361.2,465.6 L360.6,462.1 L362.3,461.8 L362.9,465.3 L361.2,465.6 Z M360.1,458.7 L359.5,455.2 L361.2,454.9 L361.8,458.4 L360.1,458.7 Z M358.9,451.7 L358.3,448.2 L360,447.9 L360.6,451.4 L358.9,451.7 Z M357.7,444.8 L357.1,441.3 L358.8,441 L359.4,444.5 L357.7,444.8 Z M356.5,437.9 L355.9,434.4 L357.6,434.1 L358.2,437.6 L356.5,437.9 Z M355.4,431 L354.8,427.5 L356.5,427.2 L357.1,430.7 L355.4,431 Z M354.2,424 L353.6,420.5 L355.3,420.2 L355.9,423.7 L354.2,424 Z M353,417.1 L352.4,413.6 L354.1,413.3 L354.7,416.8 L353,417.1 Z M351.8,410.2 L351.2,406.7 L352.9,406.4 L353.5,409.9 L351.8,410.2 Z M350.6,403.2 L350.2,400.6 L351.9,400.3 L352.3,402.9 L350.6,403.2 Z" id="Shape" fill="#6FCFEE"></path>
            <path d="M448.3,325.1 L444.8,325.1 L444.8,323.3 L448.3,323.3 L448.3,325.1 Z M441.3,325.1 L437.8,325.1 L437.8,323.3 L441.3,323.3 L441.3,325.1 Z M434.2,325.1 L430.7,325.1 L430.7,323.3 L434.2,323.3 L434.2,325.1 Z M427.2,325.1 L423.7,325.1 L423.7,323.3 L427.2,323.3 L427.2,325.1 Z M420.2,325.1 L416.7,325.1 L416.7,323.3 L420.2,323.3 L420.2,325.1 Z M413.1,325.1 L409.6,325.1 L409.6,323.3 L413.1,323.3 L413.1,325.1 Z" id="Shape" fill="#6FCFEE"></path>
            <path d="M548.8,487 L546,484.9 L547.1,483.5 L549.9,485.6 L548.8,487 Z M543.2,482.8 L540.4,480.7 L541.5,479.3 L544.3,481.4 L543.2,482.8 Z M537.6,478.5 L534.8,476.4 L535.9,475 L538.7,477.1 L537.6,478.5 Z M532,474.3 L529.2,472.2 L530.3,470.8 L533.1,472.9 L532,474.3 Z M526.4,470 L523.6,467.9 L524.7,466.5 L527.5,468.6 L526.4,470 Z M520.8,465.8 L518,463.7 L519.1,462.3 L521.9,464.4 L520.8,465.8 Z M515.2,461.6 L512.4,459.5 L513.5,458.1 L516.3,460.2 L515.2,461.6 Z M509.6,457.3 L506.8,455.2 L507.9,453.8 L510.7,455.9 L509.6,457.3 Z M504,453.1 L501.2,451 L502.3,449.6 L505.1,451.7 L504,453.1 Z M498.4,448.8 L495.6,446.7 L496.7,445.3 L499.5,447.4 L498.4,448.8 Z M492.8,444.6 L490,442.5 L491.1,441.1 L493.9,443.2 L492.8,444.6 Z M487.2,440.3 L484.4,438.2 L485.5,436.8 L488.3,438.9 L487.2,440.3 Z M481.6,436.1 L478.8,434 L479.9,432.6 L482.7,434.7 L481.6,436.1 Z M476,431.8 L473.2,429.7 L474.3,428.3 L477.1,430.4 L476,431.8 Z M470.4,427.6 L467.6,425.5 L468.7,424.1 L471.5,426.2 L470.4,427.6 Z M464.8,423.3 L462,421.2 L463.1,419.8 L465.9,421.9 L464.8,423.3 Z M459.2,419.1 L456.4,417 L457.5,415.6 L460.3,417.7 L459.2,419.1 Z M453.6,414.8 L450.8,412.7 L451.9,411.3 L454.7,413.4 L453.6,414.8 Z M448,410.6 L445.2,408.5 L446.3,407.1 L449.1,409.2 L448,410.6 Z M442.4,406.3 L439.6,404.2 L440.7,402.8 L443.5,404.9 L442.4,406.3 Z M436.8,402.1 L434,400 L435.1,398.6 L437.9,400.7 L436.8,402.1 Z M431.2,397.8 L428.4,395.7 L429.5,394.3 L432.3,396.4 L431.2,397.8 Z M425.6,393.6 L422.8,391.5 L423.9,390.1 L426.7,392.2 L425.6,393.6 Z M420,389.4 L417.2,387.3 L418.3,385.9 L421.1,388 L420,389.4 Z M414.4,385.1 L411.6,383 L412.7,381.6 L415.5,383.7 L414.4,385.1 Z M408.8,380.9 L406,378.8 L407.1,377.4 L409.9,379.5 L408.8,380.9 Z M403.2,376.6 L400.4,374.5 L401.5,373.1 L404.3,375.2 L403.2,376.6 Z M397.6,372.4 L394.8,370.3 L395.9,368.9 L398.7,371 L397.6,372.4 Z" id="Shape" fill="#6FCFEE"></path>
            <path d="M111,488.6 L110,487.2 L112.8,485.1 L113.8,486.5 L111,488.6 Z M116.6,484.5 L115.6,483.1 L118.4,481 L119.4,482.4 L116.6,484.5 Z M122.3,480.3 L121.3,478.9 L124.1,476.8 L125.1,478.2 L122.3,480.3 Z M127.9,476.1 L126.9,474.7 L129.7,472.6 L130.7,474 L127.9,476.1 Z M133.6,471.9 L132.6,470.5 L135.4,468.4 L136.4,469.8 L133.6,471.9 Z M139.2,467.7 L138.2,466.3 L141,464.2 L142,465.6 L139.2,467.7 Z M144.9,463.6 L143.9,462.2 L146.7,460.1 L147.7,461.5 L144.9,463.6 Z M150.6,459.4 L149.6,458 L152.4,455.9 L153.4,457.3 L150.6,459.4 Z M156.2,455.2 L155.2,453.8 L158,451.7 L159,453.1 L156.2,455.2 Z M161.9,451 L160.9,449.6 L163.7,447.5 L164.7,448.9 L161.9,451 Z M167.5,446.9 L166.5,445.5 L169.3,443.4 L170.3,444.8 L167.5,446.9 Z M173.2,442.7 L172.2,441.3 L175,439.2 L176,440.6 L173.2,442.7 Z M178.8,438.5 L177.8,437.1 L180.6,435 L181.6,436.4 L178.8,438.5 Z M184.5,434.3 L183.5,432.9 L186.3,430.8 L187.3,432.2 L184.5,434.3 Z M190.2,430.2 L189.2,428.8 L192,426.7 L193,428.1 L190.2,430.2 Z M195.8,426 L194.8,424.6 L197.6,422.5 L198.6,423.9 L195.8,426 Z M201.5,421.8 L200.5,420.4 L203.3,418.3 L204.3,419.7 L201.5,421.8 Z M207.1,417.6 L206.1,416.2 L208.9,414.1 L209.9,415.5 L207.1,417.6 Z M212.8,413.5 L211.8,412.1 L214.6,410 L215.6,411.4 L212.8,413.5 Z M218.4,409.3 L217.4,407.9 L220.2,405.8 L221.2,407.2 L218.4,409.3 Z M224.1,405.1 L223.1,403.7 L225.9,401.6 L226.9,403 L224.1,405.1 Z M229.7,400.9 L228.7,399.5 L231.5,397.4 L232.5,398.8 L229.7,400.9 Z M235.4,396.7 L234.4,395.3 L237.2,393.2 L238.2,394.6 L235.4,396.7 Z M241.1,392.6 L240.1,391.2 L242.9,389.1 L243.9,390.5 L241.1,392.6 Z M246.7,388.4 L245.7,387 L248.5,384.9 L249.5,386.3 L246.7,388.4 Z M252.4,384.2 L251.4,382.8 L254.2,380.7 L255.2,382.1 L252.4,384.2 Z M258,380 L257,378.6 L259.8,376.5 L260.8,377.9 L258,380 Z M263.7,375.9 L262.7,374.5 L265.5,372.4 L266.5,373.8 L263.7,375.9 Z" id="Shape" fill="#6FCFEE"></path>
            <path d="M484.5,358.6 C464.8,358.6 448.8,342.6 448.8,322.9 C448.8,303.2 464.8,287.2 484.5,287.2 C504.2,287.2 520.2,303.2 520.2,322.9 C520.2,322.9 520.2,322.9 520.2,322.9 C520.1,342.6 504.2,358.5 484.5,358.6 Z M484.5,287.9 C465.2,287.9 449.5,303.6 449.5,322.9 C449.5,342.2 465.2,357.9 484.5,357.9 C503.8,357.9 519.5,342.2 519.5,322.9 C519.5,322.9 519.5,322.9 519.5,322.9 C519.4,303.6 503.8,287.9 484.5,287.9 Z" id="Shape" fill="#6FCFEE"></path>
            <path d="M375.2,613.1 C350.5,613.1 330.4,593 330.4,568.3 C330.4,543.6 350.5,523.5 375.2,523.5 C399.9,523.5 420,543.5 420,568.3 C420,593.1 400,613.1 375.2,613.1 Z M375.2,524.3 C350.9,524.3 331.1,544 331.1,568.4 C331.1,592.7 350.8,612.5 375.2,612.5 C399.5,612.5 419.3,592.8 419.3,568.4 C419.3,544 399.6,524.3 375.2,524.3 L375.2,524.3 Z" id="Shape" fill="#6FCFEE"></path>
            <path d="M592.7,562.2 C565.6,562.2 543.6,540.2 543.6,513.1 C543.6,486 565.6,464 592.7,464 C619.8,464 641.8,486 641.8,513.1 C641.8,540.2 619.8,562.2 592.7,562.2 Z M592.7,464.7 C566,464.7 544.3,486.4 544.3,513.1 C544.3,539.8 566,561.5 592.7,561.5 C619.4,561.5 641.1,539.8 641.1,513.1 C641.1,486.4 619.4,464.7 592.7,464.7 L592.7,464.7 Z" id="Shape" fill="#6FCFEE"></path>
            <path d="M63.2,561.3 C36.1,561.3 14.1,539.3 14.1,512.2 C14.1,485.1 36.1,463.1 63.2,463.1 C90.3,463.1 112.3,485.1 112.3,512.2 C112.3,539.3 90.3,561.3 63.2,561.3 Z M63.2,463.8 C36.5,463.8 14.8,485.5 14.8,512.2 C14.8,538.9 36.5,560.6 63.2,560.6 C89.9,560.6 111.6,538.9 111.6,512.2 C111.6,485.5 89.9,463.8 63.2,463.8 Z" id="Shape" fill="#6FCFEE"></path>
            <path d="M132,218.3 C109.1,218.3 90.6,199.8 90.6,176.9 C90.6,154 109.1,135.5 132,135.5 C154.9,135.5 173.4,154 173.4,176.9 C173.4,176.9 173.4,176.9 173.4,176.9 C173.4,199.8 154.9,218.3 132,218.3 Z M132,136.2 C109.5,136.2 91.3,154.4 91.3,176.9 C91.3,199.4 109.5,217.6 132,217.6 C154.5,217.6 172.7,199.4 172.7,176.9 C172.7,154.4 154.5,136.2 132,136.2 Z" id="Shape" fill="#6FCFEE"></path>
            <polygon id="Path" fill="#FFFFFF" points="482.3 354.2 478.6 349.4 478.6 354.2 476.6 354.2 476.6 343.9 478.6 343.9 478.6 348.4 482.1 343.9 484.4 343.9 480.6 348.9 484.6 354.2"></polygon>
            <path d="M484.3,349 C484.3,346 486.7,343.7 489.7,343.7 C492.7,343.7 495,346.1 495,349.1 C495,352.1 492.6,354.4 489.6,354.4 L489.6,354.4 C486.7,354.4 484.3,352.1 484.3,349.1 C484.3,349.1 484.3,349 484.3,349 Z M492.9,349 C492.9,347.2 491.4,345.7 489.5,345.7 C487.7,345.7 486.2,347.2 486.2,349.1 C486.2,350.9 487.7,352.4 489.5,352.4 C491.3,352.4 492.8,351 492.8,349.2 C492.9,349.1 492.9,349.1 492.9,349 Z" id="Shape" fill="#FFFFFF"></path>
            <polygon id="Path" fill="#FFFFFF" points="502.3 352.2 502.3 354.1 496.3 354.1 496.3 343.8 498.3 343.8 498.3 352.2 502.3 352.2"></polygon>
            <path d="M508.9,352 C508.9,353.6 507.5,354.4 505.9,354.4 C504.4,354.4 503.3,353.8 502.8,352.6 L504.4,351.7 C504.6,352.3 505.2,352.7 505.8,352.7 C506.4,352.7 506.8,352.5 506.8,352.1 C506.8,351 503,351.6 503,349 C503,347.5 504.3,346.7 505.8,346.7 C506.9,346.7 508,347.3 508.6,348.3 L507,349.2 C506.8,348.7 506.3,348.4 505.8,348.4 C505.3,348.4 504.9,348.6 504.9,349 C505.1,350 508.9,349.3 508.9,352 Z" id="Path" fill="#FFFFFF"></path>
            <polygon id="Path" fill="#FFFFFF" points="515.8 89.8 515.8 100.1 513.8 100.1 513.8 95.8 510 95.8 510 100.1 508 100.1 508 89.8 510 89.8 510 93.9 513.8 93.9 513.8 89.8"></polygon>
            <path d="M517.2,94.9 C517.1,92 519.4,89.6 522.3,89.5 C522.4,89.5 522.5,89.5 522.6,89.5 C524.4,89.5 526.1,90.4 527,91.9 L525.2,92.9 C524.6,92 523.6,91.4 522.5,91.4 C520.5,91.4 519.2,92.8 519.2,94.8 C519.2,96.8 520.5,98.2 522.5,98.2 C523.6,98.2 524.6,97.7 525.2,96.7 L527,97.7 C526.1,99.2 524.4,100.2 522.6,100.1 C519.7,100.2 517.3,97.9 517.2,95 C517.2,95.1 517.2,95 517.2,94.9 Z" id="Path" fill="#FFFFFF"></path>
            <path d="M535.6,93.2 C535.6,95.1 534.1,96.7 532.2,96.7 C532.2,96.7 532.1,96.7 532.1,96.7 L530.3,96.7 L530.3,100.1 L528.3,100.1 L528.3,89.8 L532.1,89.8 C534,89.7 535.6,91.3 535.6,93.2 C535.6,93.2 535.6,93.2 535.6,93.2 Z M533.6,93.2 C533.6,92.4 533,91.7 532.2,91.6 C532.2,91.6 532.1,91.6 532.1,91.6 L530.3,91.6 L530.3,94.7 L532.1,94.7 C532.9,94.8 533.6,94.1 533.6,93.2 C533.6,93.3 533.6,93.3 533.6,93.2 L533.6,93.2 Z" id="Shape" fill="#FFFFFF"></path>
            <path d="M542,97.9 C542,99.5 540.6,100.3 539,100.3 C537.5,100.3 536.4,99.7 535.9,98.5 L537.5,97.6 C537.7,98.2 538.3,98.6 538.9,98.6 C539.5,98.6 539.9,98.4 539.9,98 C539.9,96.9 536.1,97.5 536.1,94.9 C536.1,93.4 537.4,92.6 538.9,92.6 C540,92.6 541.1,93.2 541.7,94.2 L540.1,95.1 C539.9,94.6 539.4,94.3 538.9,94.3 C538.4,94.3 538,94.5 538,94.9 C538.2,95.9 542,95.2 542,97.9 Z" id="Path" fill="#FFFFFF"></path>
            <path d="M56,203.4 C55.9,200.5 58.2,198.1 61.1,198 C61.2,198 61.3,198 61.4,198 C63.2,198 64.9,198.9 65.8,200.4 L64,201.4 C63.4,200.5 62.4,199.9 61.3,199.9 C59.3,199.9 58,201.3 58,203.3 C58,205.3 59.3,206.7 61.3,206.7 C62.4,206.7 63.4,206.2 64,205.2 L65.8,206.2 C64.9,207.7 63.2,208.7 61.4,208.6 C58.5,208.7 56.1,206.4 56,203.5 C56,203.6 56,203.5 56,203.4 Z" id="Path" fill="#FFFFFF"></path>
            <polygon id="Path" fill="#FFFFFF" points="67.1 197.8 69 197.8 69 208.5 67.1 208.5"></polygon>
            <path d="M70.5,199.2 C70.5,198.6 71,198 71.7,198 C72.3,198 72.9,198.5 72.9,199.2 C72.9,199.8 72.4,200.4 71.7,200.4 C71.7,200.4 71.7,200.4 71.7,200.4 C71,200.3 70.5,199.8 70.5,199.2 Z M70.7,201.2 L72.6,201.2 L72.6,208.6 L70.7,208.6 L70.7,201.2 Z" id="Shape" fill="#FFFFFF"></path>
            <path d="M81.2,204 L81.2,208.5 L79.3,208.5 L79.3,204.2 C79.3,203.2 78.7,202.7 77.8,202.7 C76.9,202.7 76.2,203.2 76.2,204.5 L76.2,208.5 L74.3,208.5 L74.3,201.1 L76.2,201.1 L76.2,201.9 C76.7,201.2 77.5,200.8 78.4,200.9 C80,201 81.2,202.1 81.2,204 Z" id="Path" fill="#FFFFFF"></path>
            <path d="M82.6,199.2 C82.6,198.6 83.1,198 83.8,198 C84.4,198 85,198.5 85,199.2 C85,199.8 84.5,200.4 83.8,200.4 C83.8,200.4 83.8,200.4 83.8,200.4 C83.1,200.3 82.6,199.8 82.6,199.2 Z M82.8,201.2 L84.7,201.2 L84.7,208.6 L82.8,208.6 L82.8,201.2 Z" id="Shape" fill="#FFFFFF"></path>
            <path d="M86.1,204.9 C86.1,202.8 87.7,201.1 89.8,201 C89.9,201 89.9,201 90,201 C91.4,201 92.6,201.7 93.3,202.9 L91.7,203.9 C91.4,203.3 90.7,202.9 90,202.9 C88.9,202.9 88,203.8 88,204.9 C88,206 88.9,206.8 90,206.9 C90.7,206.9 91.4,206.6 91.7,205.9 L93.3,206.8 C92.2,208.6 89.8,209.3 88,208.2 C86.8,207.5 86.1,206.3 86.1,204.9 L86.1,204.9 Z" id="Path" fill="#FFFFFF"></path>
            <path d="M101.7,201.2 L101.7,208.6 L99.8,208.6 L99.8,207.7 C99.2,208.4 98.3,208.8 97.4,208.8 C95.4,208.8 93.8,207.1 93.8,204.9 C93.8,202.7 95.4,201 97.4,201 C98.3,201 99.2,201.4 99.8,202.1 L99.8,201.2 L101.7,201.2 Z M99.8,204.9 C99.8,203.8 98.9,202.9 97.7,202.9 C96.6,202.9 95.7,203.8 95.7,205 C95.7,206.1 96.6,207 97.7,207 C98.8,207 99.7,206.2 99.7,205.1 C99.8,205 99.8,204.9 99.8,204.9 L99.8,204.9 Z" id="Shape" fill="#FFFFFF"></path>
            <polygon id="Path" fill="#FFFFFF" points="103.4 197.8 105.3 197.8 105.3 208.5 103.4 208.5"></polygon>
            <polygon id="Path" fill="#FFFFFF" points="117.6 200.2 114.8 200.2 114.8 208.6 112.8 208.6 112.8 200.2 110 200.2 110 198.3 117.6 198.3"></polygon>
            <path d="M121,207 C121.6,207 122.2,206.8 122.6,206.3 L124.1,207.2 C123.4,208.2 122.2,208.8 120.9,208.8 C118.4,208.8 116.9,207.1 116.9,204.9 C116.8,202.8 118.4,201.1 120.5,201 C120.6,201 120.7,201 120.8,201 C123,201 124.5,202.7 124.5,204.9 C124.5,205.2 124.5,205.4 124.4,205.7 L118.9,205.7 C119.2,206.6 120,207 121,207 Z M122.6,204.2 C122.5,203.3 121.7,202.7 120.8,202.7 C119.9,202.6 119,203.3 118.9,204.2 L122.6,204.2 Z" id="Shape" fill="#FFFFFF"></path>
            <path d="M131.1,206.4 C131.1,208 129.7,208.8 128.1,208.8 C126.6,208.8 125.5,208.2 125,207 L126.6,206.1 C126.8,206.7 127.4,207.1 128,207.1 C128.6,207.1 129,206.9 129,206.5 C129,205.4 125.2,206 125.2,203.4 C125.2,201.9 126.5,201.1 128,201.1 C129.1,201.1 130.2,201.7 130.8,202.7 L129.2,203.6 C129,203.1 128.5,202.8 128,202.8 C127.5,202.8 127.1,203 127.1,203.4 C127.3,204.4 131.1,203.7 131.1,206.4 Z" id="Path" fill="#FFFFFF"></path>
            <path d="M134.7,203 L134.7,206.1 C134.7,206.9 135.3,206.9 136.4,206.9 L136.4,208.6 C133.7,208.9 132.8,208.1 132.8,206.1 L132.8,203 L131.5,203 L131.5,201.2 L132.8,201.2 L132.8,199.7 L134.7,199.1 L134.7,201.2 L136.4,201.2 L136.4,203 L134.7,203 Z" id="Path" fill="#FFFFFF"></path>
            <polygon id="Path" fill="#FFFFFF" points="66.6 226.2 64.6 226.2 64.6 219.5 61.7 224.3 61.5 224.3 58.6 219.5 58.6 226.2 56.6 226.2 56.6 215.9 58.7 215.9 61.7 220.8 64.6 215.9 66.7 215.9 66.7 226.2"></polygon>
            <path d="M75.9,218.9 L75.9,226.3 L74,226.3 L74,225.4 C73.4,226.1 72.5,226.5 71.6,226.5 C69.6,226.5 68,224.8 68,222.6 C68,220.4 69.6,218.7 71.6,218.7 C72.5,218.7 73.4,219.1 74,219.8 L74,218.9 L75.9,218.9 Z M74,222.5 C74,221.4 73.1,220.5 71.9,220.5 C70.8,220.5 69.9,221.4 69.9,222.6 C69.9,223.7 70.8,224.6 71.9,224.6 C73,224.6 73.9,223.8 73.9,222.7 C74,222.6 74,222.6 74,222.5 L74,222.5 Z" id="Shape" fill="#FFFFFF"></path>
            <path d="M84.5,221.7 L84.5,226.2 L82.6,226.2 L82.6,221.9 C82.6,220.9 82,220.4 81.1,220.4 C80.2,220.4 79.5,220.9 79.5,222.2 L79.5,226.2 L77.6,226.2 L77.6,218.8 L79.5,218.8 L79.5,219.6 C80,218.9 80.8,218.5 81.7,218.6 C83.3,218.7 84.5,219.7 84.5,221.7 Z" id="Path" fill="#FFFFFF"></path>
            <path d="M93.6,218.9 L93.6,226.3 L91.7,226.3 L91.7,225.4 C91.1,226.1 90.2,226.5 89.3,226.5 C87.3,226.5 85.7,224.8 85.7,222.6 C85.7,220.4 87.3,218.7 89.3,218.7 C90.2,218.7 91.1,219.1 91.7,219.8 L91.7,218.9 L93.6,218.9 Z M91.7,222.5 C91.7,221.4 90.8,220.5 89.6,220.5 C88.5,220.5 87.6,221.4 87.6,222.6 C87.6,223.7 88.5,224.6 89.6,224.6 C90.7,224.6 91.6,223.8 91.6,222.7 C91.7,222.6 91.7,222.6 91.7,222.5 L91.7,222.5 Z" id="Shape" fill="#FFFFFF"></path>
            <path d="M102.8,218.9 L102.8,225.9 C102.8,228.3 100.9,229.4 99,229.4 C97.4,229.4 96.2,228.8 95.5,227.6 L97.1,226.7 C97.4,227.3 97.9,227.7 99,227.7 C100.2,227.7 100.9,227.1 100.9,225.9 L100.9,225.1 C100.3,225.8 99.5,226.3 98.5,226.2 C96.4,226.1 94.8,224.4 94.8,222.3 C94.9,220.3 96.5,218.7 98.5,218.6 C99.4,218.6 100.3,219 100.9,219.7 L100.9,218.8 L102.8,218.9 Z M100.9,222.4 C100.9,221.3 100,220.3 98.9,220.3 C97.8,220.3 96.8,221.2 96.8,222.3 C96.8,223.4 97.7,224.4 98.8,224.4 C98.8,224.4 98.8,224.4 98.8,224.4 C99.9,224.5 100.8,223.6 100.9,222.5 C100.9,222.5 100.9,222.5 100.9,222.4 Z" id="Shape" fill="#FFFFFF"></path>
            <path d="M108.2,224.7 C108.8,224.7 109.4,224.5 109.8,224 L111.3,224.9 C110.6,225.9 109.4,226.5 108.1,226.5 C105.6,226.5 104.1,224.8 104.1,222.6 C104,220.5 105.7,218.8 107.7,218.7 C107.8,218.7 107.9,218.7 108,218.7 C110.2,218.7 111.7,220.4 111.7,222.6 C111.7,222.9 111.7,223.1 111.6,223.4 L106.1,223.4 C106.4,224.3 107.2,224.7 108.2,224.7 Z M109.8,221.8 C109.7,220.9 108.9,220.3 108,220.3 C107.1,220.2 106.2,220.9 106.1,221.8 L109.8,221.8 Z" id="Shape" fill="#FFFFFF"></path>
            <path d="M117.2,218.7 L117.2,220.8 C116.2,220.7 115,221.1 115,222.7 L115,226.2 L113.1,226.2 L113.1,218.8 L115,218.8 L115,220.1 C115.3,219.2 116.2,218.7 117.2,218.7 Z" id="Path" fill="#FFFFFF"></path>
            <path d="M123.6,224.1 C123.6,225.7 122.2,226.5 120.6,226.5 C119.1,226.5 118,225.9 117.5,224.7 L119.1,223.8 C119.3,224.4 119.9,224.8 120.5,224.8 C121.1,224.8 121.5,224.6 121.5,224.2 C121.5,223.1 117.7,223.7 117.7,221.1 C117.7,219.6 119,218.8 120.5,218.8 C121.6,218.8 122.7,219.4 123.3,220.4 L121.7,221.3 C121.5,220.8 121,220.5 120.5,220.6 C120,220.6 119.6,220.8 119.6,221.2 C119.8,222 123.6,221.4 123.6,224.1 Z" id="Path" fill="#FFFFFF"></path>
            <path d="M46.2,535.4 C46.2,537.3 44.7,538.9 42.8,538.9 C42.8,538.9 42.7,538.9 42.7,538.9 L40.9,538.9 L40.9,542.3 L38.9,542.3 L38.9,532 L42.7,532 C44.6,531.9 46.1,533.4 46.2,535.4 C46.2,535.3 46.2,535.3 46.2,535.4 Z M44.2,535.4 C44.2,534.6 43.6,533.9 42.8,533.8 C42.8,533.8 42.7,533.8 42.7,533.8 L40.9,533.8 L40.9,536.9 L42.7,536.9 C43.5,536.9 44.2,536.3 44.2,535.4 C44.2,535.4 44.2,535.4 44.2,535.4 Z" id="Shape" fill="#FFFFFF"></path>
            <path d="M51.4,534.7 L51.4,536.8 C50.4,536.7 49.2,537.1 49.2,538.7 L49.2,542.2 L47.3,542.2 L47.3,534.8 L49.2,534.8 L49.2,536.1 C49.5,535.2 50.4,534.6 51.4,534.7 Z" id="Path" fill="#FFFFFF"></path>
            <path d="M51.8,538.5 C51.8,536.4 53.5,534.6 55.7,534.6 C57.8,534.6 59.6,536.3 59.6,538.5 C59.6,540.7 57.9,542.4 55.7,542.4 C55.7,542.4 55.7,542.4 55.7,542.4 C53.6,542.4 51.9,540.7 51.8,538.5 C51.8,538.6 51.8,538.6 51.8,538.5 Z M57.7,538.5 C57.7,537.4 56.8,536.5 55.7,536.5 C54.6,536.5 53.7,537.4 53.7,538.5 C53.7,539.6 54.6,540.5 55.7,540.5 C56.8,540.5 57.7,539.7 57.7,538.6 C57.7,538.6 57.7,538.6 57.7,538.5 Z" id="Shape" fill="#FFFFFF"></path>
            <path d="M68.4,531.9 L68.4,542.2 L66.5,542.2 L66.5,541.3 C65.9,542 65,542.4 64.1,542.4 C62.1,542.4 60.5,540.7 60.5,538.5 C60.5,536.3 62.1,534.6 64.1,534.6 C65,534.6 65.9,535 66.5,535.7 L66.5,531.9 L68.4,531.9 Z M66.5,538.5 C66.5,537.4 65.6,536.5 64.4,536.5 C63.3,536.5 62.4,537.4 62.4,538.6 C62.4,539.7 63.3,540.6 64.4,540.6 C65.5,540.6 66.4,539.8 66.4,538.7 C66.5,538.6 66.5,538.6 66.5,538.5 L66.5,538.5 Z" id="Shape" fill="#FFFFFF"></path>
            <path d="M76.9,534.9 L76.9,542.3 L75,542.3 L75,541.5 C74.5,542.2 73.7,542.6 72.8,542.5 C71.2,542.5 70,541.4 70,539.5 L70,535 L71.9,535 L71.9,539.3 C71.9,540.3 72.5,540.8 73.4,540.8 C74.3,540.8 75,540.3 75,539 L75,535 L76.9,534.9 Z" id="Path" fill="#FFFFFF"></path>
            <path d="M78.3,538.5 C78.3,536.4 79.9,534.7 82,534.6 C82.1,534.6 82.1,534.6 82.2,534.6 C83.6,534.6 84.8,535.3 85.5,536.5 L83.9,537.5 C83.6,536.9 82.9,536.5 82.2,536.5 C81.1,536.5 80.2,537.4 80.2,538.5 C80.2,539.6 81.1,540.4 82.2,540.5 C82.9,540.5 83.6,540.2 83.9,539.5 L85.5,540.4 C84.4,542.2 82,542.9 80.2,541.8 C79,541.2 78.3,539.9 78.3,538.5 L78.3,538.5 Z" id="Path" fill="#FFFFFF"></path>
            <path d="M89,536.7 L89,539.8 C89,540.6 89.6,540.6 90.7,540.5 L90.7,542.2 C88,542.5 87.1,541.7 87.1,539.7 L87.1,536.6 L85.8,536.6 L85.8,534.8 L87.1,534.8 L87.1,533.3 L89,532.7 L89,534.8 L90.7,534.8 L90.7,536.6 L89,536.7 Z" id="Path" fill="#FFFFFF"></path>
            <polygon id="Path" fill="#FFFFFF" points="40.9 545.6 40.9 555.9 38.9 555.9 38.9 545.6"></polygon>
            <path d="M49.6,551.4 L49.6,555.9 L47.7,555.9 L47.7,551.6 C47.7,550.6 47.1,550.1 46.2,550.1 C45.3,550.1 44.6,550.6 44.6,551.9 L44.6,555.9 L42.7,555.9 L42.7,548.5 L44.6,548.5 L44.6,549.3 C45.1,548.6 45.9,548.2 46.8,548.3 C48.3,548.4 49.6,549.4 49.6,551.4 Z" id="Path" fill="#FFFFFF"></path>
            <polygon id="Path" fill="#FFFFFF" points="58 548.6 55.2 556 53 556 50.2 548.6 52.3 548.6 54.1 553.7 55.9 548.6"></polygon>
            <path d="M62.3,554.4 C62.9,554.4 63.5,554.2 63.9,553.7 L65.4,554.6 C64.7,555.6 63.5,556.2 62.2,556.2 C59.7,556.2 58.2,554.5 58.2,552.3 C58.1,550.2 59.7,548.5 61.8,548.4 C61.9,548.4 62,548.4 62.1,548.4 C64.3,548.4 65.8,550.1 65.8,552.3 C65.8,552.6 65.8,552.8 65.7,553.1 L60.2,553.1 C60.5,554 61.3,554.4 62.3,554.4 Z M63.9,551.5 C63.8,550.6 63,550 62.1,550 C61.2,549.9 60.3,550.6 60.2,551.5 L63.9,551.5 Z" id="Shape" fill="#FFFFFF"></path>
            <path d="M72.4,553.8 C72.4,555.4 71,556.2 69.4,556.2 C67.9,556.2 66.8,555.6 66.3,554.4 L67.9,553.5 C68.1,554.1 68.7,554.5 69.3,554.5 C69.9,554.5 70.3,554.3 70.3,553.9 C70.3,552.8 66.5,553.4 66.5,550.8 C66.5,549.3 67.8,548.5 69.3,548.5 C70.4,548.5 71.5,549.1 72.1,550.1 L70.5,551 C70.3,550.5 69.8,550.2 69.3,550.3 C68.8,550.3 68.4,550.5 68.4,550.9 C68.6,551.7 72.4,551.1 72.4,553.8 Z" id="Path" fill="#FFFFFF"></path>
            <path d="M75.9,550.4 L75.9,553.5 C75.9,554.3 76.5,554.3 77.6,554.2 L77.6,555.9 C74.9,556.2 74,555.4 74,553.4 L74,550.3 L72.7,550.3 L72.7,548.5 L74,548.5 L74,547 L75.9,546.4 L75.9,548.5 L77.6,548.5 L77.6,550.3 L75.9,550.4 Z" id="Path" fill="#FFFFFF"></path>
            <path d="M78.7,546.5 C78.7,545.9 79.2,545.3 79.9,545.3 C80.5,545.3 81.1,545.8 81.1,546.5 C81.1,547.1 80.6,547.7 79.9,547.7 C79.9,547.7 79.9,547.7 79.9,547.7 C79.2,547.7 78.7,547.2 78.7,546.5 Z M78.9,548.6 L80.8,548.6 L80.8,556 L78.9,556 L78.9,548.6 Z" id="Shape" fill="#FFFFFF"></path>
            <path d="M90,548.6 L90,555.6 C90,558 88.1,559.1 86.2,559.1 C84.6,559.1 83.4,558.5 82.7,557.3 L84.3,556.4 C84.6,557 85.1,557.4 86.2,557.4 C87.4,557.4 88.1,556.8 88.1,555.6 L88.1,554.8 C87.5,555.5 86.7,556 85.7,555.9 C83.6,555.8 82,554.1 82,552 C82.1,550 83.7,548.4 85.7,548.3 C86.6,548.3 87.5,548.7 88.1,549.4 L88.1,548.5 L90,548.6 Z M88.2,552.1 C88.2,551 87.3,550 86.2,550 C85.1,550 84.1,550.9 84.1,552 C84.1,553.1 85,554.1 86.1,554.1 C86.1,554.1 86.1,554.1 86.1,554.1 C87.2,554.2 88.1,553.3 88.2,552.2 C88.2,552.2 88.2,552.2 88.2,552.1 Z" id="Shape" fill="#FFFFFF"></path>
            <path d="M99.3,548.6 L99.3,556 L97.4,556 L97.4,555.1 C96.8,555.8 95.9,556.2 95,556.2 C93,556.2 91.4,554.5 91.4,552.3 C91.4,550.1 93,548.4 95,548.4 C95.9,548.4 96.8,548.8 97.4,549.5 L97.4,548.6 L99.3,548.6 Z M97.4,552.2 C97.4,551.1 96.5,550.2 95.3,550.2 C94.2,550.2 93.3,551.1 93.3,552.3 C93.3,553.4 94.2,554.3 95.3,554.3 C96.4,554.3 97.3,553.5 97.3,552.4 C97.4,552.4 97.4,552.3 97.4,552.2 L97.4,552.2 Z" id="Shape" fill="#FFFFFF"></path>
            <path d="M103.5,550.4 L103.5,553.5 C103.5,554.3 104.1,554.3 105.2,554.2 L105.2,555.9 C102.5,556.2 101.6,555.4 101.6,553.4 L101.6,550.3 L100.3,550.3 L100.3,548.5 L101.6,548.5 L101.6,547 L103.5,546.4 L103.5,548.5 L105.2,548.5 L105.2,550.3 L103.5,550.4 Z" id="Path" fill="#FFFFFF"></path>
            <path d="M105.9,552.2 C105.9,550.1 107.6,548.3 109.8,548.3 C111.9,548.3 113.7,550 113.7,552.2 C113.7,554.3 112,556.1 109.8,556.1 C109.8,556.1 109.8,556.1 109.8,556.1 C107.7,556.1 105.9,554.4 105.9,552.2 C105.9,552.3 105.9,552.3 105.9,552.2 Z M111.8,552.2 C111.8,551.1 110.9,550.2 109.8,550.2 C108.7,550.2 107.8,551.1 107.8,552.2 C107.8,553.3 108.7,554.2 109.8,554.2 C110.9,554.2 111.8,553.4 111.8,552.3 C111.8,552.3 111.8,552.3 111.8,552.2 L111.8,552.2 Z" id="Shape" fill="#FFFFFF"></path>
            <path d="M119.2,548.4 L119.2,550.5 C118.2,550.4 117,550.8 117,552.4 L117,555.9 L115,555.9 L115,548.5 L116.9,548.5 L116.9,549.8 C117.3,548.9 118.2,548.4 119.2,548.4 Z" id="Path" fill="#FFFFFF"></path>
            <path d="M125.6,553.8 C125.6,555.4 124.2,556.2 122.6,556.2 C121.1,556.2 120,555.6 119.5,554.4 L121.1,553.5 C121.3,554.1 121.9,554.5 122.5,554.5 C123.1,554.5 123.5,554.3 123.5,553.9 C123.5,552.8 119.7,553.4 119.7,550.8 C119.7,549.3 121,548.5 122.5,548.5 C123.6,548.5 124.7,549.1 125.3,550.1 L123.7,551 C123.5,550.5 123,550.2 122.5,550.3 C122,550.3 121.6,550.5 121.6,550.9 C121.8,551.7 125.6,551.1 125.6,553.8 Z" id="Path" fill="#FFFFFF"></path>
            <polygon id="Path" fill="#FFFFFF" points="286 589.9 286 600.2 284 600.2 284 589.9"></polygon>
            <path d="M294.7,595.6 L294.7,600.1 L292.8,600.1 L292.8,595.8 C292.8,594.8 292.2,594.3 291.3,594.3 C290.4,594.3 289.7,594.8 289.7,596.1 L289.7,600.1 L287.8,600.1 L287.8,592.7 L289.7,592.7 L289.7,593.5 C290.2,592.8 291,592.4 291.9,592.5 C293.5,592.6 294.7,593.7 294.7,595.6 Z" id="Path" fill="#FFFFFF"></path>
            <path d="M298.8,594.6 L298.8,597.7 C298.8,598.5 299.4,598.5 300.5,598.4 L300.5,600.1 C297.8,600.4 296.9,599.6 296.9,597.6 L296.9,594.5 L295.6,594.5 L295.6,592.7 L296.9,592.7 L296.9,591.2 L298.8,590.6 L298.8,592.7 L300.5,592.7 L300.5,594.5 L298.8,594.6 Z" id="Path" fill="#FFFFFF"></path>
            <path d="M305.3,598.6 C305.9,598.6 306.5,598.4 306.9,597.9 L308.4,598.8 C307.7,599.8 306.5,600.4 305.2,600.4 C302.7,600.4 301.2,598.7 301.2,596.5 C301.1,594.4 302.7,592.7 304.8,592.6 C304.9,592.6 305,592.6 305.1,592.6 C307.3,592.6 308.8,594.3 308.8,596.5 C308.8,596.8 308.8,597 308.7,597.3 L303.2,597.3 C303.5,598.2 304.3,598.6 305.3,598.6 Z M306.9,595.8 C306.8,594.9 306,594.3 305.1,594.3 C304.2,594.2 303.3,594.9 303.2,595.8 L306.9,595.8 Z" id="Shape" fill="#FFFFFF"></path>
            <path d="M314.3,592.7 L314.3,594.8 C313.3,594.7 312.1,595.1 312.1,596.7 L312.1,600.2 L310.2,600.2 L310.2,592.8 L312.1,592.8 L312.1,594.1 C312.4,593.2 313.3,592.6 314.3,592.7 Z" id="Path" fill="#FFFFFF"></path>
            <path d="M322.3,595.6 L322.3,600.1 L320.4,600.1 L320.4,595.8 C320.4,594.8 319.8,594.3 318.9,594.3 C318,594.3 317.3,594.8 317.3,596.1 L317.3,600.1 L315.4,600.1 L315.4,592.7 L317.3,592.7 L317.3,593.5 C317.8,592.8 318.6,592.4 319.5,592.5 C321.1,592.6 322.3,593.7 322.3,595.6 Z" id="Path" fill="#FFFFFF"></path>
            <path d="M331.4,592.8 L331.4,600.2 L329.5,600.2 L329.5,599.3 C328.9,600 328,600.4 327.1,600.4 C325.1,600.4 323.5,598.7 323.5,596.5 C323.5,594.3 325.1,592.6 327.1,592.6 C328,592.6 328.9,593 329.5,593.7 L329.5,592.8 L331.4,592.8 Z M329.5,596.5 C329.5,595.4 328.6,594.5 327.4,594.5 C326.3,594.5 325.4,595.4 325.4,596.6 C325.4,597.7 326.3,598.6 327.4,598.6 C328.5,598.6 329.4,597.8 329.4,596.7 C329.5,596.6 329.5,596.5 329.5,596.5 L329.5,596.5 Z" id="Shape" fill="#FFFFFF"></path>
            <polygon id="Path" fill="#FFFFFF" points="333.1 589.4 335 589.4 335 600.1 333.1 600.1"></polygon>
            <path d="M340,595 C339.9,592.1 342.2,589.7 345.1,589.6 C345.2,589.6 345.3,589.6 345.4,589.6 C347.2,589.6 348.9,590.5 349.8,592 L348,593 C347.4,592.1 346.4,591.5 345.3,591.5 C343.3,591.5 342,592.9 342,594.9 C342,596.9 343.3,598.3 345.3,598.3 C346.4,598.3 347.4,597.8 348,596.8 L349.8,597.8 C348.9,599.3 347.2,600.3 345.4,600.2 C342.5,600.3 340.1,598 340,595.1 C340,595.2 340,595.1 340,595 Z" id="Path" fill="#FFFFFF"></path>
            <path d="M350.6,596.5 C350.6,594.4 352.3,592.6 354.5,592.6 C356.6,592.6 358.4,594.3 358.4,596.5 C358.4,598.6 356.7,600.4 354.5,600.4 C354.5,600.4 354.5,600.4 354.5,600.4 C352.4,600.4 350.7,598.7 350.6,596.5 C350.6,596.5 350.6,596.5 350.6,596.5 Z M356.5,596.5 C356.5,595.4 355.6,594.5 354.5,594.5 C353.4,594.5 352.5,595.4 352.5,596.5 C352.5,597.6 353.4,598.5 354.5,598.5 C355.6,598.5 356.5,597.7 356.5,596.6 C356.5,596.6 356.5,596.5 356.5,596.5 L356.5,596.5 Z" id="Shape" fill="#FFFFFF"></path>
            <path d="M370.7,595.6 L370.7,600.1 L368.8,600.1 L368.8,595.7 C368.8,594.8 368.4,594.3 367.6,594.3 C366.8,594.3 366.2,594.9 366.2,596 L366.2,600.1 L364.3,600.1 L364.3,595.7 C364.3,594.8 363.9,594.3 363.1,594.3 C362.3,594.3 361.7,594.9 361.7,596 L361.7,600.1 L359.8,600.1 L359.8,592.7 L361.7,592.7 L361.7,593.5 C362.2,592.8 362.9,592.5 363.7,592.5 C364.5,592.5 365.3,592.9 365.7,593.6 C366.2,592.9 367,592.5 367.9,592.5 C369.6,592.6 370.7,593.8 370.7,595.6 Z" id="Path" fill="#FFFFFF"></path>
            <path d="M380.2,596.5 C380.2,598.7 378.6,600.4 376.6,600.4 C375.7,600.4 374.8,600 374.2,599.3 L374.2,603.1 L372.3,603.1 L372.3,592.8 L374.2,592.8 L374.2,593.7 C374.8,593 375.7,592.6 376.6,592.6 C378.5,592.6 380.2,594.3 380.2,596.5 Z M378.3,596.5 C378.3,595.4 377.4,594.5 376.2,594.5 C375.1,594.5 374.2,595.4 374.2,596.6 C374.2,597.7 375.1,598.6 376.2,598.6 C377.3,598.6 378.2,597.8 378.2,596.7 C378.3,596.6 378.3,596.5 378.3,596.5 L378.3,596.5 Z" id="Shape" fill="#FFFFFF"></path>
            <path d="M389,592.8 L389,600.2 L387.1,600.2 L387.1,599.3 C386.5,600 385.6,600.4 384.7,600.4 C382.7,600.4 381.1,598.7 381.1,596.5 C381.1,594.3 382.7,592.6 384.7,592.6 C385.6,592.6 386.5,593 387.1,593.7 L387.1,592.8 L389,592.8 Z M387.1,596.5 C387.1,595.4 386.2,594.5 385,594.5 C383.9,594.5 383,595.4 383,596.6 C383,597.7 383.9,598.6 385,598.6 C386.1,598.6 387,597.8 387,596.7 C387.1,596.6 387.1,596.5 387.1,596.5 L387.1,596.5 Z" id="Shape" fill="#FFFFFF"></path>
            <path d="M397.6,595.6 L397.6,600.1 L395.7,600.1 L395.7,595.8 C395.7,594.8 395.1,594.3 394.2,594.3 C393.3,594.3 392.6,594.8 392.6,596.1 L392.6,600.1 L390.7,600.1 L390.7,592.7 L392.6,592.7 L392.6,593.5 C393.1,592.8 393.9,592.4 394.8,592.5 C396.4,592.6 397.6,593.7 397.6,595.6 Z" id="Path" fill="#FFFFFF"></path>
            <path d="M405.9,592.8 L403.2,600.2 C402.4,602.3 401.2,603.2 399.3,603.1 L399.3,601.3 C400.3,601.3 400.9,600.9 401.2,599.9 L398.2,592.8 L400.3,592.8 L402.2,597.7 L403.8,592.8 L405.9,592.8 Z" id="Path" fill="#FFFFFF"></path>
            <path d="M283.4,611.5 L285.1,610.5 C285.5,611.5 286.2,612.1 287.5,612.1 C288.7,612.1 289.1,611.6 289.1,611 C289.1,610.2 288.4,609.9 286.9,609.5 C285.3,609 283.8,608.4 283.8,606.4 C283.8,604.5 285.4,603.3 287.2,603.3 C288.8,603.3 290.2,604.2 290.9,605.6 L289.2,606.6 C288.8,605.8 288.3,605.3 287.2,605.3 C286.3,605.3 285.8,605.7 285.8,606.3 C285.8,606.9 286.2,607.3 287.8,607.7 C289.4,608.2 291.2,608.8 291.2,610.9 C291.2,612.8 289.7,614 287.5,614 C285.4,614.1 284,613.1 283.4,611.5 Z" id="Path" fill="#FFFFFF"></path>
            <path d="M294.8,608.3 L294.8,611.4 C294.8,612.2 295.4,612.2 296.5,612.1 L296.5,613.8 C293.8,614.1 292.9,613.3 292.9,611.3 L292.9,608.2 L291.6,608.2 L291.6,606.4 L292.9,606.4 L292.9,605 L294.8,604.4 L294.8,606.5 L296.5,606.5 L296.5,608.3 L294.8,608.3 Z" id="Path" fill="#FFFFFF"></path>
            <path d="M305,606.5 L305,613.9 L303.1,613.9 L303.1,613 C302.5,613.7 301.6,614.1 300.7,614.1 C298.7,614.1 297.1,612.4 297.1,610.2 C297.1,608 298.7,606.3 300.7,606.3 C301.6,606.3 302.5,606.7 303.1,607.4 L303.1,606.5 L305,606.5 Z M303.1,610.2 C303.1,609.1 302.2,608.2 301,608.2 C299.9,608.2 299,609.1 299,610.3 C299,611.4 299.9,612.3 301,612.3 C302.1,612.3 303,611.5 303,610.4 C303.1,610.3 303.1,610.2 303.1,610.2 L303.1,610.2 Z" id="Shape" fill="#FFFFFF"></path>
            <polygon id="Path" fill="#FFFFFF" points="311.3 613.9 308.6 610.6 308.6 613.9 306.7 613.9 306.7 603.6 308.6 603.6 308.6 609.8 311.1 606.6 313.4 606.6 310.4 610.2 313.4 613.9"></polygon>
            <path d="M317.6,612.4 C318.2,612.4 318.8,612.2 319.2,611.7 L320.7,612.6 C320,613.6 318.8,614.2 317.5,614.2 C315,614.2 313.5,612.5 313.5,610.3 C313.4,608.2 315.1,606.5 317.1,606.4 C317.2,606.4 317.3,606.4 317.4,606.4 C319.6,606.4 321.1,608.1 321.1,610.3 C321.1,610.6 321.1,610.8 321,611.1 L315.5,611.1 C315.8,611.9 316.6,612.4 317.6,612.4 Z M319.3,609.5 C319.2,608.6 318.4,608 317.5,608 C316.6,607.9 315.7,608.6 315.6,609.5 L319.3,609.5 Z" id="Shape" fill="#FFFFFF"></path>
            <path d="M329.4,609.3 L329.4,613.8 L327.5,613.8 L327.5,609.5 C327.5,608.5 326.9,608 326,608 C325.1,608 324.4,608.5 324.4,609.8 L324.4,613.8 L322.5,613.8 L322.5,603.5 L324.4,603.5 L324.4,607.3 C324.9,606.6 325.7,606.2 326.6,606.3 C328.1,606.3 329.4,607.4 329.4,609.3 Z" id="Path" fill="#FFFFFF"></path>
            <path d="M330.6,610.2 C330.6,608.1 332.3,606.3 334.5,606.3 C336.6,606.3 338.4,608 338.4,610.2 C338.4,612.3 336.7,614.1 334.5,614.1 C334.5,614.1 334.5,614.1 334.5,614.1 C332.4,614.1 330.6,612.4 330.6,610.2 C330.6,610.2 330.6,610.2 330.6,610.2 Z M336.5,610.2 C336.5,609.1 335.6,608.2 334.5,608.2 C333.4,608.2 332.5,609.1 332.5,610.2 C332.5,611.3 333.4,612.2 334.5,612.2 C335.6,612.2 336.5,611.4 336.5,610.3 C336.5,610.3 336.5,610.2 336.5,610.2 Z" id="Shape" fill="#FFFFFF"></path>
            <polygon id="Path" fill="#FFFFFF" points="339.7 603.1 341.6 603.1 341.6 613.8 339.7 613.8"></polygon>
            <path d="M350.8,603.6 L350.8,613.9 L348.9,613.9 L348.9,613 C348.3,613.7 347.4,614.1 346.5,614.1 C344.5,614.1 342.9,612.4 342.9,610.2 C342.9,608 344.5,606.3 346.5,606.3 C347.4,606.3 348.3,606.7 348.9,607.4 L348.9,603.6 L350.8,603.6 Z M348.9,610.2 C348.9,609.1 348,608.2 346.8,608.2 C345.7,608.2 344.8,609.1 344.8,610.3 C344.8,611.4 345.7,612.3 346.8,612.3 C347.9,612.3 348.8,611.5 348.8,610.4 C348.9,610.3 348.9,610.2 348.9,610.2 L348.9,610.2 Z" id="Shape" fill="#FFFFFF"></path>
            <path d="M356.2,612.4 C356.8,612.4 357.4,612.2 357.8,611.7 L359.3,612.6 C358.6,613.6 357.4,614.2 356.1,614.2 C353.6,614.2 352.1,612.5 352.1,610.3 C352,608.2 353.6,606.5 355.7,606.4 C355.8,606.4 355.9,606.4 356,606.4 C358.2,606.4 359.7,608.1 359.7,610.3 C359.7,610.6 359.7,610.8 359.6,611.1 L354.1,611.1 C354.4,611.9 355.2,612.4 356.2,612.4 Z M357.9,609.5 C357.8,608.6 357,608 356.1,608 C355.2,607.9 354.3,608.6 354.2,609.5 L357.9,609.5 Z" id="Shape" fill="#FFFFFF"></path>
            <path d="M365.2,606.4 L365.2,608.5 C364.2,608.4 363,608.8 363,610.4 L363,613.9 L361.1,613.9 L361.1,606.5 L363,606.5 L363,607.8 C363.4,606.9 364.3,606.3 365.2,606.4 Z" id="Path" fill="#FFFFFF"></path>
            <path d="M371.7,611.7 C371.7,613.3 370.3,614.1 368.7,614.1 C367.2,614.1 366.1,613.5 365.6,612.3 L367.2,611.4 C367.4,612 368,612.4 368.6,612.4 C369.2,612.4 369.6,612.2 369.6,611.8 C369.6,610.7 365.8,611.3 365.8,608.7 C365.8,607.2 367.1,606.4 368.6,606.4 C369.7,606.4 370.8,607 371.4,608 L369.8,608.9 C369.6,608.4 369.1,608.1 368.6,608.2 C368.1,608.2 367.7,608.4 367.7,608.8 C367.9,609.7 371.7,609 371.7,611.7 Z" id="Path" fill="#FFFFFF"></path>
            <path d="M595.6,545.4 C595.6,547.3 594.1,548.9 592.2,548.9 C592.2,548.9 592.1,548.9 592.1,548.9 L590.3,548.9 L590.3,552.3 L588.3,552.3 L588.3,542 L592.1,542 C594,541.9 595.6,543.4 595.6,545.4 C595.6,545.3 595.6,545.4 595.6,545.4 Z M593.6,545.4 C593.6,544.6 593,543.9 592.2,543.8 C592.2,543.8 592.1,543.8 592.1,543.8 L590.3,543.8 L590.3,546.9 L592.1,546.9 C592.9,546.9 593.6,546.3 593.6,545.4 C593.6,545.4 593.6,545.4 593.6,545.4 Z" id="Shape" fill="#FFFFFF"></path>
            <path d="M603.8,544.9 L603.8,552.3 L601.9,552.3 L601.9,551.4 C601.3,552.1 600.4,552.5 599.5,552.5 C597.5,552.5 595.9,550.8 595.9,548.6 C595.9,546.4 597.5,544.7 599.5,544.7 C600.4,544.7 601.3,545.1 601.9,545.8 L601.9,544.9 L603.8,544.9 L603.8,544.9 Z M601.9,548.5 C601.9,547.4 601,546.5 599.8,546.5 C598.7,546.5 597.8,547.4 597.8,548.6 C597.8,549.7 598.7,550.6 599.8,550.6 C600.9,550.6 601.8,549.8 601.8,548.7 C601.9,548.7 601.9,548.6 601.9,548.5 L601.9,548.5 Z" id="Shape" fill="#FFFFFF"></path>
            <path d="M612.4,544.9 L609.7,552.3 C608.9,554.4 607.7,555.3 605.8,555.2 L605.8,553.4 C606.8,553.4 607.4,553 607.7,552 L604.7,544.9 L606.8,544.9 L608.7,549.8 L610.3,544.9 L612.4,544.9 Z" id="Path" fill="#FFFFFF"></path>
            <path d="M616.7,550.7 C617.3,550.7 617.9,550.5 618.3,550 L619.8,550.9 C619.1,551.9 617.9,552.5 616.6,552.5 C614.1,552.5 612.6,550.8 612.6,548.6 C612.5,546.5 614.1,544.8 616.2,544.7 C616.3,544.7 616.4,544.7 616.5,544.7 C618.7,544.7 620.2,546.4 620.2,548.6 C620.2,548.9 620.2,549.1 620.1,549.4 L614.6,549.4 C614.9,550.3 615.7,550.7 616.7,550.7 Z M618.3,547.9 C618.2,547 617.4,546.4 616.5,546.4 C615.6,546.3 614.7,547 614.6,547.9 L618.3,547.9 Z" id="Shape" fill="#FFFFFF"></path>
            <path d="M625.7,544.7 L625.7,546.8 C624.7,546.7 623.5,547.1 623.5,548.7 L623.5,552.2 L621.6,552.2 L621.6,544.8 L623.5,544.8 L623.5,546.1 C623.8,545.2 624.7,544.7 625.7,544.7 Z" id="Path" fill="#FFFFFF"></path>
            <path d="M632.1,550.1 C632.1,551.7 630.7,552.5 629.1,552.5 C627.6,552.5 626.5,551.9 626,550.7 L627.6,549.8 C627.8,550.4 628.4,550.8 629,550.8 C629.6,550.8 630,550.6 630,550.2 C630,549.1 626.2,549.7 626.2,547.1 C626.2,545.6 627.5,544.8 629,544.8 C630.1,544.8 631.2,545.4 631.8,546.4 L630.2,547.3 C630,546.8 629.5,546.5 629,546.6 C628.5,546.6 628.1,546.8 628.1,547.2 C628.3,548 632.1,547.4 632.1,550.1 Z" id="Path" fill="#FFFFFF"></path>
            <circle id="Oval" fill="#6FCFEE" cx="328.7" cy="324.2" r="72.8"></circle>
            <polygon id="Path" fill="#FFFFFF" points="325.1 377.9 322.2 377.9 322.2 368.2 318 375.1 317.7 375.1 313.5 368.2 313.5 377.9 310.6 377.9 310.6 363 313.6 363 317.9 370.1 322.2 363 325.2 363"></polygon>
            <path d="M326.9,374.5 L329.4,373 C329.9,374.4 331,375.3 332.8,375.3 C334.6,375.3 335.2,374.6 335.2,373.7 C335.2,372.6 334.2,372.2 332,371.5 C329.7,370.8 327.5,369.9 327.5,367 C327.5,364.2 329.8,362.6 332.4,362.6 C334.7,362.5 336.8,363.9 337.7,365.9 L335.2,367.3 C334.7,366.2 333.9,365.4 332.3,365.4 C331.1,365.4 330.3,366 330.3,366.9 C330.3,367.8 330.9,368.3 333.1,369 C335.5,369.7 338,370.5 338,373.6 C338,376.4 335.8,378.1 332.6,378.1 C329.7,378.2 327.7,376.7 326.9,374.5 Z" id="Path" fill="#FFFFFF"></path>
            <polygon id="Path" fill="#FFFFFF" points="348.6 375.1 348.6 377.9 340 377.9 340 363 342.9 363 342.9 375.1"></polygon>
            <g id="Group" transform="translate(298.000000, 274.000000)" fill="#FFFFFF">
                <path d="M47,25.7 C47,28.3 46,30.4 44.7,30.4 C44.6,30.4 44.4,30.4 44.3,30.3 C44.6,28.6 44.7,26.9 44.7,25.2 C44.7,24.8 44.7,24.5 44.7,24.1 C44.7,23.9 44.7,23.6 44.7,23.4 C44.7,22.8 44.6,22.3 44.6,21.7 C44.6,21.5 44.6,21.3 44.5,21.1 C44.6,21.1 44.7,21.1 44.7,21.1 C45,21.1 45.3,21.2 45.6,21.5 C46.4,22.1 47,23.8 47,25.7 Z" id="Path" opacity="0.4"></path>
                <path d="M60.9,72.3 L60.9,73.8 L0.4,73.8 L0.4,72.3 C0.4,61.8 8.6,53.2 19.1,52.6 L26.1,59.3 C26.4,59.6 26.8,59.6 27.1,59.3 C27.2,59.2 27.2,59.2 27.2,59.1 L28.1,57.2 L30.3,52.5 L31.9,52.5 L34.1,57.2 L35,59.1 C35.2,59.4 35.6,59.6 35.9,59.4 C36,59.4 36,59.3 36.1,59.3 L43.1,52.6 C53.1,53.5 60.9,62 60.9,72.3 Z" id="Path" opacity="0.25"></path>
                <path d="M40.2,11.7 C39.6,15.7 37.1,19.9 32.9,23.1 C27.8,27 21.8,28.2 17.4,26.7 C17.1,26.6 16.7,26.8 16.6,27.1 C16.6,27.2 16.6,27.3 16.6,27.3 C16.7,28.4 16.8,29.4 16.9,30.4 C17.8,36.5 20.4,41.7 23.8,44.7 C23.9,44.8 24,45 24,45.2 L24,46 C24,46.3 23.7,46.6 23.4,46.6 C23.3,46.6 23.3,46.6 23.2,46.6 C19.6,45.7 16.8,44.1 15.3,42.1 C15.1,41.8 14.7,41.6 14.2,41.6 L14.2,41.6 C10.7,41.6 7.9,39 7.9,35.9 C7.9,34.3 8.6,32.8 9.8,31.8 C10.3,31.4 10.4,30.8 10.1,30.2 C9.5,29 9.2,27.7 9.2,26.3 C9.2,24.2 10,22.1 11.4,20.6 C11.7,20.3 11.8,20 11.8,19.6 C11.8,19.6 11.8,19.6 11.8,19.6 C11.8,19.5 11.8,19.4 11.8,19.3 C11.8,19.2 11.8,19.1 11.8,18.9 C11.6,14.4 14.3,9.2 19.2,5.4 C26.1,0.1 34.8,-0.3 38.6,4.6 C38.8,4.8 38.9,5 39.1,5.3 C39.2,5.5 39.3,5.7 39.4,5.8 C40.3,7.6 40.6,9.7 40.2,11.7 Z" id="Path" opacity="0.6"></path>
                <path d="M46.4,41.7 C46.2,41.8 46,41.9 45.9,42.1 C44.3,44.2 41.2,45.8 37.3,46.7 L37.3,44.8 C40.8,41.8 43.4,36.6 44.4,30.3 C44.5,30.3 44.7,30.4 44.8,30.4 C46.1,30.4 47.1,28.3 47.1,25.7 C47.1,23.8 46.5,22.1 45.7,21.4 C45.5,21.2 45.1,21.1 44.8,21 C44.7,21 44.6,21 44.6,21 C44.6,20.6 44.5,20.2 44.4,19.8 C44.3,19.3 44.2,18.9 44.2,18.5 C44.1,17.9 44,17.3 43.8,16.8 C43.5,15.4 42.8,14.1 41.9,13 C41.5,12.5 40.9,12 40.4,11.6 C40.7,9.6 40.4,7.5 39.5,5.7 L39.5,5.7 C43.2,5.7 46.2,10.8 46.2,17.1 C46.2,17.4 46.2,17.8 46.2,18.1 C46.2,18.4 46.3,18.8 46.5,19 C48.5,21 50.1,24.5 50.6,28.5 C51.3,34.8 49.5,40.2 46.4,41.7 Z" id="Path" opacity="0.6"></path>
                <path d="M44.7,25.2 C44.7,26.9 44.6,28.6 44.3,30.3 C43.4,36.6 40.7,41.8 37.2,44.8 C36.8,45.2 36.4,45.5 35.9,45.8 C32.7,48 28.5,48 25.3,45.8 C24.8,45.5 24.4,45.2 24,44.8 C20.5,41.8 17.9,36.6 16.9,30.3 C16.7,29.3 16.6,28.2 16.6,27.2 C16.6,26.9 16.8,26.6 17.2,26.6 C17.3,26.6 17.4,26.6 17.4,26.6 C21.7,28.2 27.8,27 32.9,23.1 C37,19.9 39.6,15.6 40.2,11.7 C40.8,12.1 41.3,12.6 41.7,13.1 C42.6,14.2 43.3,15.5 43.6,16.9 C43.7,17.5 43.9,18 44,18.6 C44.1,19 44.2,19.5 44.2,19.9 C44.3,20.3 44.3,20.7 44.4,21.1 C44.4,21.3 44.4,21.5 44.5,21.7 C44.6,22.3 44.6,22.8 44.6,23.4 C44.6,23.6 44.6,23.9 44.6,24.1 C44.7,24.5 44.7,24.8 44.7,25.2 Z" id="Path" opacity="0.4"></path>
                <path d="M30.7,47.6 C28.8,47.6 26.9,47 25.3,45.9 C24.8,45.6 24.4,45.3 24,44.9 C20.4,41.9 17.8,36.6 16.9,30.3 C16.7,29.3 16.6,28.2 16.6,27.2 C16.6,27 16.7,26.8 16.8,26.6 C16.9,26.4 17.1,26.3 17.3,26.3 C17.4,26.3 17.5,26.3 17.6,26.3 C22,27.9 28,26.6 32.9,22.8 C36.8,19.8 39.5,15.5 40.1,11.5 L40.1,11.2 L40.3,11.4 C40.9,11.8 41.4,12.3 41.9,12.8 C42.8,13.9 43.5,15.2 43.9,16.6 C44,17.2 44.2,17.8 44.3,18.3 C44.4,18.7 44.5,19.1 44.5,19.6 C44.6,20 44.6,20.4 44.7,20.8 L44.8,21.4 C44.9,22 44.9,22.6 44.9,23.1 C44.9,23.3 44.9,23.6 44.9,23.8 C44.9,24.2 44.9,24.5 44.9,24.9 L44.9,24.9 C44.9,26.6 44.8,28.4 44.5,30.1 C43.6,36.3 41,41.6 37.4,44.7 C37,45.1 36.5,45.4 36.1,45.7 C34.4,47 32.5,47.6 30.7,47.6 Z M17.3,26.8 C17.3,26.8 17.3,26.8 17.3,26.8 C17.2,26.8 17.1,26.9 17,26.9 C16.9,27 16.9,27.1 16.9,27.2 C17,28.2 17.1,29.3 17.2,30.3 C18.1,36.5 20.7,41.7 24.2,44.7 C24.6,45 25,45.4 25.5,45.7 C28.7,47.8 32.7,47.8 35.9,45.7 C36.4,45.4 36.8,45.1 37.2,44.7 C40.7,41.7 43.3,36.5 44.2,30.3 C44.5,28.6 44.6,26.9 44.6,25.2 L44.6,25.2 C44.6,24.8 44.6,24.5 44.6,24.1 C44.6,23.9 44.6,23.6 44.6,23.4 C44.6,22.9 44.5,22.3 44.5,21.7 L44.4,21.1 C44.4,20.7 44.3,20.3 44.2,19.9 C44.1,19.4 44,19 44,18.6 C43.9,18 43.8,17.4 43.6,16.9 C43.3,15.5 42.6,14.3 41.7,13.2 C41.3,12.8 40.9,12.4 40.4,12 C39.7,16.1 37,20.2 33.1,23.3 C28.1,27.1 22,28.5 17.4,26.9 C17.4,26.8 17.3,26.8 17.3,26.8 Z" id="Shape"></path>
                <path d="M44.7,30.6 C44.6,30.6 44.4,30.6 44.3,30.5 L44.2,30.5 L44.2,30.4 C44.5,28.7 44.6,27 44.6,25.3 C44.6,24.9 44.6,24.6 44.6,24.2 C44.6,24 44.6,23.7 44.6,23.5 C44.6,23 44.5,22.4 44.5,21.8 L44.4,21 L44.6,21 C44.7,21 44.8,21 44.9,21 C45.3,21 45.6,21.2 45.9,21.4 C46.8,22.2 47.4,23.9 47.4,25.8 C47.2,28.5 46.1,30.6 44.7,30.6 Z M44.5,30.2 C44.6,30.2 44.6,30.2 44.7,30.2 C45.8,30.2 46.8,28.1 46.8,25.7 C46.8,23.9 46.3,22.2 45.5,21.5 C45.3,21.3 45,21.2 44.7,21.2 C44.7,21.2 44.7,21.2 44.7,21.2 L44.8,21.7 C44.9,22.3 44.9,22.9 44.9,23.4 C44.9,23.6 44.9,23.9 44.9,24.1 C44.9,24.5 44.9,24.8 44.9,25.2 C44.9,26.9 44.8,28.6 44.5,30.2 Z" id="Shape"></path>
                <path d="M26.6,59.6 C26.5,59.6 26.4,59.6 26.2,59.5 C26.1,59.5 26,59.4 26,59.3 L18.7,52.3 C18.4,52 18.4,51.6 18.5,51.3 L20.1,48.2 C20.3,47.8 20.7,47.6 21.1,47.8 L30.6,50.5 C31,50.6 31.2,51 31.1,51.3 C31.1,51.3 31.1,51.4 31.1,51.4 L27.5,59 C27.2,59.5 26.9,59.6 26.6,59.6 Z M19.2,52.4 L19.2,52.4 L26.2,59.1 C26.2,59.1 26.3,59.2 26.3,59.2 C26.6,59.3 26.9,59.2 27,59 L30.6,51.4 C30.6,51.4 30.6,51.4 30.6,51.3 C30.6,51.2 30.6,51.1 30.6,51.1 C30.6,51 30.5,51 30.4,50.9 L20.9,48.2 C20.7,48.1 20.4,48.2 20.3,48.5 L18.7,51.6 C18.6,51.8 18.6,52 18.8,52.2 L19.2,52.4 Z" id="Shape"></path>
                <rect id="Rectangle" x="37.1" y="46.7" width="1" height="2.4"></rect>
                <rect id="Rectangle" x="23.9" y="46.7" width="1" height="2.2"></rect>
                <path d="M35.5,59.7 C35.5,59.7 35.5,59.7 35.5,59.7 C35.3,59.7 35,59.6 34.9,59.4 C34.8,59.3 34.8,59.3 34.7,59.2 L31.1,51.6 C31,51.4 31,51.2 31.1,51.1 C31.2,50.9 31.3,50.8 31.5,50.7 C31.5,50.7 31.6,50.7 31.6,50.7 L41.1,48 C41.5,47.9 41.9,48.1 42.1,48.4 L43.7,51.5 C43.9,51.8 43.8,52.2 43.5,52.5 L43.1,52.8 L36.1,59.5 C35.9,59.6 35.7,59.7 35.5,59.7 Z M41.3,48.2 C41.3,48.2 41.2,48.2 41.2,48.2 L31.7,50.9 C31.7,50.9 31.7,50.9 31.7,50.9 C31.6,50.9 31.6,51 31.5,51.1 C31.5,51.2 31.5,51.3 31.5,51.4 L35.1,59 C35.1,59 35.2,59.1 35.2,59.1 C35.3,59.2 35.4,59.3 35.6,59.3 C35.7,59.3 35.9,59.3 36,59.2 L43.3,52.2 C43.5,52 43.5,51.8 43.4,51.6 L41.8,48.5 C41.6,48.3 41.5,48.2 41.3,48.2 Z" id="Shape"></path>
                <path d="M61.1,74 L0.2,74 L0.2,72.3 C0.2,61.7 8.5,53 19,52.4 L19.1,52.4 L19.2,52.5 L26.2,59.2 C26.3,59.3 26.4,59.4 26.6,59.3 C26.7,59.3 26.9,59.2 27,59.1 C27,59.1 27.1,59 27.1,59 L30.2,52.4 L32,52.4 L35.1,59 C35.2,59.3 35.5,59.4 35.8,59.2 C35.8,59.2 35.9,59.1 35.9,59.1 L42.9,52.4 L43,52.4 C48,52.8 52.6,55.1 55.9,58.8 C59.3,62.5 61.1,67.2 61.1,72.2 L61.1,74 L61.1,74 Z M0.6,73.6 L60.8,73.6 L60.8,72.2 C60.8,67.3 59,62.6 55.7,59 C52.4,55.4 47.9,53.2 43.1,52.7 L36.2,59.3 C36.1,59.4 36.1,59.4 36,59.5 C35.6,59.7 35.1,59.5 34.9,59.1 L31.9,52.7 L30.5,52.7 L27.5,59.1 C27.5,59.2 27.4,59.3 27.3,59.3 C27.1,59.5 26.9,59.6 26.7,59.6 C26.5,59.6 26.3,59.5 26.1,59.4 L19.2,52.7 C8.9,53.3 0.8,61.8 0.8,72.2 L0.8,73.6 L0.6,73.6 Z" id="Shape"></path>
                <path d="M23.4,46.7 C23.3,46.7 23.2,46.7 23.2,46.7 C19.6,45.7 16.8,44.1 15.3,42.2 C15.1,41.9 14.7,41.7 14.4,41.7 C14.4,41.7 14.4,41.7 14.4,41.7 C10.8,41.7 7.9,39.1 7.9,35.8 C7.9,34.2 8.6,32.6 9.9,31.6 C10.3,31.3 10.4,30.7 10.2,30.2 C9.6,29 9.3,27.6 9.3,26.2 C9.3,24 10.1,22 11.6,20.4 C11.8,20.2 11.9,19.9 11.9,19.6 C11.9,19.6 11.9,19.6 11.9,19.6 C11.9,19.5 11.9,19.4 11.9,19.3 L11.9,19.2 C11.9,19.1 11.9,19 11.9,18.9 C11.7,14.2 14.6,9 19.4,5.3 C22.8,2.7 26.7,1.2 30.3,1 C34,0.9 37.1,2.1 39,4.5 C39.2,4.7 39.3,4.9 39.5,5.2 C39.6,5.4 39.7,5.6 39.8,5.8 C40.7,7.7 41,9.7 40.7,11.8 C40.1,15.9 37.4,20.3 33.4,23.3 C28.5,27.1 22.4,28.5 17.9,26.9 C17.6,26.8 17.3,27 17.2,27.2 C17.2,27.3 17.2,27.3 17.2,27.4 C17.3,28.4 17.4,29.4 17.5,30.4 C18.4,36.4 20.9,41.6 24.3,44.6 C24.5,44.8 24.6,45 24.6,45.2 L24.6,45.9 C24.6,46.1 24.5,46.4 24.3,46.5 C23.8,46.6 23.6,46.7 23.4,46.7 Z M14.3,41.3 C14.8,41.3 15.2,41.5 15.5,41.9 C16.9,43.8 19.6,45.4 23.2,46.3 C23.2,46.3 23.3,46.3 23.3,46.3 C23.3,46.3 23.3,46.3 23.3,46.3 C23.4,46.3 23.6,46.2 23.7,46.1 C23.8,46 23.9,45.9 23.9,45.7 L23.9,45 C23.9,44.9 23.8,44.7 23.7,44.6 C20.2,41.5 17.7,36.3 16.8,30.2 C16.7,29.2 16.5,28.2 16.5,27.2 C16.5,27.1 16.5,27 16.5,26.9 C16.7,26.4 17.2,26.2 17.6,26.4 C22,28 28,26.6 32.8,22.8 C36.7,19.8 39.4,15.5 40,11.5 L40,11.5 C40.3,9.5 40,7.5 39.2,5.7 C39.1,5.5 39,5.4 38.9,5.2 C38.8,5 38.6,4.8 38.4,4.5 C36.6,2.2 33.6,1 30,1.1 C26.4,1.2 22.6,2.7 19.3,5.3 C14.6,8.9 11.8,14 12,18.6 C12,18.7 12,18.8 12,18.8 L12,18.9 C12,19 12,19.1 12,19.2 L12,19.3 C12,19.7 11.9,20.1 11.6,20.4 C10.2,21.9 9.4,23.9 9.4,26 C9.4,27.3 9.7,28.6 10.3,29.8 C10.6,30.4 10.5,31.1 9.9,31.6 C8.7,32.6 8,34 8,35.6 C8.2,38.8 10.9,41.3 14.3,41.3 C14.3,41.3 14.3,41.3 14.3,41.3 Z" id="Shape"></path>
                <path d="M37.1,46.9 L37.1,44.7 L37.2,44.6 C40.7,41.6 43.3,36.4 44.2,30.2 L44.2,30 L44.4,30.1 C44.5,30.1 44.6,30.2 44.7,30.2 C45.8,30.2 46.8,28.1 46.8,25.7 C46.8,23.9 46.3,22.2 45.5,21.5 C45.3,21.3 45,21.2 44.7,21.2 C44.6,21.2 44.6,21.2 44.5,21.2 L44.3,21.2 L44.3,21 C44.3,20.6 44.2,20.2 44.1,19.8 C44,19.3 43.9,18.9 43.9,18.5 C43.8,17.9 43.6,17.3 43.5,16.8 C43.2,15.4 42.5,14.2 41.6,13.1 C41.2,12.6 40.7,12.1 40.1,11.7 L40,11.6 L40,11.5 C40.3,9.5 40,7.5 39.2,5.7 L39.1,5.4 L39.4,5.4 C43.2,5.4 46.2,10.6 46.2,17 C46.2,17.4 46.2,17.7 46.2,18 C46.2,18.3 46.3,18.6 46.5,18.8 C48.6,21 50.1,24.5 50.7,28.4 C51.5,34.5 49.8,40.1 46.5,41.6 L46.5,41.6 C46.3,41.7 46.2,41.8 46.1,41.9 C44.5,44 41.3,45.7 37.4,46.6 L37.1,46.9 Z M37.4,44.9 L37.4,46.5 C41.2,45.6 44.2,44 45.7,42 C45.9,41.8 46,41.6 46.3,41.5 C49.4,40 51.1,34.6 50.3,28.6 C49.8,24.7 48.3,21.3 46.2,19.2 C45.9,18.9 45.8,18.5 45.8,18.1 C45.8,17.8 45.8,17.5 45.8,17.1 C45.8,11.1 43,6.1 39.6,5.9 C40.4,7.7 40.7,9.6 40.4,11.5 C40.9,11.9 41.4,12.3 41.9,12.9 C42.8,14 43.5,15.3 43.9,16.7 C44,17.2 44.2,17.8 44.3,18.4 C44.4,18.8 44.5,19.2 44.5,19.7 C44.6,20 44.6,20.4 44.6,20.7 C44.6,20.7 44.7,20.7 44.7,20.7 C45.1,20.7 45.4,20.9 45.7,21.1 C46.6,21.9 47.2,23.6 47.2,25.5 C47.2,28.2 46.1,30.3 44.7,30.3 C44.6,30.3 44.5,30.3 44.5,30.3 C43.5,36.7 41,41.9 37.4,44.9 Z" id="Shape"></path>
                <path d="M30.8,51.4 L30.3,52.5 L28.1,57.2 L27.2,59.1 C27,59.4 26.6,59.6 26.3,59.4 C26.2,59.4 26.2,59.3 26.1,59.3 L19.1,52.6 L19.1,52.6 L18.8,52.3 C18.6,52.1 18.5,51.8 18.7,51.5 L20.3,48.4 C20.4,48.1 20.8,48 21.1,48 L24.2,48.9 L30.6,50.7 C30.7,50.8 30.9,51.1 30.8,51.4 C30.8,51.4 30.8,51.4 30.8,51.4 Z" id="Path" opacity="0.8"></path>
                <path d="M43.3,52.3 L43,52.6 L42.9,52.7 L35.9,59.4 C35.6,59.7 35.2,59.7 34.9,59.4 C34.8,59.3 34.8,59.3 34.8,59.2 L33.9,57.3 L31.7,52.6 L31.2,51.5 C31.1,51.2 31.2,50.9 31.5,50.8 C31.5,50.8 31.5,50.8 31.6,50.8 L37.3,49.2 L38,49 L41.1,48.1 C41.4,48 41.8,48.2 41.9,48.5 L43.5,51.6 C43.6,51.7 43.5,52.1 43.3,52.3 Z" id="Path" opacity="0.8"></path>
                <path d="M31.3,51.4 L31.8,52.5 L30.2,52.5 L30.7,51.4 C30.8,51.1 30.7,50.9 30.5,50.7 C30.5,50.7 30.4,50.7 30.4,50.7 L24,48.9 L24,44.8 C24.4,45.2 24.8,45.5 25.3,45.8 C28.5,48 32.7,48 35.9,45.8 C36.4,45.5 36.8,45.2 37.2,44.8 L37.2,49.1 L31.5,50.7 C31.3,50.8 31.2,51.1 31.3,51.4 C31.3,51.4 31.3,51.4 31.3,51.4 Z" id="Path" opacity="0.35"></path>
            </g>
            <g id="Group" transform="translate(470.000000, 301.000000)">
                <path d="M26.6,34.3 L0.4,34.3 C0.2,34.3 5.68434189e-14,34.1 5.68434189e-14,33.9 L5.68434189e-14,29.2 C5.68434189e-14,25.9 2.7,23.2 6,23.2 L10.3,23.2 C10.5,23.2 10.6,23.3 10.6,23.5 C10.7,24.2 11,24.9 11.6,25.3 C12.2,25.8 12.9,26 13.6,25.9 C14.9,25.8 15.9,24.8 16,23.5 C16,23.3 16.2,23.2 16.3,23.2 L20.6,23.2 C23.9,23.2 26.6,25.9 26.6,29.2 L26.6,33.9 C26.9,34.2 26.8,34.3 26.6,34.3 Z M0.7,33.6 L26.2,33.6 L26.2,29.3 L26.2,29.3 C26.2,26.4 23.8,24 20.9,24 L16.9,24 C16.6,25.5 15.4,26.6 13.9,26.7 C13,26.8 12.1,26.5 11.4,26 C10.8,25.5 10.3,24.8 10.2,24 L6.2,24 C3.3,24 0.9,26.4 0.9,29.3 L0.9,33.6 L0.7,33.6 Z" id="Shape" fill="#FFFFFF"></path>
                <path d="M13.5,26.8 C13.4,26.8 13.2,26.8 13.1,26.8 C11.5,26.6 10.2,25.4 10,23.7 C10,23.6 10,23.4 10,23.3 L10,21.4 C10,21.3 10.1,21.2 10.1,21.1 C10.2,21 10.3,21 10.4,21.1 C12.3,21.8 14.4,21.8 16.4,21.1 C16.5,21.1 16.6,21.1 16.7,21.1 C16.8,21.2 16.8,21.3 16.8,21.4 L16.8,23.3 C16.8,23.4 16.8,23.6 16.8,23.7 C16.7,25.4 15.2,26.8 13.5,26.8 Z M10.7,21.9 L10.7,23.3 C10.7,23.4 10.7,23.5 10.7,23.6 C10.8,24.9 11.8,25.9 13.1,26 C14.6,26.2 16,25.1 16.1,23.6 C16.1,23.5 16.1,23.4 16.1,23.3 L16.1,21.9 C14.4,22.4 12.5,22.4 10.7,21.9 Z" id="Shape" fill="#FFFFFF"></path>
                <path d="M26.3,20.4 C26.2,20.4 26,20.4 25.9,20.3 C25.7,20.2 25.6,20 25.5,19.8 L25.5,19.7 L24.3,15.4 C24.2,15 24.4,14.5 24.9,14.4 L30,13 L31.5,18.4 L31.6,18.4 L31.6,18.9 L26.6,20.3 C26.4,20.4 26.3,20.4 26.3,20.4 Z M29.4,14 L25,15.2 C24.9,15.2 24.9,15.3 24.9,15.4 L26.1,19.7 C26.1,19.7 26.1,19.8 26.2,19.8 C26.2,19.8 26.3,19.8 26.3,19.8 L30.7,18.6 L29.4,14 Z" id="Shape" fill="#6FCFEE"></path>
                <polygon id="Path" fill="#FFFFFF" points="31.6 19.1 30.9 19.1 29.2 13.2 30 13.2 30 13.4"></polygon>
                <path d="M41.2,19.9 C41.2,19.9 41.2,19.9 41.2,19.9 L30.9,19 L30.8,18.8 L29.2,13.1 L29.6,13.1 L37.6,7.3 C37.8,7.2 38,7.1 38.2,7.2 C38.4,7.2 38.6,7.3 38.7,7.5 C38.8,7.6 38.8,7.7 38.8,7.7 L41.9,18.9 C42,19.3 41.8,19.7 41.4,19.8 C41.3,19.9 41.3,19.9 41.2,19.9 Z M31.4,18.4 L41.2,19.2 C41.2,19.2 41.2,19.2 41.2,19.2 C41.2,19.2 41.2,19.2 41.2,19.2 L38.1,8 C38.1,8 38.1,8 38,8 L30.1,13.8 L31.4,18.4 Z" id="Shape" fill="#6FCFEE"></path>
                <path d="M28.9,24.2 C28.8,24.2 28.6,24.2 28.5,24.1 C28.3,24 28.2,23.8 28.1,23.6 L27,19.6 L30,18.8 L31.1,22.8 C31.2,23 31.1,23.2 31,23.4 C30.9,23.6 30.7,23.7 30.5,23.8 L30.5,23.8 L29.1,24.2 C29,24.1 29,24.2 28.9,24.2 Z M27.8,20 L28.7,23.3 C28.7,23.4 28.7,23.4 28.8,23.4 C28.8,23.4 28.9,23.4 28.9,23.4 L30.3,23 C30.3,23 30.4,23 30.4,22.9 C30.4,22.9 30.4,22.8 30.4,22.8 L29.5,19.5 L27.8,20 Z" id="Shape" fill="#6FCFEE"></path>
                <path d="M40.7,17.1 L38.7,9.9 L39.2,9.9 C40.9,9.9 42.4,11 42.8,12.6 L42.8,12.6 C43.3,14.2 42.6,15.9 41.1,16.8 L40.7,17.1 Z M39.6,10.7 L41.1,16 C42,15.2 42.4,14 42.1,12.9 L42.1,12.9 C41.7,11.7 40.8,10.9 39.6,10.7 Z" id="Shape" fill="#6FCFEE"></path>
                <path d="M13.5,22.3 C12.4,22.3 11.3,22.1 10.3,21.7 C6.8,20.5 4.4,17.4 3.9,13.7 C3.9,13.6 3.9,13.4 4,13.4 C4.1,13.3 4.2,13.3 4.4,13.4 C4.4,13.4 4.5,13.4 4.6,13.4 C5,13.5 5.5,13.2 5.9,12.6 C6.4,12 6.7,11 6.9,10 C6.9,10 6.9,10 6.9,10 C6.9,10 6.9,10 6.9,10 C6.9,10 6.9,10 6.9,9.9 C7,9.5 7.4,8 8,7.2 C8.1,7.1 8.2,7 8.3,6.9 C8.4,6.8 8.5,6.8 8.6,6.9 C8.8,7 9,7 9.2,7.1 C9.2,7.1 9.2,7.1 9.2,7.1 L9.2,7.1 C9.4,7.2 9.6,7.2 9.9,7.3 L9.9,7.3 C10,7.3 10,7.3 10.1,7.3 C10.3,7.4 10.5,7.4 10.7,7.4 C10.8,7.4 10.8,7.4 10.9,7.4 C11.2,7.5 11.5,7.5 11.8,7.5 C11.9,7.5 12,7.5 12.2,7.5 C12.4,7.5 12.7,7.5 12.9,7.5 C13,7.5 13,7.5 13.1,7.5 L13.2,7.5 C13.6,7.5 14,7.5 14.4,7.5 C16.7,7.4 18.8,6.9 20.3,6.1 C20.4,6 20.6,6.1 20.7,6.2 C21.8,7.5 22.6,9.2 22.8,10.9 C22.8,10.9 22.8,11 22.8,11 C22.9,11.5 22.9,11.9 22.9,12.4 C22.9,12.4 22.9,12.4 22.9,12.4 C22.9,16.5 20.3,20.1 16.5,21.5 C15.6,22.1 14.6,22.3 13.5,22.3 Z M4.6,14.1 C5.1,17.3 7.3,19.9 10.4,21 C12.3,21.7 14.4,21.7 16.4,21 C20,19.7 22.4,16.3 22.4,12.6 C22.4,12.2 22.4,11.8 22.3,11.4 C22.3,11.4 22.3,11.3 22.3,11.3 C22.1,9.8 21.5,8.3 20.5,7.1 C18.9,7.9 16.8,8.4 14.5,8.5 C14.1,8.5 13.6,8.5 13.2,8.5 L13.1,8.5 C13,8.5 13,8.5 12.9,8.5 C12.7,8.5 12.4,8.5 12.1,8.4 C12,8.4 11.9,8.4 11.7,8.4 C11.4,8.4 11.1,8.3 10.7,8.3 C10.6,8.3 10.5,8.3 10.5,8.3 C10.3,8.3 10.1,8.2 9.9,8.2 C9.8,8.2 9.8,8.2 9.7,8.1 L9.7,8.1 C9.5,8 9.2,8 9,7.9 C9,7.9 9,7.9 9,7.9 L9,7.9 C8.8,7.8 8.7,7.8 8.6,7.7 C8.6,7.7 8.6,7.7 8.6,7.8 C8.1,8.4 7.7,9.7 7.7,10.2 C7.7,10.2 7.7,10.3 7.7,10.3 C7.5,11.4 7.1,12.4 6.6,13.2 C5.9,13.8 5.3,14.1 4.6,14.1 C4.6,14.1 4.6,14.1 4.6,14.1 Z" id="Shape" fill="#FFFFFF"></path>
                <path d="M4.7,14.1 C4.6,14.1 4.5,14.1 4.5,14.1 C4.4,14.1 4.3,14 4.2,14 C3.1,13.5 2.5,11.6 2.9,9.4 C3.2,8 3.8,6.7 4.5,5.5 C5.1,4.5 5.9,3.5 6.7,2.7 C8.2,1.3 11.1,0.3 14.3,0.2 C19.2,5.27355937e-16 23.2,1.7 23.3,4 C23.3,4 23.3,4 23.3,4 C23.3,5.1 22.5,6.2 20.9,7.1 C19.3,8 17.1,8.5 14.7,8.6 C14.3,8.6 13.8,8.6 13.4,8.6 L13.3,8.6 C13.2,8.6 13.2,8.6 13.1,8.6 C12.9,8.6 12.6,8.6 12.3,8.5 C12.2,8.5 12.1,8.5 11.9,8.5 C11.6,8.5 11.3,8.4 10.9,8.4 C10.8,8.4 10.7,8.4 10.7,8.4 C10.5,8.4 10.3,8.3 10.1,8.3 C10,8.3 10,8.3 9.9,8.2 C9.9,8.2 9.9,8.2 9.9,8.2 C9.7,8.1 9.4,8.1 9.2,8 C9.2,8 9.2,8 9.2,8 L9.2,8 C9,7.9 8.9,7.9 8.8,7.8 C8.8,7.8 8.8,7.8 8.8,7.9 C8.4,8.5 8,9.8 7.9,10.3 C7.9,10.3 7.9,10.4 7.9,10.4 C7.7,11.5 7.3,12.5 6.8,13.3 C5.9,13.8 5.3,14.1 4.7,14.1 Z M14.9,0.8 C14.7,0.8 14.4,0.8 14.1,0.8 C11.1,0.9 8.2,1.8 6.9,3.1 C6.1,3.9 5.4,4.8 4.8,5.8 C4.1,7 3.6,8.2 3.3,9.5 C3,11.5 3.5,13.1 4.2,13.4 C4.3,13.4 4.3,13.4 4.4,13.5 C4.8,13.6 5.3,13.3 5.7,12.7 C6.2,12.1 6.5,11.1 6.7,10.1 C6.7,10.1 6.7,10.1 6.7,10 C6.8,9.6 7.2,8.1 7.8,7.3 C7.9,7.2 8,7.1 8.1,7 C8.2,6.9 8.3,6.9 8.4,7 C8.6,7.1 8.8,7.1 9,7.2 C9,7.2 9,7.2 9,7.2 L9,7.2 C9.2,7.3 9.4,7.3 9.7,7.4 C9.8,7.4 9.9,7.4 9.9,7.5 C10.1,7.5 10.3,7.6 10.5,7.6 C10.6,7.6 10.6,7.6 10.7,7.6 C11,7.7 11.3,7.7 11.6,7.7 C11.7,7.7 11.8,7.7 12,7.7 C12.3,7.7 12.5,7.7 12.7,7.7 C12.8,7.7 12.8,7.7 12.9,7.7 L13,7.7 C13.4,7.7 13.8,7.7 14.2,7.7 C16.5,7.6 18.6,7.1 20.1,6.3 C21.4,5.6 22.1,4.7 22.1,3.9 L22.1,3.9 C22.3,2.2 19,0.8 14.9,0.8 Z" id="Shape" fill="#FFFFFF"></path>
            </g>
            <g id="Group" transform="translate(351.000000, 303.000000)">
                <path d="M4,5.3 C4,3.6 4,1.9 4,0.2 C4,0 4.1,0 4.2,0 C5.5,0 6.7,0.1 8,0.4 C9,0.6 9.9,0.9 10.8,1.2 C12,1.6 13.1,2.2 14.2,2.9 C14.9,3.4 15.6,3.9 16.3,4.4 C17,5 17.6,5.6 18.2,6.3 C18.5,6.7 18.9,7.1 19.2,7.5 C20.1,8.6 20.8,9.9 21.4,11.2 C21.9,12.4 22.3,13.6 22.6,14.9 C22.8,15.7 22.9,16.6 22.9,17.4 C22.9,17.8 22.9,18.1 22.9,18.5 C22.9,18.7 22.8,18.7 22.7,18.7 C21,18.7 19.3,18.7 17.6,18.7 C17.6,18.5 17.6,18.3 17.6,18.1 C17.6,16.8 17.3,15.6 16.9,14.4 C16.2,12.5 15.2,10.8 13.7,9.3 C12.5,8.1 11.1,7.2 9.6,6.5 C7.8,5.7 5.9,5.3 4,5.3 Z" id="Path" fill="#C7ECF7"></path>
                <path d="M4,5.3 C5.9,5.3 7.8,5.7 9.6,6.5 C11.1,7.2 12.5,8.1 13.7,9.3 C15.1,10.7 16.2,12.4 16.9,14.4 C17.3,15.6 17.6,16.8 17.6,18.1 C17.6,18.3 17.6,18.5 17.6,18.7 C17.5,18.8 17.4,18.7 17.3,18.7 C15.3,18.7 13.2,18.7 11.2,18.7 C11,18.7 10.9,18.6 10.9,18.4 C10.8,16.5 10.1,14.8 8.7,13.5 C7.7,12.6 6.5,12 5.2,11.8 C4.8,11.7 4.5,11.7 4.1,11.7 C4,11.7 3.9,11.7 3.9,11.5 C4,9.5 4,7.4 4,5.3 Z" id="Path" fill="#3FA2DA"></path>
                <path d="M3.8,22.2 C1.9,22.3 0.3,20.5 0.3,18.8 C0.3,17.1 1.7,15.3 3.8,15.2 C5.7,15.2 7.4,16.8 7.4,18.7 C7.3,20.7 5.6,22.3 3.8,22.2 Z" id="Path" fill="#7A38A0"></path>
            </g>
        </g>
    </g>
</svg>