<?xml version="1.0" encoding="utf-8"?>
<!-- Generator: Adobe Illustrator 24.1.3, SVG Export Plug-In . SVG Version: 6.00 Build 0)  -->
<svg version="1.1" id="Layer_1" xmlns="http://www.w3.org/2000/svg" xmlns:xlink="http://www.w3.org/1999/xlink" x="0px" y="0px"
	 viewBox="0 0 1038.95 651.8" style="enable-background:new 0 0 1038.95 651.8;" xml:space="preserve">
<style type="text/css">
	.st0{fill:#2E2E2E;}
	.st1{fill:#7A38A0;}
	.st2{fill:#6FCFEE;}
	.st3{fill:#FFFFFF;}
	.st4{opacity:0.4;fill:#FFFFFF;enable-background:new    ;}
	.st5{opacity:0.25;fill:#FFFFFF;enable-background:new    ;}
	.st6{opacity:0.6;fill:#FFFFFF;enable-background:new    ;}
	.st7{opacity:0.8;fill:#FFFFFF;enable-background:new    ;}
	.st8{opacity:0.35;fill:#FFFFFF;enable-background:new    ;}
	.st9{fill:#C7ECF7;}
	.st10{fill:#3FA2DA;}
</style>
<g>
	<path class="st0" d="M123.6,358.76c0,28.8-23.28,48.72-52.32,48.72H0v-168h66.24c28.32,0,51.12,19.2,51.12,47.28
		c0,14.4-6,25.68-15.84,33.6C114.96,328.04,123.6,341.24,123.6,358.76z M33.12,270.44v36.96h33.12c10.32,0,18-7.92,18-18.48
		c0-10.56-7.44-18.48-18-18.48H33.12z M90.72,356.6c0-11.28-8.16-19.68-19.44-19.68H33.12v39.6h38.16
		C82.56,376.52,90.72,368.12,90.72,356.6z"/>
	<path class="st0" d="M253.92,375.8v31.68H150v-168h102.72v31.68h-69.6v35.76h63.6v31.2h-63.6v37.68H253.92z"/>
	<path class="st0" d="M382.56,377.24H315.6l-10.08,30.24h-35.76l58.8-168h41.04l59.04,168h-36L382.56,377.24z M372.24,346.28
		l-23.04-68.64l-23.04,68.64H372.24z"/>
	<path class="st0" d="M436.08,323.48c0-49.2,36.48-87.36,87.36-87.36c30.72,0,57.84,15.6,72.24,39.6l-28.56,16.56
		c-8.16-14.88-24.48-24-43.68-24c-32.88,0-54.48,22.8-54.48,55.2c0,32.16,21.6,54.96,54.48,54.96c19.2,0,35.76-9.12,43.68-23.76
		l28.56,16.56c-14.16,24-41.28,39.6-72.24,39.6C472.56,410.84,436.08,372.44,436.08,323.48z"/>
	<path class="st0" d="M611.52,323.48c0-49.2,38.64-87.36,87.12-87.36c48.48,0,87.36,38.16,87.36,87.36
		c0,48.96-38.88,87.36-87.36,87.36C650.16,410.84,611.52,372.44,611.52,323.48z M752.88,323.48c0-32.4-23.76-55.2-54.24-55.2
		s-54.24,22.8-54.24,55.2c0,32.16,23.76,54.96,54.24,54.96S752.88,355.64,752.88,323.48z"/>
	<path class="st0" d="M944.4,239.48v168h-25.2l-72-102.72v102.72h-33.12v-168h25.2l72,102.48V239.48H944.4z"/>
</g>
<path class="st1" d="M745.94,475.2l-0.3-1c29-9.1,54.8-26.4,74.1-49.9l0.8,0.7C801.04,448.6,775.14,466,745.94,475.2z"/>
<path class="st1" d="M583.94,216.7l-0.8-0.7c50.4-53.7,131.3-65.5,195-28.5l-0.5,0.9C714.34,151.5,633.94,163.2,583.94,216.7
	L583.94,216.7z"/>
<path class="st1" d="M561.04,402.6c-28.9-50.8-27.5-113.4,3.7-162.8l0.9,0.6c-31,49.1-32.4,111.3-3.6,161.7L561.04,402.6z"/>
<path class="st1" d="M698.54,482.4c-44.3,0.1-86.6-18.5-116.5-51.2l0.8-0.7c29.7,32.5,71.7,50.9,115.8,50.9c6.9,0,13.8-0.5,20.7-1.4
	l0.1,1C712.44,481.9,705.44,482.4,698.54,482.4z"/>
<path class="st2" d="M541.54,133.8l-0.4-0.5c81.1-66.9,195.7-75.2,285.6-20.8l-0.4,0.6C736.64,58.7,622.34,67,541.54,133.8z"/>
<path class="st2" d="M492.14,460.9c-26.9-40.5-41.2-88.1-41.1-136.7c0-8.2,0.4-16.5,1.2-24.7l0.7,0.1c-0.8,8.1-1.2,16.4-1.2,24.6
	c-0.1,48.5,14.2,95.9,41,136.3L492.14,460.9z"/>
<path class="st2" d="M678.94,571c-66.5-5.2-128-37.1-170.6-88.3l0.5-0.5c42.5,51.1,103.9,82.9,170.2,88.1L678.94,571z"/>
<path class="st2" d="M907.74,456.4l-0.6-0.4c45.9-72.6,50.7-163.9,12.8-240.9c-16.2-32.7-39.5-61.5-68-84.3l0.4-0.6
	c28.7,22.8,52,51.7,68.2,84.5c8.2,16.7,14.5,34.2,18.8,52.3C954.64,331.9,943.24,400.1,907.74,456.4z"/>
<path class="st1" d="M385.64,421.6c-46.2-148.7,18.5-309.4,154.9-384.4l0.5,0.9c-50.4,27.8-92.6,68.4-122.4,117.7
	c-48,79.9-59.7,176.5-32.1,265.5L385.64,421.6z"/>
<path class="st1" d="M698.54,651.8c-33.1,0-65.9-4.9-97.5-14.8l0.3-1c109,34,227.8,8.6,313.3-67.1l0.7,0.8
	C855.54,622.7,778.34,651.9,698.54,651.8L698.54,651.8z"/>
<path class="st1" d="M1016.94,251.7c-13.2-57.8-41.8-110.9-82.9-153.7l0.8-0.7c41.2,42.9,70,96.2,83.2,154.1L1016.94,251.7z"/>
<circle class="st1" cx="500.14" cy="174.6" r="41.8"/>
<circle class="st1" cx="430.64" cy="513" r="48.8"/>
<circle class="st1" cx="963.64" cy="515.5" r="48.8"/>
<circle class="st1" cx="743.54" cy="568.9" r="43.9"/>
<circle class="st1" cx="886.94" cy="56.8" r="48.8"/>
<path class="st2" d="M883.74,105.9c-27.1,0-49.1-22-49.1-49.1s22-49.1,49.1-49.1s49.1,22,49.1,49.1S910.74,105.9,883.74,105.9z
	 M883.74,8.4c-26.7,0-48.4,21.7-48.4,48.4s21.7,48.4,48.4,48.4c26.7,0,48.4-21.7,48.4-48.4S910.44,8.4,883.74,8.4L883.74,8.4z"/>
<circle class="st1" cx="856.14" cy="324.2" r="34.7"/>
<circle class="st1" cx="458.04" cy="266.4" r="14.8"/>
<circle class="st1" cx="820.04" cy="223.4" r="14.8"/>
<circle class="st2" cx="568.34" cy="624.4" r="14.8"/>
<ellipse class="st2" cx="1024.15" cy="286.98" rx="14.8" ry="14.8"/>
<circle class="st2" cx="591.64" cy="14.8" r="14.8"/>
<g>
	<path class="st3" d="M448.74,526.7h-35.5c-0.2,0-0.4-0.2-0.4-0.4V520c0-2.2,0.8-4.2,2.4-5.7c1.5-1.5,3.5-2.4,5.7-2.4l0,0h5.9
		c0.2,0,0.3,0.1,0.3,0.3c0.2,2.1,2.1,3.6,4.3,3.4c1.8-0.2,3.2-1.6,3.4-3.4c0-0.2,0.2-0.3,0.3-0.3h5.9l0,0c1.9,0,3.7,0.7,5.2,1.9
		c0.1,0.1,0.2,0.3,0.1,0.5l-3.1,5.1c-0.1,0.2-0.1,0.6,0.2,0.7l0.4,0.2c0.1,0.1,0.3,0.1,0.4,0.1s0.3-0.1,0.3-0.2l2.7-4.5
		c0.1-0.1,0.2-0.2,0.3-0.2l0,0c0.1,0,0.2,0.1,0.3,0.2c0.8,1.3,1.2,2.8,1.2,4.3v6.3C449.14,526.6,448.94,526.7,448.74,526.7z
		 M413.54,526h34.9v-6l0,0c0-1.2-0.3-2.4-0.8-3.4l-2.4,3.9l0,0c-0.2,0.3-0.4,0.4-0.7,0.5c-0.3,0.1-0.7,0-0.9-0.1l-0.4-0.2
		c-0.6-0.4-0.8-1.1-0.4-1.7l2.9-4.8c-1.3-1-2.9-1.6-4.5-1.6l0,0h-5.6c-0.4,2-2,3.5-4,3.7c-2.4,0.3-4.6-1.4-5-3.7h-5.6l0,0
		c-2,0-3.8,0.8-5.2,2.2s-2.2,3.2-2.2,5.2v6H413.54z"/>
	<path class="st3" d="M430.94,516.5c-0.2,0-0.3,0-0.5,0c-2.1-0.2-3.8-1.9-4-4c0-0.2,0-0.3,0-0.5v-2.5c0-0.1,0.1-0.2,0.1-0.3
		c0.1-0.1,0.2-0.1,0.3,0c2.6,0.9,5.5,0.9,8.2,0c0.2-0.1,0.5,0.1,0.5,0.3v2.5c0,0.2,0,0.3,0,0.5
		C435.24,514.7,433.24,516.5,430.94,516.5z M427.14,509.9v2c0,0.1,0,0.3,0,0.4c0.2,1.8,1.6,3.2,3.4,3.4c2.1,0.2,4-1.3,4.3-3.4
		c0-0.1,0-0.3,0-0.4v-2C432.34,510.7,429.64,510.7,427.14,509.9z"/>
	<path class="st3" d="M430.94,510.5c-7.2,0-13-5.8-13-13c0-0.7,0.1-1.4,0.2-2v-0.1c0-0.1,0-0.2,0.1-0.3c0-0.2,0.2-0.3,0.3-0.3
		c4.4,0,8.5-1.8,10.7-4.5c0.7-0.8,1.1-1.7,1.4-2.8c0-0.2,0.2-0.3,0.3-0.3l0,0c0.2,0,0.3,0.1,0.3,0.3c0.3,1,0.8,1.9,1.4,2.7
		c2.2,2.8,6.3,4.5,10.6,4.6c0.2,0,0.3,0.1,0.3,0.3c0,0.2,0.1,0.3,0.1,0.5v0.1c0.1,0.6,0.1,1.2,0.1,1.8
		C443.94,504.7,438.14,510.5,430.94,510.5L430.94,510.5z M418.84,495.5c-0.1,0.7-0.2,1.4-0.2,2c0,6.8,5.5,12.3,12.3,12.3l0,0
		c6.8,0,12.3-5.5,12.3-12.3l0,0c0-0.5,0-1.1-0.1-1.6v-0.1c0-0.1,0-0.2,0-0.3c-4.5-0.1-8.6-1.9-10.9-4.8c-0.5-0.6-0.9-1.3-1.2-2
		c-0.3,0.7-0.7,1.4-1.2,2C427.44,493.6,423.44,495.4,418.84,495.5z"/>
	<path class="st3" d="M422.24,485.6L422.24,485.6c-0.2,0-0.3-0.1-0.3-0.2c-0.4-0.9-0.6-1.9-0.6-2.9c0-4.7,4.3-8.5,9.6-8.5
		s9.6,3.8,9.6,8.5l0,0c0,1-0.2,2-0.6,2.9c0,0.1-0.1,0.2-0.2,0.2c-0.1,0-0.2,0-0.3-0.1c-0.4-0.3-0.7-0.5-1.1-0.7
		c-2.1-1.2-4.4-1.9-6.9-2c-0.1,0-0.2,0-0.3,0h-0.1h-0.1c-0.2,0-0.3,0-0.5,0c-2.9,0.1-5.7,1-8,2.7
		C422.44,485.5,422.34,485.6,422.24,485.6z M430.94,474.6c-4.9,0-8.9,3.5-8.9,7.8c0,0.8,0.1,1.5,0.4,2.3c2.4-1.6,5.1-2.5,8-2.6
		c0.2,0,0.3,0,0.5,0c0.1,0,0.1,0,0.2,0c0.1,0,0.2,0,0.3,0c2.5,0.1,5,0.8,7.2,2.1c0.3,0.2,0.5,0.3,0.8,0.5c0.3-0.7,0.4-1.5,0.4-2.2
		l0,0C439.84,478.1,435.84,474.6,430.94,474.6z"/>
	<path class="st3" d="M418.44,495.5c-0.8,0-1.5-0.1-2.3-0.2c-0.2,0-0.3-0.2-0.3-0.3l0,0v-0.1c1.2-7.1,7.4-12.5,14.6-12.8
		c0.2,0,0.3,0,0.5,0c0.1,0,0.1,0,0.2,0c0.1,0,0.2,0,0.3,0c2.5,0.1,5,0.8,7.2,2.1c0.4,0.2,0.8,0.5,1.2,0.8c3.3,2.3,5.6,6,6.2,10
		c0,0.1,0,0.2-0.1,0.3c-0.1,0.1-0.1,0.1-0.2,0.1c-0.8,0.1-1.5,0.2-2.3,0.2h-0.1c-4.6,0-8.8-1.8-11.2-4.8c-0.5-0.6-0.9-1.3-1.2-2
		c-0.3,0.7-0.7,1.4-1.2,2C427.44,493.7,423.24,495.5,418.44,495.5L418.44,495.5C418.54,495.5,418.54,495.5,418.44,495.5z
		 M443.54,494.8c0.6,0,1.2,0,1.8-0.1c-0.7-3.7-2.8-7-5.9-9.2c-0.4-0.3-0.7-0.5-1.1-0.7c-2.1-1.2-4.4-1.9-6.9-2c-0.1,0-0.2,0-0.3,0
		h-0.1h-0.1c-0.2,0-0.3,0-0.5,0c-6.8,0.2-12.6,5.2-13.9,11.9c0.6,0.1,1.3,0.1,1.9,0.1l0,0c4.4,0,8.5-1.8,10.7-4.5
		c0.7-0.8,1.1-1.7,1.4-2.8c0-0.2,0.2-0.3,0.3-0.3l0,0c0.2,0,0.3,0.1,0.3,0.3c0.3,1,0.8,1.9,1.4,2.7c2.2,2.8,6.3,4.5,10.6,4.6H443.54
		z"/>
	<path class="st2" d="M453.24,511.4c-3.7,0-6.8-3.1-6.8-6.8c0-3.7,3.1-6.8,6.8-6.8c3.7,0,6.8,3.1,6.8,6.8S456.94,511.4,453.24,511.4
		z M453.24,498.5c-3.4,0-6.1,2.7-6.1,6.1s2.7,6.1,6.1,6.1s6.1-2.7,6.1-6.1S456.54,498.5,453.24,498.5z"/>
	<path class="st2" d="M444.14,521.2c-0.2,0-0.4-0.1-0.6-0.2l0,0l-0.4-0.2c-0.6-0.4-0.8-1.1-0.4-1.7l5.1-8.4c0.2-0.3,0.5-0.5,0.9-0.6
		h0.3c0.6-0.1,1.1,0.3,1.3,0.8l0.1,0.3c0.1,0.4,0.1,0.7-0.1,1l-5.1,8.4c-0.2,0.3-0.4,0.5-0.8,0.6
		C444.34,521.2,444.24,521.2,444.14,521.2z M443.84,520.4c0.1,0.1,0.3,0.1,0.4,0.1s0.3-0.1,0.3-0.2l5.1-8.4l0,0
		c0.1-0.1,0.1-0.3,0-0.4l-0.1-0.3c-0.1-0.2-0.3-0.4-0.6-0.4h-0.3c-0.2,0-0.3,0.1-0.4,0.3l-5.1,8.4c-0.1,0.2-0.1,0.6,0.2,0.7
		L443.84,520.4L443.84,520.4z"/>
</g>
<g>
	<path class="st3" d="M746.34,573.9c-0.1,0-0.1,0-0.2,0c-0.1-0.1-0.2-0.1-0.3-0.2c-0.1-0.1-0.1-0.2-0.1-0.3v-0.1
		c0-0.1,0.1-0.3,0.2-0.3c0.1-0.1,0.3,0,0.4,0.1s0.1,0.1,0.2,0.2c0.1,0.1,0.2,0.3,0.1,0.5C746.54,573.8,746.44,573.9,746.34,573.9z"
		/>
	<path class="st3" d="M746.04,575.9h-26.8c-0.2,0-0.4-0.2-0.4-0.4v-6.4c0-4.5,3.7-8.2,8.2-8.2h6c0.2,0,0.3,0.1,0.3,0.3
		c0.2,2.2,2.2,3.7,4.4,3.5c1.8-0.2,3.3-1.6,3.5-3.5c0-0.2,0.2-0.3,0.3-0.3h6l0,0c2.2,0,4.2,0.9,5.8,2.4c0.2,0.2,0.4,0.5,0.6,0.7
		c0.1,0.1,0.1,0.2,0,0.4c-0.1,0.1-0.2,0.2-0.3,0.2h-7.4c-0.3,0-0.6,0.2-0.6,0.5v6.9c0,0.4,0.2,0.8,0.5,1.1c0.1,0.1,0.1,0.2,0.1,0.3
		v2.2C746.44,575.7,746.24,575.9,746.04,575.9z M719.64,575.2h26.1v-1.6c-0.4-0.4-0.7-0.9-0.7-1.5v-6.9c0-0.7,0.6-1.2,1.3-1.2l0,0
		h6.7c0,0,0,0-0.1-0.1c-1.4-1.4-3.3-2.2-5.3-2.2l0,0h-5.7c-0.4,2-2,3.6-4.1,3.8c-1.2,0.1-2.4-0.2-3.4-1c-0.9-0.7-1.5-1.7-1.7-2.8
		h-5.7c-4.1,0-7.5,3.4-7.5,7.5v6H719.64z"/>
	<path class="st3" d="M737.44,565.4c-0.2,0-0.3,0-0.5,0c-2.2-0.2-3.9-1.9-4.1-4.1c0-0.2,0-0.3,0-0.5v-2.6c0-0.1,0.1-0.2,0.1-0.3
		c0.1-0.1,0.2-0.1,0.3,0c2.7,1,5.7,1,8.3,0c0.1,0,0.2,0,0.3,0c0.1,0.1,0.1,0.2,0.1,0.3v2.6c0,0.2,0,0.3,0,0.5
		c-0.1,1.2-0.7,2.3-1.7,3.1C739.44,565,738.44,565.4,737.44,565.4z M733.44,558.6v2.2c0,0.1,0,0.3,0,0.4c0.2,1.8,1.6,3.3,3.5,3.5
		c1,0.1,2.1-0.2,2.9-0.8c0.8-0.7,1.3-1.6,1.5-2.6c0-0.1,0-0.3,0-0.4v-2.2C738.74,559.4,736.04,559.4,733.44,558.6z"/>
	<path class="st3" d="M737.44,559.2c-7.3,0-13.2-5.9-13.2-13.1V546c0-0.7,0.1-1.5,0.2-2.2c0-0.2,0.2-0.3,0.4-0.3
		c2.1,0.1,4.3-0.1,6.4-0.6c0,0,0,0,0.1,0c2.4-0.5,4.7-1.3,6.9-2.5c0,0,0,0,0.1,0l0,0c0.3-0.2,0.7-0.4,1-0.6c0,0,0.1,0,0.1-0.1l0,0
		c0.7-0.4,1.3-0.9,1.9-1.4c0.1-0.1,0.3-0.1,0.5,0c1.6,1.5,3.3,2.8,5.1,3.8c1.1,0.6,2.2,1.2,3.4,1.7l0,0c0.1,0,0.2,0.1,0.2,0.3
		c0.1,0.6,0.1,1.3,0.1,1.9C750.64,553.2,744.74,559.2,737.44,559.2L737.44,559.2z M725.04,544.2c-0.1,0.6-0.1,1.2-0.1,1.8v0.1
		c0,6.9,5.6,12.4,12.5,12.4c0,0,0,0,0.1,0c6.9,0,12.5-5.7,12.4-12.6l0,0c0-0.5,0-1.1-0.1-1.6c-1.2-0.5-2.3-1-3.4-1.7
		c-1.8-1-3.5-2.3-5.1-3.7c-0.6,0.5-1.1,0.9-1.8,1.3l0,0c-0.4,0.2-0.8,0.5-1.1,0.7l0,0c-2.2,1.2-4.6,2.1-7.1,2.6l0,0
		C729.14,544,727.04,544.2,725.04,544.2z"/>
	<path class="st3" d="M750.14,544.5h-0.1c-1.2-0.5-2.4-1.1-3.6-1.7c-1.9-1.1-3.7-2.4-5.3-3.9c-0.1-0.1-0.1-0.3-0.1-0.4
		c0-0.1,0.1-0.2,0.2-0.2c0.1-0.1,0.3,0,0.4,0.1c1.6,1.5,3.3,2.8,5.2,3.8c1.1,0.6,2.3,1.2,3.5,1.7c0.1,0.1,0.2,0.2,0.2,0.3l0,0
		c0,0.1-0.1,0.2-0.2,0.3C750.24,544.5,750.14,544.5,750.14,544.5z"/>
	<path class="st3" d="M750.14,544.5h-0.1c-1.2-0.5-2.4-1.1-3.6-1.7c-1.8-1-3.5-2.3-5.1-3.7c-0.6,0.5-1.1,0.9-1.8,1.3l0,0
		c-0.4,0.2-0.7,0.5-1.1,0.7c0,0,0,0-0.1,0c-4.2,2.2-8.9,3.3-13.7,3.2c-0.1,0-0.2,0-0.3-0.1c-0.1-0.1-0.1-0.2-0.1-0.3
		c1.1-6.4,6.6-11,13-11c0.1,0,0.1,0,0.2,0c2.3,0,4.5,0.6,6.5,1.8c3.5,2,5.8,5.5,6.4,9.5c0,0,0,0,0,0.1l0,0c0,0.1-0.1,0.2-0.2,0.3
		C750.24,544.5,750.14,544.5,750.14,544.5z M741.34,538.2c0.1,0,0.2,0,0.2,0.1c1.6,1.5,3.3,2.8,5.1,3.8c0.9,0.5,1.9,1,2.9,1.5
		c-0.7-3.5-2.8-6.6-6-8.4c-1.9-1.1-4-1.7-6.2-1.7c-0.1,0-0.1,0-0.1,0c-6,0-11.1,4.2-12.3,10c0.1,0,0.1,0,0.2,0
		c4.5,0,8.8-1.1,12.8-3.1c0,0,0,0,0.1,0l0,0c0.3-0.2,0.7-0.4,1.1-0.6h0.1l0,0c0.7-0.4,1.3-0.9,1.9-1.4
		C741.24,538.2,741.24,538.2,741.34,538.2z"/>
	<path class="st2" d="M764.64,564.5h-11.8v-1.3c0-1.3,1.1-2.3,2.3-2.3h7.1c1.3,0,2.3,1.1,2.3,2.3v1.3H764.64z M753.54,563.8h10.3
		v-0.6c0-0.9-0.7-1.6-1.6-1.6h-7.1c-0.9,0-1.6,0.7-1.6,1.6L753.54,563.8L753.54,563.8z"/>
	<path class="st2" d="M770.14,582.6h-22.9c-0.8,0-1.5-0.9-1.5-1.9v-8l0.6,0.4c0.1,0,0.1,0.1,0.2,0.1h0.1c0.2,0.2,0.4,0.2,0.7,0.2
		h10.9v0.9c0,0.3,0.3,0.6,0.6,0.6c0.2,0,0.3-0.1,0.4-0.2c0.1-0.1,0.2-0.3,0.2-0.4v-0.9h10.9c0.2,0,0.5-0.1,0.7-0.2l0,0
		c0.1,0,0.1-0.1,0.2-0.1l0.6-0.4v8C771.74,581.7,771.04,582.6,770.14,582.6z M746.44,574v6.7c0,0.7,0.4,1.2,0.8,1.2h22.9
		c0.4,0,0.8-0.5,0.8-1.2V574c-0.2,0.1-0.5,0.2-0.8,0.2h-10.2v0.2c0,0.3-0.1,0.7-0.4,0.9c-0.2,0.2-0.6,0.4-0.9,0.4
		c-0.7,0-1.3-0.6-1.3-1.3v-0.2h-10.2C746.94,574.2,746.64,574.1,746.44,574z"/>
	<path class="st2" d="M746.14,573.8c-0.1-0.1-0.2-0.1-0.3-0.2l-0.1-0.1v-1.1l0.6,0.6c0.1,0.1,0.1,0.1,0.2,0.2L746.14,573.8z"/>
	<path class="st2" d="M771.24,573.8l-0.4-0.6c0.1-0.1,0.1-0.1,0.2-0.2l0.6-0.6v1.1l-0.1,0.1C771.44,573.7,771.34,573.8,771.24,573.8
		z"/>
	<path class="st2" d="M759.64,574.2h-0.4v-0.8c0-0.2-0.1-0.3-0.2-0.4c-0.1-0.1-0.3-0.2-0.4-0.2c-0.3,0-0.6,0.3-0.6,0.6v0.8h-10.9
		c-0.3,0-0.6-0.1-0.8-0.2v0.1l-0.6-0.4c-0.5-0.4-0.8-1-0.8-1.6v-6.9c0-0.7,0.6-1.2,1.3-1.2l0,0h24.7c0.7,0,1.3,0.5,1.3,1.2v7
		c0,0.6-0.3,1.2-0.8,1.6l-0.6,0.4V574c-0.2,0.1-0.5,0.2-0.8,0.2H759.64z M745.84,572.5l0.5,0.5c0.1,0.1,0.1,0.1,0.2,0.2
		c0.2,0.2,0.5,0.2,0.7,0.2h10.2v-0.1c0-0.7,0.6-1.3,1.3-1.3c0.4,0,0.7,0.1,0.9,0.4c0.2,0.2,0.4,0.6,0.4,0.9v0.1h10.2
		c0.2,0,0.5-0.1,0.7-0.2c0.1-0.1,0.1-0.1,0.2-0.2l0.5-0.5c0.1-0.2,0.1-0.4,0.1-0.5v-6.9c0-0.3-0.3-0.6-0.6-0.5h-24.8
		c-0.3,0-0.6,0.2-0.6,0.5v6.9C745.74,572.2,745.84,572.4,745.84,572.5z"/>
	<path class="st2" d="M746.14,573.8c-0.1-0.1-0.2-0.1-0.3-0.2l-0.1-0.1v-1.1l0.6,0.6c0.1,0.1,0.1,0.1,0.2,0.2L746.14,573.8z"/>
	<path class="st2" d="M771.24,573.8l-0.4-0.6c0.1-0.1,0.1-0.1,0.2-0.2l0.6-0.6v1.1l-0.1,0.1C771.44,573.7,771.34,573.8,771.24,573.8
		z"/>
	<path class="st2" d="M758.74,575.7c-0.3,0-0.7-0.1-0.9-0.4c-0.2-0.2-0.4-0.6-0.4-0.9v-1c0-0.7,0.6-1.3,1.3-1.3
		c0.7,0,1.3,0.6,1.3,1.3v1C760.04,575.1,759.44,575.7,758.74,575.7L758.74,575.7z M758.74,572.8c-0.3,0-0.6,0.3-0.6,0.6v1
		c0,0.2,0.1,0.3,0.2,0.4c0.1,0.1,0.3,0.2,0.4,0.2c0.3,0,0.6-0.3,0.6-0.6v-1C759.34,573.1,759.04,572.8,758.74,572.8L758.74,572.8z"
		/>
</g>
<g>
	<path class="st3" d="M976.74,532.2h-31.8c-0.2,0-0.4-0.2-0.4-0.4v-6.7c0-4.7,3.8-8.5,8.5-8.5h6.2c0.2,0,0.3,0.1,0.3,0.3
		c0.2,2.2,2.3,3.9,4.5,3.6c1.9-0.2,3.4-1.7,3.6-3.6c0-0.2,0.2-0.3,0.3-0.3h6.2l0,0c2.6,0,5.1,1.2,6.7,3.3c0.1,0.1,0.1,0.2,0,0.3
		c0,0.1-0.2,0.2-0.3,0.2c-3.2,0.4-5.7,3.2-5.7,6.5l0,0c0,1.7,0.7,3.3,1.9,4.6c0.1,0.1,0.1,0.3,0.1,0.4
		C977.04,532.1,976.84,532.2,976.74,532.2z M945.24,531.5h30.7c-1-1.3-1.5-2.8-1.5-4.5c0-3.4,2.4-6.3,5.7-7.1
		c-1.5-1.6-3.6-2.6-5.8-2.6l0,0h-5.9c-0.4,2.1-2.1,3.7-4.2,3.9c-2.5,0.3-4.8-1.5-5.2-3.9h-5.9c-4.3,0-7.8,3.5-7.8,7.8v6.4H945.24z"
		/>
	<path class="st3" d="M963.64,521.3c-0.2,0-0.4,0-0.5,0c-2.2-0.2-4-2-4.2-4.2c0-0.1,0-0.2,0-0.3l0,0c0-0.1,0-0.2,0-0.2v-2.7
		c0-0.1,0.1-0.2,0.1-0.3c0.1-0.1,0.2-0.1,0.3,0c2.8,1,5.8,1,8.6,0h0.1l0,0c0.2,0,0.3,0.1,0.3,0.3v0.1v2.7c0,0.1,0,0.1,0,0.2l0,0
		c0,0.1,0,0.2,0,0.3C968.14,519.5,966.14,521.3,963.64,521.3z M959.64,514.3v2.3c0,0.1,0,0.1,0,0.2l0,0c0,0.1,0,0.2,0,0.2
		c0.2,1.9,1.7,3.4,3.6,3.6c2.2,0.2,4.3-1.4,4.5-3.6c0-0.1,0-0.2,0-0.2l0,0c0-0.1,0-0.1,0-0.2v-2.3
		C965.14,515.1,962.24,515.1,959.64,514.3z"/>
	<path class="st2" d="M981.64,534.3c-4,0-7.3-3.3-7.3-7.3c0-3.6,2.7-6.7,6.3-7.2c0.3,0,0.6-0.1,1-0.1c4,0,7.2,3.3,7.3,7.3l0,0
		C988.94,531.1,985.64,534.3,981.64,534.3z M981.64,520.5c-0.3,0-0.6,0-0.9,0.1c-3.2,0.4-5.7,3.2-5.7,6.5c0,3.6,2.9,6.5,6.5,6.5
		s6.5-2.9,6.5-6.5C988.24,523.5,985.34,520.5,981.64,520.5z"/>
	<g>
		<path class="st2" d="M982.04,530.6v0.9h-0.5v-0.9c-1.1,0-1.9-0.5-2.2-1.4l0.4-0.3c0.2,0.7,0.8,1.1,1.7,1.1v-2.9
			c-1-0.4-1.9-0.7-1.9-1.9c0-1,0.8-1.7,1.9-1.8v-0.9h0.5v0.9c0.8,0.1,1.4,0.5,1.7,1.2l-0.4,0.2c-0.2-0.5-0.7-0.9-1.3-1v2.8
			c1,0.4,1.9,0.7,1.9,1.9C983.94,529.8,983.14,530.5,982.04,530.6z M981.64,526.7V524c-0.8,0.1-1.3,0.6-1.3,1.3
			C980.24,526.1,980.84,526.4,981.64,526.7z M983.44,528.7c0-0.8-0.6-1.1-1.4-1.4v2.7C982.94,530,983.44,529.4,983.44,528.7
			L983.44,528.7z"/>
		<path class="st2" d="M982.24,531.6h-0.7v-0.9c-1.1-0.1-1.9-0.6-2.2-1.5v-0.1l0.7-0.4l0.1,0.2c0.2,0.6,0.7,1,1.5,1v-2.7
			c-0.9-0.3-1.9-0.7-1.9-2c0-1,0.8-1.8,1.9-1.9v-0.9h0.7v0.9c0.8,0.1,1.4,0.6,1.7,1.3v0.1l-0.7,0.4l-0.1-0.1c-0.2-0.5-0.6-0.8-1-0.9
			v2.5c1,0.4,1.9,0.8,1.9,2c0,1-0.8,1.8-1.9,2V531.6z M981.74,531.3h0.2v-0.9h0.1c1.1-0.1,1.8-0.8,1.8-1.7c0-1.1-0.8-1.4-1.8-1.8
			h-0.1v-3h0.1c0.6,0,1.1,0.4,1.3,0.9l0.2-0.1c-0.3-0.6-0.9-1-1.6-1h-0.1v-0.9h-0.2v0.9h-0.1c-1,0.1-1.7,0.7-1.7,1.6
			c0,1.1,0.7,1.4,1.8,1.8h0.1v3.1h-0.1c-0.9,0-1.5-0.4-1.8-1.1l-0.2,0.1c0.3,0.7,1,1.2,2,1.2h0.1V531.3z M981.94,530.2v-3.1l0.2,0.1
			c0.7,0.3,1.5,0.6,1.5,1.5l0,0l0,0c0,0.8-0.6,1.4-1.5,1.5H981.94z M982.24,527.5v2.4c0.7-0.1,1.1-0.6,1.1-1.2l0,0
			C983.34,528.1,982.94,527.8,982.24,527.5z M981.74,526.8l-0.2-0.1c-0.8-0.3-1.4-0.6-1.4-1.5c0-0.8,0.6-1.3,1.5-1.4h0.1
			L981.74,526.8L981.74,526.8z M981.44,524.2c-0.7,0.1-1.1,0.5-1.1,1.1s0.4,0.9,1.1,1.2V524.2z"/>
	</g>
	<path class="st3" d="M947.64,502.5c-0.1,0-0.1,0-0.2,0c-0.1-0.1-0.2-0.2-0.2-0.3c0-0.3,0-0.6,0-1c0-0.6,0-1.1,0.1-1.7
		c0-0.3,0.1-0.6,0.1-0.9v-0.1c0.7-3.9,2.7-7.4,5.7-9.9c0.8-0.7,1.7-1.3,2.7-1.9c0.2-0.1,0.3-0.2,0.5-0.3c0.6-0.3,1.1-0.5,1.7-0.7
		c1.8-0.7,3.7-1,5.7-1c0,0,0,0,0.1,0s0.1,0,0.2,0c1.9,0,3.7,0.4,5.5,1c0.9,0.3,1.8,0.7,2.6,1.2s1.6,1,2.3,1.7
		c2.9,2.4,4.8,5.8,5.6,9.5c0,0.1,0,0.3-0.2,0.4c-0.8,0.6-1.8,1-2.7,1.3c-4,1.2-9,0.4-13.4-2.3c-3-1.8-5.5-4.4-7.1-7.6
		c0-0.1-0.1-0.1-0.1-0.2c0,0.2-0.1,0.5-0.2,0.7c-0.2,1-0.5,2-0.9,3c-1,2.6-2.7,5-4.7,6.9c-0.9,0.8-1.9,1.5-2.9,2.1
		C947.84,502.5,947.74,502.5,947.64,502.5z M948.24,498.5v0.1c0,0.3-0.1,0.6-0.1,1c-0.1,0.5-0.1,1.1-0.1,1.6c0,0.1,0,0.2,0,0.4
		c0.8-0.5,1.6-1.1,2.3-1.7c2-1.8,3.5-4.2,4.5-6.7c0.4-0.9,0.7-1.9,0.9-2.9c0.2-0.6,0.3-1.3,0.3-1.9c0-0.2,0.1-0.3,0.3-0.3
		s0.3,0.1,0.4,0.2c0.2,0.5,0.3,0.9,0.5,1.3c1.5,3,3.9,5.5,6.8,7.3c4.2,2.6,9,3.4,12.8,2.2c0.8-0.2,1.6-0.6,2.4-1.1
		c-0.7-3.4-2.6-6.6-5.3-8.8c-0.7-0.6-1.4-1.1-2.2-1.6s-1.6-0.9-2.5-1.2c-1.7-0.6-3.5-1-5.3-1c0,0,0,0-0.1,0h-0.1l0,0
		c-1.9,0-3.7,0.3-5.4,1c-0.6,0.2-1.1,0.4-1.7,0.7c-0.2,0.1-0.3,0.2-0.5,0.3c-0.9,0.5-1.8,1.1-2.6,1.8
		C950.74,491.5,948.84,494.8,948.24,498.5z"/>
	<path class="st3" d="M963.64,514.9c-1.5,0-3.1-0.3-4.6-0.8c-0.3-0.1-0.7-0.2-1-0.4c-5-2.2-8.2-7.1-8.2-12.5c0-0.4,0-0.8,0-1.2
		c0-0.1,0-0.2,0.1-0.2c2-1.9,3.5-4.2,4.5-6.7c0.4-0.9,0.7-1.9,0.9-2.9c0.2-0.6,0.3-1.3,0.3-1.9c0-0.2,0.1-0.3,0.3-0.3
		s0.3,0.1,0.4,0.2c0.2,0.5,0.3,0.9,0.5,1.3c1.5,3,3.9,5.5,6.8,7.3c4.2,2.6,9,3.4,12.8,2.2c0.1,0,0.2,0,0.3,0
		c0.1,0.1,0.1,0.1,0.2,0.2c0,0.1,0,0.2,0,0.3v0.1c0.1,0.5,0.1,0.9,0.1,1.4c0,5.4-3.2,10.3-8.2,12.5c-0.3,0.1-0.6,0.3-1,0.4
		C966.74,514.7,965.24,514.9,963.64,514.9z M950.74,500.3c0,0.3,0,0.6,0,1c0,5.1,3,9.8,7.7,11.9c0.3,0.1,0.6,0.2,0.9,0.4
		c2.8,1,5.9,1,8.7,0c0.3-0.1,0.6-0.2,0.9-0.4c4.7-2.1,7.8-6.7,7.8-11.9l0,0c0-0.4,0-0.9-0.1-1.3v-0.1c-4,1.1-8.8,0.2-13-2.4
		c-3-1.8-5.5-4.4-7.1-7.6c0-0.1-0.1-0.1-0.1-0.2c0,0.2-0.1,0.5-0.2,0.7c-0.2,1-0.5,2-0.9,3C954.34,496,952.74,498.4,950.74,500.3z"
		/>
</g>
<g>
	<path class="st3" d="M907.44,81.1h-40.4c-0.2,0-0.4-0.2-0.4-0.4v-7.2c0-5,4.1-9.1,9.1-9.1h6.7c0.2,0,0.3,0.1,0.3,0.3
		c0.2,2.1,1.8,3.7,3.9,3.9c2.4,0.3,4.6-1.5,4.9-3.9c0-0.2,0.2-0.3,0.3-0.3h6.7l0,0c5,0,9.1,4.1,9.1,9.1v7.2
		C907.84,80.9,907.64,81.1,907.44,81.1z M867.44,80.4h39.7v-6.8c0-4.6-3.8-8.4-8.4-8.4h-6.4c-0.5,2.6-2.9,4.5-5.6,4.2
		c-2.3-0.3-4.1-2-4.5-4.2h-6.4c-4.6,0-8.4,3.8-8.4,8.4V80.4z"/>
	<path class="st2" d="M897.24,75.8c-1.8,0-3.3-1.5-3.3-3.3s1.5-3.3,3.3-3.3l0,0c0.9,0,1.7,0.3,2.3,0.9s1,1.4,1,2.3l0,0
		C900.44,74.3,899.04,75.8,897.24,75.8z M897.24,70L897.24,70c-1.4,0-2.6,1.1-2.6,2.6c0,1.4,1.1,2.6,2.6,2.6c1.4,0,2.6-1.1,2.6-2.6
		l0,0c0-0.7-0.3-1.3-0.7-1.8C898.54,70.2,897.94,70,897.24,70z"/>
	<path class="st2" d="M878.14,69.1h-0.7c0-0.2,0-0.3,0-0.4c0.1-1.4,0.5-2.8,1.2-4c0.9-1.5,2.2-2.8,3.7-3.6l0.3,0.6
		c-1.4,0.8-2.6,2-3.4,3.4c-0.6,1.1-1,2.4-1.1,3.7C878.14,68.8,878.14,68.9,878.14,69.1z"/>
	<path class="st2" d="M897.54,69.1h-0.7c0-1.4-0.4-2.9-1.1-4.1c-0.4-0.8-1-1.5-1.6-2s-1.2-1-2-1.4l0.3-0.6c0.8,0.4,1.5,0.9,2.1,1.5
		c0.7,0.6,1.3,1.4,1.8,2.2C897.14,65.9,897.54,67.5,897.54,69.1z"/>
	<path class="st2" d="M881.64,78h-1.2c-0.2,0-0.4-0.2-0.4-0.4c0-0.2,0.2-0.4,0.4-0.4h0.8v-4.8c0-1.9-1.6-3.5-3.5-3.5
		s-3.5,1.6-3.5,3.5v4.8h0.8c0.2,0,0.4,0.2,0.4,0.4c0,0.2-0.2,0.4-0.4,0.4h-1.2c-0.2,0-0.4-0.2-0.4-0.4v-5.1c0-2.3,1.9-4.2,4.2-4.2
		c2.3,0,4.2,1.9,4.2,4.2v5.1C881.94,77.8,881.84,78,881.64,78z"/>
	<path class="st3" d="M887.24,69.4c-0.2,0-0.4,0-0.6,0c-2.4-0.3-4.3-2.1-4.5-4.5c0-0.2,0-0.4,0-0.6v-2.9c0-0.1,0.1-0.2,0.1-0.3
		c0.1-0.1,0.2-0.1,0.3,0c1.5,0.5,3.1,0.8,4.6,0.8c0,0,0,0,0.1,0c1.6,0,3.1-0.3,4.6-0.8c0.1,0,0.2,0,0.3,0c0.1,0.1,0.1,0.2,0.1,0.3v3
		c0,0.2,0,0.4,0,0.6C892.04,67.4,889.84,69.4,887.24,69.4z M882.84,61.8v2.5c0,0.2,0,0.3,0,0.5c0.2,2.1,1.8,3.7,3.9,3.9
		c1.2,0.1,2.3-0.2,3.3-0.9c0.9-0.7,1.5-1.8,1.6-3c0-0.2,0-0.3,0-0.5v-2.5c-1.4,0.5-2.9,0.7-4.4,0.7c0,0,0,0-0.1,0
		C885.74,62.5,884.24,62.2,882.84,61.8z"/>
	<path class="st3" d="M887.34,62.5C887.24,62.5,887.24,62.5,887.34,62.5c-1.7,0-3.3-0.3-4.9-0.8l0,0c-3.5-1.2-6.3-3.7-8.1-7l0,0
		c-1-1.9-1.6-4-1.7-6.1c0-0.2,0-0.4,0-0.6v-0.1c0-0.6,0-1.2,0.1-1.8l0,0c0-0.2,0.1-0.4,0.1-0.6c0-0.2,0.2-0.3,0.4-0.3
		c1.6,0,3.1,0,4.7-0.2c0.8-0.1,1.6-0.2,2.5-0.4c0.9-0.2,1.7-0.4,2.5-0.7c0.3-0.1,0.6-0.2,0.8-0.3c0.6-0.2,1.1-0.4,1.6-0.6
		c1-0.4,1.9-0.8,2.8-1.3c0.4-0.2,0.9-0.5,1.3-0.7l0,0c0.7-0.5,1.4-1,2.1-1.6c0.1-0.1,0.3-0.1,0.5,0c1.7,1.7,3.7,3.1,5.7,4.3
		c1.2,0.7,2.5,1.3,3.8,1.9c0,0,0,0,0.1,0s0.1,0.1,0.2,0.1c0,0.1,0.1,0.1,0.1,0.2c0,0.2,0.1,0.4,0.1,0.6c0.1,0.5,0.1,1,0.1,1.5
		c0,3.1-0.9,6-2.7,8.5c-1.7,2.4-4.1,4.2-6.8,5.3c-0.1,0-0.2,0.1-0.3,0.1C890.64,62.2,888.94,62.5,887.34,62.5z M887.24,61.8
		c1.6,0,3.2-0.3,4.7-0.8c0.1,0,0.2-0.1,0.3-0.1c2.6-1,4.9-2.7,6.5-5c1.7-2.4,2.6-5.2,2.6-8.1l0,0c0-0.5,0-1-0.1-1.4
		c0-0.1,0-0.2,0-0.3c-1.3-0.5-2.6-1.2-3.8-1.9c-2-1.2-3.9-2.6-5.7-4.2c-0.6,0.5-1.3,1-2,1.5l0,0c-0.4,0.2-0.8,0.5-1.3,0.7
		c-0.9,0.5-1.9,1-2.9,1.4c-0.5,0.2-1,0.4-1.6,0.6c-0.3,0.1-0.6,0.2-0.8,0.3c-0.8,0.3-1.7,0.5-2.6,0.7c-0.9,0.2-1.7,0.3-2.5,0.4
		c-1.5,0.2-3,0.3-4.5,0.3c0,0.1,0,0.2,0,0.3l0,0c-0.1,0.6-0.1,1.2-0.1,1.7V48c0,0.2,0,0.4,0,0.6c0.1,2,0.6,4.1,1.6,5.9l0,0
		c1.6,3.1,4.4,5.4,7.6,6.6l0,0l0,0C884.14,61.5,885.64,61.8,887.24,61.8L887.24,61.8z"/>
	<path class="st3" d="M901.44,46.1h-0.1c-1.4-0.6-2.7-1.2-4-1.9c-2.1-1.2-4.1-2.7-5.9-4.4c-0.1-0.1-0.1-0.3-0.1-0.4
		c0-0.1,0.1-0.2,0.2-0.2c0.1-0.1,0.3,0,0.4,0.1c1.7,1.7,3.7,3.1,5.8,4.3c1.2,0.7,2.5,1.4,3.9,1.9c0.1,0.1,0.2,0.2,0.2,0.3l0,0
		c0,0.1-0.1,0.2-0.2,0.3C901.54,46.1,901.54,46.1,901.44,46.1z"/>
	<path class="st3" d="M901.44,57.2c-1,0-1.9-0.3-2.6-0.9c-0.2-0.1-0.2-0.3-0.1-0.5c1.7-2.4,2.6-5.2,2.6-8.1c0-0.5,0-1-0.1-1.4
		c0-0.1,0-0.2,0-0.4c-1.3-0.5-2.6-1.2-3.8-1.9c-2-1.2-3.9-2.6-5.7-4.2c-0.6,0.5-1.3,1-2,1.5l0,0c-0.4,0.2-0.8,0.5-1.3,0.7
		c-0.9,0.5-1.9,1-2.9,1.4c-0.4,0.2-1,0.4-1.6,0.6c-0.3,0.1-0.6,0.2-0.8,0.3c-0.8,0.2-1.7,0.5-2.6,0.7c-0.8,0.2-1.6,0.3-2.5,0.4
		c-1.5,0.2-3,0.3-4.5,0.3c0,0.1,0,0.2,0,0.3l0,0c-0.1,0.6-0.1,1.2-0.1,1.7v0.1c0,0.2,0,0.4,0,0.6c0.1,2,0.6,4.1,1.6,5.9
		c0,0.1,0,0.1,0,0.2c0,0.1,0,0.1-0.1,0.2c-1.4,2-4.2,2.6-6.2,1.2c-1.2-0.8-2-2.2-2-3.7c0-0.5,0.1-1,0.3-1.5
		c-0.9-0.5-1.7-1.3-2.1-2.2c-0.5-1.1-0.5-2.3,0-3.4c0.4-1,1.2-1.9,2.2-2.3c-0.5-0.9-0.7-1.9-0.5-3c0.2-1.2,0.8-2.2,1.8-2.9
		c0.4-0.3,0.8-0.5,1.2-0.6c-0.1-0.3-0.1-0.6-0.1-0.8c0-2.5,2-4.5,4.5-4.5c0.2,0,0.4,0,0.5,0c0.3-2.2,2.2-3.9,4.4-3.9l0,0
		c0.8,0,1.6,0.2,2.3,0.7c0.4-0.9,1-1.7,1.9-2.3c1-0.6,2.2-0.8,3.4-0.5s2.1,1,2.7,2c0.8-0.7,1.8-1.1,2.9-1.1l0,0
		c1.9,0,3.7,1.3,4.2,3.1c0.6-0.4,1.4-0.5,2.1-0.5l0,0c2.5,0,4.5,2,4.5,4.5c0,0.2,0,0.4,0,0.6c1.5,0.8,2.4,2.3,2.4,4
		c0,0.1,0,0.2,0,0.4c2.3,0.2,4.1,2.1,4.1,4.4c0,1.2-0.5,2.3-1.3,3.2c0.8,0.8,1.3,2,1.3,3.1c0,2.1-1.4,3.9-3.5,4.3
		C905.74,55.3,903.84,57.2,901.44,57.2L901.44,57.2z M899.44,55.9c0.6,0.4,1.3,0.6,2,0.6c2.1,0,3.8-1.7,3.8-3.8v-0.1
		c0-0.2,0.1-0.3,0.3-0.3c1.8-0.3,3.2-1.8,3.2-3.7l0,0c0-1.1-0.5-2.2-1.3-2.9c-0.1-0.1-0.1-0.2-0.1-0.3s0-0.2,0.1-0.3
		c0.9-0.7,1.3-1.8,1.3-2.9c0-2.1-1.7-3.8-3.8-3.8l0,0h-0.1c-0.1,0-0.2,0-0.3-0.1s-0.1-0.2-0.1-0.3c0-0.2,0.1-0.4,0.1-0.6
		c0-1.5-0.9-2.8-2.2-3.4c-0.2-0.1-0.2-0.2-0.2-0.4c0.1-0.3,0.1-0.5,0.1-0.8c0-2.1-1.7-3.8-3.8-3.8c-0.8,0-1.5,0.2-2.1,0.7
		c-0.1,0.1-0.2,0.1-0.3,0c-0.1,0-0.2-0.1-0.2-0.3c-0.4-1.7-1.9-3-3.7-3l0,0c-1,0-2,0.4-2.7,1.2c-0.1,0.1-0.2,0.1-0.3,0.1
		s-0.2-0.1-0.3-0.2c-0.5-1-1.4-1.8-2.5-2.1c-1-0.2-2-0.1-2.8,0.4c-0.9,0.5-1.5,1.3-1.7,2.3c0,0.1-0.1,0.2-0.2,0.2s-0.2,0-0.3-0.1
		c-0.7-0.5-1.5-0.8-2.3-0.8l0,0c-2,0-3.7,1.6-3.8,3.6c0,0.1-0.1,0.2-0.1,0.3c-0.1,0.1-0.2,0.1-0.3,0.1c-0.3-0.1-0.5-0.1-0.8-0.1l0,0
		c-2.1,0-3.8,1.7-3.8,3.8c0,0.3,0,0.7,0.1,1c0,0.1,0,0.2,0,0.3s-0.1,0.1-0.2,0.2c-0.5,0.1-0.9,0.3-1.3,0.6c-0.8,0.6-1.3,1.5-1.5,2.4
		c-0.2,1,0.1,2,0.7,2.8c0.1,0.1,0.1,0.2,0.1,0.3s-0.1,0.2-0.2,0.2c-1,0.4-1.8,1.1-2.2,2.1c-0.4,0.9-0.4,1.9,0,2.9
		c0.4,0.9,1.1,1.6,2,2c0.1,0,0.2,0.1,0.2,0.2c0,0.1,0,0.2,0,0.3c-0.2,0.5-0.3,1-0.3,1.5c0,1.2,0.6,2.4,1.6,3.1
		c1.7,1.1,3.9,0.7,5.1-0.8c-0.9-1.8-1.5-3.9-1.6-6c0-0.2,0-0.4,0-0.6v-0.1c0-0.6,0-1.2,0.1-1.8l0,0c0-0.2,0.1-0.4,0.1-0.6
		c0-0.2,0.2-0.3,0.4-0.3c1.6,0,3.1,0,4.7-0.2c0.8-0.1,1.6-0.3,2.4-0.4c0.9-0.2,1.8-0.4,2.6-0.7c0.3-0.1,0.6-0.2,0.8-0.3
		c0.6-0.2,1.1-0.4,1.6-0.6c1-0.4,1.9-0.8,2.8-1.3c0.4-0.2,0.9-0.5,1.3-0.7l0,0c0.7-0.5,1.4-1,2.1-1.6c0.1-0.1,0.2-0.1,0.3-0.1l0,0
		c0.1,0,0.2,0,0.2,0.1c1.7,1.7,3.7,3.1,5.8,4.3c1.2,0.7,2.5,1.4,3.9,1.9l0,0c0,0,0.1,0,0.1,0.1c0.1,0.1,0.1,0.1,0.1,0.2
		c0,0.2,0.1,0.4,0.1,0.6c0.1,0.5,0.1,1,0.1,1.5C901.94,50.7,901.14,53.5,899.44,55.9z"/>
</g>
<g>
	<path class="st3" d="M503.94,188.1h-25.5c-0.2,0-0.4-0.2-0.4-0.4v-6.6c0-1.1,0.2-2.2,0.6-3.2c1.3-3.2,4.4-5.2,7.8-5.2l0,0h6.2
		c0.2,0,0.3,0.1,0.3,0.3c0.2,2.1,2,3.6,4,3.6c2.1,0,3.8-1.6,4-3.6c0-0.2,0.2-0.3,0.3-0.3h6.2l0,0c0.7,0,1.3,0.1,1.9,0.2l-0.2,0.7
		c-0.6-0.1-1.2-0.2-1.8-0.2l0,0h-5.5c-0.4,2.2-2.4,3.9-4.7,3.9c-2.3,0-4.3-1.7-4.7-3.9h-5.9l0,0c-3.2,0-6,1.9-7.1,4.8
		c-0.4,0.9-0.6,1.9-0.6,2.9v6.3h25.1V188.1z"/>
	<path class="st3" d="M497.14,177.4c-0.2,0-0.4,0-0.5,0c-0.9-0.1-1.8-0.5-2.6-1.1c-0.9-0.8-1.5-1.9-1.6-3.1c0-0.2,0-0.4,0-0.5V170
		c0-0.1,0.1-0.2,0.1-0.3c0.1-0.1,0.2-0.1,0.3,0c2.8,1,5.8,1,8.6,0c0.1,0,0.2,0,0.3,0c0.1,0.1,0.1,0.2,0.1,0.3v2.7c0,0.2,0,0.4,0,0.5
		C501.54,175.6,499.54,177.4,497.14,177.4z M493.04,170.4v2.2c0,0.2,0,0.3,0,0.4c0.1,1,0.6,2,1.4,2.6c0.6,0.5,1.4,0.9,2.2,0.9
		c2.2,0.2,4.2-1.4,4.5-3.6c0-0.1,0-0.3,0-0.4v-2.2C498.54,171.2,495.74,171.2,493.04,170.4z"/>
	<path class="st3" d="M497.14,171c-1.5,0-3.1-0.3-4.5-0.8c-0.2-0.1-0.3-0.1-0.5-0.2c-3-1.2-5.4-3.4-6.9-6.2c-1-2-1.6-4.2-1.6-6.4
		c0-0.5,0-0.9,0.1-1.4c0-0.1,0-0.2,0.1-0.2l6.7-6.7c0.1-0.1,0.3-0.1,0.5,0c3.7,2.7,8.7,2.7,12.4,0c0.1-0.1,0.3-0.1,0.5,0l6.7,6.7
		c0.1,0.1,0.1,0.1,0.1,0.2c0,0.5,0.1,0.9,0.1,1.4c0,2.2-0.5,4.4-1.6,6.4c-1.5,2.8-4,5-6.9,6.2c-0.2,0.1-0.3,0.1-0.5,0.2
		C500.14,170.7,498.64,171,497.14,171z M484.34,156.2c0,0.4-0.1,0.8-0.1,1.2c0,2.1,0.5,4.2,1.5,6.1c1.4,2.7,3.8,4.8,6.6,5.9
		c0.2,0.1,0.3,0.1,0.5,0.2c2.8,1,5.8,1,8.6,0c0.2-0.1,0.3-0.1,0.5-0.2c2.8-1.1,5.2-3.2,6.6-5.9c1-1.9,1.5-3.9,1.5-6.1l0,0
		c0-0.4,0-0.8-0.1-1.2l-6.4-6.4c-3.9,2.7-8.9,2.7-12.8,0L484.34,156.2z"/>
	<path class="st3" d="M510.74,157l-7.2-7.2c-3.9,2.7-8.9,2.7-12.8,0l-7.2,7.2l0.1-1c0-0.2,0-0.3,0.1-0.5l0,0v-0.4
		c0.2-1.4,0.7-2.8,1.4-4.1l0,0v-0.1c0.8-1.5,1.9-2.8,3.2-3.9c2.4-2.1,5.5-3.2,8.7-3.2c0.1,0,0.1,0,0.2,0c2.3,0,4.6,0.7,6.6,1.8
		c0.7,0.4,1.3,0.9,1.9,1.4c0.4,0.3,0.7,0.7,1.1,1c1.3,1.4,2.3,2.9,2.9,4.7v0.1c0.3,0.8,0.5,1.5,0.6,2.3l0,0v0.3c0,0.2,0,0.3,0.1,0.5
		L510.74,157z M484.44,154.9v0.2l6.2-6.2l0.2,0.2c3.7,2.7,8.7,2.7,12.4,0l0.2-0.2l6.2,6.2c-0.1-0.7-0.3-1.4-0.5-2V153
		c-0.6-1.6-1.5-3.1-2.7-4.4c-0.3-0.3-0.7-0.7-1-1c-0.6-0.5-1.2-0.9-1.8-1.3c-1.9-1.1-4.1-1.7-6.3-1.7h-0.1h-0.1c-3,0-6,1.1-8.3,3
		c-1.2,1-2.2,2.3-3,3.7l0,0v0.1C485.14,152.5,484.74,153.7,484.44,154.9z"/>
	<path class="st3" d="M497.14,171c-1.5,0-3.1-0.3-4.5-0.8c-0.3-0.1-0.7-0.2-1-0.4c-0.1-0.1-0.2-0.2-0.2-0.3v-4
		c0-3.1,2.5-5.7,5.6-5.7l0,0c3.1,0,5.7,2.5,5.7,5.6v4c0,0.1-0.1,0.3-0.2,0.3c-0.3,0.1-0.6,0.3-1,0.4
		C500.14,170.7,498.64,171,497.14,171z M492.14,169.3c0.2,0.1,0.4,0.2,0.7,0.3c2.8,1,5.8,1,8.6,0c0.2-0.1,0.5-0.2,0.7-0.3v-3.7l0,0
		v-0.1c0-2.7-2.3-4.9-5-4.9l0,0c-2.7,0-5,2.3-4.9,5v3.7H492.14z"/>
	<path class="st3" d="M499.84,165.8h-5.4c-0.2,0-0.4-0.2-0.4-0.4s0.2-0.4,0.4-0.4h5.4c0.2,0,0.4,0.2,0.4,0.4
		C500.14,165.6,500.04,165.8,499.84,165.8z"/>
	<path class="st2" d="M520.84,195.7c-0.3,0-0.5-0.1-0.8-0.2l-15.3-6.5c-0.5-0.2-0.9-0.6-1.1-1.1s-0.2-1.1,0-1.6l7.8-18.4
		c0.4-1.1,1.7-1.5,2.7-1.1l1.2,0.5c0.1,0,0.2,0.1,0.2,0.3c0,0.1,0,0.2-0.1,0.3c-0.2,0.2-0.4,0.5-0.6,0.8l-0.1,0.3l12.7,5.4l0.1-0.3
		c0.1-0.3,0.2-0.6,0.2-1c0-0.1,0.1-0.2,0.2-0.3s0.2-0.1,0.3,0l1.2,0.5c1.1,0.4,1.5,1.7,1.1,2.7l0,0l-7.8,18.4
		C522.44,195.2,521.64,195.7,520.84,195.7z M513.34,167.4c-0.5,0-1,0.3-1.3,0.8l-7.8,18.4c-0.1,0.3-0.1,0.7,0,1.1
		c0.1,0.3,0.4,0.6,0.7,0.7l15.3,6.5c0.7,0.3,1.5,0,1.8-0.7l7.8-18.4c0.3-0.7,0-1.5-0.7-1.8l-0.7-0.3c0,0.3-0.1,0.5-0.2,0.7l-0.3,0.7
		c-0.1,0.2-0.3,0.3-0.5,0.2l-13.3-5.6c-0.1,0-0.2-0.1-0.2-0.2c0-0.1,0-0.2,0-0.3l0.3-0.6c0.1-0.2,0.2-0.5,0.4-0.7l-0.7-0.3
		C513.74,167.4,513.54,167.4,513.34,167.4z"/>
	<path class="st2" d="M524.94,179.3h-0.1l-11.7-4.9c-0.2-0.1-0.3-0.3-0.2-0.5c0.1-0.2,0.3-0.3,0.5-0.2l11.7,4.9
		c0.2,0.1,0.3,0.3,0.2,0.5C525.24,179.2,525.04,179.3,524.94,179.3z"/>
	<path class="st2" d="M523.44,182.8h-0.1l-11.7-4.9c-0.2-0.1-0.3-0.3-0.2-0.5s0.3-0.3,0.5-0.2l11.7,4.9c0.2,0.1,0.3,0.3,0.2,0.5
		C523.74,182.7,523.64,182.8,523.44,182.8z"/>
	<path class="st2" d="M522.04,186.2h-0.1l-11.7-4.9c-0.2-0.1-0.3-0.3-0.2-0.5c0.1-0.2,0.3-0.3,0.5-0.2l11.7,4.9
		c0.2,0.1,0.3,0.3,0.2,0.5C522.24,186.2,522.14,186.2,522.04,186.2z"/>
	<path class="st2" d="M518.04,188.7h-0.1l-9.2-3.9c-0.2-0.1-0.3-0.3-0.2-0.5c0.1-0.2,0.3-0.3,0.5-0.2l9.2,3.9
		c0.2,0.1,0.3,0.3,0.2,0.5C518.34,188.6,518.24,188.7,518.04,188.7z"/>
	<path class="st2" d="M527.64,175.2h-0.1l-13.3-5.6c-0.1,0-0.2-0.1-0.2-0.2c0-0.1,0-0.2,0-0.3l0.3-0.6c0.2-0.4,0.4-0.7,0.7-1.1
		c1-1,2.5-1.3,3.8-0.8l0.2,0.1c0.9-1.8,3.1-2.6,5-1.8c1,0.4,1.7,1.2,2.1,2.1c0.4,0.9,0.4,1.8,0.1,2.7l0.2,0.1
		c1.3,0.6,2.2,1.9,2.1,3.3c0,0.4-0.1,0.8-0.3,1.2l-0.3,0.6c0,0.1-0.1,0.2-0.2,0.2C527.74,175.2,527.64,175.2,527.64,175.2z
		 M514.74,169.1l12.7,5.4l0.1-0.3c0.1-0.3,0.2-0.6,0.2-1l0,0c0-1.1-0.6-2.2-1.7-2.6l-0.5-0.2c-0.1,0-0.2-0.1-0.2-0.2
		c0-0.1,0-0.2,0-0.3c0.7-1.6-0.1-3.5-1.7-4.2c-0.8-0.3-1.7-0.3-2.5,0s-1.4,0.9-1.8,1.7c-0.1,0.2-0.3,0.3-0.5,0.2l-0.5-0.2
		c-1-0.4-2.3-0.2-3.1,0.6c-0.2,0.2-0.4,0.5-0.6,0.8L514.74,169.1z M522.44,170.6c-0.3,0-0.5-0.1-0.8-0.2l0,0
		c-0.5-0.2-0.9-0.6-1.1-1.1s-0.2-1.1,0-1.6c0.5-1.1,1.7-1.6,2.8-1.1s1.6,1.7,1.1,2.8C524.04,170.2,523.24,170.6,522.44,170.6z
		 M522.44,167.1c-0.5,0-1.1,0.3-1.3,0.8c-0.1,0.3-0.1,0.7,0,1.1c0.1,0.3,0.4,0.6,0.7,0.8l0,0l0,0c0.7,0.3,1.5,0,1.8-0.7
		s0-1.5-0.7-1.8C522.84,167.2,522.64,167.1,522.44,167.1z"/>
	<path class="st2" d="M522.44,170.6c-0.3,0-0.5-0.1-0.8-0.2c-0.5-0.2-0.9-0.6-1.1-1.1s-0.2-1.1,0-1.6c0.5-1.1,1.7-1.6,2.8-1.1
		c0.5,0.2,0.9,0.6,1.1,1.1c0.2,0.5,0.2,1.1,0,1.6l0,0C524.04,170.2,523.24,170.6,522.44,170.6z M522.44,167.1
		c-0.5,0-1.1,0.3-1.3,0.9c-0.1,0.3-0.1,0.7,0,1.1c0.1,0.3,0.4,0.6,0.8,0.8c0.7,0.3,1.5,0,1.8-0.7l0,0c0.1-0.3,0.1-0.7,0-1
		c-0.1-0.3-0.4-0.6-0.8-0.8C522.84,167.2,522.64,167.1,522.44,167.1z M524.04,169.2L524.04,169.2L524.04,169.2z"/>
</g>
<path class="st2" d="M747.04,261.4l-1.4-1l2-2.9l1.4,1L747.04,261.4z M751.04,255.7l-1.4-1l2-2.9l1.4,1L751.04,255.7z M755.14,249.9
	l-1.4-1l2-2.9l1.4,1L755.14,249.9z M759.14,244.1l-1.4-1l2-2.9l1.4,1L759.14,244.1z M763.14,238.4l-1.4-1l2-2.9l1.4,1L763.14,238.4z
	 M767.24,232.6l-1.4-1l2-2.9l1.4,1L767.24,232.6z M771.24,226.9l-1.4-1l2-2.9l1.4,1L771.24,226.9z M775.24,221.1l-1.4-1l2-2.9l1.4,1
	L775.24,221.1z M779.34,215.3l-1.4-1l2-2.9l1.4,1L779.34,215.3z M783.34,209.6l-1.4-1l2-2.9l1.4,1L783.34,209.6z M787.34,203.8
	l-1.4-1l2-2.9l1.4,1L787.34,203.8z M791.44,198.1l-1.4-1l2-2.9l1.4,1L791.44,198.1z M795.44,192.3l-1.4-1l2-2.9l1.4,1L795.44,192.3z
	 M799.44,186.5l-1.4-1l2-2.9l1.4,1L799.44,186.5z M803.44,180.8l-1.4-1l2-2.9l1.4,1L803.44,180.8z M807.54,175l-1.4-1l2-2.9l1.4,1
	L807.54,175z M811.54,169.3l-1.4-1l2-2.9l1.4,1L811.54,169.3z M815.54,163.5l-1.4-1l2-2.9l1.4,1L815.54,163.5z M819.64,157.7l-1.4-1
	l2-2.9l1.4,1L819.64,157.7z M823.64,152l-1.4-1l2-2.9l1.4,1L823.64,152z M827.64,146.2l-1.4-1l2-2.9l1.4,1L827.64,146.2z
	 M831.74,140.5l-1.4-1l2-2.9l1.4,1L831.74,140.5z M835.74,134.7l-1.4-1l2-2.9l1.4,1L835.74,134.7z M839.74,128.9l-1.4-1l2-2.9l1.4,1
	L839.74,128.9z M843.74,123.2l-1.4-1l2-2.9l1.4,1L843.74,123.2z M847.84,117.4l-1.4-1l2-2.9l1.4,1L847.84,117.4z M851.84,111.6
	l-1.4-1l2-2.9l1.4,1L851.84,111.6z M855.84,105.9l-1.4-1l2-2.8l1.4,1L855.84,105.9z"/>
<path class="st2" d="M637.64,272.9l-2.9-2l1-1.4l2.9,2L637.64,272.9z M631.84,268.9l-2.9-2l1-1.4l2.9,2L631.84,268.9z M626.14,264.8
	l-2.9-2l1-1.4l2.9,2L626.14,264.8z M620.34,260.7l-2.9-2l1-1.4l2.9,2L620.34,260.7z M614.64,256.7l-2.9-2l1-1.4l2.9,2L614.64,256.7z
	 M608.94,252.6l-2.9-2l1-1.4l2.9,2L608.94,252.6z M603.14,248.6l-2.9-2l1-1.4l2.9,2L603.14,248.6z M597.44,244.5l-2.9-2l1-1.4l2.9,2
	L597.44,244.5z M591.64,240.5l-2.9-2l1-1.4l2.9,2L591.64,240.5z M585.94,236.4l-2.9-2l1-1.4l2.9,2L585.94,236.4z M580.24,232.3
	l-2.9-2l1-1.4l2.9,2L580.24,232.3z M574.44,228.3l-2.9-2l1-1.4l2.9,2L574.44,228.3z M568.74,224.2l-2.9-2l1-1.4l2.9,2L568.74,224.2z
	 M562.94,220.2l-2.9-2l1-1.4l2.9,2L562.94,220.2z M557.24,216.1l-2.9-2l1-1.4l2.9,2L557.24,216.1z M551.44,212.1l-2.9-2l1-1.4l2.9,2
	L551.44,212.1z M545.74,208l-2.9-2l1-1.4l2.9,2L545.74,208z M540.04,203.9l-2.9-2l1-1.4l2.9,2L540.04,203.9z"/>
<path class="st2" d="M740.54,521.1l-0.6-3.5l1.7-0.3l0.6,3.5L740.54,521.1z M739.34,514.1l-0.6-3.5l1.7-0.3l0.6,3.5L739.34,514.1z
	 M738.14,507.2l-0.6-3.5l1.7-0.3l0.6,3.5L738.14,507.2z M736.94,500.3l-0.6-3.5l1.7-0.3l0.6,3.5L736.94,500.3z M735.84,493.3
	l-0.6-3.5l1.7-0.3l0.6,3.5L735.84,493.3z M734.64,486.4l-0.6-3.5l1.7-0.3l0.6,3.5L734.64,486.4z M733.44,479.5l-0.6-3.5l1.7-0.3
	l0.6,3.5L733.44,479.5z M732.24,472.5l-0.6-3.5l1.7-0.3l0.6,3.5L732.24,472.5z M731.04,465.6l-0.6-3.5l1.7-0.3l0.6,3.5L731.04,465.6
	z M729.94,458.7l-0.6-3.5l1.7-0.3l0.6,3.5L729.94,458.7z M728.74,451.7l-0.6-3.5l1.7-0.3l0.6,3.5L728.74,451.7z M727.54,444.8
	l-0.6-3.5l1.7-0.3l0.6,3.5L727.54,444.8z M726.34,437.9l-0.6-3.5l1.7-0.3l0.6,3.5L726.34,437.9z M725.24,431l-0.6-3.5l1.7-0.3
	l0.6,3.5L725.24,431z M724.04,424l-0.6-3.5l1.7-0.3l0.6,3.5L724.04,424z M722.84,417.1l-0.6-3.5l1.7-0.3l0.6,3.5L722.84,417.1z
	 M721.64,410.2l-0.6-3.5l1.7-0.3l0.6,3.5L721.64,410.2z M720.44,403.2l-0.4-2.6l1.7-0.3l0.4,2.6L720.44,403.2z"/>
<path class="st2" d="M818.14,325.1h-3.5v-1.8h3.5V325.1z M811.14,325.1h-3.5v-1.8h3.5V325.1z M804.04,325.1h-3.5v-1.8h3.5V325.1z
	 M797.04,325.1h-3.5v-1.8h3.5V325.1z M790.04,325.1h-3.5v-1.8h3.5V325.1z M782.94,325.1h-3.5v-1.8h3.5V325.1z"/>
<path class="st2" d="M918.64,487l-2.8-2.1l1.1-1.4l2.8,2.1L918.64,487z M913.04,482.8l-2.8-2.1l1.1-1.4l2.8,2.1L913.04,482.8z
	 M907.44,478.5l-2.8-2.1l1.1-1.4l2.8,2.1L907.44,478.5z M901.84,474.3l-2.8-2.1l1.1-1.4l2.8,2.1L901.84,474.3z M896.24,470l-2.8-2.1
	l1.1-1.4l2.8,2.1L896.24,470z M890.64,465.8l-2.8-2.1l1.1-1.4l2.8,2.1L890.64,465.8z M885.04,461.6l-2.8-2.1l1.1-1.4l2.8,2.1
	L885.04,461.6z M879.44,457.3l-2.8-2.1l1.1-1.4l2.8,2.1L879.44,457.3z M873.84,453.1l-2.8-2.1l1.1-1.4l2.8,2.1L873.84,453.1z
	 M868.24,448.8l-2.8-2.1l1.1-1.4l2.8,2.1L868.24,448.8z M862.64,444.6l-2.8-2.1l1.1-1.4l2.8,2.1L862.64,444.6z M857.04,440.3
	l-2.8-2.1l1.1-1.4l2.8,2.1L857.04,440.3z M851.44,436.1l-2.8-2.1l1.1-1.4l2.8,2.1L851.44,436.1z M845.84,431.8l-2.8-2.1l1.1-1.4
	l2.8,2.1L845.84,431.8z M840.24,427.6l-2.8-2.1l1.1-1.4l2.8,2.1L840.24,427.6z M834.64,423.3l-2.8-2.1l1.1-1.4l2.8,2.1L834.64,423.3
	z M829.04,419.1l-2.8-2.1l1.1-1.4l2.8,2.1L829.04,419.1z M823.44,414.8l-2.8-2.1l1.1-1.4l2.8,2.1L823.44,414.8z M817.84,410.6
	l-2.8-2.1l1.1-1.4l2.8,2.1L817.84,410.6z M812.24,406.3l-2.8-2.1l1.1-1.4l2.8,2.1L812.24,406.3z M806.64,402.1l-2.8-2.1l1.1-1.4
	l2.8,2.1L806.64,402.1z M801.04,397.8l-2.8-2.1l1.1-1.4l2.8,2.1L801.04,397.8z M795.44,393.6l-2.8-2.1l1.1-1.4l2.8,2.1L795.44,393.6
	z M789.84,389.4l-2.8-2.1l1.1-1.4l2.8,2.1L789.84,389.4z M784.24,385.1l-2.8-2.1l1.1-1.4l2.8,2.1L784.24,385.1z M778.64,380.9
	l-2.8-2.1l1.1-1.4l2.8,2.1L778.64,380.9z M773.04,376.6l-2.8-2.1l1.1-1.4l2.8,2.1L773.04,376.6z M767.44,372.4l-2.8-2.1l1.1-1.4
	l2.8,2.1L767.44,372.4z"/>
<path class="st2" d="M480.84,488.6l-1-1.4l2.8-2.1l1,1.4L480.84,488.6z M486.44,484.5l-1-1.4l2.8-2.1l1,1.4L486.44,484.5z
	 M492.14,480.3l-1-1.4l2.8-2.1l1,1.4L492.14,480.3z M497.74,476.1l-1-1.4l2.8-2.1l1,1.4L497.74,476.1z M503.44,471.9l-1-1.4l2.8-2.1
	l1,1.4L503.44,471.9z M509.04,467.7l-1-1.4l2.8-2.1l1,1.4L509.04,467.7z M514.74,463.6l-1-1.4l2.8-2.1l1,1.4L514.74,463.6z
	 M520.44,459.4l-1-1.4l2.8-2.1l1,1.4L520.44,459.4z M526.04,455.2l-1-1.4l2.8-2.1l1,1.4L526.04,455.2z M531.74,451l-1-1.4l2.8-2.1
	l1,1.4L531.74,451z M537.34,446.9l-1-1.4l2.8-2.1l1,1.4L537.34,446.9z M543.04,442.7l-1-1.4l2.8-2.1l1,1.4L543.04,442.7z
	 M548.64,438.5l-1-1.4l2.8-2.1l1,1.4L548.64,438.5z M554.34,434.3l-1-1.4l2.8-2.1l1,1.4L554.34,434.3z M560.04,430.2l-1-1.4l2.8-2.1
	l1,1.4L560.04,430.2z M565.64,426l-1-1.4l2.8-2.1l1,1.4L565.64,426z M571.34,421.8l-1-1.4l2.8-2.1l1,1.4L571.34,421.8z
	 M576.94,417.6l-1-1.4l2.8-2.1l1,1.4L576.94,417.6z M582.64,413.5l-1-1.4l2.8-2.1l1,1.4L582.64,413.5z M588.24,409.3l-1-1.4l2.8-2.1
	l1,1.4L588.24,409.3z M593.94,405.1l-1-1.4l2.8-2.1l1,1.4L593.94,405.1z M599.54,400.9l-1-1.4l2.8-2.1l1,1.4L599.54,400.9z
	 M605.24,396.7l-1-1.4l2.8-2.1l1,1.4L605.24,396.7z M610.94,392.6l-1-1.4l2.8-2.1l1,1.4L610.94,392.6z M616.54,388.4l-1-1.4l2.8-2.1
	l1,1.4L616.54,388.4z M622.24,384.2l-1-1.4l2.8-2.1l1,1.4L622.24,384.2z M627.84,380l-1-1.4l2.8-2.1l1,1.4L627.84,380z
	 M633.54,375.9l-1-1.4l2.8-2.1l1,1.4L633.54,375.9z"/>
<path class="st2" d="M854.34,358.6c-19.7,0-35.7-16-35.7-35.7s16-35.7,35.7-35.7s35.7,16,35.7,35.7l0,0
	C889.94,342.6,874.04,358.5,854.34,358.6z M854.34,287.9c-19.3,0-35,15.7-35,35s15.7,35,35,35s35-15.7,35-35l0,0
	C889.24,303.6,873.64,287.9,854.34,287.9z"/>
<path class="st2" d="M745.04,613.1c-24.7,0-44.8-20.1-44.8-44.8s20.1-44.8,44.8-44.8s44.8,20,44.8,44.8S769.84,613.1,745.04,613.1z
	 M745.04,524.3c-24.3,0-44.1,19.7-44.1,44.1c0,24.3,19.7,44.1,44.1,44.1c24.3,0,44.1-19.7,44.1-44.1
	C789.14,544,769.44,524.3,745.04,524.3L745.04,524.3z"/>
<path class="st2" d="M962.54,562.2c-27.1,0-49.1-22-49.1-49.1c0-27.1,22-49.1,49.1-49.1s49.1,22,49.1,49.1
	C1011.64,540.2,989.64,562.2,962.54,562.2z M962.54,464.7c-26.7,0-48.4,21.7-48.4,48.4s21.7,48.4,48.4,48.4s48.4-21.7,48.4-48.4
	S989.24,464.7,962.54,464.7L962.54,464.7z"/>
<path class="st2" d="M433.04,561.3c-27.1,0-49.1-22-49.1-49.1s22-49.1,49.1-49.1c27.1,0,49.1,22,49.1,49.1
	C482.14,539.3,460.14,561.3,433.04,561.3z M433.04,463.8c-26.7,0-48.4,21.7-48.4,48.4s21.7,48.4,48.4,48.4
	c26.7,0,48.4-21.7,48.4-48.4S459.74,463.8,433.04,463.8z"/>
<path class="st2" d="M501.84,218.3c-22.9,0-41.4-18.5-41.4-41.4s18.5-41.4,41.4-41.4c22.9,0,41.4,18.5,41.4,41.4l0,0
	C543.24,199.8,524.74,218.3,501.84,218.3z M501.84,136.2c-22.5,0-40.7,18.2-40.7,40.7s18.2,40.7,40.7,40.7s40.7-18.2,40.7-40.7
	S524.34,136.2,501.84,136.2z"/>
<path class="st3" d="M852.14,354.2l-3.7-4.8v4.8h-2v-10.3h2v4.5l3.5-4.5h2.3l-3.8,5l4,5.3H852.14z"/>
<path class="st3" d="M854.14,349c0-3,2.4-5.3,5.4-5.3s5.3,2.4,5.3,5.4s-2.4,5.3-5.4,5.3l0,0c-2.9,0-5.3-2.3-5.3-5.3V349z
	 M862.74,349c0-1.8-1.5-3.3-3.4-3.3c-1.8,0-3.3,1.5-3.3,3.4c0,1.8,1.5,3.3,3.3,3.3s3.3-1.4,3.3-3.2
	C862.74,349.1,862.74,349.1,862.74,349z"/>
<path class="st3" d="M872.14,352.2v1.9h-6v-10.3h2v8.4H872.14z"/>
<path class="st3" d="M878.74,352c0,1.6-1.4,2.4-3,2.4c-1.5,0-2.6-0.6-3.1-1.8l1.6-0.9c0.2,0.6,0.8,1,1.4,1s1-0.2,1-0.6
	c0-1.1-3.8-0.5-3.8-3.1c0-1.5,1.3-2.3,2.8-2.3c1.1,0,2.2,0.6,2.8,1.6l-1.6,0.9c-0.2-0.5-0.7-0.8-1.2-0.8s-0.9,0.2-0.9,0.6
	C874.94,350,878.74,349.3,878.74,352z"/>
<path class="st3" d="M885.64,89.8v10.3h-2v-4.3h-3.8v4.3h-2V89.8h2v4.1h3.8v-4.1H885.64z"/>
<path class="st3" d="M887.04,94.9c-0.1-2.9,2.2-5.3,5.1-5.4c0.1,0,0.2,0,0.3,0c1.8,0,3.5,0.9,4.4,2.4l-1.8,1
	c-0.6-0.9-1.6-1.5-2.7-1.5c-2,0-3.3,1.4-3.3,3.4s1.3,3.4,3.3,3.4c1.1,0,2.1-0.5,2.7-1.5l1.8,1c-0.9,1.5-2.6,2.5-4.4,2.4
	c-2.9,0.1-5.3-2.2-5.4-5.1C887.04,95.1,887.04,95,887.04,94.9z"/>
<path class="st3" d="M905.44,93.2c0,1.9-1.5,3.5-3.4,3.5h-0.1h-1.8v3.4h-2V89.8h3.8C903.84,89.7,905.44,91.3,905.44,93.2
	L905.44,93.2z M903.44,93.2c0-0.8-0.6-1.5-1.4-1.6h-0.1h-1.8v3.1h1.8C902.74,94.8,903.44,94.1,903.44,93.2
	C903.44,93.3,903.44,93.3,903.44,93.2L903.44,93.2z"/>
<path class="st3" d="M911.84,97.9c0,1.6-1.4,2.4-3,2.4c-1.5,0-2.6-0.6-3.1-1.8l1.6-0.9c0.2,0.6,0.8,1,1.4,1c0.6,0,1-0.2,1-0.6
	c0-1.1-3.8-0.5-3.8-3.1c0-1.5,1.3-2.3,2.8-2.3c1.1,0,2.2,0.6,2.8,1.6l-1.6,0.9c-0.2-0.5-0.7-0.8-1.2-0.8s-0.9,0.2-0.9,0.6
	C908.04,95.9,911.84,95.2,911.84,97.9z"/>
<path class="st3" d="M425.84,203.4c-0.1-2.9,2.2-5.3,5.1-5.4c0.1,0,0.2,0,0.3,0c1.8,0,3.5,0.9,4.4,2.4l-1.8,1
	c-0.6-0.9-1.6-1.5-2.7-1.5c-2,0-3.3,1.4-3.3,3.4s1.3,3.4,3.3,3.4c1.1,0,2.1-0.5,2.7-1.5l1.8,1c-0.9,1.5-2.6,2.5-4.4,2.4
	c-2.9,0.1-5.3-2.2-5.4-5.1C425.84,203.6,425.84,203.5,425.84,203.4z"/>
<path class="st3" d="M436.94,197.8h1.9v10.7h-1.9V197.8z"/>
<path class="st3" d="M440.34,199.2c0-0.6,0.5-1.2,1.2-1.2c0.6,0,1.2,0.5,1.2,1.2c0,0.6-0.5,1.2-1.2,1.2l0,0
	C440.84,200.3,440.34,199.8,440.34,199.2z M440.54,201.2h1.9v7.4h-1.9V201.2z"/>
<path class="st3" d="M451.04,204v4.5h-1.9v-4.3c0-1-0.6-1.5-1.5-1.5c-0.9,0-1.6,0.5-1.6,1.8v4h-1.9v-7.4h1.9v0.8
	c0.5-0.7,1.3-1.1,2.2-1C449.84,201,451.04,202.1,451.04,204z"/>
<path class="st3" d="M452.44,199.2c0-0.6,0.5-1.2,1.2-1.2c0.6,0,1.2,0.5,1.2,1.2c0,0.6-0.5,1.2-1.2,1.2l0,0
	C452.94,200.3,452.44,199.8,452.44,199.2z M452.64,201.2h1.9v7.4h-1.9V201.2z"/>
<path class="st3" d="M455.94,204.9c0-2.1,1.6-3.8,3.7-3.9c0.1,0,0.1,0,0.2,0c1.4,0,2.6,0.7,3.3,1.9l-1.6,1c-0.3-0.6-1-1-1.7-1
	c-1.1,0-2,0.9-2,2s0.9,1.9,2,2c0.7,0,1.4-0.3,1.7-1l1.6,0.9c-1.1,1.8-3.5,2.5-5.3,1.4C456.64,207.5,455.94,206.3,455.94,204.9
	L455.94,204.9z"/>
<path class="st3" d="M471.54,201.2v7.4h-1.9v-0.9c-0.6,0.7-1.5,1.1-2.4,1.1c-2,0-3.6-1.7-3.6-3.9s1.6-3.9,3.6-3.9
	c0.9,0,1.8,0.4,2.4,1.1v-0.9L471.54,201.2z M469.64,204.9c0-1.1-0.9-2-2.1-2c-1.1,0-2,0.9-2,2.1c0,1.1,0.9,2,2,2c1.1,0,2-0.8,2-1.9
	C469.64,205,469.64,204.9,469.64,204.9L469.64,204.9z"/>
<path class="st3" d="M473.24,197.8h1.9v10.7h-1.9V197.8z"/>
<path class="st3" d="M487.44,200.2h-2.8v8.4h-2v-8.4h-2.8v-1.9h7.6V200.2z"/>
<path class="st3" d="M490.84,207c0.6,0,1.2-0.2,1.6-0.7l1.5,0.9c-0.7,1-1.9,1.6-3.2,1.6c-2.5,0-4-1.7-4-3.9
	c-0.1-2.1,1.5-3.8,3.6-3.9c0.1,0,0.2,0,0.3,0c2.2,0,3.7,1.7,3.7,3.9c0,0.3,0,0.5-0.1,0.8h-5.5C489.04,206.6,489.84,207,490.84,207z
	 M492.44,204.2c-0.1-0.9-0.9-1.5-1.8-1.5c-0.9-0.1-1.8,0.6-1.9,1.5H492.44z"/>
<path class="st3" d="M500.94,206.4c0,1.6-1.4,2.4-3,2.4c-1.5,0-2.6-0.6-3.1-1.8l1.6-0.9c0.2,0.6,0.8,1,1.4,1c0.6,0,1-0.2,1-0.6
	c0-1.1-3.8-0.5-3.8-3.1c0-1.5,1.3-2.3,2.8-2.3c1.1,0,2.2,0.6,2.8,1.6l-1.6,0.9c-0.2-0.5-0.7-0.8-1.2-0.8s-0.9,0.2-0.9,0.6
	C497.14,204.4,500.94,203.7,500.94,206.4z"/>
<path class="st3" d="M504.54,203v3.1c0,0.8,0.6,0.8,1.7,0.8v1.7c-2.7,0.3-3.6-0.5-3.6-2.5V203h-1.3v-1.8h1.3v-1.5l1.9-0.6v2.1h1.7
	v1.8H504.54z"/>
<path class="st3" d="M436.44,226.2h-2v-6.7l-2.9,4.8h-0.2l-2.9-4.8v6.7h-2v-10.3h2.1l3,4.9l2.9-4.9h2.1v10.3H436.44z"/>
<path class="st3" d="M445.74,218.9v7.4h-1.9v-0.9c-0.6,0.7-1.5,1.1-2.4,1.1c-2,0-3.6-1.7-3.6-3.9s1.6-3.9,3.6-3.9
	c0.9,0,1.8,0.4,2.4,1.1v-0.9L445.74,218.9z M443.84,222.5c0-1.1-0.9-2-2.1-2c-1.1,0-2,0.9-2,2.1c0,1.1,0.9,2,2,2s2-0.8,2-1.9
	C443.84,222.6,443.84,222.6,443.84,222.5L443.84,222.5z"/>
<path class="st3" d="M454.34,221.7v4.5h-1.9v-4.3c0-1-0.6-1.5-1.5-1.5s-1.6,0.5-1.6,1.8v4h-1.9v-7.4h1.9v0.8c0.5-0.7,1.3-1.1,2.2-1
	C453.14,218.7,454.34,219.7,454.34,221.7z"/>
<path class="st3" d="M463.44,218.9v7.4h-1.9v-0.9c-0.6,0.7-1.5,1.1-2.4,1.1c-2,0-3.6-1.7-3.6-3.9s1.6-3.9,3.6-3.9
	c0.9,0,1.8,0.4,2.4,1.1v-0.9L463.44,218.9z M461.54,222.5c0-1.1-0.9-2-2.1-2c-1.1,0-2,0.9-2,2.1c0,1.1,0.9,2,2,2s2-0.8,2-1.9
	C461.54,222.6,461.54,222.6,461.54,222.5L461.54,222.5z"/>
<path class="st3" d="M472.64,218.9v7c0,2.4-1.9,3.5-3.8,3.5c-1.6,0-2.8-0.6-3.5-1.8l1.6-0.9c0.3,0.6,0.8,1,1.9,1
	c1.2,0,1.9-0.6,1.9-1.8v-0.8c-0.6,0.7-1.4,1.2-2.4,1.1c-2.1-0.1-3.7-1.8-3.7-3.9c0.1-2,1.7-3.6,3.7-3.7c0.9,0,1.8,0.4,2.4,1.1v-0.9
	L472.64,218.9z M470.74,222.4c0-1.1-0.9-2.1-2-2.1s-2.1,0.9-2.1,2s0.9,2.1,2,2.1l0,0c1.1,0.1,2-0.8,2.1-1.9
	C470.74,222.5,470.74,222.5,470.74,222.4z"/>
<path class="st3" d="M478.04,224.7c0.6,0,1.2-0.2,1.6-0.7l1.5,0.9c-0.7,1-1.9,1.6-3.2,1.6c-2.5,0-4-1.7-4-3.9
	c-0.1-2.1,1.6-3.8,3.6-3.9c0.1,0,0.2,0,0.3,0c2.2,0,3.7,1.7,3.7,3.9c0,0.3,0,0.5-0.1,0.8h-5.5
	C476.24,224.3,477.04,224.7,478.04,224.7z M479.64,221.8c-0.1-0.9-0.9-1.5-1.8-1.5c-0.9-0.1-1.8,0.6-1.9,1.5H479.64z"/>
<path class="st3" d="M487.04,218.7v2.1c-1-0.1-2.2,0.3-2.2,1.9v3.5h-1.9v-7.4h1.9v1.3C485.14,219.2,486.04,218.7,487.04,218.7z"/>
<path class="st3" d="M493.44,224.1c0,1.6-1.4,2.4-3,2.4c-1.5,0-2.6-0.6-3.1-1.8l1.6-0.9c0.2,0.6,0.8,1,1.4,1s1-0.2,1-0.6
	c0-1.1-3.8-0.5-3.8-3.1c0-1.5,1.3-2.3,2.8-2.3c1.1,0,2.2,0.6,2.8,1.6l-1.6,0.9c-0.2-0.5-0.7-0.8-1.2-0.7c-0.5,0-0.9,0.2-0.9,0.6
	C489.64,222,493.44,221.4,493.44,224.1z"/>
<path class="st3" d="M416.04,535.4c0,1.9-1.5,3.5-3.4,3.5h-0.1h-1.8v3.4h-2V532h3.8C414.44,531.9,415.94,533.4,416.04,535.4
	C416.04,535.3,416.04,535.3,416.04,535.4z M414.04,535.4c0-0.8-0.6-1.5-1.4-1.6h-0.1h-1.8v3.1h1.8
	C413.34,536.9,414.04,536.3,414.04,535.4L414.04,535.4z"/>
<path class="st3" d="M421.24,534.7v2.1c-1-0.1-2.2,0.3-2.2,1.9v3.5h-1.9v-7.4h1.9v1.3C419.34,535.2,420.24,534.6,421.24,534.7z"/>
<path class="st3" d="M421.64,538.5c0-2.1,1.7-3.9,3.9-3.9c2.1,0,3.9,1.7,3.9,3.9s-1.7,3.9-3.9,3.9l0,0
	C423.44,542.4,421.74,540.7,421.64,538.5C421.64,538.6,421.64,538.6,421.64,538.5z M427.54,538.5c0-1.1-0.9-2-2-2c-1.1,0-2,0.9-2,2
	s0.9,2,2,2c1.1,0,2-0.8,2-1.9C427.54,538.6,427.54,538.6,427.54,538.5z"/>
<path class="st3" d="M438.24,531.9v10.3h-1.9v-0.9c-0.6,0.7-1.5,1.1-2.4,1.1c-2,0-3.6-1.7-3.6-3.9s1.6-3.9,3.6-3.9
	c0.9,0,1.8,0.4,2.4,1.1v-3.8L438.24,531.9z M436.34,538.5c0-1.1-0.9-2-2.1-2c-1.1,0-2,0.9-2,2.1c0,1.1,0.9,2,2,2s2-0.8,2-1.9
	C436.34,538.6,436.34,538.6,436.34,538.5L436.34,538.5z"/>
<path class="st3" d="M446.74,534.9v7.4h-1.9v-0.8c-0.5,0.7-1.3,1.1-2.2,1c-1.6,0-2.8-1.1-2.8-3V535h1.9v4.3c0,1,0.6,1.5,1.5,1.5
	s1.6-0.5,1.6-1.8v-4L446.74,534.9z"/>
<path class="st3" d="M448.14,538.5c0-2.1,1.6-3.8,3.7-3.9c0.1,0,0.1,0,0.2,0c1.4,0,2.6,0.7,3.3,1.9l-1.6,1c-0.3-0.6-1-1-1.7-1
	c-1.1,0-2,0.9-2,2s0.9,1.9,2,2c0.7,0,1.4-0.3,1.7-1l1.6,0.9c-1.1,1.8-3.5,2.5-5.3,1.4C448.84,541.2,448.14,539.9,448.14,538.5
	L448.14,538.5z"/>
<path class="st3" d="M458.84,536.7v3.1c0,0.8,0.6,0.8,1.7,0.7v1.7c-2.7,0.3-3.6-0.5-3.6-2.5v-3.1h-1.3v-1.8h1.3v-1.5l1.9-0.6v2.1
	h1.7v1.8L458.84,536.7z"/>
<path class="st3" d="M410.74,545.6v10.3h-2v-10.3H410.74z"/>
<path class="st3" d="M419.44,551.4v4.5h-1.9v-4.3c0-1-0.6-1.5-1.5-1.5c-0.9,0-1.6,0.5-1.6,1.8v4h-1.9v-7.4h1.9v0.8
	c0.5-0.7,1.3-1.1,2.2-1C418.14,548.4,419.44,549.4,419.44,551.4z"/>
<path class="st3" d="M427.84,548.6l-2.8,7.4h-2.2l-2.8-7.4h2.1l1.8,5.1l1.8-5.1H427.84z"/>
<path class="st3" d="M432.14,554.4c0.6,0,1.2-0.2,1.6-0.7l1.5,0.9c-0.7,1-1.9,1.6-3.2,1.6c-2.5,0-4-1.7-4-3.9
	c-0.1-2.1,1.5-3.8,3.6-3.9c0.1,0,0.2,0,0.3,0c2.2,0,3.7,1.7,3.7,3.9c0,0.3,0,0.5-0.1,0.8h-5.5C430.34,554,431.14,554.4,432.14,554.4
	z M433.74,551.5c-0.1-0.9-0.9-1.5-1.8-1.5c-0.9-0.1-1.8,0.6-1.9,1.5H433.74z"/>
<path class="st3" d="M442.24,553.8c0,1.6-1.4,2.4-3,2.4c-1.5,0-2.6-0.6-3.1-1.8l1.6-0.9c0.2,0.6,0.8,1,1.4,1c0.6,0,1-0.2,1-0.6
	c0-1.1-3.8-0.5-3.8-3.1c0-1.5,1.3-2.3,2.8-2.3c1.1,0,2.2,0.6,2.8,1.6l-1.6,0.9c-0.2-0.5-0.7-0.8-1.2-0.7c-0.5,0-0.9,0.2-0.9,0.6
	C438.44,551.7,442.24,551.1,442.24,553.8z"/>
<path class="st3" d="M445.74,550.4v3.1c0,0.8,0.6,0.8,1.7,0.7v1.7c-2.7,0.3-3.6-0.5-3.6-2.5v-3.1h-1.3v-1.8h1.3V547l1.9-0.6v2.1h1.7
	v1.8L445.74,550.4z"/>
<path class="st3" d="M448.54,546.5c0-0.6,0.5-1.2,1.2-1.2c0.6,0,1.2,0.5,1.2,1.2c0,0.6-0.5,1.2-1.2,1.2l0,0
	C449.04,547.7,448.54,547.2,448.54,546.5z M448.74,548.6h1.9v7.4h-1.9V548.6z"/>
<path class="st3" d="M459.84,548.6v7c0,2.4-1.9,3.5-3.8,3.5c-1.6,0-2.8-0.6-3.5-1.8l1.6-0.9c0.3,0.6,0.8,1,1.9,1
	c1.2,0,1.9-0.6,1.9-1.8v-0.8c-0.6,0.7-1.4,1.2-2.4,1.1c-2.1-0.1-3.7-1.8-3.7-3.9c0.1-2,1.7-3.6,3.7-3.7c0.9,0,1.8,0.4,2.4,1.1v-0.9
	L459.84,548.6z M458.04,552.1c0-1.1-0.9-2.1-2-2.1c-1.1,0-2.1,0.9-2.1,2s0.9,2.1,2,2.1l0,0c1.1,0.1,2-0.8,2.1-1.9
	C458.04,552.2,458.04,552.2,458.04,552.1z"/>
<path class="st3" d="M469.14,548.6v7.4h-1.9v-0.9c-0.6,0.7-1.5,1.1-2.4,1.1c-2,0-3.6-1.7-3.6-3.9s1.6-3.9,3.6-3.9
	c0.9,0,1.8,0.4,2.4,1.1v-0.9L469.14,548.6z M467.24,552.2c0-1.1-0.9-2-2.1-2c-1.1,0-2,0.9-2,2.1c0,1.1,0.9,2,2,2c1.1,0,2-0.8,2-1.9
	C467.24,552.4,467.24,552.3,467.24,552.2L467.24,552.2z"/>
<path class="st3" d="M473.34,550.4v3.1c0,0.8,0.6,0.8,1.7,0.7v1.7c-2.7,0.3-3.6-0.5-3.6-2.5v-3.1h-1.3v-1.8h1.3V547l1.9-0.6v2.1h1.7
	v1.8L473.34,550.4z"/>
<path class="st3" d="M475.74,552.2c0-2.1,1.7-3.9,3.9-3.9c2.1,0,3.9,1.7,3.9,3.9c0,2.1-1.7,3.9-3.9,3.9l0,0
	C477.54,556.1,475.74,554.4,475.74,552.2C475.74,552.3,475.74,552.3,475.74,552.2z M481.64,552.2c0-1.1-0.9-2-2-2c-1.1,0-2,0.9-2,2
	s0.9,2,2,2c1.1,0,2-0.8,2-1.9C481.64,552.3,481.64,552.3,481.64,552.2L481.64,552.2z"/>
<path class="st3" d="M489.04,548.4v2.1c-1-0.1-2.2,0.3-2.2,1.9v3.5h-2v-7.4h1.9v1.3C487.14,548.9,488.04,548.4,489.04,548.4z"/>
<path class="st3" d="M495.44,553.8c0,1.6-1.4,2.4-3,2.4c-1.5,0-2.6-0.6-3.1-1.8l1.6-0.9c0.2,0.6,0.8,1,1.4,1s1-0.2,1-0.6
	c0-1.1-3.8-0.5-3.8-3.1c0-1.5,1.3-2.3,2.8-2.3c1.1,0,2.2,0.6,2.8,1.6l-1.6,0.9c-0.2-0.5-0.7-0.8-1.2-0.7c-0.5,0-0.9,0.2-0.9,0.6
	C491.64,551.7,495.44,551.1,495.44,553.8z"/>
<path class="st3" d="M655.84,589.9v10.3h-2v-10.3H655.84z"/>
<path class="st3" d="M664.54,595.6v4.5h-1.9v-4.3c0-1-0.6-1.5-1.5-1.5c-0.9,0-1.6,0.5-1.6,1.8v4h-1.9v-7.4h1.9v0.8
	c0.5-0.7,1.3-1.1,2.2-1C663.34,592.6,664.54,593.7,664.54,595.6z"/>
<path class="st3" d="M668.64,594.6v3.1c0,0.8,0.6,0.8,1.7,0.7v1.7c-2.7,0.3-3.6-0.5-3.6-2.5v-3.1h-1.3v-1.8h1.3v-1.5l1.9-0.6v2.1
	h1.7v1.8L668.64,594.6z"/>
<path class="st3" d="M675.14,598.6c0.6,0,1.2-0.2,1.6-0.7l1.5,0.9c-0.7,1-1.9,1.6-3.2,1.6c-2.5,0-4-1.7-4-3.9
	c-0.1-2.1,1.5-3.8,3.6-3.9c0.1,0,0.2,0,0.3,0c2.2,0,3.7,1.7,3.7,3.9c0,0.3,0,0.5-0.1,0.8h-5.5
	C673.34,598.2,674.14,598.6,675.14,598.6z M676.74,595.8c-0.1-0.9-0.9-1.5-1.8-1.5c-0.9-0.1-1.8,0.6-1.9,1.5H676.74z"/>
<path class="st3" d="M684.14,592.7v2.1c-1-0.1-2.2,0.3-2.2,1.9v3.5h-1.9v-7.4h1.9v1.3C682.24,593.2,683.14,592.6,684.14,592.7z"/>
<path class="st3" d="M692.14,595.6v4.5h-1.9v-4.3c0-1-0.6-1.5-1.5-1.5c-0.9,0-1.6,0.5-1.6,1.8v4h-1.9v-7.4h1.9v0.8
	c0.5-0.7,1.3-1.1,2.2-1C690.94,592.6,692.14,593.7,692.14,595.6z"/>
<path class="st3" d="M701.24,592.8v7.4h-1.9v-0.9c-0.6,0.7-1.5,1.1-2.4,1.1c-2,0-3.6-1.7-3.6-3.9s1.6-3.9,3.6-3.9
	c0.9,0,1.8,0.4,2.4,1.1v-0.9L701.24,592.8z M699.34,596.5c0-1.1-0.9-2-2.1-2c-1.1,0-2,0.9-2,2.1c0,1.1,0.9,2,2,2c1.1,0,2-0.8,2-1.9
	C699.34,596.6,699.34,596.5,699.34,596.5L699.34,596.5z"/>
<path class="st3" d="M702.94,589.4h1.9v10.7h-1.9V589.4z"/>
<path class="st3" d="M709.84,595c-0.1-2.9,2.2-5.3,5.1-5.4c0.1,0,0.2,0,0.3,0c1.8,0,3.5,0.9,4.4,2.4l-1.8,1
	c-0.6-0.9-1.6-1.5-2.7-1.5c-2,0-3.3,1.4-3.3,3.4s1.3,3.4,3.3,3.4c1.1,0,2.1-0.5,2.7-1.5l1.8,1c-0.9,1.5-2.6,2.5-4.4,2.4
	c-2.9,0.1-5.3-2.2-5.4-5.1C709.84,595.2,709.84,595.1,709.84,595z"/>
<path class="st3" d="M720.44,596.5c0-2.1,1.7-3.9,3.9-3.9c2.1,0,3.9,1.7,3.9,3.9c0,2.1-1.7,3.9-3.9,3.9l0,0
	C722.24,600.4,720.54,598.7,720.44,596.5L720.44,596.5z M726.34,596.5c0-1.1-0.9-2-2-2s-2,0.9-2,2s0.9,2,2,2s2-0.8,2-1.9V596.5
	L726.34,596.5z"/>
<path class="st3" d="M740.54,595.6v4.5h-1.9v-4.4c0-0.9-0.4-1.4-1.2-1.4c-0.8,0-1.4,0.6-1.4,1.7v4.1h-1.9v-4.4
	c0-0.9-0.4-1.4-1.2-1.4c-0.8,0-1.4,0.6-1.4,1.7v4.1h-1.9v-7.4h1.9v0.8c0.5-0.7,1.2-1,2-1s1.6,0.4,2,1.1c0.5-0.7,1.3-1.1,2.2-1.1
	C739.44,592.6,740.54,593.8,740.54,595.6z"/>
<path class="st3" d="M750.04,596.5c0,2.2-1.6,3.9-3.6,3.9c-0.9,0-1.8-0.4-2.4-1.1v3.8h-1.9v-10.3h1.9v0.9c0.6-0.7,1.5-1.1,2.4-1.1
	C748.34,592.6,750.04,594.3,750.04,596.5z M748.14,596.5c0-1.1-0.9-2-2.1-2c-1.1,0-2,0.9-2,2.1c0,1.1,0.9,2,2,2c1.1,0,2-0.8,2-1.9
	C748.14,596.6,748.14,596.5,748.14,596.5L748.14,596.5z"/>
<path class="st3" d="M758.84,592.8v7.4h-1.9v-0.9c-0.6,0.7-1.5,1.1-2.4,1.1c-2,0-3.6-1.7-3.6-3.9s1.6-3.9,3.6-3.9
	c0.9,0,1.8,0.4,2.4,1.1v-0.9L758.84,592.8z M756.94,596.5c0-1.1-0.9-2-2.1-2c-1.1,0-2,0.9-2,2.1c0,1.1,0.9,2,2,2s2-0.8,2-1.9
	C756.94,596.6,756.94,596.5,756.94,596.5L756.94,596.5z"/>
<path class="st3" d="M767.44,595.6v4.5h-1.9v-4.3c0-1-0.6-1.5-1.5-1.5s-1.6,0.5-1.6,1.8v4h-1.9v-7.4h1.9v0.8c0.5-0.7,1.3-1.1,2.2-1
	C766.24,592.6,767.44,593.7,767.44,595.6z"/>
<path class="st3" d="M775.74,592.8l-2.7,7.4c-0.8,2.1-2,3-3.9,2.9v-1.8c1,0,1.6-0.4,1.9-1.4l-3-7.1h2.1l1.9,4.9l1.6-4.9
	L775.74,592.8L775.74,592.8z"/>
<path class="st3" d="M653.24,611.5l1.7-1c0.4,1,1.1,1.6,2.4,1.6c1.2,0,1.6-0.5,1.6-1.1c0-0.8-0.7-1.1-2.2-1.5
	c-1.6-0.5-3.1-1.1-3.1-3.1c0-1.9,1.6-3.1,3.4-3.1c1.6,0,3,0.9,3.7,2.3l-1.7,1c-0.4-0.8-0.9-1.3-2-1.3c-0.9,0-1.4,0.4-1.4,1
	s0.4,1,2,1.4c1.6,0.5,3.4,1.1,3.4,3.2c0,1.9-1.5,3.1-3.7,3.1C655.24,614.1,653.84,613.1,653.24,611.5z"/>
<path class="st3" d="M664.64,608.3v3.1c0,0.8,0.6,0.8,1.7,0.7v1.7c-2.7,0.3-3.6-0.5-3.6-2.5v-3.1h-1.3v-1.8h1.3V605l1.9-0.6v2.1h1.7
	v1.8H664.64z"/>
<path class="st3" d="M674.84,606.5v7.4h-1.9V613c-0.6,0.7-1.5,1.1-2.4,1.1c-2,0-3.6-1.7-3.6-3.9s1.6-3.9,3.6-3.9
	c0.9,0,1.8,0.4,2.4,1.1v-0.9L674.84,606.5z M672.94,610.2c0-1.1-0.9-2-2.1-2c-1.1,0-2,0.9-2,2.1c0,1.1,0.9,2,2,2s2-0.8,2-1.9
	C672.94,610.3,672.94,610.2,672.94,610.2L672.94,610.2z"/>
<path class="st3" d="M681.14,613.9l-2.7-3.3v3.3h-1.9v-10.3h1.9v6.2l2.5-3.2h2.3l-3,3.6l3,3.7H681.14z"/>
<path class="st3" d="M687.44,612.4c0.6,0,1.2-0.2,1.6-0.7l1.5,0.9c-0.7,1-1.9,1.6-3.2,1.6c-2.5,0-4-1.7-4-3.9
	c-0.1-2.1,1.6-3.8,3.6-3.9c0.1,0,0.2,0,0.3,0c2.2,0,3.7,1.7,3.7,3.9c0,0.3,0,0.5-0.1,0.8h-5.5
	C685.64,611.9,686.44,612.4,687.44,612.4z M689.14,609.5c-0.1-0.9-0.9-1.5-1.8-1.5c-0.9-0.1-1.8,0.6-1.9,1.5H689.14z"/>
<path class="st3" d="M699.24,609.3v4.5h-1.9v-4.3c0-1-0.6-1.5-1.5-1.5s-1.6,0.5-1.6,1.8v4h-1.9v-10.3h1.9v3.8c0.5-0.7,1.3-1.1,2.2-1
	C697.94,606.3,699.24,607.4,699.24,609.3z"/>
<path class="st3" d="M700.44,610.2c0-2.1,1.7-3.9,3.9-3.9c2.1,0,3.9,1.7,3.9,3.9c0,2.1-1.7,3.9-3.9,3.9l0,0
	C702.24,614.1,700.44,612.4,700.44,610.2L700.44,610.2z M706.34,610.2c0-1.1-0.9-2-2-2s-2,0.9-2,2s0.9,2,2,2s2-0.8,2-1.9V610.2z"/>
<path class="st3" d="M709.54,603.1h1.9v10.7h-1.9V603.1z"/>
<path class="st3" d="M720.64,603.6v10.3h-1.9V613c-0.6,0.7-1.5,1.1-2.4,1.1c-2,0-3.6-1.7-3.6-3.9s1.6-3.9,3.6-3.9
	c0.9,0,1.8,0.4,2.4,1.1v-3.8L720.64,603.6z M718.74,610.2c0-1.1-0.9-2-2.1-2c-1.1,0-2,0.9-2,2.1c0,1.1,0.9,2,2,2s2-0.8,2-1.9
	C718.74,610.3,718.74,610.2,718.74,610.2L718.74,610.2z"/>
<path class="st3" d="M726.04,612.4c0.6,0,1.2-0.2,1.6-0.7l1.5,0.9c-0.7,1-1.9,1.6-3.2,1.6c-2.5,0-4-1.7-4-3.9
	c-0.1-2.1,1.5-3.8,3.6-3.9c0.1,0,0.2,0,0.3,0c2.2,0,3.7,1.7,3.7,3.9c0,0.3,0,0.5-0.1,0.8h-5.5
	C724.24,611.9,725.04,612.4,726.04,612.4z M727.74,609.5c-0.1-0.9-0.9-1.5-1.8-1.5c-0.9-0.1-1.8,0.6-1.9,1.5H727.74z"/>
<path class="st3" d="M735.04,606.4v2.1c-1-0.1-2.2,0.3-2.2,1.9v3.5h-1.9v-7.4h1.9v1.3C733.24,606.9,734.14,606.3,735.04,606.4z"/>
<path class="st3" d="M741.54,611.7c0,1.6-1.4,2.4-3,2.4c-1.5,0-2.6-0.6-3.1-1.8l1.6-0.9c0.2,0.6,0.8,1,1.4,1c0.6,0,1-0.2,1-0.6
	c0-1.1-3.8-0.5-3.8-3.1c0-1.5,1.3-2.3,2.8-2.3c1.1,0,2.2,0.6,2.8,1.6l-1.6,0.9c-0.2-0.5-0.7-0.8-1.2-0.7c-0.5,0-0.9,0.2-0.9,0.6
	C737.74,609.7,741.54,609,741.54,611.7z"/>
<path class="st3" d="M965.44,545.4c0,1.9-1.5,3.5-3.4,3.5h-0.1h-1.8v3.4h-2V542h3.8C963.84,541.9,965.44,543.4,965.44,545.4
	C965.44,545.3,965.44,545.4,965.44,545.4z M963.44,545.4c0-0.8-0.6-1.5-1.4-1.6h-0.1h-1.8v3.1h1.8
	C962.74,546.9,963.44,546.3,963.44,545.4L963.44,545.4z"/>
<path class="st3" d="M973.64,544.9v7.4h-1.9v-0.9c-0.6,0.7-1.5,1.1-2.4,1.1c-2,0-3.6-1.7-3.6-3.9s1.6-3.9,3.6-3.9
	c0.9,0,1.8,0.4,2.4,1.1v-0.9L973.64,544.9L973.64,544.9z M971.74,548.5c0-1.1-0.9-2-2.1-2c-1.1,0-2,0.9-2,2.1c0,1.1,0.9,2,2,2
	s2-0.8,2-1.9C971.74,548.7,971.74,548.6,971.74,548.5L971.74,548.5z"/>
<path class="st3" d="M982.24,544.9l-2.7,7.4c-0.8,2.1-2,3-3.9,2.9v-1.8c1,0,1.6-0.4,1.9-1.4l-3-7.1h2.1l1.9,4.9l1.6-4.9
	L982.24,544.9L982.24,544.9z"/>
<path class="st3" d="M986.54,550.7c0.6,0,1.2-0.2,1.6-0.7l1.5,0.9c-0.7,1-1.9,1.6-3.2,1.6c-2.5,0-4-1.7-4-3.9
	c-0.1-2.1,1.5-3.8,3.6-3.9c0.1,0,0.2,0,0.3,0c2.2,0,3.7,1.7,3.7,3.9c0,0.3,0,0.5-0.1,0.8h-5.5
	C984.74,550.3,985.54,550.7,986.54,550.7z M988.14,547.9c-0.1-0.9-0.9-1.5-1.8-1.5c-0.9-0.1-1.8,0.6-1.9,1.5H988.14z"/>
<path class="st3" d="M995.54,544.7v2.1c-1-0.1-2.2,0.3-2.2,1.9v3.5h-1.9v-7.4h1.9v1.3C993.64,545.2,994.54,544.7,995.54,544.7z"/>
<path class="st3" d="M1001.94,550.1c0,1.6-1.4,2.4-3,2.4c-1.5,0-2.6-0.6-3.1-1.8l1.6-0.9c0.2,0.6,0.8,1,1.4,1c0.6,0,1-0.2,1-0.6
	c0-1.1-3.8-0.5-3.8-3.1c0-1.5,1.3-2.3,2.8-2.3c1.1,0,2.2,0.6,2.8,1.6l-1.6,0.9c-0.2-0.5-0.7-0.8-1.2-0.7c-0.5,0-0.9,0.2-0.9,0.6
	C998.14,548,1001.94,547.4,1001.94,550.1z"/>
<circle class="st2" cx="698.54" cy="324.2" r="72.8"/>
<path class="st3" d="M694.94,377.9h-2.9v-9.7l-4.2,6.9h-0.3l-4.2-6.9v9.7h-2.9V363h3l4.3,7.1l4.3-7.1h3L694.94,377.9z"/>
<path class="st3" d="M696.74,374.5l2.5-1.5c0.5,1.4,1.6,2.3,3.4,2.3s2.4-0.7,2.4-1.6c0-1.1-1-1.5-3.2-2.2c-2.3-0.7-4.5-1.6-4.5-4.5
	c0-2.8,2.3-4.4,4.9-4.4c2.3-0.1,4.4,1.3,5.3,3.3l-2.5,1.4c-0.5-1.1-1.3-1.9-2.9-1.9c-1.2,0-2,0.6-2,1.5s0.6,1.4,2.8,2.1
	c2.4,0.7,4.9,1.5,4.9,4.6c0,2.8-2.2,4.5-5.4,4.5C699.54,378.2,697.54,376.7,696.74,374.5z"/>
<path class="st3" d="M718.44,375.1v2.8h-8.6V363h2.9v12.1H718.44z"/>
<g>
	<path class="st4" d="M714.84,299.7c0,2.6-1,4.7-2.3,4.7c-0.1,0-0.3,0-0.4-0.1c0.3-1.7,0.4-3.4,0.4-5.1c0-0.4,0-0.7,0-1.1
		c0-0.2,0-0.5,0-0.7c0-0.6-0.1-1.1-0.1-1.7c0-0.2,0-0.4-0.1-0.6c0.1,0,0.2,0,0.2,0c0.3,0,0.6,0.1,0.9,0.4
		C714.24,296.1,714.84,297.8,714.84,299.7z"/>
	<path class="st5" d="M728.74,346.3v1.5h-60.5v-1.5c0-10.5,8.2-19.1,18.7-19.7l7,6.7c0.3,0.3,0.7,0.3,1,0c0.1-0.1,0.1-0.1,0.1-0.2
		l0.9-1.9l2.2-4.7h1.6l2.2,4.7l0.9,1.9c0.2,0.3,0.6,0.5,0.9,0.3c0.1,0,0.1-0.1,0.2-0.1l7-6.7C720.94,327.5,728.74,336,728.74,346.3z
		"/>
	<path class="st6" d="M708.04,285.7c-0.6,4-3.1,8.2-7.3,11.4c-5.1,3.9-11.1,5.1-15.5,3.6c-0.3-0.1-0.7,0.1-0.8,0.4
		c0,0.1,0,0.2,0,0.2c0.1,1.1,0.2,2.1,0.3,3.1c0.9,6.1,3.5,11.3,6.9,14.3c0.1,0.1,0.2,0.3,0.2,0.5v0.8c0,0.3-0.3,0.6-0.6,0.6
		c-0.1,0-0.1,0-0.2,0c-3.6-0.9-6.4-2.5-7.9-4.5c-0.2-0.3-0.6-0.5-1.1-0.5l0,0c-3.5,0-6.3-2.6-6.3-5.7c0-1.6,0.7-3.1,1.9-4.1
		c0.5-0.4,0.6-1,0.3-1.6c-0.6-1.2-0.9-2.5-0.9-3.9c0-2.1,0.8-4.2,2.2-5.7c0.3-0.3,0.4-0.6,0.4-1l0,0c0-0.1,0-0.2,0-0.3
		c0-0.1,0-0.2,0-0.4c-0.2-4.5,2.5-9.7,7.4-13.5c6.9-5.3,15.6-5.7,19.4-0.8c0.2,0.2,0.3,0.4,0.5,0.7c0.1,0.2,0.2,0.4,0.3,0.5
		C708.14,281.6,708.44,283.7,708.04,285.7z"/>
	<path class="st6" d="M714.24,315.7c-0.2,0.1-0.4,0.2-0.5,0.4c-1.6,2.1-4.7,3.7-8.6,4.6v-1.9c3.5-3,6.1-8.2,7.1-14.5
		c0.1,0,0.3,0.1,0.4,0.1c1.3,0,2.3-2.1,2.3-4.7c0-1.9-0.6-3.6-1.4-4.3c-0.2-0.2-0.6-0.3-0.9-0.4c-0.1,0-0.2,0-0.2,0
		c0-0.4-0.1-0.8-0.2-1.2c-0.1-0.5-0.2-0.9-0.2-1.3c-0.1-0.6-0.2-1.2-0.4-1.7c-0.3-1.4-1-2.7-1.9-3.8c-0.4-0.5-1-1-1.5-1.4
		c0.3-2,0-4.1-0.9-5.9l0,0c3.7,0,6.7,5.1,6.7,11.4c0,0.3,0,0.7,0,1s0.1,0.7,0.3,0.9c2,2,3.6,5.5,4.1,9.5
		C719.14,308.8,717.34,314.2,714.24,315.7z"/>
	<path class="st4" d="M712.54,299.2c0,1.7-0.1,3.4-0.4,5.1c-0.9,6.3-3.6,11.5-7.1,14.5c-0.4,0.4-0.8,0.7-1.3,1
		c-3.2,2.2-7.4,2.2-10.6,0c-0.5-0.3-0.9-0.6-1.3-1c-3.5-3-6.1-8.2-7.1-14.5c-0.2-1-0.3-2.1-0.3-3.1c0-0.3,0.2-0.6,0.6-0.6
		c0.1,0,0.2,0,0.2,0c4.3,1.6,10.4,0.4,15.5-3.5c4.1-3.2,6.7-7.5,7.3-11.4c0.6,0.4,1.1,0.9,1.5,1.4c0.9,1.1,1.6,2.4,1.9,3.8
		c0.1,0.6,0.3,1.1,0.4,1.7c0.1,0.4,0.2,0.9,0.2,1.3c0.1,0.4,0.1,0.8,0.2,1.2c0,0.2,0,0.4,0.1,0.6c0.1,0.6,0.1,1.1,0.1,1.7
		c0,0.2,0,0.5,0,0.7C712.54,298.5,712.54,298.8,712.54,299.2z"/>
	<path class="st3" d="M698.54,321.6c-1.9,0-3.8-0.6-5.4-1.7c-0.5-0.3-0.9-0.6-1.3-1c-3.6-3-6.2-8.3-7.1-14.6c-0.2-1-0.3-2.1-0.3-3.1
		c0-0.2,0.1-0.4,0.2-0.6s0.3-0.3,0.5-0.3c0.1,0,0.2,0,0.3,0c4.4,1.6,10.4,0.3,15.3-3.5c3.9-3,6.6-7.3,7.2-11.3v-0.3l0.2,0.2
		c0.6,0.4,1.1,0.9,1.6,1.4c0.9,1.1,1.6,2.4,2,3.8c0.1,0.6,0.3,1.2,0.4,1.7c0.1,0.4,0.2,0.8,0.2,1.3c0.1,0.4,0.1,0.8,0.2,1.2l0.1,0.6
		c0.1,0.6,0.1,1.2,0.1,1.7c0,0.2,0,0.5,0,0.7c0,0.4,0,0.7,0,1.1l0,0c0,1.7-0.1,3.5-0.4,5.2c-0.9,6.2-3.5,11.5-7.1,14.6
		c-0.4,0.4-0.9,0.7-1.3,1C702.24,321,700.34,321.6,698.54,321.6z M685.14,300.8L685.14,300.8c-0.1,0-0.2,0.1-0.3,0.1
		c-0.1,0.1-0.1,0.2-0.1,0.3c0.1,1,0.2,2.1,0.3,3.1c0.9,6.2,3.5,11.4,7,14.4c0.4,0.3,0.8,0.7,1.3,1c3.2,2.1,7.2,2.1,10.4,0
		c0.5-0.3,0.9-0.6,1.3-1c3.5-3,6.1-8.2,7-14.4c0.3-1.7,0.4-3.4,0.4-5.1l0,0c0-0.4,0-0.7,0-1.1c0-0.2,0-0.5,0-0.7
		c0-0.5-0.1-1.1-0.1-1.7l-0.1-0.6c0-0.4-0.1-0.8-0.2-1.2c-0.1-0.5-0.2-0.9-0.2-1.3c-0.1-0.6-0.2-1.2-0.4-1.7c-0.3-1.4-1-2.6-1.9-3.7
		c-0.4-0.4-0.8-0.8-1.3-1.2c-0.7,4.1-3.4,8.2-7.3,11.3c-5,3.8-11.1,5.2-15.7,3.6C685.24,300.8,685.14,300.8,685.14,300.8z"/>
	<path class="st3" d="M712.54,304.6c-0.1,0-0.3,0-0.4-0.1h-0.1v-0.1c0.3-1.7,0.4-3.4,0.4-5.1c0-0.4,0-0.7,0-1.1c0-0.2,0-0.5,0-0.7
		c0-0.5-0.1-1.1-0.1-1.7l-0.1-0.8h0.2c0.1,0,0.2,0,0.3,0c0.4,0,0.7,0.2,1,0.4c0.9,0.8,1.5,2.5,1.5,4.4
		C715.04,302.5,713.94,304.6,712.54,304.6z M712.34,304.2c0.1,0,0.1,0,0.2,0c1.1,0,2.1-2.1,2.1-4.5c0-1.8-0.5-3.5-1.3-4.2
		c-0.2-0.2-0.5-0.3-0.8-0.3l0,0l0.1,0.5c0.1,0.6,0.1,1.2,0.1,1.7c0,0.2,0,0.5,0,0.7c0,0.4,0,0.7,0,1.1
		C712.74,300.9,712.64,302.6,712.34,304.2z"/>
	<path class="st3" d="M694.44,333.6c-0.1,0-0.2,0-0.4-0.1c-0.1,0-0.2-0.1-0.2-0.2l-7.3-7c-0.3-0.3-0.3-0.7-0.2-1l1.6-3.1
		c0.2-0.4,0.6-0.6,1-0.4l9.5,2.7c0.4,0.1,0.6,0.5,0.5,0.8v0.1l-3.6,7.6C695.04,333.5,694.74,333.6,694.44,333.6z M687.04,326.4
		L687.04,326.4l7,6.7l0.1,0.1c0.3,0.1,0.6,0,0.7-0.2l3.6-7.6c0,0,0,0,0-0.1s0-0.2,0-0.2c0-0.1-0.1-0.1-0.2-0.2l-9.5-2.7
		c-0.2-0.1-0.5,0-0.6,0.3l-1.6,3.1c-0.1,0.2-0.1,0.4,0.1,0.6L687.04,326.4z"/>
	<rect x="704.94" y="320.7" class="st3" width="0.4" height="2.4"/>
	<rect x="691.74" y="320.7" class="st3" width="0.4" height="2.2"/>
	<path class="st3" d="M703.34,333.7L703.34,333.7c-0.2,0-0.5-0.1-0.6-0.3c-0.1-0.1-0.1-0.1-0.2-0.2l-3.6-7.6c-0.1-0.2-0.1-0.4,0-0.5
		c0.1-0.2,0.2-0.3,0.4-0.4h0.1l9.5-2.7c0.4-0.1,0.8,0.1,1,0.4l1.6,3.1c0.2,0.3,0.1,0.7-0.2,1l-0.4,0.3l-7,6.7
		C703.74,333.6,703.54,333.7,703.34,333.7z M709.14,322.2h-0.1l-9.5,2.7l0,0c-0.1,0-0.1,0.1-0.2,0.2c0,0.1,0,0.2,0,0.3l3.6,7.6
		l0.1,0.1c0.1,0.1,0.2,0.2,0.4,0.2c0.1,0,0.3,0,0.4-0.1l7.3-7c0.2-0.2,0.2-0.4,0.1-0.6l-1.6-3.1
		C709.44,322.3,709.34,322.2,709.14,322.2z"/>
	<path class="st3" d="M728.94,348h-60.9v-1.7c0-10.6,8.3-19.3,18.8-19.9h0.1l0.1,0.1l7,6.7c0.1,0.1,0.2,0.2,0.4,0.1
		c0.1,0,0.3-0.1,0.4-0.2l0.1-0.1l3.1-6.6h1.8l3.1,6.6c0.1,0.3,0.4,0.4,0.7,0.2l0.1-0.1l7-6.7h0.1c5,0.4,9.6,2.7,12.9,6.4
		c3.4,3.7,5.2,8.4,5.2,13.4L728.94,348L728.94,348z M668.44,347.6h60.2v-1.4c0-4.9-1.8-9.6-5.1-13.2s-7.8-5.8-12.6-6.3l-6.9,6.6
		c-0.1,0.1-0.1,0.1-0.2,0.2c-0.4,0.2-0.9,0-1.1-0.4l-3-6.4h-1.4l-3,6.4c0,0.1-0.1,0.2-0.2,0.2c-0.2,0.2-0.4,0.3-0.6,0.3
		c-0.2,0-0.4-0.1-0.6-0.2l-6.9-6.7c-10.3,0.6-18.4,9.1-18.4,19.5v1.4H668.44z"/>
	<path class="st3" d="M691.24,320.7c-0.1,0-0.2,0-0.2,0c-3.6-1-6.4-2.6-7.9-4.5c-0.2-0.3-0.6-0.5-0.9-0.5l0,0
		c-3.6,0-6.5-2.6-6.5-5.9c0-1.6,0.7-3.2,2-4.2c0.4-0.3,0.5-0.9,0.3-1.4c-0.6-1.2-0.9-2.6-0.9-4c0-2.2,0.8-4.2,2.3-5.8
		c0.2-0.2,0.3-0.5,0.3-0.8l0,0c0-0.1,0-0.2,0-0.3v-0.1c0-0.1,0-0.2,0-0.3c-0.2-4.7,2.7-9.9,7.5-13.6c3.4-2.6,7.3-4.1,10.9-4.3
		c3.7-0.1,6.8,1.1,8.7,3.5c0.2,0.2,0.3,0.4,0.5,0.7c0.1,0.2,0.2,0.4,0.3,0.6c0.9,1.9,1.2,3.9,0.9,6c-0.6,4.1-3.3,8.5-7.3,11.5
		c-4.9,3.8-11,5.2-15.5,3.6c-0.3-0.1-0.6,0.1-0.7,0.3c0,0.1,0,0.1,0,0.2c0.1,1,0.2,2,0.3,3c0.9,6,3.4,11.2,6.8,14.2
		c0.2,0.2,0.3,0.4,0.3,0.6v0.7c0,0.2-0.1,0.5-0.3,0.6C691.64,320.6,691.44,320.7,691.24,320.7z M682.14,315.3c0.5,0,0.9,0.2,1.2,0.6
		c1.4,1.9,4.1,3.5,7.7,4.4h0.1l0,0c0.1,0,0.3-0.1,0.4-0.2s0.2-0.2,0.2-0.4V319c0-0.1-0.1-0.3-0.2-0.4c-3.5-3.1-6-8.3-6.9-14.4
		c-0.1-1-0.3-2-0.3-3c0-0.1,0-0.2,0-0.3c0.2-0.5,0.7-0.7,1.1-0.5c4.4,1.6,10.4,0.2,15.2-3.6c3.9-3,6.6-7.3,7.2-11.3l0,0
		c0.3-2,0-4-0.8-5.8c-0.1-0.2-0.2-0.3-0.3-0.5c-0.1-0.2-0.3-0.4-0.5-0.7c-1.8-2.3-4.8-3.5-8.4-3.4c-3.6,0.1-7.4,1.6-10.7,4.2
		c-4.7,3.6-7.5,8.7-7.3,13.3c0,0.1,0,0.2,0,0.2v0.1c0,0.1,0,0.2,0,0.3v0.1c0,0.4-0.1,0.8-0.4,1.1c-1.4,1.5-2.2,3.5-2.2,5.6
		c0,1.3,0.3,2.6,0.9,3.8c0.3,0.6,0.2,1.3-0.4,1.8c-1.2,1-1.9,2.4-1.9,4C676.04,312.8,678.74,315.3,682.14,315.3L682.14,315.3z"/>
	<path class="st3" d="M704.94,320.9v-2.2l0.1-0.1c3.5-3,6.1-8.2,7-14.4V304l0.2,0.1c0.1,0,0.2,0.1,0.3,0.1c1.1,0,2.1-2.1,2.1-4.5
		c0-1.8-0.5-3.5-1.3-4.2c-0.2-0.2-0.5-0.3-0.8-0.3c-0.1,0-0.1,0-0.2,0h-0.2V295c0-0.4-0.1-0.8-0.2-1.2c-0.1-0.5-0.2-0.9-0.2-1.3
		c-0.1-0.6-0.3-1.2-0.4-1.7c-0.3-1.4-1-2.6-1.9-3.7c-0.4-0.5-0.9-1-1.5-1.4l-0.1-0.1v-0.1c0.3-2,0-4-0.8-5.8l-0.1-0.3h0.3
		c3.8,0,6.8,5.2,6.8,11.6c0,0.4,0,0.7,0,1s0.1,0.6,0.3,0.8c2.1,2.2,3.6,5.7,4.2,9.6c0.8,6.1-0.9,11.7-4.2,13.2l0,0
		c-0.2,0.1-0.3,0.2-0.4,0.3c-1.6,2.1-4.8,3.8-8.7,4.7L704.94,320.9z M705.24,318.9v1.6c3.8-0.9,6.8-2.5,8.3-4.5
		c0.2-0.2,0.3-0.4,0.6-0.5c3.1-1.5,4.8-6.9,4-12.9c-0.5-3.9-2-7.3-4.1-9.4c-0.3-0.3-0.4-0.7-0.4-1.1c0-0.3,0-0.6,0-1
		c0-6-2.8-11-6.2-11.2c0.8,1.8,1.1,3.7,0.8,5.6c0.5,0.4,1,0.8,1.5,1.4c0.9,1.1,1.6,2.4,2,3.8c0.1,0.5,0.3,1.1,0.4,1.7
		c0.1,0.4,0.2,0.8,0.2,1.3c0.1,0.3,0.1,0.7,0.1,1h0.1c0.4,0,0.7,0.2,1,0.4c0.9,0.8,1.5,2.5,1.5,4.4c0,2.7-1.1,4.8-2.5,4.8
		c-0.1,0-0.2,0-0.2,0C711.34,310.7,708.84,315.9,705.24,318.9z"/>
	<path class="st7" d="M698.64,325.4l-0.5,1.1l-2.2,4.7l-0.9,1.9c-0.2,0.3-0.6,0.5-0.9,0.3c-0.1,0-0.1-0.1-0.2-0.1l-7-6.7l0,0
		l-0.3-0.3c-0.2-0.2-0.3-0.5-0.1-0.8l1.6-3.1c0.1-0.3,0.5-0.4,0.8-0.4l3.1,0.9l6.4,1.8C698.54,324.8,698.74,325.1,698.64,325.4
		L698.64,325.4z"/>
	<path class="st7" d="M711.14,326.3l-0.3,0.3l-0.1,0.1l-7,6.7c-0.3,0.3-0.7,0.3-1,0c-0.1-0.1-0.1-0.1-0.1-0.2l-0.9-1.9l-2.2-4.7
		l-0.5-1.1c-0.1-0.3,0-0.6,0.3-0.7c0,0,0,0,0.1,0l5.7-1.6l0.7-0.2l3.1-0.9c0.3-0.1,0.7,0.1,0.8,0.4l1.6,3.1
		C711.44,325.7,711.34,326.1,711.14,326.3z"/>
	<path class="st8" d="M699.14,325.4l0.5,1.1h-1.6l0.5-1.1c0.1-0.3,0-0.5-0.2-0.7h-0.1l-6.4-1.8v-4.1c0.4,0.4,0.8,0.7,1.3,1
		c3.2,2.2,7.4,2.2,10.6,0c0.5-0.3,0.9-0.6,1.3-1v4.3l-5.7,1.6C699.14,324.8,699.04,325.1,699.14,325.4L699.14,325.4z"/>
</g>
<g>
	<path class="st3" d="M866.44,335.3h-26.2c-0.2,0-0.4-0.2-0.4-0.4v-4.7c0-3.3,2.7-6,6-6h4.3c0.2,0,0.3,0.1,0.3,0.3
		c0.1,0.7,0.4,1.4,1,1.8c0.6,0.5,1.3,0.7,2,0.6c1.3-0.1,2.3-1.1,2.4-2.4c0-0.2,0.2-0.3,0.3-0.3h4.3c3.3,0,6,2.7,6,6v4.7
		C866.74,335.2,866.64,335.3,866.44,335.3z M840.54,334.6h25.5v-4.3l0,0c0-2.9-2.4-5.3-5.3-5.3h-4c-0.3,1.5-1.5,2.6-3,2.7
		c-0.9,0.1-1.8-0.2-2.5-0.7c-0.6-0.5-1.1-1.2-1.2-2h-4c-2.9,0-5.3,2.4-5.3,5.3v4.3H840.54z"/>
	<path class="st3" d="M853.34,327.8c-0.1,0-0.3,0-0.4,0c-1.6-0.2-2.9-1.4-3.1-3.1c0-0.1,0-0.3,0-0.4v-1.9c0-0.1,0.1-0.2,0.1-0.3
		c0.1-0.1,0.2-0.1,0.3,0c1.9,0.7,4,0.7,6,0c0.1,0,0.2,0,0.3,0c0.1,0.1,0.1,0.2,0.1,0.3v1.9c0,0.1,0,0.3,0,0.4
		C856.54,326.4,855.04,327.8,853.34,327.8z M850.54,322.9v1.4c0,0.1,0,0.2,0,0.3c0.1,1.3,1.1,2.3,2.4,2.4c1.5,0.2,2.9-0.9,3-2.4
		c0-0.1,0-0.2,0-0.3v-1.4C854.24,323.4,852.34,323.4,850.54,322.9z"/>
	<path class="st2" d="M866.14,321.4c-0.1,0-0.3,0-0.4-0.1c-0.2-0.1-0.3-0.3-0.4-0.5v-0.1l-1.2-4.3c-0.1-0.4,0.1-0.9,0.6-1l5.1-1.4
		l1.5,5.4h0.1v0.5l-5,1.4C866.24,321.4,866.14,321.4,866.14,321.4z M869.24,315l-4.4,1.2c-0.1,0-0.1,0.1-0.1,0.2l1.2,4.3
		c0,0,0,0.1,0.1,0.1h0.1l4.4-1.2L869.24,315z"/>
	<polygon class="st3" points="871.44,320.1 870.74,320.1 869.04,314.2 869.84,314.2 869.84,314.4 	"/>
	<path class="st2" d="M881.04,320.9L881.04,320.9l-10.3-0.9l-0.1-0.2l-1.6-5.7h0.4l8-5.8c0.2-0.1,0.4-0.2,0.6-0.1
		c0.2,0,0.4,0.1,0.5,0.3c0.1,0.1,0.1,0.2,0.1,0.2l3.1,11.2c0.1,0.4-0.1,0.8-0.5,0.9C881.14,320.9,881.14,320.9,881.04,320.9z
		 M871.24,319.4l9.8,0.8l0,0l0,0l-3.1-11.2c0,0,0,0-0.1,0l-7.9,5.8L871.24,319.4z"/>
	<path class="st2" d="M868.74,325.2c-0.1,0-0.3,0-0.4-0.1c-0.2-0.1-0.3-0.3-0.4-0.5l-1.1-4l3-0.8l1.1,4c0.1,0.2,0,0.4-0.1,0.6
		s-0.3,0.3-0.5,0.4l0,0l-1.4,0.4C868.84,325.1,868.84,325.2,868.74,325.2z M867.64,321l0.9,3.3c0,0.1,0,0.1,0.1,0.1h0.1l1.4-0.4
		c0,0,0.1,0,0.1-0.1v-0.1l-0.9-3.3L867.64,321z"/>
	<path class="st2" d="M880.54,318.1l-2-7.2h0.5c1.7,0,3.2,1.1,3.6,2.7l0,0c0.5,1.6-0.2,3.3-1.7,4.2L880.54,318.1z M879.44,311.7
		l1.5,5.3c0.9-0.8,1.3-2,1-3.1l0,0C881.54,312.7,880.64,311.9,879.44,311.7z"/>
	<path class="st3" d="M853.34,323.3c-1.1,0-2.2-0.2-3.2-0.6c-3.5-1.2-5.9-4.3-6.4-8c0-0.1,0-0.3,0.1-0.3c0.1-0.1,0.2-0.1,0.4,0
		c0,0,0.1,0,0.2,0c0.4,0.1,0.9-0.2,1.3-0.8c0.5-0.6,0.8-1.6,1-2.6l0,0l0,0c0,0,0,0,0-0.1c0.1-0.4,0.5-1.9,1.1-2.7
		c0.1-0.1,0.2-0.2,0.3-0.3c0.1-0.1,0.2-0.1,0.3,0c0.2,0.1,0.4,0.1,0.6,0.2l0,0l0,0c0.2,0.1,0.4,0.1,0.7,0.2l0,0c0.1,0,0.1,0,0.2,0
		c0.2,0.1,0.4,0.1,0.6,0.1c0.1,0,0.1,0,0.2,0c0.3,0.1,0.6,0.1,0.9,0.1c0.1,0,0.2,0,0.4,0s0.5,0,0.7,0c0.1,0,0.1,0,0.2,0h0.1
		c0.4,0,0.8,0,1.2,0c2.3-0.1,4.4-0.6,5.9-1.4c0.1-0.1,0.3,0,0.4,0.1c1.1,1.3,1.9,3,2.1,4.7v0.1c0.1,0.5,0.1,0.9,0.1,1.4l0,0
		c0,4.1-2.6,7.7-6.4,9.1C855.44,323.1,854.44,323.3,853.34,323.3z M844.44,315.1c0.5,3.2,2.7,5.8,5.8,6.9c1.9,0.7,4,0.7,6,0
		c3.6-1.3,6-4.7,6-8.4c0-0.4,0-0.8-0.1-1.2v-0.1c-0.2-1.5-0.8-3-1.8-4.2c-1.6,0.8-3.7,1.3-6,1.4c-0.4,0-0.9,0-1.3,0h-0.1
		c-0.1,0-0.1,0-0.2,0c-0.2,0-0.5,0-0.8-0.1c-0.1,0-0.2,0-0.4,0c-0.3,0-0.6-0.1-1-0.1c-0.1,0-0.2,0-0.2,0c-0.2,0-0.4-0.1-0.6-0.1
		c-0.1,0-0.1,0-0.2-0.1l0,0c-0.2-0.1-0.5-0.1-0.7-0.2l0,0l0,0c-0.2-0.1-0.3-0.1-0.4-0.2c0,0,0,0,0,0.1c-0.5,0.6-0.9,1.9-0.9,2.4v0.1
		c-0.2,1.1-0.6,2.1-1.1,2.9C845.74,314.8,845.14,315.1,844.44,315.1L844.44,315.1z M846.64,311.1L846.64,311.1L846.64,311.1z"/>
	<path class="st3" d="M844.54,315.1c-0.1,0-0.2,0-0.2,0c-0.1,0-0.2-0.1-0.3-0.1c-1.1-0.5-1.7-2.4-1.3-4.6c0.3-1.4,0.9-2.7,1.6-3.9
		c0.6-1,1.4-2,2.2-2.8c1.5-1.4,4.4-2.4,7.6-2.5c4.9-0.2,8.9,1.5,9,3.8l0,0c0,1.1-0.8,2.2-2.4,3.1c-1.6,0.9-3.8,1.4-6.2,1.5
		c-0.4,0-0.9,0-1.3,0h-0.1c-0.1,0-0.1,0-0.2,0c-0.2,0-0.5,0-0.8-0.1c-0.1,0-0.2,0-0.4,0c-0.3,0-0.6-0.1-1-0.1c-0.1,0-0.2,0-0.2,0
		c-0.2,0-0.4-0.1-0.6-0.1c-0.1,0-0.1,0-0.2-0.1l0,0c-0.2-0.1-0.5-0.1-0.7-0.2l0,0l0,0c-0.2-0.1-0.3-0.1-0.4-0.2c0,0,0,0,0,0.1
		c-0.4,0.6-0.8,1.9-0.9,2.4v0.1c-0.2,1.1-0.6,2.1-1.1,2.9C845.74,314.8,845.14,315.1,844.54,315.1z M854.74,301.8
		c-0.2,0-0.5,0-0.8,0c-3,0.1-5.9,1-7.2,2.3c-0.8,0.8-1.5,1.7-2.1,2.7c-0.7,1.2-1.2,2.4-1.5,3.7c-0.3,2,0.2,3.6,0.9,3.9
		c0.1,0,0.1,0,0.2,0.1c0.4,0.1,0.9-0.2,1.3-0.8c0.5-0.6,0.8-1.6,1-2.6c0,0,0,0,0-0.1c0.1-0.4,0.5-1.9,1.1-2.7
		c0.1-0.1,0.2-0.2,0.3-0.3c0.1-0.1,0.2-0.1,0.3,0c0.2,0.1,0.4,0.1,0.6,0.2l0,0l0,0c0.2,0.1,0.4,0.1,0.7,0.2c0.1,0,0.2,0,0.2,0.1
		c0.2,0,0.4,0.1,0.6,0.1c0.1,0,0.1,0,0.2,0c0.3,0.1,0.6,0.1,0.9,0.1c0.1,0,0.2,0,0.4,0c0.3,0,0.5,0,0.7,0c0.1,0,0.1,0,0.2,0h0.1
		c0.4,0,0.8,0,1.2,0c2.3-0.1,4.4-0.6,5.9-1.4c1.3-0.7,2-1.6,2-2.4l0,0C862.14,303.2,858.84,301.8,854.74,301.8z"/>
</g>
<g>
	<path class="st9" d="M724.84,308.3c0-1.7,0-3.4,0-5.1c0-0.2,0.1-0.2,0.2-0.2c1.3,0,2.5,0.1,3.8,0.4c1,0.2,1.9,0.5,2.8,0.8
		c1.2,0.4,2.3,1,3.4,1.7c0.7,0.5,1.4,1,2.1,1.5c0.7,0.6,1.3,1.2,1.9,1.9c0.3,0.4,0.7,0.8,1,1.2c0.9,1.1,1.6,2.4,2.2,3.7
		c0.5,1.2,0.9,2.4,1.2,3.7c0.2,0.8,0.3,1.7,0.3,2.5c0,0.4,0,0.7,0,1.1c0,0.2-0.1,0.2-0.2,0.2c-1.7,0-3.4,0-5.1,0c0-0.2,0-0.4,0-0.6
		c0-1.3-0.3-2.5-0.7-3.7c-0.7-1.9-1.7-3.6-3.2-5.1c-1.2-1.2-2.6-2.1-4.1-2.8C728.64,308.7,726.74,308.3,724.84,308.3z"/>
	<path class="st10" d="M724.84,308.3c1.9,0,3.8,0.4,5.6,1.2c1.5,0.7,2.9,1.6,4.1,2.8c1.4,1.4,2.5,3.1,3.2,5.1
		c0.4,1.2,0.7,2.4,0.7,3.7c0,0.2,0,0.4,0,0.6c-0.1,0.1-0.2,0-0.3,0c-2,0-4.1,0-6.1,0c-0.2,0-0.3-0.1-0.3-0.3
		c-0.1-1.9-0.8-3.6-2.2-4.9c-1-0.9-2.2-1.5-3.5-1.7c-0.4-0.1-0.7-0.1-1.1-0.1c-0.1,0-0.2,0-0.2-0.2
		C724.84,312.5,724.84,310.4,724.84,308.3z"/>
	<path class="st1" d="M724.64,325.2c-1.9,0.1-3.5-1.7-3.5-3.4c0-1.7,1.4-3.5,3.5-3.6c1.9,0,3.6,1.6,3.6,3.5
		C728.14,323.7,726.44,325.3,724.64,325.2z"/>
</g>
</svg>
