<?xml version="1.0" encoding="UTF-8"?>
<svg width="126px" height="50px" viewBox="0 0 126 50" version="1.1" xmlns="http://www.w3.org/2000/svg" xmlns:xlink="http://www.w3.org/1999/xlink">
    <title>logo</title>
    <g id="Symbols" stroke="none" stroke-width="1" fill="none" fill-rule="evenodd">
        <g id="Nav" transform="translate(-30.000000, -13.000000)">
            <g id="Group" transform="translate(30.000000, 13.000000)">
                <g id="logo">
                    <path d="M11.0890328,25.3011979 C14.4208033,25.3011979 16.8845164,26.5892188 18.5276803,28.6605729 L18.5276803,25.9449479 L24.4145656,25.9449479 L24.4145656,48.9590104 L18.5276803,48.9590104 L18.5276803,46.2433854 C16.8845164,48.3136979 14.4208033,49.6032812 11.0890328,49.6032812 C5.01986066,49.6032812 0,44.3100521 0,37.4522396 C0,30.5939063 5.01986066,25.3011979 11.0890328,25.3011979 Z M46.5478598,25.9450521 L46.5478598,39.3388021 C46.5478598,42.4690104 48.4187533,44.0799479 51.0657861,44.0799479 C53.9410648,44.0799479 56.0856467,42.3773438 56.0856467,38.3721354 L56.0856467,25.9450521 L61.972532,25.9450521 L61.972532,48.9591146 L56.0856467,48.9591146 L56.0856467,46.3809896 C54.7166877,48.4528646 52.3438598,49.6033854 49.2862943,49.6033854 C44.4487205,49.6033854 40.6609746,46.1971354 40.6609746,40.0752604 L40.6609746,25.9450521 L46.5478598,25.9450521 Z M78.219509,25.3011979 C82.6909598,25.3011979 86.5701074,27.6939063 88.4415172,31.2381771 L83.3756975,34.2298438 C82.4632303,32.3423438 80.5009352,31.1465104 78.17355,31.1465104 C74.6594926,31.1465104 72.0584189,33.7704687 72.0584189,37.4522396 C72.0584189,41.0881771 74.6594926,43.7121354 78.17355,43.7121354 C80.5463779,43.7121354 82.508673,42.5616146 83.4211402,40.6741146 L88.5324025,43.6199479 C86.5701074,47.2090104 82.6909598,49.6032812 78.219509,49.6032812 C71.2827959,49.6032812 66.1715336,44.3100521 66.1715336,37.4522396 C66.1715336,30.5939063 71.2827959,25.3011979 78.219509,25.3011979 Z M113.769015,25.3011979 C120.477482,25.3011979 125.862433,30.5939063 125.862433,37.4522396 C125.862433,44.3100521 120.477482,49.6032812 113.769015,49.6032812 C107.060548,49.6032812 101.721556,44.3100521 101.721556,37.4522396 C101.721556,30.5939063 107.060548,25.3011979 113.769015,25.3011979 Z M97.5229672,25.9450521 L97.5229672,48.9591146 L91.636082,48.9591146 L91.636082,25.9450521 L97.5229672,25.9450521 Z M35.640959,15.3585938 L35.640959,48.9585938 L29.7540738,48.9585938 L29.7540738,15.3585938 L35.640959,15.3585938 Z M12.1843033,30.9621354 C8.57936066,30.9621354 5.88688525,33.5850521 5.88688525,37.4522396 C5.88688525,41.3178646 8.57936066,43.9418229 12.1843033,43.9418229 C15.8352049,43.9418229 18.5276803,41.3178646 18.5276803,37.4522396 C18.5276803,33.5850521 15.8352049,30.9621354 12.1843033,30.9621354 Z M113.769015,31.1001563 C110.300916,31.1001563 107.608441,33.7241146 107.608441,37.4522396 C107.608441,41.1798438 110.300916,43.8038021 113.769015,43.8038021 C117.283072,43.8038021 119.975548,41.1798438 119.975548,37.4522396 C119.975548,33.7241146 117.283072,31.1001563 113.769015,31.1001563 Z M94.5565451,15.88 C96.5647992,15.88 98.2074467,17.583125 98.2074467,19.5622917 C98.2074467,21.5414583 96.5647992,23.1977083 94.5565451,23.1977083 C92.59425,23.1977083 90.9516025,21.5414583 90.9516025,19.5622917 C90.9516025,17.583125 92.59425,15.88 94.5565451,15.88 Z" id="Shape" fill="#412250"></path>
                    <path d="M94.7269549,-1.85037171e-15 L94.7269549,5.59322917 C102.668053,5.73020833 108.575078,11.6229167 108.71657,19.5390625 L114.29207,19.5390625 C114.19034,8.50833333 105.540234,0.0192708333 94.7269549,-1.85037171e-15" id="Fill-16" fill="#72C8E0"></path>
                    <path d="M94.7269549,5.59338542 L94.7269549,12.3152604 C98.7429467,12.3288021 101.826848,15.3006771 101.892947,19.5386979 L108.71657,19.5386979 C108.644275,11.6663021 102.444971,5.60692708 94.7269549,5.59338542" id="Fill-19" fill="#4997C6"></path>
                </g>
            </g>
        </g>
    </g>
</svg>